<svg width="27" height="14" viewBox="0 0 27 14" fill="none" xmlns="http://www.w3.org/2000/svg">
<path fill-rule="evenodd" clip-rule="evenodd" d="M7.52224 0.483696L8.7948 1.64404L3.09135 7.51505L2.84507 7.29047C2.66367 7.1251 2.63358 6.92878 2.6232 6.6379C2.61478 6.40196 2.35093 3.57271 4.76245 1.04395C6.14552 -0.40635 6.88751 -0.0951057 7.52224 0.483696Z" fill="url(#paint0_linear_4384_56274)"/>
<path fill-rule="evenodd" clip-rule="evenodd" d="M10.1862 0.512842L13.6753 3.69444C14.4007 4.35595 14.5223 5.54237 14.0513 6.43868C12.3082 9.75556 7.62784 11.1626 7.62784 11.1626C7.36292 11.2526 7.14723 11.3246 6.87008 11.0719L2.84739 7.40375C2.66599 7.23833 2.65611 6.96051 2.82522 6.78318L7.64776 0.599503C8.32425 -0.109867 9.46076 -0.14867 10.1862 0.512842Z" fill="#FF1616"/>
<path fill-rule="evenodd" clip-rule="evenodd" d="M3.10975 7.54767L6.88621 10.9913C7.06755 11.1566 7.07748 11.4345 6.90832 11.6118L4.7648 13.8596C4.59563 14.037 4.31152 14.0466 4.13018 13.8813L0.353718 10.4377C0.172374 10.2723 0.162439 9.99449 0.331548 9.8171L2.47512 7.56935C2.64423 7.39196 2.9284 7.38225 3.10975 7.54767Z" fill="#FC0231"/>
<path fill-rule="evenodd" clip-rule="evenodd" d="M1.99046 7.3291L6.09526 11.0722C6.27661 11.2375 6.28654 11.5154 6.11743 11.6927L4.73942 13.1378C4.57031 13.3151 4.2862 13.3248 4.1048 13.1594L0 9.41638L1.99046 7.3291Z" fill="#FF5134"/>
<path fill-rule="evenodd" clip-rule="evenodd" d="M1.69051 7.64844L5.59006 11.2043C5.70344 11.3077 5.70961 11.4813 5.60392 11.5922L4.60869 12.6358C4.50301 12.7467 4.32542 12.7527 4.21205 12.6494L0.3125 9.09347L1.69051 7.64844Z" fill="#1C8CEA"/>
<path fill-rule="evenodd" clip-rule="evenodd" d="M19.4774 0.483733L18.2047 1.64417L23.9086 7.51562L24.1549 7.29102C24.3363 7.12564 24.3664 6.92931 24.3768 6.6384C24.3852 6.40244 24.6491 3.57298 22.2374 1.04403C20.8542 -0.406381 20.1122 -0.095113 19.4774 0.483733Z" fill="url(#paint1_linear_4384_56274)"/>
<path fill-rule="evenodd" clip-rule="evenodd" d="M16.8132 0.512878L13.3239 3.69472C12.5984 4.35628 12.4768 5.54279 12.9479 6.43916C14.6911 9.7563 19.3718 11.1634 19.3718 11.1634C19.6367 11.2534 19.8524 11.3255 20.1296 11.0728L24.1526 7.40431C24.334 7.23887 24.3439 6.96103 24.1748 6.78369L19.3519 0.599545C18.6753 -0.109879 17.5387 -0.148684 16.8132 0.512878Z" fill="#006FCD"/>
<path fill-rule="evenodd" clip-rule="evenodd" d="M23.89 7.54768L20.1133 10.9916C19.9319 11.1569 19.922 11.4348 20.0912 11.6121L22.2349 13.8601C22.404 14.0375 22.6882 14.0472 22.8695 13.8818L26.6463 10.4379C26.8276 10.2725 26.8376 9.99468 26.6684 9.81729L24.5247 7.56936C24.3556 7.39196 24.0714 7.38225 23.89 7.54768Z" fill="#006FCD"/>
<path fill-rule="evenodd" clip-rule="evenodd" d="M25.0094 7.3291L20.9043 11.0724C20.7229 11.2378 20.713 11.5157 20.8821 11.6931L22.2602 13.1382C22.4293 13.3155 22.7135 13.3253 22.8949 13.1598L27 9.41654L25.0094 7.3291Z" fill="#006FCD"/>
<path fill-rule="evenodd" clip-rule="evenodd" d="M25.3094 7.6582L21.4095 11.2144C21.2962 11.3177 21.29 11.4914 21.3957 11.6023L22.391 12.646C22.4967 12.7568 22.6743 12.7629 22.7877 12.6595L26.6875 9.10334L25.3094 7.6582Z" fill="#FF5134"/>
<defs>
<linearGradient id="paint0_linear_4384_56274" x1="5.68343" y1="7.49732" x2="5.68343" y2="-0.0165673" gradientUnits="userSpaceOnUse">
<stop stop-color="#FF3434"/>
<stop offset="1" stop-color="#FF5858"/>
</linearGradient>
<linearGradient id="paint1_linear_4384_56274" x1="21.3163" y1="7.49789" x2="21.3163" y2="-0.0165686" gradientUnits="userSpaceOnUse">
<stop stop-color="#007AFF"/>
<stop offset="1" stop-color="#80BDFF"/>
</linearGradient>
</defs>
</svg>
