<svg width="40" height="40" viewBox="0 0 40 40" fill="none" xmlns="http://www.w3.org/2000/svg">
<rect width="40" height="40" rx="20" fill="#3D3D3D"/>
<path fill-rule="evenodd" clip-rule="evenodd" d="M14.5895 14.2082L15.7414 15.2394L10.5785 20.4571L10.3556 20.2576C10.1913 20.1106 10.1641 19.9361 10.1547 19.6776C10.1471 19.4679 9.90825 16.9535 12.0912 14.7061C13.3432 13.4172 14.0149 13.6938 14.5895 14.2082Z" fill="url(#paint0_linear_4383_59645)"/>
<path fill-rule="evenodd" clip-rule="evenodd" d="M16.9971 14.2348L20.1555 17.0623C20.8122 17.6502 20.9223 18.7046 20.4959 19.5012C18.918 22.449 14.6812 23.6994 14.6812 23.6994C14.4414 23.7794 14.2462 23.8435 13.9953 23.6189L10.3538 20.3589C10.1896 20.2119 10.1807 19.965 10.3337 19.8074L14.6993 14.3118C15.3116 13.6813 16.3404 13.6469 16.9971 14.2348Z" fill="#FF1616"/>
<path fill-rule="evenodd" clip-rule="evenodd" d="M10.5963 20.4857L14.0149 23.5461C14.179 23.6931 14.188 23.94 14.0349 24.0976L12.0945 26.0953C11.9414 26.2529 11.6842 26.2615 11.52 26.1146L8.10145 23.0541C7.93729 22.9072 7.9283 22.6603 8.08138 22.5026L10.0218 20.505C10.1749 20.3473 10.4321 20.3387 10.5963 20.4857Z" fill="#FC0231"/>
<path fill-rule="evenodd" clip-rule="evenodd" d="M9.5796 20.292L13.2954 23.6185C13.4595 23.7655 13.4685 24.0125 13.3155 24.1701L12.068 25.4543C11.915 25.6119 11.6578 25.6205 11.4936 25.4735L7.77777 22.147L9.5796 20.292Z" fill="#FF5134"/>
<path fill-rule="evenodd" clip-rule="evenodd" d="M9.30067 20.5762L12.8307 23.7364C12.9333 23.8282 12.9389 23.9826 12.8432 24.0811L11.9423 25.0086C11.8466 25.1071 11.6859 25.1125 11.5832 25.0206L8.05325 21.8604L9.30067 20.5762Z" fill="#1C8CEA"/>
<path fill-rule="evenodd" clip-rule="evenodd" d="M25.4102 14.2082L24.2581 15.2395L29.4215 20.4577L29.6444 20.258C29.8087 20.1111 29.8359 19.9366 29.8453 19.678C29.8529 19.4683 30.0918 16.9537 27.9086 14.7062C26.6565 13.4172 25.9848 13.6938 25.4102 14.2082Z" fill="url(#paint1_linear_4383_59645)"/>
<path fill-rule="evenodd" clip-rule="evenodd" d="M23.0024 14.2348L19.8437 17.0626C19.187 17.6505 19.0769 18.705 19.5033 19.5016C21.0813 22.4497 25.3184 23.7002 25.3184 23.7002C25.5583 23.7802 25.7535 23.8442 26.0044 23.6197L29.6462 20.3594C29.8104 20.2124 29.8193 19.9654 29.6662 19.8078L25.3004 14.3118C24.688 13.6813 23.6591 13.6468 23.0024 14.2348Z" fill="#006FCD"/>
<path fill-rule="evenodd" clip-rule="evenodd" d="M29.4035 20.4857L25.9847 23.5464C25.8205 23.6934 25.8115 23.9403 25.9647 24.0979L27.9052 26.0957C28.0583 26.2534 28.3155 26.262 28.4797 26.115L31.8985 23.0543C32.0627 22.9074 32.0717 22.6604 31.9186 22.5028L29.978 20.505C29.8249 20.3473 29.5677 20.3387 29.4035 20.4857Z" fill="#006FCD"/>
<path fill-rule="evenodd" clip-rule="evenodd" d="M30.4203 20.292L26.7042 23.6188C26.54 23.7658 26.531 24.0128 26.6841 24.1704L27.9316 25.4547C28.0847 25.6123 28.3419 25.6209 28.5062 25.4739L32.2222 22.1472L30.4203 20.292Z" fill="#006FCD"/>
<path fill-rule="evenodd" clip-rule="evenodd" d="M30.6992 20.584L27.169 23.7445C27.0663 23.8363 27.0608 23.9906 27.1564 24.0892L28.0574 25.0167C28.1531 25.1153 28.3139 25.1206 28.4165 25.0288L31.9467 21.8683L30.6992 20.584Z" fill="#FF5134"/>
<defs>
<linearGradient id="paint0_linear_4383_59645" x1="12.9249" y1="20.4414" x2="12.9249" y2="13.7636" gradientUnits="userSpaceOnUse">
<stop stop-color="#FF3434"/>
<stop offset="1" stop-color="#FF5858"/>
</linearGradient>
<linearGradient id="paint1_linear_4383_59645" x1="27.0749" y1="20.4419" x2="27.0749" y2="13.7636" gradientUnits="userSpaceOnUse">
<stop stop-color="#007AFF"/>
<stop offset="1" stop-color="#80BDFF"/>
</linearGradient>
</defs>
</svg>
