<svg width="104" height="34" viewBox="0 0 104 34" fill="none" xmlns="http://www.w3.org/2000/svg">
<rect x="0.5" y="0.5" width="103" height="33" rx="16.5" stroke="url(#paint0_linear_4306_58607)"/>
<path d="M25.8444 18.888C25.8444 19.5387 25.7644 20.1253 25.6044 20.648C25.4444 21.1707 25.2044 21.616 24.8844 21.984C24.5698 22.352 24.1751 22.6347 23.7004 22.832C23.2258 23.0293 22.6738 23.128 22.0444 23.128C21.7564 23.128 21.4738 23.1093 21.1964 23.072C20.9191 23.04 20.6284 22.9867 20.3244 22.912C20.3404 22.6987 20.3591 22.4853 20.3804 22.272C20.4018 22.0587 20.4204 21.8453 20.4364 21.632C20.4524 21.5147 20.4978 21.4213 20.5724 21.352C20.6524 21.2773 20.7644 21.24 20.9084 21.24C20.9991 21.24 21.1164 21.2587 21.2604 21.296C21.4098 21.3333 21.5964 21.352 21.8204 21.352C22.1244 21.352 22.3938 21.3093 22.6284 21.224C22.8631 21.1333 23.0578 20.992 23.2124 20.8C23.3724 20.608 23.4924 20.36 23.5724 20.056C23.6524 19.7467 23.6924 19.3733 23.6924 18.936V11.432H25.8444V18.888ZM31.3658 14.664C31.9738 14.664 32.5258 14.7627 33.0218 14.96C33.5231 15.1573 33.9498 15.4373 34.3018 15.8C34.6591 16.1627 34.9338 16.6053 35.1258 17.128C35.3178 17.6507 35.4138 18.2347 35.4138 18.88C35.4138 19.5307 35.3178 20.1173 35.1258 20.64C34.9338 21.1627 34.6591 21.608 34.3018 21.976C33.9498 22.344 33.5231 22.6267 33.0218 22.824C32.5258 23.0213 31.9738 23.12 31.3658 23.12C30.7525 23.12 30.1951 23.0213 29.6938 22.824C29.1925 22.6267 28.7631 22.344 28.4058 21.976C28.0538 21.608 27.7791 21.1627 27.5818 20.64C27.3898 20.1173 27.2938 19.5307 27.2938 18.88C27.2938 18.2347 27.3898 17.6507 27.5818 17.128C27.7791 16.6053 28.0538 16.1627 28.4058 15.8C28.7631 15.4373 29.1925 15.1573 29.6938 14.96C30.1951 14.7627 30.7525 14.664 31.3658 14.664ZM31.3658 21.6C32.0485 21.6 32.5525 21.3707 32.8778 20.912C33.2085 20.4533 33.3738 19.7813 33.3738 18.896C33.3738 18.0107 33.2085 17.336 32.8778 16.872C32.5525 16.408 32.0485 16.176 31.3658 16.176C30.6725 16.176 30.1578 16.4107 29.8218 16.88C29.4911 17.344 29.3258 18.016 29.3258 18.896C29.3258 19.776 29.4911 20.448 29.8218 20.912C30.1578 21.3707 30.6725 21.6 31.3658 21.6ZM38.9693 14.792V23H36.9853V14.792H38.9693ZM39.2413 12.4C39.2413 12.5707 39.2066 12.7307 39.1373 12.88C39.068 13.0293 38.9746 13.16 38.8573 13.272C38.7453 13.384 38.612 13.4747 38.4573 13.544C38.3026 13.608 38.1373 13.64 37.9613 13.64C37.7906 13.64 37.628 13.608 37.4733 13.544C37.324 13.4747 37.1933 13.384 37.0813 13.272C36.9693 13.16 36.8786 13.0293 36.8093 12.88C36.7453 12.7307 36.7133 12.5707 36.7133 12.4C36.7133 12.224 36.7453 12.0587 36.8093 11.904C36.8786 11.7493 36.9693 11.616 37.0813 11.504C37.1933 11.392 37.324 11.304 37.4733 11.24C37.628 11.1707 37.7906 11.136 37.9613 11.136C38.1373 11.136 38.3026 11.1707 38.4573 11.24C38.612 11.304 38.7453 11.392 38.8573 11.504C38.9746 11.616 39.068 11.7493 39.1373 11.904C39.2066 12.0587 39.2413 12.224 39.2413 12.4ZM42.8318 15.8C42.9971 15.6347 43.1705 15.4827 43.3518 15.344C43.5385 15.2 43.7331 15.08 43.9358 14.984C44.1438 14.8827 44.3651 14.8053 44.5998 14.752C44.8345 14.6933 45.0905 14.664 45.3678 14.664C45.8158 14.664 46.2131 14.7413 46.5598 14.896C46.9065 15.0453 47.1945 15.2587 47.4238 15.536C47.6585 15.808 47.8345 16.136 47.9518 16.52C48.0745 16.8987 48.1358 17.3173 48.1358 17.776V23H46.1598V17.776C46.1598 17.2747 46.0451 16.888 45.8158 16.616C45.5865 16.3387 45.2371 16.2 44.7678 16.2C44.4265 16.2 44.1065 16.2773 43.8078 16.432C43.5091 16.5867 43.2265 16.7973 42.9598 17.064V23H40.9838V14.792H42.1918C42.4478 14.792 42.6158 14.912 42.6958 15.152L42.8318 15.8ZM55.7537 15.8C55.919 15.6347 56.0924 15.4827 56.2737 15.344C56.4604 15.2 56.655 15.08 56.8577 14.984C57.0657 14.8827 57.287 14.8053 57.5217 14.752C57.7564 14.6933 58.0124 14.664 58.2897 14.664C58.7377 14.664 59.135 14.7413 59.4817 14.896C59.8284 15.0453 60.1164 15.2587 60.3457 15.536C60.5804 15.808 60.7564 16.136 60.8737 16.52C60.9964 16.8987 61.0577 17.3173 61.0577 17.776V23H59.0817V17.776C59.0817 17.2747 58.967 16.888 58.7377 16.616C58.5084 16.3387 58.159 16.2 57.6897 16.2C57.3484 16.2 57.0284 16.2773 56.7297 16.432C56.431 16.5867 56.1484 16.7973 55.8817 17.064V23H53.9057V14.792H55.1137C55.3697 14.792 55.5377 14.912 55.6177 15.152L55.7537 15.8ZM66.5689 14.664C67.1769 14.664 67.7289 14.7627 68.2249 14.96C68.7263 15.1573 69.1529 15.4373 69.5049 15.8C69.8623 16.1627 70.1369 16.6053 70.3289 17.128C70.5209 17.6507 70.6169 18.2347 70.6169 18.88C70.6169 19.5307 70.5209 20.1173 70.3289 20.64C70.1369 21.1627 69.8623 21.608 69.5049 21.976C69.1529 22.344 68.7263 22.6267 68.2249 22.824C67.7289 23.0213 67.1769 23.12 66.5689 23.12C65.9556 23.12 65.3983 23.0213 64.8969 22.824C64.3956 22.6267 63.9663 22.344 63.6089 21.976C63.2569 21.608 62.9823 21.1627 62.7849 20.64C62.5929 20.1173 62.4969 19.5307 62.4969 18.88C62.4969 18.2347 62.5929 17.6507 62.7849 17.128C62.9823 16.6053 63.2569 16.1627 63.6089 15.8C63.9663 15.4373 64.3956 15.1573 64.8969 14.96C65.3983 14.7627 65.9556 14.664 66.5689 14.664ZM66.5689 21.6C67.2516 21.6 67.7556 21.3707 68.0809 20.912C68.4116 20.4533 68.5769 19.7813 68.5769 18.896C68.5769 18.0107 68.4116 17.336 68.0809 16.872C67.7556 16.408 67.2516 16.176 66.5689 16.176C65.8756 16.176 65.3609 16.4107 65.0249 16.88C64.6943 17.344 64.5289 18.016 64.5289 18.896C64.5289 19.776 64.6943 20.448 65.0249 20.912C65.3609 21.3707 65.8756 21.6 66.5689 21.6ZM83.7038 14.792L81.0958 23H79.5118C79.3305 23 79.2051 22.8827 79.1358 22.648L77.6638 17.904C77.6158 17.744 77.5705 17.5867 77.5278 17.432C77.4905 17.272 77.4585 17.112 77.4318 16.952C77.3998 17.112 77.3625 17.2747 77.3198 17.44C77.2825 17.6 77.2398 17.76 77.1918 17.92L75.6958 22.648C75.6318 22.8827 75.4905 23 75.2718 23H73.7518L71.1518 14.792H72.7278C72.8718 14.792 72.9945 14.8267 73.0958 14.896C73.1971 14.9653 73.2638 15.0533 73.2958 15.16L74.4718 19.544C74.5305 19.784 74.5811 20.0187 74.6238 20.248C74.6718 20.4773 74.7118 20.7067 74.7438 20.936C74.8025 20.7067 74.8638 20.4773 74.9278 20.248C74.9971 20.0187 75.0691 19.784 75.1438 19.544L76.5038 15.144C76.5358 15.0373 76.5971 14.9493 76.6878 14.88C76.7838 14.8107 76.8985 14.776 77.0318 14.776H77.9038C78.0425 14.776 78.1598 14.8107 78.2558 14.88C78.3571 14.9493 78.4238 15.0373 78.4558 15.144L79.7758 19.544C79.8451 19.784 79.9091 20.0213 79.9678 20.256C80.0318 20.4853 80.0931 20.7147 80.1518 20.944C80.2211 20.4907 80.3198 20.024 80.4478 19.544L81.6558 15.16C81.6931 15.0533 81.7598 14.9653 81.8558 14.896C81.9518 14.8267 82.0665 14.792 82.1998 14.792H83.7038Z" fill="#B0D2F0"/>
<defs>
<linearGradient id="paint0_linear_4306_58607" x1="105.241" y1="16.8758" x2="1.24097" y2="16.8758" gradientUnits="userSpaceOnUse">
<stop stop-color="#0075FF"/>
<stop offset="1" stop-color="#FF2400"/>
</linearGradient>
</defs>
</svg>
