<svg width="36" height="36" viewBox="0 0 36 36" fill="none" xmlns="http://www.w3.org/2000/svg">
<rect width="36" height="36" rx="18" fill="#121212"/>
<path d="M26.3333 22.1014V24.6014C26.3343 24.8335 26.2867 25.0632 26.1937 25.2758C26.1008 25.4885 25.9644 25.6794 25.7934 25.8363C25.6224 25.9932 25.4205 26.1126 25.2006 26.187C24.9808 26.2613 24.7478 26.2889 24.5167 26.268C21.9523 25.9894 19.4892 25.1132 17.325 23.7097C15.3115 22.4303 13.6044 20.7232 12.325 18.7097C10.9166 16.5357 10.0402 14.0605 9.76665 11.4847C9.74583 11.2543 9.77321 11.022 9.84707 10.8027C9.92092 10.5835 10.0396 10.382 10.1956 10.2111C10.3516 10.0402 10.5415 9.90364 10.7531 9.81015C10.9648 9.71666 11.1936 9.66827 11.425 9.66805H13.925C14.3294 9.66407 14.7215 9.80728 15.0281 10.071C15.3348 10.3347 15.535 10.7009 15.5917 11.1014C15.6972 11.9014 15.8929 12.687 16.175 13.443C16.2871 13.7413 16.3114 14.0655 16.2449 14.3771C16.1784 14.6888 16.024 14.9748 15.8 15.2014L14.7417 16.2597C15.9279 18.346 17.6554 20.0734 19.7417 21.2597L20.8 20.2014C21.0266 19.9773 21.3126 19.8229 21.6243 19.7565C21.9359 19.69 22.26 19.7143 22.5583 19.8264C23.3144 20.1085 24.0999 20.3042 24.9 20.4097C25.3048 20.4668 25.6745 20.6707 25.9388 20.9826C26.203 21.2945 26.3435 21.6927 26.3333 22.1014Z" stroke="white" stroke-width="1.42857" stroke-linecap="round" stroke-linejoin="round"/>
</svg>
