<svg width="24" height="24" viewBox="0 0 24 24" fill="none" xmlns="http://www.w3.org/2000/svg">
<path d="M17.7417 4.25977C17.911 4.3711 18.0758 4.49132 18.236 4.62043C21.596 7.32843 21.5867 12.9148 18.2157 17.0971C14.8447 21.2794 9.38771 22.4754 6.02771 19.7674C5.7689 19.5589 5.52683 19.3304 5.30371 19.0841" stroke="#FFEDC3" stroke-width="0.341379" stroke-miterlimit="10"/>
<path d="M17.12 16.1735C20.4741 12.0121 20.6232 6.56724 17.4529 4.012C14.2827 1.45677 8.99365 2.75882 5.63955 6.92021C2.28544 11.0816 2.1364 16.5265 5.30664 19.0817C8.47688 21.637 13.7659 20.3349 17.12 16.1735Z" stroke="#FFEDC3" stroke-width="0.341379" stroke-miterlimit="10"/>
<path d="M17.1187 16.1719L18.214 17.0969" stroke="#FFEDC3" stroke-width="0.341379" stroke-miterlimit="10"/>
<path d="M15.9678 17.4199L16.9331 18.4576" stroke="#FFEDC3" stroke-width="0.341379" stroke-miterlimit="10"/>
<path d="M14.749 18.4355L15.5417 19.5429" stroke="#FFEDC3" stroke-width="0.341379" stroke-miterlimit="10"/>
<path d="M13.4097 19.3281L14.0337 20.4428" stroke="#FFEDC3" stroke-width="0.341379" stroke-miterlimit="10"/>
<path d="M18.0068 14.9258L19.1698 15.7304" stroke="#FFEDC3" stroke-width="0.341379" stroke-miterlimit="10"/>
<path d="M15.7108 9.48206C15.7108 9.48206 15.1217 10.0265 14.6017 10.1452C13.6642 10.3592 13.1768 9.26184 12.2046 9.35985C10.4467 9.53706 9.72876 11.5575 10.6573 12.8733C11.0204 13.3879 11.3315 13.7378 12.0079 13.9146C12.8469 14.1339 13.3204 13.0525 14.1009 13.4027C14.5945 13.6242 14.9596 14.3684 14.9596 14.3684C14.9596 14.3684 13.4754 15.5218 12.2494 15.619C10.1089 15.7888 8.42237 14.5482 7.64304 12.8267C6.58132 10.4815 8.53189 7.64821 11.4711 7.57982C13.3017 7.53722 15.7108 9.48206 15.7108 9.48206Z" fill="#FFD600"/>
<path d="M12.189 7.47334C12.8441 7.57407 13.4106 7.75026 13.8846 8.00573C14.3605 8.26021 14.7739 8.58474 15.1233 8.9777L15.2406 9.10837L15.1067 9.22116L14.4674 9.76115L14.4618 9.76524C14.3833 9.82603 14.3023 9.87451 14.2204 9.90893C14.2189 9.90961 14.2176 9.91057 14.2161 9.91123L14.2138 9.91287L14.213 9.91175C14.1086 9.95737 13.9857 9.95881 13.8639 9.94008C13.73 9.91945 13.6061 9.86698 13.4933 9.78628L13.4879 9.78249C13.4002 9.71486 13.2933 9.63861 13.1663 9.55422L13.1618 9.55155C13.0451 9.4694 12.8978 9.38879 12.7185 9.31148L12.7139 9.30977C12.5524 9.23446 12.337 9.17379 12.0625 9.13158C11.7171 9.07849 11.4134 9.08564 11.1489 9.14823L11.1459 9.14875C10.8806 9.20757 10.6529 9.31625 10.4597 9.47306C10.3188 9.59148 10.1955 9.73679 10.0902 9.91027L9.99072 10.0946C9.86658 10.3485 9.77595 10.6499 9.72197 11.0008C9.66611 11.3641 9.66258 11.6895 9.70811 11.9778L9.75476 12.1885C9.80978 12.3901 9.88938 12.5685 9.99241 12.725C10.1308 12.9294 10.3116 13.0984 10.5359 13.2324L10.7117 13.3227C10.8965 13.4051 11.1056 13.4642 11.3395 13.5002C11.6593 13.5493 11.9093 13.5553 12.0954 13.5255C12.3042 13.4893 12.4767 13.4449 12.6147 13.3929C12.7637 13.3325 12.8914 13.2782 12.9983 13.2306C13.1455 13.1638 13.302 13.1429 13.4625 13.1675C13.6624 13.1984 13.8279 13.29 13.9279 13.4565L14.4258 14.1703L14.523 14.3097L14.3845 14.407C14.1106 14.6013 13.8213 14.7569 13.5165 14.8733L13.5142 14.8749C13.2135 14.9853 12.9053 15.0648 12.5902 15.1142L12.5892 15.1141C12.2811 15.1596 11.9654 15.1778 11.6434 15.1673C11.3298 15.1577 11.019 15.1286 10.7111 15.0813C10.164 14.9972 9.65894 14.8346 9.19758 14.5917L9.19676 14.5906C8.73558 14.3426 8.34467 14.0259 8.02683 13.64C7.70806 13.2531 7.47746 12.8058 7.33463 12.3006L7.33411 12.2975C7.19668 11.7836 7.17599 11.2245 7.26837 10.6236C7.35158 10.0827 7.52179 9.59291 7.78037 9.15699L7.78148 9.15617C8.04697 8.71585 8.39115 8.35294 8.81302 8.06983C9.23624 7.78174 9.73252 7.58467 10.2984 7.47614C10.8682 7.36687 11.4993 7.36731 12.189 7.47334Z" stroke="#FFEDC3" stroke-width="0.341379"/>
</svg>
