<svg width="72" height="36" viewBox="0 0 72 36" fill="none" xmlns="http://www.w3.org/2000/svg">
<rect width="72" height="36" rx="18" fill="#3D3D3D" fill-opacity="0.5"/>
<path fill-rule="evenodd" clip-rule="evenodd" d="M19.5222 11.4837L20.7947 12.644L15.0913 18.515L14.845 18.2905C14.6636 18.1251 14.6335 17.9288 14.6232 17.6379C14.6147 17.402 14.3509 14.5727 16.7624 12.0439C18.1455 10.5936 18.8875 10.9049 19.5222 11.4837Z" fill="url(#paint0_linear_4383_60479)"/>
<path fill-rule="evenodd" clip-rule="evenodd" d="M22.1862 11.5128L25.6753 14.6944C26.4007 15.356 26.5223 16.5424 26.0513 17.4387C24.3082 20.7556 19.6278 22.1626 19.6278 22.1626C19.3629 22.2526 19.1472 22.3246 18.8701 22.0719L14.8474 18.4037C14.666 18.2383 14.6561 17.9605 14.8252 17.7832L19.6478 11.5995C20.3243 10.8901 21.4608 10.8513 22.1862 11.5128Z" fill="#FF1616"/>
<path fill-rule="evenodd" clip-rule="evenodd" d="M15.1096 18.5477L18.886 21.9913C19.0674 22.1566 19.0773 22.4345 18.9081 22.6118L16.7646 24.8596C16.5955 25.037 16.3113 25.0466 16.13 24.8813L12.3535 21.4377C12.1722 21.2723 12.1623 20.9945 12.3314 20.8171L14.4749 18.5693C14.6441 18.392 14.9282 18.3822 15.1096 18.5477Z" fill="#FC0231"/>
<path fill-rule="evenodd" clip-rule="evenodd" d="M13.9904 18.3291L18.0952 22.0722C18.2765 22.2375 18.2865 22.5154 18.1173 22.6927L16.7393 24.1378C16.5702 24.3151 16.2861 24.3248 16.1047 24.1594L11.9999 20.4164L13.9904 18.3291Z" fill="#FF5134"/>
<path fill-rule="evenodd" clip-rule="evenodd" d="M13.6906 18.6484L17.5902 22.2043C17.7035 22.3077 17.7097 22.4813 17.604 22.5922L16.6088 23.6358C16.5031 23.7467 16.3255 23.7527 16.2121 23.6494L12.3126 20.0935L13.6906 18.6484Z" fill="#1C8CEA"/>
<path fill-rule="evenodd" clip-rule="evenodd" d="M31.4773 11.4837L30.2047 12.6442L35.9086 18.5156L36.1549 18.291C36.3363 18.1256 36.3664 17.9293 36.3768 17.6384C36.3852 17.4024 36.649 14.573 34.2373 12.044C32.8542 10.5936 32.1121 10.9049 31.4773 11.4837Z" fill="url(#paint1_linear_4383_60479)"/>
<path fill-rule="evenodd" clip-rule="evenodd" d="M28.8131 11.5129L25.3238 14.6947C24.5983 15.3563 24.4767 16.5428 24.9478 17.4392C26.6909 20.7563 31.3717 22.1634 31.3717 22.1634C31.6366 22.2534 31.8523 22.3255 32.1295 22.0728L36.1525 18.4043C36.3339 18.2389 36.3438 17.961 36.1747 17.7837L31.3518 11.5995C30.6752 10.8901 29.5386 10.8513 28.8131 11.5129Z" fill="#006FCD"/>
<path fill-rule="evenodd" clip-rule="evenodd" d="M35.8901 18.5477L32.1134 21.9916C31.932 22.1569 31.9221 22.4348 32.0913 22.6121L34.2349 24.8601C34.4041 25.0375 34.6883 25.0472 34.8696 24.8818L38.6464 21.4379C38.8277 21.2725 38.8377 20.9947 38.6685 20.8173L36.5248 18.5694C36.3557 18.392 36.0715 18.3822 35.8901 18.5477Z" fill="#006FCD"/>
<path fill-rule="evenodd" clip-rule="evenodd" d="M37.0094 18.3291L32.9043 22.0724C32.7229 22.2378 32.713 22.5157 32.8821 22.6931L34.2602 24.1382C34.4293 24.3155 34.7135 24.3253 34.8949 24.1598L39 20.4165L37.0094 18.3291Z" fill="#006FCD"/>
<path fill-rule="evenodd" clip-rule="evenodd" d="M37.3092 18.6582L33.4094 22.2144C33.296 22.3177 33.2898 22.4914 33.3955 22.6023L34.3908 23.646C34.4965 23.7568 34.6741 23.7629 34.7875 23.6595L38.6873 20.1033L37.3092 18.6582Z" fill="#FF5134"/>
<path d="M46.024 24V15.904H43.624V14.512H44.6C45.0267 14.512 45.3733 14.4587 45.64 14.352C45.9067 14.2347 46.0987 14.0427 46.216 13.776C46.3333 13.4987 46.392 13.12 46.392 12.64H47.752V24H46.024ZM54.4165 24.256C53.5205 24.256 52.7632 24.0587 52.1445 23.664C51.5258 23.2587 51.0565 22.6773 50.7365 21.92C50.4165 21.152 50.2565 20.224 50.2565 19.136C50.2565 18.1867 50.3365 17.3067 50.4965 16.496C50.6672 15.6747 50.9338 14.96 51.2965 14.352C51.6592 13.7333 52.1285 13.2533 52.7045 12.912C53.2912 12.56 54.0005 12.384 54.8325 12.384C55.8778 12.384 56.6938 12.64 57.2805 13.152C57.8672 13.6533 58.2725 14.3253 58.4965 15.168L56.7845 15.312C56.6565 14.896 56.4432 14.5653 56.1445 14.32C55.8565 14.0747 55.4192 13.952 54.8325 13.952C53.9578 13.952 53.2698 14.3253 52.7685 15.072C52.2672 15.8187 52.0005 16.96 51.9685 18.496L51.6645 18.432C51.7818 18.0693 51.9792 17.7387 52.2565 17.44C52.5338 17.1307 52.8805 16.8853 53.2965 16.704C53.7232 16.512 54.2085 16.416 54.7525 16.416C55.5098 16.416 56.1712 16.576 56.7365 16.896C57.3125 17.2053 57.7552 17.648 58.0645 18.224C58.3845 18.8 58.5445 19.472 58.5445 20.24C58.5445 21.072 58.3685 21.792 58.0165 22.4C57.6645 22.9973 57.1792 23.456 56.5605 23.776C55.9418 24.096 55.2272 24.256 54.4165 24.256ZM54.4325 22.72C55.1258 22.72 55.6858 22.5013 56.1125 22.064C56.5498 21.616 56.7685 21.008 56.7685 20.24C56.7685 19.76 56.6725 19.344 56.4805 18.992C56.2992 18.6293 56.0378 18.352 55.6965 18.16C55.3658 17.968 54.9818 17.872 54.5445 17.872C54.0645 17.872 53.6378 17.968 53.2645 18.16C52.8912 18.352 52.5978 18.6293 52.3845 18.992C52.1712 19.344 52.0645 19.76 52.0645 20.24C52.0645 20.72 52.1605 21.1467 52.3525 21.52C52.5445 21.8933 52.8165 22.1867 53.1685 22.4C53.5312 22.6133 53.9525 22.72 54.4325 22.72Z" fill="white"/>
<defs>
<linearGradient id="paint0_linear_4383_60479" x1="17.6834" y1="18.4973" x2="17.6834" y2="10.9834" gradientUnits="userSpaceOnUse">
<stop stop-color="#FF3434"/>
<stop offset="1" stop-color="#FF5858"/>
</linearGradient>
<linearGradient id="paint1_linear_4383_60479" x1="33.3163" y1="18.4979" x2="33.3163" y2="10.9834" gradientUnits="userSpaceOnUse">
<stop stop-color="#007AFF"/>
<stop offset="1" stop-color="#80BDFF"/>
</linearGradient>
</defs>
</svg>
