<svg width="136" height="44" viewBox="0 0 136 44" fill="none" xmlns="http://www.w3.org/2000/svg">
<g clip-path="url(#clip0_11723_161470)">
<path d="M29.2551 41.5278C26.6464 43.1429 23.5183 43.676 20.5279 43.0153C17.5375 42.3545 14.9174 40.5514 13.2181 37.9845L1.65314 20.4761C1.65314 20.4761 -2.24191 14.766 2.43696 13.7239C2.43696 13.7239 0.547138 9.58428 3.25925 7.75686C5.97135 5.92944 7.33222 7.44663 7.33222 7.44663C7.33222 7.44663 5.71169 3.56881 9.33264 2.03708C12.9536 0.505337 14.2231 3.16649 14.2231 3.16649C14.2231 3.16649 16.4736 -1.68078 20.2772 0.839798C24.0809 3.36038 29.0387 13.4427 29.0387 13.4427C29.0387 13.4427 30.337 9.9139 33.3184 9.94299C34.0966 9.97103 34.8491 10.231 35.4807 10.69C36.1124 11.149 36.5949 11.7864 36.8673 12.5217C38.9062 17.8537 38.5599 25.0229 36.7374 31.4503C35.6699 35.2555 34.2273 38.4692 29.2551 41.5278Z" fill="#A1A8C4"/>
<path d="M2.00977 13.8352C2.00977 13.8352 9.75178 24.698 11.9253 27.4076C11.9253 27.4076 2.53873 14.0291 2.41851 13.7383L2.00977 13.8352Z" fill="#1D1D1B"/>
<path d="M6.39941 6.94234L17.0314 21.8574C17.0314 21.8574 7.09186 7.26226 7.01011 6.1377L7.3323 7.44161L6.39941 6.94234Z" fill="#1D1D1B"/>
<path d="M13.5879 2.63818C13.5879 2.63818 13.7322 2.87085 13.9774 3.28286C15.5162 5.84223 20.7096 15.1102 21.8973 16.9328L14.3284 2.72059L14.1121 2.98234L13.5879 2.63818Z" fill="#1D1D1B"/>
<path d="M29.4621 18.4644C29.4621 18.4644 29.1111 14.1843 28.5869 12.5459L29.1592 13.147C29.5748 14.8869 29.6774 16.6879 29.4621 18.4644Z" fill="#1D1D1B"/>
<path d="M12.2756 41.9786C9.55042 40.5733 7.47147 38.1583 6.47528 35.2407C5.4791 32.323 5.64319 29.1298 6.93308 26.3316L15.7474 7.26725C15.7474 7.26725 18.5605 0.965785 21.8785 4.43159C21.8785 4.43159 24.4031 0.65072 27.3605 2.00796C30.3178 3.36519 29.7408 5.35258 29.7408 5.35258C29.7408 5.35258 32.1932 1.93525 35.3669 4.26195C38.5407 6.58864 36.9538 9.06074 36.9538 9.06074C36.9538 9.06074 42.2194 8.47907 42.0751 13.0597C41.9308 17.6404 35.944 27.1896 35.944 27.1896C35.944 27.1896 39.6082 26.4722 41.1326 29.0558C41.5145 29.7399 41.6864 30.5228 41.6265 31.3055C41.5666 32.0882 41.2775 32.8353 40.796 33.4522C37.3626 37.9651 31.217 39.395 24.6916 43.1856C22.6864 44.3538 17.4401 44.6398 12.2756 41.9786Z" fill="#006FCD"/>
<path d="M21.5656 4.13086C21.5656 4.13086 16.3963 16.4526 15.2422 19.7246C15.2422 19.7246 21.6955 4.69799 21.8782 4.43139L21.5656 4.13086Z" fill="#1D1D1B"/>
<path d="M29.6834 4.31006L22.5762 21.2271C22.5762 21.2271 29.7892 5.07593 30.6788 4.42155L29.7412 5.39101L29.6834 4.31006Z" fill="#1D1D1B"/>
<path d="M37.0695 8.28516L36.7281 8.95893C35.3624 11.6152 30.1978 20.8881 29.2842 22.8755L37.3868 8.96377L37.0502 8.9153L37.0695 8.28516Z" fill="#1D1D1B"/>
<path d="M31.9043 30.1706C31.9043 30.1706 35.3473 27.6403 36.4629 26.3364L36.2514 27.1459C34.994 28.4087 33.5215 29.4333 31.9043 30.1706Z" fill="#1D1D1B"/>
<path d="M65.7346 35.9346C64.8931 37.6878 63.6909 39.0252 62.1281 39.9469C60.5753 40.8686 58.737 41.3294 56.6131 41.3294C55.2407 41.3294 53.9683 41.134 52.7962 40.7433C51.6241 40.3526 50.5722 39.7766 49.6405 39.0152C48.3882 38.0034 47.4465 36.8262 46.8154 35.4838C46.1943 34.1314 45.8837 32.6337 45.8837 30.9907C45.8837 27.865 46.9006 25.3054 48.9342 23.3118C50.9779 21.3082 53.6027 20.3063 56.8085 20.3063C58.6518 20.3063 60.2547 20.677 61.6172 21.4184C62.9897 22.1497 64.1768 23.2867 65.1786 24.8295L62.624 26.7079C62.0129 25.4056 61.2666 24.4288 60.385 23.7776C59.5034 23.1264 58.4965 22.8009 57.3645 22.8009C55.6314 22.8009 54.2889 23.5021 53.3372 24.9047C52.3855 26.2972 51.9096 28.2708 51.9096 30.8254C51.9096 33.1796 52.4556 35.0781 53.5476 36.5207C54.6396 37.9633 56.0722 38.6846 57.8454 38.6846C58.9674 38.6846 59.9892 38.324 60.9109 37.6026C61.8326 36.8713 62.639 35.7944 63.3303 34.3718L65.7346 35.9346ZM68.9054 40.8335V20.7421H74.5406V38.1286H81.8288V40.8335H68.9054ZM88.2153 32.3431H93.1743L90.5746 25.1451L88.2153 32.3431ZM82.49 40.8335L89.3875 20.7421H94.8273L102.191 40.8335H96.2098L94.091 34.8978H87.3438L85.3451 40.8335H82.49ZM109.99 23.2366V30.1792H111.252C112.594 30.1792 113.586 29.9238 114.227 29.4128C114.869 28.9019 115.189 28.1105 115.189 27.0385C115.189 25.9065 114.813 24.9898 114.062 24.2886C113.321 23.5873 112.344 23.2366 111.132 23.2366H109.99ZM104.52 40.8335V20.7421H112.544C115.119 20.7421 117.118 21.3082 118.54 22.4402C119.963 23.5723 120.674 25.1601 120.674 27.2038C120.674 28.8769 120.103 30.2093 118.961 31.2011C117.829 32.1828 116.296 32.6737 114.363 32.6737H109.99V40.8335H104.52Z" fill="white"/>
<path d="M114.063 42.1282L117.526 34.4938H119.69L121.854 36.8931L126.037 28.3135H130.509V42.1282H126.037L126.018 36.8447L122.286 42.1282L119.185 38.4928L117.381 42.1282H114.063Z" fill="#A1A8C4"/>
<path d="M135.847 28.3135H131.015V42.1282H135.847V28.3135Z" fill="#A1A8C4"/>
<path d="M133.428 26.9228C135.819 26.9228 137.756 24.9697 137.756 22.5603C137.756 20.1509 135.819 18.1978 133.428 18.1978C131.038 18.1978 129.101 20.1509 129.101 22.5603C129.101 24.9697 131.038 26.9228 133.428 26.9228Z" fill="#A1A8C4"/>
</g>
<defs>
<clipPath id="clip0_11723_161470">
<rect width="136" height="44" fill="white"/>
</clipPath>
</defs>
</svg>
