<svg width="512" height="512" viewBox="0 0 512 512" fill="none" xmlns="http://www.w3.org/2000/svg">
<g clip-path="url(#clip0_12534_165350)">
<path d="M356.16 483.227C324.433 502.02 286.39 508.224 250.02 500.536C213.651 492.847 181.786 471.865 161.119 441.995L20.4667 238.262C20.4667 238.262 -26.9046 171.817 29.9995 159.69C29.9995 159.69 7.01556 111.521 40.0001 90.256C72.9846 68.9914 89.5353 86.646 89.5353 86.646C89.5353 86.646 69.8265 41.5223 113.864 23.6985C157.902 5.8746 173.342 36.8408 173.342 36.8408C173.342 36.8408 200.712 -19.5639 246.972 9.76652C293.232 39.0969 353.528 156.419 353.528 156.419C353.528 156.419 369.319 115.356 405.578 115.695C415.042 116.021 424.194 119.046 431.876 124.387C439.558 129.728 445.426 137.145 448.739 145.702C473.536 207.747 469.325 291.169 447.16 365.962C434.176 410.24 416.632 447.636 356.16 483.227Z" fill="#A1A8C4"/>
<path d="M24.8125 161.005C24.8125 161.005 118.97 287.408 145.405 318.938C145.405 318.938 31.2457 163.261 29.7836 159.877L24.8125 161.005Z" fill="#1D1D1B"/>
<path d="M78.1641 80.7987L207.47 254.356C207.47 254.356 86.5856 84.5214 85.5914 71.4355L89.5098 86.6084L78.1641 80.7987Z" fill="#1D1D1B"/>
<path d="M165.676 30.6875C165.676 30.6875 167.43 33.3948 170.413 38.1892C189.128 67.9709 252.289 175.817 266.735 197.025L174.682 31.6464L172.051 34.6922L165.676 30.6875Z" fill="#1D1D1B"/>
<path d="M358.703 214.87C358.703 214.87 354.433 165.065 348.059 146L355.018 152.994C360.073 173.241 361.321 194.198 358.703 214.87Z" fill="#1D1D1B"/>
<path d="M149.637 488.471C116.494 472.118 91.2103 444.016 79.0948 410.066C66.9793 376.115 68.9749 338.958 84.6626 306.396L191.862 84.5567C191.862 84.5567 226.075 11.2306 266.428 51.5599C266.428 51.5599 297.132 7.56438 333.099 23.3577C369.066 39.151 362.048 62.277 362.048 62.277C362.048 62.277 391.875 22.5117 430.473 49.5859C469.072 76.6601 449.773 105.426 449.773 105.426C449.773 105.426 513.812 98.6579 512.058 151.96C510.303 205.263 437.492 316.38 437.492 316.38C437.492 316.38 482.056 308.032 500.595 338.096C505.24 346.056 507.33 355.167 506.602 364.275C505.873 373.382 502.358 382.076 496.501 389.255C454.744 441.768 380.003 458.407 300.641 502.515C276.254 516.109 212.448 519.437 149.637 488.471Z" fill="#006FCD"/>
<path d="M262.671 48.0645C262.671 48.0645 199.802 191.445 185.766 229.518C185.766 229.518 264.25 54.6638 266.472 51.5615L262.671 48.0645Z" fill="#1D1D1B"/>
<path d="M361.379 50.1875L274.941 247.04C274.941 247.04 362.666 59.0995 373.486 51.4849L362.081 62.7658L361.379 50.1875Z" fill="#1D1D1B"/>
<path d="M451.184 96.4355L447.032 104.276C430.423 135.186 367.612 243.088 356.5 266.214L455.044 104.332L450.95 103.768L451.184 96.4355Z" fill="#1D1D1B"/>
<path d="M388.359 351.052C388.359 351.052 430.233 321.608 443.801 306.436L441.228 315.855C425.936 330.55 408.028 342.472 388.359 351.052Z" fill="#1D1D1B"/>
</g>
<defs>
<clipPath id="clip0_12534_165350">
<rect width="512" height="512" fill="white"/>
</clipPath>
</defs>
</svg>
