<svg width="52" height="59" viewBox="0 0 52 59" fill="none" xmlns="http://www.w3.org/2000/svg">
<path d="M9.24103 56.19C5.33335 54.2289 2.35225 50.8587 0.923785 46.7871C-0.50468 42.7156 -0.269392 38.2594 1.58024 34.3544L14.2195 7.74982C14.2195 7.74982 18.2533 -1.04396 23.0111 3.79262C23.0111 3.79262 26.6312 -1.48364 30.8719 0.410407C35.1125 2.30445 34.2851 5.07788 34.2851 5.07788C34.2851 5.07788 37.8017 0.308946 42.3527 3.55588C46.9036 6.80281 44.6282 10.2527 44.6282 10.2527C44.6282 10.2527 52.1786 9.44094 51.9718 15.8333C51.7649 22.2257 43.1801 35.5517 43.1801 35.5517C43.1801 35.5517 48.4344 34.5506 50.6203 38.156C51.1679 39.1107 51.4144 40.2033 51.3285 41.2956C51.2426 42.3878 50.8281 43.4304 50.1376 44.2914C45.2143 50.5891 36.402 52.5846 27.0449 57.8744C24.1696 59.5046 16.6467 59.9037 9.24103 56.19Z" fill="#006FCD"/>
</svg>
