<svg width="102" height="32" viewBox="0 0 102 32" fill="none" xmlns="http://www.w3.org/2000/svg">
<g clip-path="url(#clip0_8805_58858)">
<path d="M21.7252 30.2017C19.7879 31.3763 17.4648 31.764 15.244 31.2835C13.0232 30.8029 11.0774 29.4915 9.81538 27.6247L1.22672 14.8914C1.22672 14.8914 -1.66592 10.7386 1.80883 9.98063C1.80883 9.98063 0.405354 6.97003 2.41949 5.641C4.43363 4.31196 5.44427 5.41538 5.44427 5.41538C5.44427 5.41538 4.24079 2.59515 6.92988 1.48115C9.61897 0.367163 10.5618 2.30255 10.5618 2.30255C10.5618 2.30255 12.2331 -1.22274 15.0579 0.610407C17.8827 2.44356 21.5645 9.77617 21.5645 9.77617C21.5645 9.77617 22.5287 7.20976 24.7429 7.23091C25.3208 7.25131 25.8796 7.44035 26.3487 7.77416C26.8178 8.10798 27.1761 8.57157 27.3784 9.10636C28.8926 12.9842 28.6354 18.1981 27.282 22.8726C26.4892 25.64 25.4178 27.9772 21.7252 30.2017Z" fill="#A1A8C4"/>
<path d="M1.49219 10.0627C1.49219 10.0627 7.24177 17.9629 8.85594 19.9335C8.85594 19.9335 1.88502 10.2037 1.79574 9.99219L1.49219 10.0627Z" fill="#1D1D1B"/>
<path d="M4.75 5.05004L12.6458 15.8974C12.6458 15.8974 5.26424 5.28271 5.20353 4.46484L5.44281 5.41315L4.75 5.05004Z" fill="#1D1D1B"/>
<path d="M10.0938 1.91797C10.0938 1.91797 10.2009 2.08718 10.383 2.38683C11.5258 4.24818 15.3827 10.9885 16.2647 12.314L10.6437 1.9779L10.483 2.16826L10.0938 1.91797Z" fill="#1D1D1B"/>
<path d="M21.8804 13.4294C21.8804 13.4294 21.6197 10.3165 21.2305 9.125L21.6554 9.56213C21.9641 10.8276 22.0403 12.1374 21.8804 13.4294Z" fill="#1D1D1B"/>
<path d="M9.11412 30.5295C7.0903 29.5075 5.54637 27.7511 4.80656 25.6292C4.06675 23.5073 4.18861 21.185 5.14654 19.1499L11.6925 5.28491C11.6925 5.28491 13.7816 0.702034 16.2457 3.22262C16.2457 3.22262 18.1206 0.472896 20.3169 1.45998C22.5131 2.44706 22.0846 3.89243 22.0846 3.89243C22.0846 3.89243 23.9059 1.4071 26.2629 3.09924C28.6198 4.79138 27.4414 6.58928 27.4414 6.58928C27.4414 6.58928 31.3518 6.16624 31.2447 9.49764C31.1375 12.829 26.6914 19.7739 26.6914 19.7739C26.6914 19.7739 29.4126 19.2521 30.5447 21.1311C30.8283 21.6286 30.956 22.1981 30.9115 22.7673C30.867 23.3365 30.6523 23.8799 30.2947 24.3285C27.7449 27.6106 23.181 28.6505 18.3349 31.4073C16.8457 32.2569 12.9496 32.4649 9.11412 30.5295Z" fill="#006FCD"/>
<path d="M16.0164 3.00391C16.0164 3.00391 12.1774 11.9652 11.3203 14.3448C11.3203 14.3448 16.1128 3.41636 16.2485 3.22247L16.0164 3.00391Z" fill="#1D1D1B"/>
<path d="M22.0438 3.13477L16.7656 15.438C16.7656 15.438 22.1224 3.69177 22.783 3.21585L22.0867 3.92091L22.0438 3.13477Z" fill="#1D1D1B"/>
<path d="M27.5278 6.02539L27.2743 6.51541C26.2601 8.44727 22.4246 15.1912 21.7461 16.6365L27.7635 6.51893L27.5135 6.48367L27.5278 6.02539Z" fill="#1D1D1B"/>
<path d="M23.6914 21.9428C23.6914 21.9428 26.2484 20.1026 27.0769 19.1543L26.9197 19.743C25.9859 20.6614 24.8924 21.4066 23.6914 21.9428Z" fill="#1D1D1B"/>
<path d="M48.8153 25.9673C48.1903 27.2693 47.2975 28.2626 46.1369 28.947C44.9837 29.6315 43.6185 29.9737 42.0412 29.9737C41.0219 29.9737 40.0771 29.8287 39.2066 29.5385C38.3361 29.2484 37.5549 28.8206 36.863 28.2551C35.933 27.5037 35.2337 26.6295 34.765 25.6325C34.3037 24.6282 34.073 23.5159 34.073 22.2957C34.073 19.9745 34.8282 18.0736 36.3385 16.593C37.8563 15.105 39.8055 14.361 42.1863 14.361C43.5552 14.361 44.7456 14.6363 45.7575 15.1869C46.7767 15.73 47.6584 16.5744 48.4024 17.7202L46.5052 19.1152C46.0513 18.148 45.4971 17.4226 44.8424 16.939C44.1876 16.4554 43.4399 16.2136 42.5992 16.2136C41.3121 16.2136 40.3152 16.7344 39.6084 17.776C38.9016 18.8101 38.5482 20.2758 38.5482 22.173C38.5482 23.9214 38.9536 25.3312 39.7646 26.4026C40.5755 27.4739 41.6395 28.0096 42.9563 28.0096C43.7896 28.0096 44.5485 27.7418 45.2329 27.2061C45.9174 26.663 46.5163 25.8632 47.0297 24.8067L48.8153 25.9673ZM51.17 29.6055V14.6847H55.355V27.5967H60.7675V29.6055H51.17ZM65.5105 23.3001H69.1933L67.2626 17.9545L65.5105 23.3001ZM61.2586 29.6055L66.381 14.6847H70.4208L75.8892 29.6055H71.4476L69.874 25.1973H64.8632L63.3789 29.6055H61.2586ZM81.6812 16.5372V21.6931H82.6186C83.6156 21.6931 84.3521 21.5034 84.8283 21.1239C85.3044 20.7445 85.5425 20.1568 85.5425 19.3607C85.5425 18.52 85.2635 17.8392 84.7055 17.3184C84.155 16.7976 83.4296 16.5372 82.5293 16.5372H81.6812ZM77.619 29.6055V14.6847H83.5784C85.4904 14.6847 86.9747 15.105 88.0312 15.9457C89.0876 16.7865 89.6159 17.9657 89.6159 19.4834C89.6159 20.7259 89.1918 21.7154 88.3437 22.452C87.5029 23.1811 86.3646 23.5456 84.9287 23.5456H81.6812V29.6055H77.619Z" fill="#121212"/>
<path d="M84.707 30.6389L87.2783 25.0865H88.8853L90.4923 26.8316L93.5992 20.5918H96.9204V30.6389H93.5992L93.585 26.7963L90.8137 30.6389L88.5103 27.9949L87.1711 30.6389H84.707Z" fill="#A1A8C4"/>
<path d="M100.886 20.5918H97.2969V30.6389H100.886V20.5918Z" fill="#A1A8C4"/>
<path d="M99.0891 19.5799C100.864 19.5799 102.303 18.1594 102.303 16.4071C102.303 14.6549 100.864 13.2344 99.0891 13.2344C97.314 13.2344 95.875 14.6549 95.875 16.4071C95.875 18.1594 97.314 19.5799 99.0891 19.5799Z" fill="#A1A8C4"/>
</g>
<defs>
<clipPath id="clip0_8805_58858">
<rect width="102" height="32" fill="white"/>
</clipPath>
</defs>
</svg>
