<svg width="55" height="61" viewBox="0 0 55 61" fill="none" xmlns="http://www.w3.org/2000/svg">
<path d="M41.7596 57.7946C38.0189 60.0484 33.5334 60.7924 29.2453 59.8704C24.9572 58.9483 21.2002 56.4319 18.7635 52.8498L2.18006 28.4166C2.18006 28.4166 -3.4052 20.4481 3.30401 18.9938C3.30401 18.9938 0.594117 13.2169 4.48312 10.6667C8.37212 8.11653 10.3235 10.2338 10.3235 10.2338C10.3235 10.2338 7.99977 4.82225 13.192 2.68468C18.3842 0.547119 20.2046 4.2608 20.2046 4.2608C20.2046 4.2608 23.4316 -2.50365 28.8859 1.01387C34.3401 4.53138 41.4493 18.6014 41.4493 18.6014C41.4493 18.6014 43.311 13.6769 47.5862 13.7175C48.702 13.7566 49.781 14.1194 50.6868 14.7599C51.5925 15.4004 52.2844 16.29 52.675 17.3162C55.5986 24.7571 55.1022 34.7617 52.4888 43.7313C50.958 49.0414 48.8894 53.5262 41.7596 57.7946Z" fill="#A1A8C4"/>
</svg>
