<svg width="408" height="54" viewBox="0 0 408 54" fill="none" xmlns="http://www.w3.org/2000/svg">
<rect width="408" height="54" rx="27" fill="url(#paint0_linear_5561_88623)"/>
<path d="M131.06 27.4C131.06 26.3013 131.305 25.32 131.796 24.456C132.297 23.5813 132.975 22.904 133.828 22.424C134.692 21.9333 135.657 21.688 136.724 21.688C137.972 21.688 139.065 22.008 140.004 22.648C140.943 23.288 141.599 24.1733 141.972 25.304H139.396C139.14 24.7707 138.777 24.3707 138.308 24.104C137.849 23.8373 137.316 23.704 136.708 23.704C136.057 23.704 135.476 23.8587 134.964 24.168C134.463 24.4667 134.068 24.8933 133.78 25.448C133.503 26.0027 133.364 26.6533 133.364 27.4C133.364 28.136 133.503 28.7867 133.78 29.352C134.068 29.9067 134.463 30.3387 134.964 30.648C135.476 30.9467 136.057 31.096 136.708 31.096C137.316 31.096 137.849 30.9627 138.308 30.696C138.777 30.4187 139.14 30.0133 139.396 29.48H141.972C141.599 30.6213 140.943 31.512 140.004 32.152C139.076 32.7813 137.983 33.096 136.724 33.096C135.657 33.096 134.692 32.856 133.828 32.376C132.975 31.8853 132.297 31.208 131.796 30.344C131.305 29.48 131.06 28.4987 131.06 27.4ZM146.125 25.512C146.413 25.0427 146.787 24.6747 147.245 24.408C147.715 24.1413 148.248 24.008 148.845 24.008V26.36H148.253C147.549 26.36 147.016 26.5253 146.653 26.856C146.301 27.1867 146.125 27.7627 146.125 28.584V33H143.885V24.136H146.125V25.512ZM158.594 28.376C158.594 28.696 158.573 28.984 158.53 29.24H152.05C152.103 29.88 152.327 30.3813 152.722 30.744C153.117 31.1067 153.602 31.288 154.178 31.288C155.01 31.288 155.602 30.9307 155.954 30.216H158.37C158.114 31.0693 157.623 31.7733 156.898 32.328C156.173 32.872 155.282 33.144 154.226 33.144C153.373 33.144 152.605 32.9573 151.922 32.584C151.25 32.2 150.722 31.6613 150.338 30.968C149.965 30.2747 149.778 29.4747 149.778 28.568C149.778 27.6507 149.965 26.8453 150.338 26.152C150.711 25.4587 151.234 24.9253 151.906 24.552C152.578 24.1787 153.351 23.992 154.226 23.992C155.069 23.992 155.821 24.1733 156.482 24.536C157.154 24.8987 157.671 25.416 158.034 26.088C158.407 26.7493 158.594 27.512 158.594 28.376ZM156.274 27.736C156.263 27.16 156.055 26.7013 155.65 26.36C155.245 26.008 154.749 25.832 154.162 25.832C153.607 25.832 153.138 26.0027 152.754 26.344C152.381 26.6747 152.151 27.1387 152.066 27.736H156.274ZM159.653 28.536C159.653 27.64 159.829 26.8453 160.181 26.152C160.544 25.4587 161.029 24.9253 161.637 24.552C162.256 24.1787 162.944 23.992 163.701 23.992C164.362 23.992 164.938 24.1253 165.429 24.392C165.93 24.6587 166.33 24.9947 166.629 25.4V24.136H168.885V33H166.629V31.704C166.341 32.12 165.941 32.4667 165.429 32.744C164.928 33.0107 164.346 33.144 163.685 33.144C162.938 33.144 162.256 32.952 161.637 32.568C161.029 32.184 160.544 31.6453 160.181 30.952C159.829 30.248 159.653 29.4427 159.653 28.536ZM166.629 28.568C166.629 28.024 166.522 27.56 166.309 27.176C166.096 26.7813 165.808 26.4827 165.445 26.28C165.082 26.0667 164.693 25.96 164.277 25.96C163.861 25.96 163.477 26.0613 163.125 26.264C162.773 26.4667 162.485 26.7653 162.261 27.16C162.048 27.544 161.941 28.0027 161.941 28.536C161.941 29.0693 162.048 29.5387 162.261 29.944C162.485 30.3387 162.773 30.6427 163.125 30.856C163.488 31.0693 163.872 31.176 164.277 31.176C164.693 31.176 165.082 31.0747 165.445 30.872C165.808 30.6587 166.096 30.36 166.309 29.976C166.522 29.5813 166.629 29.112 166.629 28.568ZM173.681 25.976V30.264C173.681 30.5627 173.75 30.7813 173.889 30.92C174.038 31.048 174.283 31.112 174.625 31.112H175.665V33H174.257C172.369 33 171.425 32.0827 171.425 30.248V25.976H170.369V24.136H171.425V21.944H173.681V24.136H175.665V25.976H173.681ZM185.516 28.376C185.516 28.696 185.495 28.984 185.452 29.24H178.972C179.025 29.88 179.249 30.3813 179.644 30.744C180.039 31.1067 180.524 31.288 181.1 31.288C181.932 31.288 182.524 30.9307 182.876 30.216H185.292C185.036 31.0693 184.545 31.7733 183.82 32.328C183.095 32.872 182.204 33.144 181.148 33.144C180.295 33.144 179.527 32.9573 178.844 32.584C178.172 32.2 177.644 31.6613 177.26 30.968C176.887 30.2747 176.7 29.4747 176.7 28.568C176.7 27.6507 176.887 26.8453 177.26 26.152C177.633 25.4587 178.156 24.9253 178.828 24.552C179.5 24.1787 180.273 23.992 181.148 23.992C181.991 23.992 182.743 24.1733 183.404 24.536C184.076 24.8987 184.593 25.416 184.956 26.088C185.329 26.7493 185.516 27.512 185.516 28.376ZM183.196 27.736C183.185 27.16 182.977 26.7013 182.572 26.36C182.167 26.008 181.671 25.832 181.084 25.832C180.529 25.832 180.06 26.0027 179.676 26.344C179.303 26.6747 179.073 27.1387 178.988 27.736H183.196ZM193.203 21.16V33H190.963V21.16H193.203ZM196.553 23.08C196.158 23.08 195.827 22.9573 195.561 22.712C195.305 22.456 195.177 22.1413 195.177 21.768C195.177 21.3947 195.305 21.0853 195.561 20.84C195.827 20.584 196.158 20.456 196.553 20.456C196.947 20.456 197.273 20.584 197.529 20.84C197.795 21.0853 197.929 21.3947 197.929 21.768C197.929 22.1413 197.795 22.456 197.529 22.712C197.273 22.9573 196.947 23.08 196.553 23.08ZM197.657 24.136V33H195.417V24.136H197.657ZM203.566 30.936L205.806 24.136H208.19L204.91 33H202.19L198.926 24.136H201.326L203.566 30.936ZM217.688 28.376C217.688 28.696 217.666 28.984 217.624 29.24H211.144C211.197 29.88 211.421 30.3813 211.816 30.744C212.21 31.1067 212.696 31.288 213.272 31.288C214.104 31.288 214.696 30.9307 215.048 30.216H217.464C217.208 31.0693 216.717 31.7733 215.992 32.328C215.266 32.872 214.376 33.144 213.32 33.144C212.466 33.144 211.698 32.9573 211.016 32.584C210.344 32.2 209.816 31.6613 209.432 30.968C209.058 30.2747 208.872 29.4747 208.872 28.568C208.872 27.6507 209.058 26.8453 209.432 26.152C209.805 25.4587 210.328 24.9253 211 24.552C211.672 24.1787 212.445 23.992 213.32 23.992C214.162 23.992 214.914 24.1733 215.576 24.536C216.248 24.8987 216.765 25.416 217.128 26.088C217.501 26.7493 217.688 27.512 217.688 28.376ZM215.368 27.736C215.357 27.16 215.149 26.7013 214.744 26.36C214.338 26.008 213.842 25.832 213.256 25.832C212.701 25.832 212.232 26.0027 211.848 26.344C211.474 26.6747 211.245 27.1387 211.16 27.736H215.368ZM222.715 33.144C221.989 33.144 221.339 33.016 220.763 32.76C220.187 32.4933 219.728 32.136 219.387 31.688C219.056 31.24 218.875 30.744 218.843 30.2H221.099C221.141 30.5413 221.307 30.824 221.595 31.048C221.893 31.272 222.261 31.384 222.699 31.384C223.125 31.384 223.456 31.2987 223.691 31.128C223.936 30.9573 224.059 30.7387 224.059 30.472C224.059 30.184 223.909 29.9707 223.611 29.832C223.323 29.6827 222.859 29.5227 222.219 29.352C221.557 29.192 221.013 29.0267 220.587 28.856C220.171 28.6853 219.808 28.424 219.499 28.072C219.2 27.72 219.051 27.2453 219.051 26.648C219.051 26.1573 219.189 25.7093 219.467 25.304C219.755 24.8987 220.16 24.5787 220.683 24.344C221.216 24.1093 221.84 23.992 222.555 23.992C223.611 23.992 224.453 24.2587 225.083 24.792C225.712 25.3147 226.059 26.024 226.123 26.92H223.979C223.947 26.568 223.797 26.2907 223.531 26.088C223.275 25.8747 222.928 25.768 222.491 25.768C222.085 25.768 221.771 25.8427 221.547 25.992C221.333 26.1413 221.227 26.3493 221.227 26.616C221.227 26.9147 221.376 27.144 221.675 27.304C221.973 27.4533 222.437 27.608 223.067 27.768C223.707 27.928 224.235 28.0933 224.651 28.264C225.067 28.4347 225.424 28.7013 225.723 29.064C226.032 29.416 226.192 29.8853 226.203 30.472C226.203 30.984 226.059 31.4427 225.771 31.848C225.493 32.2533 225.088 32.5733 224.555 32.808C224.032 33.032 223.419 33.144 222.715 33.144ZM230.65 25.976V30.264C230.65 30.5627 230.719 30.7813 230.858 30.92C231.007 31.048 231.252 31.112 231.594 31.112H232.634V33H231.226C229.338 33 228.394 32.0827 228.394 30.248V25.976H227.338V24.136H228.394V21.944H230.65V24.136H232.634V25.976H230.65ZM236.485 25.512C236.773 25.0427 237.146 24.6747 237.605 24.408C238.074 24.1413 238.607 24.008 239.205 24.008V26.36H238.613C237.909 26.36 237.375 26.5253 237.013 26.856C236.661 27.1867 236.485 27.7627 236.485 28.584V33H234.245V24.136H236.485V25.512ZM248.953 28.376C248.953 28.696 248.932 28.984 248.889 29.24H242.409C242.463 29.88 242.687 30.3813 243.081 30.744C243.476 31.1067 243.961 31.288 244.537 31.288C245.369 31.288 245.961 30.9307 246.313 30.216H248.729C248.473 31.0693 247.983 31.7733 247.257 32.328C246.532 32.872 245.641 33.144 244.585 33.144C243.732 33.144 242.964 32.9573 242.281 32.584C241.609 32.2 241.081 31.6613 240.697 30.968C240.324 30.2747 240.137 29.4747 240.137 28.568C240.137 27.6507 240.324 26.8453 240.697 26.152C241.071 25.4587 241.593 24.9253 242.265 24.552C242.937 24.1787 243.711 23.992 244.585 23.992C245.428 23.992 246.18 24.1733 246.841 24.536C247.513 24.8987 248.031 25.416 248.393 26.088C248.767 26.7493 248.953 27.512 248.953 28.376ZM246.633 27.736C246.623 27.16 246.415 26.7013 246.009 26.36C245.604 26.008 245.108 25.832 244.521 25.832C243.967 25.832 243.497 26.0027 243.113 26.344C242.74 26.6747 242.511 27.1387 242.425 27.736H246.633ZM250.012 28.536C250.012 27.64 250.188 26.8453 250.54 26.152C250.903 25.4587 251.388 24.9253 251.996 24.552C252.615 24.1787 253.303 23.992 254.06 23.992C254.722 23.992 255.298 24.1253 255.788 24.392C256.29 24.6587 256.69 24.9947 256.988 25.4V24.136H259.244V33H256.988V31.704C256.7 32.12 256.3 32.4667 255.788 32.744C255.287 33.0107 254.706 33.144 254.044 33.144C253.298 33.144 252.615 32.952 251.996 32.568C251.388 32.184 250.903 31.6453 250.54 30.952C250.188 30.248 250.012 29.4427 250.012 28.536ZM256.988 28.568C256.988 28.024 256.882 27.56 256.668 27.176C256.455 26.7813 256.167 26.4827 255.804 26.28C255.442 26.0667 255.052 25.96 254.636 25.96C254.22 25.96 253.836 26.0613 253.484 26.264C253.132 26.4667 252.844 26.7653 252.62 27.16C252.407 27.544 252.3 28.0027 252.3 28.536C252.3 29.0693 252.407 29.5387 252.62 29.944C252.844 30.3387 253.132 30.6427 253.484 30.856C253.847 31.0693 254.231 31.176 254.636 31.176C255.052 31.176 255.442 31.0747 255.804 30.872C256.167 30.6587 256.455 30.36 256.668 29.976C256.882 29.5813 256.988 29.112 256.988 28.568ZM272.44 24.008C273.528 24.008 274.403 24.344 275.064 25.016C275.736 25.6773 276.072 26.6053 276.072 27.8V33H273.832V28.104C273.832 27.4107 273.656 26.8827 273.304 26.52C272.952 26.1467 272.472 25.96 271.864 25.96C271.256 25.96 270.771 26.1467 270.408 26.52C270.056 26.8827 269.88 27.4107 269.88 28.104V33H267.64V28.104C267.64 27.4107 267.464 26.8827 267.112 26.52C266.76 26.1467 266.28 25.96 265.672 25.96C265.053 25.96 264.563 26.1467 264.2 26.52C263.848 26.8827 263.672 27.4107 263.672 28.104V33H261.432V24.136H263.672V25.208C263.96 24.8347 264.328 24.5413 264.776 24.328C265.235 24.1147 265.736 24.008 266.28 24.008C266.973 24.008 267.592 24.1573 268.136 24.456C268.68 24.744 269.101 25.16 269.4 25.704C269.688 25.192 270.104 24.7813 270.648 24.472C271.203 24.1627 271.8 24.008 272.44 24.008Z" fill="white"/>
<defs>
<linearGradient id="paint0_linear_5561_88623" x1="412.868" y1="26.8028" x2="4.86841" y2="26.8028" gradientUnits="userSpaceOnUse">
<stop stop-color="#0075FF"/>
<stop offset="1" stop-color="#FF2400"/>
</linearGradient>
</defs>
</svg>
