<svg width="440" height="312" viewBox="0 0 440 312" fill="none" xmlns="http://www.w3.org/2000/svg">
<path d="M0 25.6C0 16.6392 0 12.1587 1.7439 8.73615C3.27787 5.72556 5.72556 3.27787 8.73615 1.7439C12.1587 0 16.6392 0 25.6 0H414.4C423.361 0 427.841 0 431.264 1.7439C434.274 3.27787 436.722 5.72556 438.256 8.73615C440 12.1587 440 16.6392 440 25.6V312H0V25.6Z" fill="url(#paint0_linear_7969_74968)"/>
<path d="M235.433 121.267C235.433 121.267 235.533 118.1 235.433 117.067C234.866 110.267 230.433 107.934 221.733 107.934H200.7C190.167 107.934 186.667 111.434 186.667 121.967V150.034C186.667 154.234 187.933 158.467 191.233 161.167L193.333 162.667" stroke="#E6F1FA" stroke-width="5" stroke-linecap="round" stroke-linejoin="round"/>
<path d="M235.8 132.5V150.033C235.8 160.567 232.3 164.067 221.767 164.067H204.2" stroke="#E6F1FA" stroke-width="5" stroke-linecap="round" stroke-linejoin="round"/>
<path d="M253.333 118.467V148.7C253.333 154.267 249.6 156.2 245.066 153L235.8 146.5" stroke="#E6F1FA" stroke-width="5" stroke-linecap="round" stroke-linejoin="round"/>
<path d="M253.4 103.301L186.733 169.967" stroke="#E6F1FA" stroke-width="5" stroke-linecap="round" stroke-linejoin="round"/>
<path d="M49.984 198.832L46.208 206.112V210H43.968V206.112L40.176 198.832H42.704L45.104 203.936L47.488 198.832H49.984ZM55.2119 210.144C54.3585 210.144 53.5905 209.957 52.9079 209.584C52.2252 209.2 51.6865 208.661 51.2919 207.968C50.9079 207.275 50.7159 206.475 50.7159 205.568C50.7159 204.661 50.9132 203.861 51.3079 203.168C51.7132 202.475 52.2625 201.941 52.9559 201.568C53.6492 201.184 54.4225 200.992 55.2759 200.992C56.1292 200.992 56.9025 201.184 57.5959 201.568C58.2892 201.941 58.8332 202.475 59.2279 203.168C59.6332 203.861 59.8359 204.661 59.8359 205.568C59.8359 206.475 59.6279 207.275 59.2119 207.968C58.8065 208.661 58.2519 209.2 57.5479 209.584C56.8545 209.957 56.0759 210.144 55.2119 210.144ZM55.2119 208.192C55.6172 208.192 55.9959 208.096 56.3479 207.904C56.7105 207.701 56.9985 207.403 57.2119 207.008C57.4252 206.613 57.5319 206.133 57.5319 205.568C57.5319 204.725 57.3079 204.08 56.8599 203.632C56.4225 203.173 55.8839 202.944 55.2439 202.944C54.6039 202.944 54.0652 203.173 53.6279 203.632C53.2012 204.08 52.9879 204.725 52.9879 205.568C52.9879 206.411 53.1959 207.061 53.6119 207.52C54.0385 207.968 54.5719 208.192 55.2119 208.192ZM69.847 201.136V210H67.591V208.88C67.303 209.264 66.9243 209.568 66.455 209.792C65.9963 210.005 65.495 210.112 64.951 210.112C64.2577 210.112 63.6443 209.968 63.111 209.68C62.5777 209.381 62.1563 208.949 61.847 208.384C61.5483 207.808 61.399 207.125 61.399 206.336V201.136H63.639V206.016C63.639 206.72 63.815 207.264 64.167 207.648C64.519 208.021 64.999 208.208 65.607 208.208C66.2257 208.208 66.711 208.021 67.063 207.648C67.415 207.264 67.591 206.72 67.591 206.016V201.136H69.847ZM74.2971 202.512C74.5851 202.043 74.9585 201.675 75.4171 201.408C75.8865 201.141 76.4198 201.008 77.0171 201.008V203.36H76.4251C75.7211 203.36 75.1878 203.525 74.8251 203.856C74.4731 204.187 74.2971 204.763 74.2971 205.584V210H72.0571V201.136H74.2971V202.512ZM86.2424 198.832C87.4157 198.832 88.445 199.061 89.3304 199.52C90.2264 199.979 90.9144 200.635 91.3944 201.488C91.885 202.331 92.1304 203.312 92.1304 204.432C92.1304 205.552 91.885 206.533 91.3944 207.376C90.9144 208.208 90.2264 208.853 89.3304 209.312C88.445 209.771 87.4157 210 86.2424 210H82.3384V198.832H86.2424ZM86.1624 208.096C87.3357 208.096 88.2424 207.776 88.8824 207.136C89.5224 206.496 89.8424 205.595 89.8424 204.432C89.8424 203.269 89.5224 202.363 88.8824 201.712C88.2424 201.051 87.3357 200.72 86.1624 200.72H84.5784V208.096H86.1624ZM102.047 205.376C102.047 205.696 102.026 205.984 101.983 206.24H95.5031C95.5565 206.88 95.7805 207.381 96.1751 207.744C96.5698 208.107 97.0551 208.288 97.6311 208.288C98.4631 208.288 99.0551 207.931 99.4071 207.216H101.823C101.567 208.069 101.076 208.773 100.351 209.328C99.6258 209.872 98.7351 210.144 97.6791 210.144C96.8258 210.144 96.0578 209.957 95.3751 209.584C94.7031 209.2 94.1751 208.661 93.7911 207.968C93.4178 207.275 93.2311 206.475 93.2311 205.568C93.2311 204.651 93.4178 203.845 93.7911 203.152C94.1645 202.459 94.6871 201.925 95.3591 201.552C96.0311 201.179 96.8045 200.992 97.6791 200.992C98.5218 200.992 99.2738 201.173 99.9351 201.536C100.607 201.899 101.124 202.416 101.487 203.088C101.86 203.749 102.047 204.512 102.047 205.376ZM99.7271 204.736C99.7165 204.16 99.5085 203.701 99.1031 203.36C98.6978 203.008 98.2018 202.832 97.6151 202.832C97.0605 202.832 96.5911 203.003 96.2071 203.344C95.8338 203.675 95.6045 204.139 95.5191 204.736H99.7271ZM107.378 207.936L109.618 201.136H112.002L108.722 210H106.002L102.738 201.136H105.138L107.378 207.936ZM114.396 200.08C114.002 200.08 113.671 199.957 113.404 199.712C113.148 199.456 113.02 199.141 113.02 198.768C113.02 198.395 113.148 198.085 113.404 197.84C113.671 197.584 114.002 197.456 114.396 197.456C114.791 197.456 115.116 197.584 115.372 197.84C115.639 198.085 115.772 198.395 115.772 198.768C115.772 199.141 115.639 199.456 115.372 199.712C115.116 199.957 114.791 200.08 114.396 200.08ZM115.5 201.136V210H113.26V201.136H115.5ZM117.137 205.568C117.137 204.651 117.324 203.851 117.697 203.168C118.071 202.475 118.588 201.941 119.249 201.568C119.911 201.184 120.668 200.992 121.521 200.992C122.62 200.992 123.527 201.269 124.241 201.824C124.967 202.368 125.452 203.136 125.697 204.128H123.281C123.153 203.744 122.935 203.445 122.625 203.232C122.327 203.008 121.953 202.896 121.505 202.896C120.865 202.896 120.359 203.131 119.985 203.6C119.612 204.059 119.425 204.715 119.425 205.568C119.425 206.411 119.612 207.067 119.985 207.536C120.359 207.995 120.865 208.224 121.505 208.224C122.412 208.224 123.004 207.819 123.281 207.008H125.697C125.452 207.968 124.967 208.731 124.241 209.296C123.516 209.861 122.609 210.144 121.521 210.144C120.668 210.144 119.911 209.957 119.249 209.584C118.588 209.2 118.071 208.667 117.697 207.984C117.324 207.291 117.137 206.485 117.137 205.568ZM135.578 205.376C135.578 205.696 135.557 205.984 135.514 206.24H129.034C129.088 206.88 129.312 207.381 129.706 207.744C130.101 208.107 130.586 208.288 131.162 208.288C131.994 208.288 132.586 207.931 132.938 207.216H135.354C135.098 208.069 134.608 208.773 133.882 209.328C133.157 209.872 132.266 210.144 131.21 210.144C130.357 210.144 129.589 209.957 128.906 209.584C128.234 209.2 127.706 208.661 127.322 207.968C126.949 207.275 126.762 206.475 126.762 205.568C126.762 204.651 126.949 203.845 127.322 203.152C127.696 202.459 128.218 201.925 128.89 201.552C129.562 201.179 130.336 200.992 131.21 200.992C132.053 200.992 132.805 201.173 133.466 201.536C134.138 201.899 134.656 202.416 135.018 203.088C135.392 203.749 135.578 204.512 135.578 205.376ZM133.258 204.736C133.248 204.16 133.04 203.701 132.634 203.36C132.229 203.008 131.733 202.832 131.146 202.832C130.592 202.832 130.122 203.003 129.738 203.344C129.365 203.675 129.136 204.139 129.05 204.736H133.258ZM142.162 200.08C141.767 200.08 141.437 199.957 141.17 199.712C140.914 199.456 140.786 199.141 140.786 198.768C140.786 198.395 140.914 198.085 141.17 197.84C141.437 197.584 141.767 197.456 142.162 197.456C142.557 197.456 142.882 197.584 143.138 197.84C143.405 198.085 143.538 198.395 143.538 198.768C143.538 199.141 143.405 199.456 143.138 199.712C142.882 199.957 142.557 200.08 142.162 200.08ZM143.266 201.136V210H141.026V201.136H143.266ZM148.871 210.144C148.146 210.144 147.495 210.016 146.919 209.76C146.343 209.493 145.884 209.136 145.543 208.688C145.212 208.24 145.031 207.744 144.999 207.2H147.255C147.298 207.541 147.463 207.824 147.751 208.048C148.05 208.272 148.418 208.384 148.855 208.384C149.282 208.384 149.612 208.299 149.847 208.128C150.092 207.957 150.215 207.739 150.215 207.472C150.215 207.184 150.066 206.971 149.767 206.832C149.479 206.683 149.015 206.523 148.375 206.352C147.714 206.192 147.17 206.027 146.743 205.856C146.327 205.685 145.964 205.424 145.655 205.072C145.356 204.72 145.207 204.245 145.207 203.648C145.207 203.157 145.346 202.709 145.623 202.304C145.911 201.899 146.316 201.579 146.839 201.344C147.372 201.109 147.996 200.992 148.711 200.992C149.767 200.992 150.61 201.259 151.239 201.792C151.868 202.315 152.215 203.024 152.279 203.92H150.135C150.103 203.568 149.954 203.291 149.687 203.088C149.431 202.875 149.084 202.768 148.647 202.768C148.242 202.768 147.927 202.843 147.703 202.992C147.49 203.141 147.383 203.349 147.383 203.616C147.383 203.915 147.532 204.144 147.831 204.304C148.13 204.453 148.594 204.608 149.223 204.768C149.863 204.928 150.391 205.093 150.807 205.264C151.223 205.435 151.58 205.701 151.879 206.064C152.188 206.416 152.348 206.885 152.359 207.472C152.359 207.984 152.215 208.443 151.927 208.848C151.65 209.253 151.244 209.573 150.711 209.808C150.188 210.032 149.575 210.144 148.871 210.144ZM162.922 201.008C163.978 201.008 164.832 201.344 165.482 202.016C166.133 202.677 166.458 203.605 166.458 204.8V210H164.218V205.104C164.218 204.4 164.042 203.861 163.69 203.488C163.338 203.104 162.858 202.912 162.25 202.912C161.632 202.912 161.141 203.104 160.778 203.488C160.426 203.861 160.25 204.4 160.25 205.104V210H158.01V201.136H160.25V202.24C160.549 201.856 160.928 201.557 161.386 201.344C161.856 201.12 162.368 201.008 162.922 201.008ZM172.524 210.144C171.671 210.144 170.903 209.957 170.22 209.584C169.538 209.2 168.999 208.661 168.604 207.968C168.22 207.275 168.028 206.475 168.028 205.568C168.028 204.661 168.226 203.861 168.62 203.168C169.026 202.475 169.575 201.941 170.268 201.568C170.962 201.184 171.735 200.992 172.588 200.992C173.442 200.992 174.215 201.184 174.908 201.568C175.602 201.941 176.146 202.475 176.54 203.168C176.946 203.861 177.148 204.661 177.148 205.568C177.148 206.475 176.94 207.275 176.524 207.968C176.119 208.661 175.564 209.2 174.86 209.584C174.167 209.957 173.388 210.144 172.524 210.144ZM172.524 208.192C172.93 208.192 173.308 208.096 173.66 207.904C174.023 207.701 174.311 207.403 174.524 207.008C174.738 206.613 174.844 206.133 174.844 205.568C174.844 204.725 174.62 204.08 174.172 203.632C173.735 203.173 173.196 202.944 172.556 202.944C171.916 202.944 171.378 203.173 170.94 203.632C170.514 204.08 170.3 204.725 170.3 205.568C170.3 206.411 170.508 207.061 170.924 207.52C171.351 207.968 171.884 208.192 172.524 208.192ZM181.4 202.976V207.264C181.4 207.563 181.469 207.781 181.608 207.92C181.757 208.048 182.002 208.112 182.344 208.112H183.384V210H181.976C180.088 210 179.144 209.083 179.144 207.248V202.976H178.088V201.136H179.144V198.944H181.4V201.136H183.384V202.976H181.4ZM188.263 204.4C188.263 203.301 188.508 202.32 188.999 201.456C189.5 200.581 190.178 199.904 191.031 199.424C191.895 198.933 192.86 198.688 193.927 198.688C195.175 198.688 196.268 199.008 197.207 199.648C198.146 200.288 198.802 201.173 199.175 202.304H196.599C196.343 201.771 195.98 201.371 195.511 201.104C195.052 200.837 194.519 200.704 193.911 200.704C193.26 200.704 192.679 200.859 192.167 201.168C191.666 201.467 191.271 201.893 190.983 202.448C190.706 203.003 190.567 203.653 190.567 204.4C190.567 205.136 190.706 205.787 190.983 206.352C191.271 206.907 191.666 207.339 192.167 207.648C192.679 207.947 193.26 208.096 193.911 208.096C194.519 208.096 195.052 207.963 195.511 207.696C195.98 207.419 196.343 207.013 196.599 206.48H199.175C198.802 207.621 198.146 208.512 197.207 209.152C196.279 209.781 195.186 210.096 193.927 210.096C192.86 210.096 191.895 209.856 191.031 209.376C190.178 208.885 189.5 208.208 188.999 207.344C188.508 206.48 188.263 205.499 188.263 204.4ZM205.024 210.144C204.171 210.144 203.403 209.957 202.72 209.584C202.038 209.2 201.499 208.661 201.104 207.968C200.72 207.275 200.528 206.475 200.528 205.568C200.528 204.661 200.726 203.861 201.12 203.168C201.526 202.475 202.075 201.941 202.768 201.568C203.462 201.184 204.235 200.992 205.088 200.992C205.942 200.992 206.715 201.184 207.408 201.568C208.102 201.941 208.646 202.475 209.04 203.168C209.446 203.861 209.648 204.661 209.648 205.568C209.648 206.475 209.44 207.275 209.024 207.968C208.619 208.661 208.064 209.2 207.36 209.584C206.667 209.957 205.888 210.144 205.024 210.144ZM205.024 208.192C205.43 208.192 205.808 208.096 206.16 207.904C206.523 207.701 206.811 207.403 207.024 207.008C207.238 206.613 207.344 206.133 207.344 205.568C207.344 204.725 207.12 204.08 206.672 203.632C206.235 203.173 205.696 202.944 205.056 202.944C204.416 202.944 203.878 203.173 203.44 203.632C203.014 204.08 202.8 204.725 202.8 205.568C202.8 206.411 203.008 207.061 203.424 207.52C203.851 207.968 204.384 208.192 205.024 208.192ZM222.3 201.008C223.388 201.008 224.262 201.344 224.924 202.016C225.596 202.677 225.932 203.605 225.932 204.8V210H223.692V205.104C223.692 204.411 223.516 203.883 223.164 203.52C222.812 203.147 222.332 202.96 221.724 202.96C221.116 202.96 220.63 203.147 220.268 203.52C219.916 203.883 219.74 204.411 219.74 205.104V210H217.5V205.104C217.5 204.411 217.324 203.883 216.972 203.52C216.62 203.147 216.14 202.96 215.532 202.96C214.913 202.96 214.422 203.147 214.06 203.52C213.708 203.883 213.532 204.411 213.532 205.104V210H211.292V201.136H213.532V202.208C213.82 201.835 214.188 201.541 214.636 201.328C215.094 201.115 215.596 201.008 216.14 201.008C216.833 201.008 217.452 201.157 217.996 201.456C218.54 201.744 218.961 202.16 219.26 202.704C219.548 202.192 219.964 201.781 220.508 201.472C221.062 201.163 221.66 201.008 222.3 201.008ZM230.297 202.416C230.585 202.011 230.98 201.675 231.481 201.408C231.993 201.131 232.574 200.992 233.225 200.992C233.982 200.992 234.665 201.179 235.273 201.552C235.892 201.925 236.377 202.459 236.729 203.152C237.092 203.835 237.273 204.629 237.273 205.536C237.273 206.443 237.092 207.248 236.729 207.952C236.377 208.645 235.892 209.184 235.273 209.568C234.665 209.952 233.982 210.144 233.225 210.144C232.574 210.144 231.998 210.011 231.497 209.744C231.006 209.477 230.606 209.141 230.297 208.736V214.224H228.057V201.136H230.297V202.416ZM234.985 205.536C234.985 205.003 234.873 204.544 234.649 204.16C234.436 203.765 234.148 203.467 233.785 203.264C233.433 203.061 233.049 202.96 232.633 202.96C232.228 202.96 231.844 203.067 231.481 203.28C231.129 203.483 230.841 203.781 230.617 204.176C230.404 204.571 230.297 205.035 230.297 205.568C230.297 206.101 230.404 206.565 230.617 206.96C230.841 207.355 231.129 207.659 231.481 207.872C231.844 208.075 232.228 208.176 232.633 208.176C233.049 208.176 233.433 208.069 233.785 207.856C234.148 207.643 234.436 207.339 234.649 206.944C234.873 206.549 234.985 206.08 234.985 205.536ZM238.325 205.536C238.325 204.64 238.501 203.845 238.853 203.152C239.216 202.459 239.701 201.925 240.309 201.552C240.928 201.179 241.616 200.992 242.373 200.992C243.034 200.992 243.61 201.125 244.101 201.392C244.602 201.659 245.002 201.995 245.301 202.4V201.136H247.557V210H245.301V208.704C245.013 209.12 244.613 209.467 244.101 209.744C243.6 210.011 243.018 210.144 242.357 210.144C241.61 210.144 240.928 209.952 240.309 209.568C239.701 209.184 239.216 208.645 238.853 207.952C238.501 207.248 238.325 206.443 238.325 205.536ZM245.301 205.568C245.301 205.024 245.194 204.56 244.981 204.176C244.768 203.781 244.48 203.483 244.117 203.28C243.754 203.067 243.365 202.96 242.949 202.96C242.533 202.96 242.149 203.061 241.797 203.264C241.445 203.467 241.157 203.765 240.933 204.16C240.72 204.544 240.613 205.003 240.613 205.536C240.613 206.069 240.72 206.539 240.933 206.944C241.157 207.339 241.445 207.643 241.797 207.856C242.16 208.069 242.544 208.176 242.949 208.176C243.365 208.176 243.754 208.075 244.117 207.872C244.48 207.659 244.768 207.36 244.981 206.976C245.194 206.581 245.301 206.112 245.301 205.568ZM252.353 202.976V207.264C252.353 207.563 252.422 207.781 252.561 207.92C252.71 208.048 252.955 208.112 253.297 208.112H254.337V210H252.929C251.041 210 250.097 209.083 250.097 207.248V202.976H249.041V201.136H250.097V198.944H252.353V201.136H254.337V202.976H252.353ZM257.084 200.08C256.689 200.08 256.358 199.957 256.092 199.712C255.836 199.456 255.708 199.141 255.708 198.768C255.708 198.395 255.836 198.085 256.092 197.84C256.358 197.584 256.689 197.456 257.084 197.456C257.478 197.456 257.804 197.584 258.06 197.84C258.326 198.085 258.46 198.395 258.46 198.768C258.46 199.141 258.326 199.456 258.06 199.712C257.804 199.957 257.478 200.08 257.084 200.08ZM258.188 201.136V210H255.948V201.136H258.188ZM262.641 202.432C262.929 202.005 263.324 201.659 263.825 201.392C264.337 201.125 264.918 200.992 265.569 200.992C266.326 200.992 267.009 201.179 267.617 201.552C268.236 201.925 268.721 202.459 269.073 203.152C269.436 203.835 269.617 204.629 269.617 205.536C269.617 206.443 269.436 207.248 269.073 207.952C268.721 208.645 268.236 209.184 267.617 209.568C267.009 209.952 266.326 210.144 265.569 210.144C264.908 210.144 264.326 210.016 263.825 209.76C263.334 209.493 262.94 209.152 262.641 208.736V210H260.401V198.16H262.641V202.432ZM267.329 205.536C267.329 205.003 267.217 204.544 266.993 204.16C266.78 203.765 266.492 203.467 266.129 203.264C265.777 203.061 265.393 202.96 264.977 202.96C264.572 202.96 264.188 203.067 263.825 203.28C263.473 203.483 263.185 203.781 262.961 204.176C262.748 204.571 262.641 205.035 262.641 205.568C262.641 206.101 262.748 206.565 262.961 206.96C263.185 207.355 263.473 207.659 263.825 207.872C264.188 208.075 264.572 208.176 264.977 208.176C265.393 208.176 265.777 208.069 266.129 207.856C266.492 207.643 266.78 207.339 266.993 206.944C267.217 206.549 267.329 206.08 267.329 205.536ZM273.485 198.16V210H271.245V198.16H273.485ZM283.938 205.376C283.938 205.696 283.916 205.984 283.874 206.24H277.394C277.447 206.88 277.671 207.381 278.066 207.744C278.46 208.107 278.946 208.288 279.522 208.288C280.354 208.288 280.946 207.931 281.298 207.216H283.714C283.458 208.069 282.967 208.773 282.242 209.328C281.516 209.872 280.626 210.144 279.57 210.144C278.716 210.144 277.948 209.957 277.266 209.584C276.594 209.2 276.066 208.661 275.682 207.968C275.308 207.275 275.122 206.475 275.122 205.568C275.122 204.651 275.308 203.845 275.682 203.152C276.055 202.459 276.578 201.925 277.25 201.552C277.922 201.179 278.695 200.992 279.57 200.992C280.412 200.992 281.164 201.173 281.826 201.536C282.498 201.899 283.015 202.416 283.378 203.088C283.751 203.749 283.938 204.512 283.938 205.376ZM281.618 204.736C281.607 204.16 281.399 203.701 280.994 203.36C280.588 203.008 280.092 202.832 279.506 202.832C278.951 202.832 278.482 203.003 278.098 203.344C277.724 203.675 277.495 204.139 277.41 204.736H281.618ZM293.449 202.976H291.897V210H289.625V202.976H288.617V201.136H289.625V200.688C289.625 199.6 289.935 198.8 290.553 198.288C291.172 197.776 292.105 197.536 293.353 197.568V199.456C292.809 199.445 292.431 199.536 292.217 199.728C292.004 199.92 291.897 200.267 291.897 200.768V201.136H293.449V202.976ZM298.837 210.144C297.984 210.144 297.216 209.957 296.533 209.584C295.85 209.2 295.312 208.661 294.917 207.968C294.533 207.275 294.341 206.475 294.341 205.568C294.341 204.661 294.538 203.861 294.933 203.168C295.338 202.475 295.888 201.941 296.581 201.568C297.274 201.184 298.048 200.992 298.901 200.992C299.754 200.992 300.528 201.184 301.221 201.568C301.914 201.941 302.458 202.475 302.853 203.168C303.258 203.861 303.461 204.661 303.461 205.568C303.461 206.475 303.253 207.275 302.837 207.968C302.432 208.661 301.877 209.2 301.173 209.584C300.48 209.957 299.701 210.144 298.837 210.144ZM298.837 208.192C299.242 208.192 299.621 208.096 299.973 207.904C300.336 207.701 300.624 207.403 300.837 207.008C301.05 206.613 301.157 206.133 301.157 205.568C301.157 204.725 300.933 204.08 300.485 203.632C300.048 203.173 299.509 202.944 298.869 202.944C298.229 202.944 297.69 203.173 297.253 203.632C296.826 204.08 296.613 204.725 296.613 205.568C296.613 206.411 296.821 207.061 297.237 207.52C297.664 207.968 298.197 208.192 298.837 208.192ZM307.344 202.512C307.632 202.043 308.005 201.675 308.464 201.408C308.933 201.141 309.467 201.008 310.064 201.008V203.36H309.472C308.768 203.36 308.235 203.525 307.872 203.856C307.52 204.187 307.344 204.763 307.344 205.584V210H305.104V201.136H307.344V202.512ZM318.777 210.144C318.052 210.144 317.401 210.016 316.825 209.76C316.249 209.493 315.791 209.136 315.449 208.688C315.119 208.24 314.937 207.744 314.905 207.2H317.161C317.204 207.541 317.369 207.824 317.657 208.048C317.956 208.272 318.324 208.384 318.761 208.384C319.188 208.384 319.519 208.299 319.753 208.128C319.999 207.957 320.121 207.739 320.121 207.472C320.121 207.184 319.972 206.971 319.673 206.832C319.385 206.683 318.921 206.523 318.281 206.352C317.62 206.192 317.076 206.027 316.649 205.856C316.233 205.685 315.871 205.424 315.561 205.072C315.263 204.72 315.113 204.245 315.113 203.648C315.113 203.157 315.252 202.709 315.529 202.304C315.817 201.899 316.223 201.579 316.745 201.344C317.279 201.109 317.903 200.992 318.617 200.992C319.673 200.992 320.516 201.259 321.145 201.792C321.775 202.315 322.121 203.024 322.185 203.92H320.041C320.009 203.568 319.86 203.291 319.593 203.088C319.337 202.875 318.991 202.768 318.553 202.768C318.148 202.768 317.833 202.843 317.609 202.992C317.396 203.141 317.289 203.349 317.289 203.616C317.289 203.915 317.439 204.144 317.737 204.304C318.036 204.453 318.5 204.608 319.129 204.768C319.769 204.928 320.297 205.093 320.713 205.264C321.129 205.435 321.487 205.701 321.785 206.064C322.095 206.416 322.255 206.885 322.265 207.472C322.265 207.984 322.121 208.443 321.833 208.848C321.556 209.253 321.151 209.573 320.617 209.808C320.095 210.032 319.481 210.144 318.777 210.144ZM326.712 202.976V207.264C326.712 207.563 326.781 207.781 326.92 207.92C327.069 208.048 327.315 208.112 327.656 208.112H328.696V210H327.288C325.4 210 324.456 209.083 324.456 207.248V202.976H323.4V201.136H324.456V198.944H326.712V201.136H328.696V202.976H326.712ZM332.547 202.512C332.835 202.043 333.208 201.675 333.667 201.408C334.136 201.141 334.67 201.008 335.267 201.008V203.36H334.675C333.971 203.36 333.438 203.525 333.075 203.856C332.723 204.187 332.547 204.763 332.547 205.584V210H330.307V201.136H332.547V202.512ZM345.016 205.376C345.016 205.696 344.995 205.984 344.952 206.24H338.472C338.525 206.88 338.749 207.381 339.144 207.744C339.539 208.107 340.024 208.288 340.6 208.288C341.432 208.288 342.024 207.931 342.376 207.216H344.792C344.536 208.069 344.045 208.773 343.32 209.328C342.595 209.872 341.704 210.144 340.648 210.144C339.795 210.144 339.027 209.957 338.344 209.584C337.672 209.2 337.144 208.661 336.76 207.968C336.387 207.275 336.2 206.475 336.2 205.568C336.2 204.651 336.387 203.845 336.76 203.152C337.133 202.459 337.656 201.925 338.328 201.552C339 201.179 339.773 200.992 340.648 200.992C341.491 200.992 342.243 201.173 342.904 201.536C343.576 201.899 344.093 202.416 344.456 203.088C344.829 203.749 345.016 204.512 345.016 205.376ZM342.696 204.736C342.685 204.16 342.477 203.701 342.072 203.36C341.667 203.008 341.171 202.832 340.584 202.832C340.029 202.832 339.56 203.003 339.176 203.344C338.803 203.675 338.573 204.139 338.488 204.736H342.696ZM346.075 205.536C346.075 204.64 346.251 203.845 346.603 203.152C346.966 202.459 347.451 201.925 348.059 201.552C348.678 201.179 349.366 200.992 350.123 200.992C350.784 200.992 351.36 201.125 351.851 201.392C352.352 201.659 352.752 201.995 353.051 202.4V201.136H355.307V210H353.051V208.704C352.763 209.12 352.363 209.467 351.851 209.744C351.35 210.011 350.768 210.144 350.107 210.144C349.36 210.144 348.678 209.952 348.059 209.568C347.451 209.184 346.966 208.645 346.603 207.952C346.251 207.248 346.075 206.443 346.075 205.536ZM353.051 205.568C353.051 205.024 352.944 204.56 352.731 204.176C352.518 203.781 352.23 203.483 351.867 203.28C351.504 203.067 351.115 202.96 350.699 202.96C350.283 202.96 349.899 203.061 349.547 203.264C349.195 203.467 348.907 203.765 348.683 204.16C348.47 204.544 348.363 205.003 348.363 205.536C348.363 206.069 348.47 206.539 348.683 206.944C348.907 207.339 349.195 207.643 349.547 207.856C349.91 208.069 350.294 208.176 350.699 208.176C351.115 208.176 351.504 208.075 351.867 207.872C352.23 207.659 352.518 207.36 352.731 206.976C352.944 206.581 353.051 206.112 353.051 205.568ZM368.503 201.008C369.591 201.008 370.465 201.344 371.127 202.016C371.799 202.677 372.135 203.605 372.135 204.8V210H369.895V205.104C369.895 204.411 369.719 203.883 369.367 203.52C369.015 203.147 368.535 202.96 367.927 202.96C367.319 202.96 366.833 203.147 366.471 203.52C366.119 203.883 365.943 204.411 365.943 205.104V210H363.703V205.104C363.703 204.411 363.527 203.883 363.175 203.52C362.823 203.147 362.343 202.96 361.735 202.96C361.116 202.96 360.625 203.147 360.263 203.52C359.911 203.883 359.735 204.411 359.735 205.104V210H357.495V201.136H359.735V202.208C360.023 201.835 360.391 201.541 360.839 201.328C361.297 201.115 361.799 201.008 362.343 201.008C363.036 201.008 363.655 201.157 364.199 201.456C364.743 201.744 365.164 202.16 365.463 202.704C365.751 202.192 366.167 201.781 366.711 201.472C367.265 201.163 367.863 201.008 368.503 201.008ZM375.396 200.08C375.002 200.08 374.671 199.957 374.404 199.712C374.148 199.456 374.02 199.141 374.02 198.768C374.02 198.395 374.148 198.085 374.404 197.84C374.671 197.584 375.002 197.456 375.396 197.456C375.791 197.456 376.116 197.584 376.372 197.84C376.639 198.085 376.772 198.395 376.772 198.768C376.772 199.141 376.639 199.456 376.372 199.712C376.116 199.957 375.791 200.08 375.396 200.08ZM376.5 201.136V210H374.26V201.136H376.5ZM383.625 201.008C384.681 201.008 385.535 201.344 386.185 202.016C386.836 202.677 387.161 203.605 387.161 204.8V210H384.921V205.104C384.921 204.4 384.745 203.861 384.393 203.488C384.041 203.104 383.561 202.912 382.953 202.912C382.335 202.912 381.844 203.104 381.481 203.488C381.129 203.861 380.953 204.4 380.953 205.104V210H378.713V201.136H380.953V202.24C381.252 201.856 381.631 201.557 382.089 201.344C382.559 201.12 383.071 201.008 383.625 201.008ZM392.764 200.992C393.425 200.992 394.006 201.125 394.508 201.392C395.009 201.648 395.404 201.984 395.692 202.4V201.136H397.948V210.064C397.948 210.885 397.782 211.616 397.452 212.256C397.121 212.907 396.625 213.419 395.964 213.792C395.302 214.176 394.502 214.368 393.564 214.368C392.305 214.368 391.27 214.075 390.46 213.488C389.66 212.901 389.206 212.101 389.1 211.088H391.324C391.441 211.493 391.692 211.813 392.076 212.048C392.47 212.293 392.945 212.416 393.5 212.416C394.15 212.416 394.678 212.219 395.084 211.824C395.489 211.44 395.692 210.853 395.692 210.064V208.688C395.404 209.104 395.004 209.451 394.492 209.728C393.99 210.005 393.414 210.144 392.764 210.144C392.017 210.144 391.334 209.952 390.716 209.568C390.097 209.184 389.606 208.645 389.243 207.952C388.891 207.248 388.715 206.443 388.715 205.536C388.715 204.64 388.891 203.845 389.243 203.152C389.606 202.459 390.092 201.925 390.7 201.552C391.318 201.179 392.006 200.992 392.764 200.992ZM395.692 205.568C395.692 205.024 395.585 204.56 395.372 204.176C395.158 203.781 394.87 203.483 394.508 203.28C394.145 203.067 393.756 202.96 393.34 202.96C392.924 202.96 392.54 203.061 392.188 203.264C391.836 203.467 391.548 203.765 391.324 204.16C391.11 204.544 391.004 205.003 391.004 205.536C391.004 206.069 391.11 206.539 391.324 206.944C391.548 207.339 391.836 207.643 392.188 207.856C392.55 208.069 392.934 208.176 393.34 208.176C393.756 208.176 394.145 208.075 394.508 207.872C394.87 207.659 395.158 207.36 395.372 206.976C395.585 206.581 395.692 206.112 395.692 205.568Z" fill="white"/>
<defs>
<linearGradient id="paint0_linear_7969_74968" x1="220" y1="0" x2="220" y2="312" gradientUnits="userSpaceOnUse">
<stop stop-color="#121212"/>
<stop offset="1" stop-color="#EE1B41"/>
</linearGradient>
</defs>
</svg>
