<svg width="80" height="80" viewBox="0 0 80 80" fill="none" xmlns="http://www.w3.org/2000/svg">
<path d="M68.333 33.967H58.6997C50.7997 33.967 44.3663 27.5337 44.3663 19.6337V10.0003C44.3663 8.16699 42.8663 6.66699 41.033 6.66699H26.8997C16.633 6.66699 8.33301 13.3337 8.33301 25.2337V54.767C8.33301 66.667 16.633 73.3337 26.8997 73.3337H53.0997C63.3663 73.3337 71.6663 66.667 71.6663 54.767V37.3003C71.6663 35.467 70.1663 33.967 68.333 33.967ZM38.433 45.1003C37.933 45.6003 37.2997 45.8337 36.6663 45.8337C36.033 45.8337 35.3997 45.6003 34.8997 45.1003L32.4997 42.7003V56.667C32.4997 58.0337 31.3663 59.167 29.9997 59.167C28.633 59.167 27.4997 58.0337 27.4997 56.667V42.7003L25.0997 45.1003C24.133 46.067 22.533 46.067 21.5663 45.1003C20.5997 44.1337 20.5997 42.5337 21.5663 41.567L28.233 34.9003C28.4663 34.7003 28.6997 34.5337 28.9663 34.4003C29.033 34.367 29.133 34.3337 29.1997 34.3003C29.3997 34.2337 29.5997 34.2003 29.833 34.167C29.933 34.167 29.9997 34.167 30.0997 34.167C30.3663 34.167 30.633 34.2337 30.8997 34.3337C30.933 34.3337 30.933 34.3337 30.9663 34.3337C31.233 34.4337 31.4997 34.6337 31.6997 34.8337C31.733 34.867 31.7663 34.867 31.7663 34.9003L38.433 41.567C39.3997 42.5337 39.3997 44.1337 38.433 45.1003Z" fill="#E7E7E7"/>
<path d="M58.0993 29.3683C61.266 29.4016 65.666 29.4016 69.4326 29.4016C71.3326 29.4016 72.3326 27.1683 70.9993 25.8349C66.1993 21.0016 57.5993 12.3016 52.666 7.36827C51.2993 6.0016 48.9326 6.93494 48.9326 8.83494V20.4683C48.9326 25.3349 53.066 29.3683 58.0993 29.3683Z" fill="#E7E7E7"/>
</svg>
