<svg width="322" height="217" viewBox="0 0 322 217" fill="none" xmlns="http://www.w3.org/2000/svg">
<g clip-path="url(#clip0_5415_165688)">
<rect x="0.460938" y="21.5527" width="308.323" height="195.848" rx="12.5846" transform="rotate(-4 0.460938 21.5527)" fill="#0C0D0D"/>
<circle cx="202.771" cy="112.162" r="221.5" transform="rotate(-4 202.771 112.162)" fill="url(#paint0_radial_5415_165688)" fill-opacity="0.7"/>
<rect x="215.375" y="73.1484" width="47.1923" height="47.1923" rx="23.5961" transform="rotate(-4 215.375 73.1484)" fill="#FF3B30"/>
<rect x="61.9844" y="83.875" width="47.1923" height="47.1923" rx="23.5961" transform="rotate(-4 61.9844 83.875)" fill="#006FCD"/>
<path d="M150.759 95.8857L152.377 95.7726C152.551 95.7604 152.695 95.7927 152.811 95.8696C152.926 95.9464 153.016 96.05 153.08 96.1803L156.074 102.577C156.173 102.785 156.269 103.016 156.362 103.269C156.459 103.517 156.552 103.78 156.642 104.058C156.716 103.479 156.822 102.965 156.961 102.515L159.028 95.7644C159.065 95.647 159.137 95.5371 159.244 95.4347C159.352 95.3322 159.49 95.2751 159.659 95.2633L161.277 95.1502L157.677 106.233L155.866 106.36L150.759 95.8857ZM168.316 96.628C168.269 96.7411 168.209 96.8227 168.138 96.8726C168.072 96.9222 167.989 96.9505 167.889 96.9574C167.79 96.9644 167.676 96.9349 167.546 96.869C167.416 96.7982 167.264 96.7215 167.088 96.6389C166.912 96.5563 166.708 96.4857 166.474 96.4272C166.245 96.3633 165.976 96.3421 165.668 96.3637C165.39 96.3831 165.149 96.435 164.945 96.5191C164.746 96.598 164.578 96.7021 164.442 96.8314C164.312 96.9604 164.217 97.1118 164.16 97.2856C164.101 97.4545 164.079 97.6383 164.093 97.8371C164.111 98.0905 164.195 98.2968 164.346 98.456C164.502 98.6149 164.701 98.7458 164.943 98.8488C165.185 98.9517 165.458 99.0399 165.763 99.1135C166.068 99.1871 166.378 99.2677 166.694 99.3555C167.014 99.438 167.328 99.5408 167.637 99.6641C167.945 99.7824 168.223 99.9427 168.472 100.145C168.72 100.342 168.925 100.593 169.086 100.896C169.252 101.199 169.351 101.574 169.382 102.021C169.416 102.508 169.364 102.971 169.224 103.411C169.09 103.844 168.872 104.232 168.572 104.572C168.275 104.908 167.903 105.183 167.453 105.4C167.004 105.611 166.481 105.737 165.885 105.779C165.542 105.803 165.201 105.792 164.864 105.745C164.526 105.704 164.199 105.632 163.882 105.529C163.57 105.426 163.274 105.297 162.994 105.142C162.718 104.987 162.469 104.809 162.245 104.61L162.759 103.608C162.809 103.535 162.869 103.473 162.941 103.423C163.017 103.368 163.102 103.337 163.197 103.33C163.321 103.322 163.459 103.364 163.61 103.459C163.761 103.548 163.938 103.648 164.14 103.759C164.348 103.869 164.587 103.967 164.858 104.053C165.133 104.134 165.457 104.161 165.83 104.135C166.401 104.095 166.834 103.93 167.128 103.64C167.422 103.344 167.551 102.943 167.516 102.436C167.496 102.153 167.408 101.927 167.251 101.758C167.1 101.589 166.903 101.453 166.661 101.35C166.419 101.242 166.146 101.157 165.842 101.093C165.537 101.029 165.228 100.959 164.913 100.881C164.598 100.803 164.286 100.705 163.978 100.587C163.671 100.468 163.392 100.305 163.143 100.098C162.894 99.8909 162.685 99.6258 162.518 99.303C162.355 98.9748 162.257 98.5647 162.222 98.0728C162.195 97.6802 162.245 97.2922 162.373 96.9087C162.506 96.5249 162.711 96.1784 162.989 95.8694C163.272 95.56 163.626 95.303 164.052 95.0985C164.477 94.894 164.97 94.7721 165.532 94.7328C166.168 94.6884 166.761 94.7467 167.312 94.908C167.862 95.0692 168.339 95.3155 168.741 95.6469L168.316 96.628Z" fill="white"/>
<path d="M88.2215 180.386C88.2968 180.381 88.3599 180.381 88.4107 180.386C88.4612 180.387 88.506 180.396 88.5452 180.414C88.5882 180.428 88.6298 180.453 88.6701 180.488C88.7101 180.518 88.7552 180.562 88.8053 180.617L93.994 186.354C93.967 186.208 93.9445 186.067 93.9265 185.929C93.9123 185.787 93.901 185.656 93.8926 185.534L93.5067 180.017L94.9944 179.913L95.6291 188.989L94.7566 189.05C94.6227 189.06 94.5103 189.047 94.4195 189.011C94.3287 188.975 94.2376 188.906 94.1463 188.803L88.9783 183.09C89.0002 183.223 89.0179 183.356 89.0315 183.49C89.0489 183.619 89.0614 183.738 89.069 183.847L89.4588 189.421L87.9712 189.525L87.3365 180.448L88.2215 180.386ZM99.6643 182.135C100.145 182.101 100.586 182.148 100.986 182.276C101.39 182.403 101.74 182.599 102.037 182.864C102.333 183.13 102.57 183.462 102.75 183.862C102.929 184.261 103.036 184.714 103.072 185.22C103.107 185.731 103.064 186.197 102.942 186.617C102.82 187.038 102.631 187.402 102.375 187.71C102.119 188.018 101.8 188.263 101.418 188.446C101.039 188.628 100.609 188.736 100.128 188.769C99.647 188.803 99.2043 188.756 98.8001 188.629C98.3959 188.502 98.0435 188.303 97.743 188.034C97.4466 187.765 97.2066 187.43 97.0231 187.031C96.8438 186.632 96.7363 186.177 96.7006 185.666C96.6652 185.16 96.7085 184.696 96.8304 184.276C96.9566 183.855 97.1478 183.492 97.4041 183.188C97.6646 182.884 97.9861 182.641 98.3686 182.459C98.7511 182.276 99.183 182.168 99.6643 182.135ZM100.045 187.577C100.58 187.539 100.963 187.332 101.193 186.954C101.428 186.576 101.521 186.04 101.472 185.345C101.423 184.65 101.257 184.13 100.972 183.784C100.691 183.438 100.283 183.283 99.7472 183.321C99.2032 183.359 98.8144 183.571 98.5807 183.958C98.3467 184.34 98.2538 184.876 98.3021 185.567C98.3504 186.257 98.517 186.775 98.8019 187.121C99.0865 187.463 99.5008 187.615 100.045 187.577ZM106.954 188.197L106.301 178.87L107.852 178.761L108.109 182.44C108.345 182.15 108.619 181.914 108.93 181.733C109.241 181.547 109.612 181.439 110.043 181.409C110.394 181.384 110.72 181.435 111.019 181.561C111.321 181.683 111.587 181.875 111.816 182.136C112.048 182.398 112.235 182.727 112.377 183.125C112.522 183.523 112.614 183.986 112.65 184.513C112.684 184.994 112.65 185.444 112.549 185.863C112.448 186.283 112.287 186.651 112.065 186.97C111.848 187.288 111.574 187.544 111.242 187.74C110.915 187.931 110.54 188.041 110.118 188.071C109.921 188.085 109.74 188.076 109.573 188.046C109.408 188.02 109.255 187.976 109.116 187.914C108.977 187.852 108.846 187.775 108.722 187.683C108.601 187.586 108.485 187.479 108.371 187.36L108.332 187.798C108.315 187.909 108.276 187.989 108.217 188.04C108.161 188.09 108.081 188.119 107.977 188.126L106.954 188.197ZM109.594 182.651C109.271 182.674 109 182.762 108.779 182.916C108.563 183.066 108.365 183.271 108.185 183.532L108.387 186.419C108.578 186.625 108.779 186.764 108.991 186.838C109.206 186.907 109.435 186.933 109.677 186.916C109.912 186.899 110.12 186.841 110.302 186.74C110.484 186.639 110.634 186.494 110.751 186.305C110.872 186.115 110.959 185.882 111.011 185.605C111.063 185.324 111.076 184.997 111.05 184.625C111.024 184.248 110.97 183.932 110.889 183.677C110.812 183.418 110.711 183.21 110.587 183.055C110.462 182.9 110.316 182.79 110.148 182.726C109.983 182.662 109.799 182.637 109.594 182.651ZM114.095 187.698L113.644 181.258L114.554 181.194C114.713 181.183 114.826 181.205 114.893 181.259C114.96 181.313 115.009 181.411 115.04 181.551L115.188 182.323C115.391 181.91 115.639 181.577 115.932 181.325C116.226 181.073 116.565 180.934 116.95 180.907C117.268 180.885 117.537 180.939 117.756 181.071L117.637 182.247C117.629 182.323 117.606 182.379 117.567 182.416C117.527 182.448 117.471 182.466 117.4 182.471C117.337 182.476 117.251 182.467 117.14 182.445C117.029 182.424 116.883 182.419 116.704 182.432C116.381 182.454 116.111 182.564 115.894 182.76C115.676 182.951 115.5 183.224 115.364 183.579L115.645 187.59L114.095 187.698ZM124.082 187L123.385 187.048C123.239 187.059 123.122 187.046 123.036 187.01C122.949 186.97 122.88 186.884 122.828 186.753L122.658 186.305C122.505 186.462 122.353 186.603 122.202 186.728C122.055 186.847 121.9 186.95 121.738 187.037C121.576 187.125 121.402 187.193 121.216 187.244C121.031 187.295 120.823 187.329 120.593 187.345C120.321 187.364 120.067 187.346 119.832 187.291C119.597 187.231 119.39 187.134 119.212 187C119.039 186.865 118.899 186.691 118.791 186.48C118.684 186.269 118.62 186.019 118.6 185.73C118.583 185.488 118.629 185.245 118.738 185.002C118.851 184.754 119.05 184.526 119.334 184.317C119.618 184.103 120.002 183.917 120.487 183.757C120.972 183.597 121.58 183.483 122.311 183.415L122.285 183.038C122.255 182.607 122.14 182.295 121.942 182.103C121.747 181.907 121.476 181.82 121.129 181.845C120.878 181.862 120.671 181.906 120.507 181.976C120.344 182.047 120.202 182.124 120.082 182.208C119.966 182.288 119.857 182.36 119.757 182.426C119.656 182.492 119.543 182.53 119.418 182.538C119.313 182.546 119.221 182.525 119.142 182.476C119.063 182.427 118.998 182.364 118.946 182.288L118.629 181.811C119.322 181.082 120.192 180.68 121.238 180.607C121.615 180.581 121.954 180.62 122.255 180.725C122.561 180.826 122.824 180.98 123.045 181.187C123.265 181.39 123.438 181.641 123.564 181.939C123.694 182.237 123.772 182.568 123.797 182.932L124.082 187ZM121.001 186.244C121.16 186.233 121.306 186.208 121.438 186.169C121.57 186.13 121.692 186.078 121.805 186.011C121.922 185.944 122.032 185.865 122.135 185.773C122.242 185.678 122.348 185.567 122.453 185.442L122.377 184.356C121.926 184.409 121.551 184.475 121.249 184.555C120.952 184.63 120.714 184.719 120.536 184.819C120.358 184.92 120.233 185.032 120.162 185.154C120.095 185.277 120.066 185.407 120.076 185.545C120.095 185.817 120.188 186.006 120.355 186.112C120.527 186.218 120.742 186.262 121.001 186.244ZM127.377 180.184C127.653 180.165 127.914 180.176 128.161 180.218C128.408 180.255 128.635 180.321 128.843 180.416L130.695 180.286L130.736 180.864C130.742 180.96 130.722 181.037 130.676 181.095C130.63 181.153 130.546 181.197 130.427 181.226L129.857 181.373C129.906 181.479 129.945 181.592 129.975 181.712C130.008 181.831 130.03 181.958 130.039 182.092C130.062 182.41 130.017 182.703 129.905 182.972C129.798 183.236 129.637 183.466 129.424 183.662C129.214 183.857 128.959 184.016 128.656 184.138C128.357 184.256 128.028 184.327 127.668 184.352C127.425 184.369 127.187 184.363 126.954 184.333C126.761 184.468 126.671 184.611 126.681 184.762C126.69 184.891 126.755 184.984 126.877 185.038C127.002 185.088 127.162 185.119 127.357 185.131C127.555 185.142 127.778 185.143 128.025 185.134C128.273 185.121 128.527 185.116 128.788 185.119C129.049 185.122 129.304 185.142 129.555 185.179C129.805 185.212 130.031 185.278 130.231 185.378C130.436 185.477 130.604 185.621 130.734 185.809C130.869 185.993 130.947 186.238 130.969 186.543C130.989 186.828 130.937 187.109 130.813 187.387C130.694 187.664 130.508 187.917 130.254 188.145C130.005 188.373 129.693 188.563 129.317 188.715C128.941 188.872 128.506 188.967 128.012 189.002C127.522 189.036 127.094 189.018 126.728 188.947C126.361 188.88 126.053 188.775 125.804 188.633C125.559 188.494 125.37 188.327 125.239 188.13C125.107 187.933 125.034 187.724 125.018 187.502C124.997 187.201 125.072 186.941 125.241 186.723C125.411 186.505 125.655 186.324 125.973 186.18C125.808 186.103 125.672 185.995 125.565 185.855C125.459 185.716 125.397 185.528 125.381 185.294C125.374 185.198 125.384 185.098 125.411 184.996C125.437 184.889 125.48 184.783 125.54 184.678C125.604 184.572 125.685 184.472 125.784 184.377C125.882 184.277 126 184.187 126.137 184.106C125.798 183.953 125.524 183.737 125.316 183.457C125.111 183.177 124.995 182.84 124.968 182.447C124.945 182.129 124.988 181.838 125.096 181.574C125.207 181.305 125.37 181.073 125.583 180.877C125.8 180.677 126.061 180.518 126.363 180.4C126.671 180.282 127.008 180.21 127.377 180.184ZM129.556 186.907C129.547 186.782 129.502 186.682 129.422 186.607C129.341 186.533 129.234 186.48 129.101 186.447C128.968 186.41 128.813 186.387 128.636 186.379C128.463 186.37 128.278 186.368 128.081 186.373C127.887 186.374 127.686 186.378 127.476 186.384C127.27 186.386 127.07 186.381 126.875 186.369C126.706 186.478 126.572 186.603 126.473 186.744C126.377 186.881 126.335 187.036 126.347 187.207C126.355 187.32 126.39 187.423 126.451 187.515C126.517 187.612 126.613 187.691 126.739 187.754C126.869 187.816 127.034 187.859 127.234 187.883C127.433 187.911 127.675 187.915 127.96 187.895C128.249 187.875 128.496 187.835 128.702 187.774C128.908 187.718 129.076 187.645 129.204 187.556C129.337 187.471 129.431 187.372 129.486 187.259C129.541 187.15 129.565 187.033 129.556 186.907ZM127.599 183.36C127.791 183.347 127.957 183.31 128.096 183.25C128.234 183.186 128.346 183.104 128.432 183.006C128.521 182.907 128.585 182.791 128.622 182.658C128.663 182.525 128.678 182.381 128.667 182.226C128.645 181.908 128.531 181.664 128.326 181.493C128.124 181.318 127.833 181.243 127.452 181.27C127.072 181.297 126.792 181.411 126.612 181.613C126.437 181.81 126.36 182.068 126.382 182.386C126.393 182.536 126.426 182.675 126.481 182.801C126.54 182.928 126.619 183.036 126.718 183.125C126.821 183.211 126.945 183.276 127.091 183.32C127.241 183.36 127.41 183.373 127.599 183.36ZM135.564 180.987C135.527 181.057 135.486 181.108 135.442 181.14C135.398 181.169 135.341 181.185 135.269 181.19C135.194 181.195 135.111 181.18 135.02 181.145C134.934 181.109 134.832 181.069 134.716 181.027C134.599 180.981 134.466 180.942 134.316 180.91C134.171 180.878 134 180.869 133.803 180.883C133.498 180.904 133.262 180.986 133.095 181.128C132.928 181.27 132.852 181.445 132.867 181.655C132.877 181.793 132.929 181.907 133.023 181.997C133.122 182.083 133.247 182.156 133.398 182.217C133.554 182.277 133.728 182.33 133.92 182.376C134.113 182.417 134.309 182.464 134.511 182.517C134.712 182.571 134.91 182.635 135.104 182.709C135.299 182.78 135.474 182.877 135.629 183.001C135.789 183.12 135.919 183.268 136.02 183.446C136.125 183.624 136.187 183.843 136.205 184.102C136.226 184.412 136.19 184.702 136.095 184.974C136 185.241 135.851 185.479 135.647 185.686C135.442 185.89 135.183 186.057 134.868 186.189C134.558 186.316 134.195 186.393 133.781 186.422C133.559 186.438 133.34 186.432 133.124 186.405C132.912 186.382 132.705 186.342 132.503 186.285C132.306 186.227 132.12 186.156 131.946 186.071C131.776 185.987 131.624 185.892 131.491 185.788L131.807 185.173C131.848 185.098 131.899 185.04 131.959 184.998C132.019 184.956 132.098 184.932 132.194 184.925C132.29 184.918 132.382 184.939 132.469 184.988C132.561 185.036 132.666 185.088 132.783 185.142C132.9 185.197 133.036 185.247 133.191 185.29C133.349 185.334 133.546 185.348 133.78 185.331C133.964 185.318 134.12 185.287 134.247 185.236C134.377 185.18 134.482 185.114 134.561 185.037C134.644 184.96 134.701 184.874 134.732 184.779C134.767 184.68 134.781 184.58 134.774 184.48C134.763 184.329 134.709 184.209 134.61 184.119C134.515 184.029 134.39 183.953 134.235 183.893C134.083 183.832 133.909 183.781 133.713 183.74C133.521 183.695 133.322 183.646 133.116 183.593C132.915 183.539 132.715 183.476 132.516 183.401C132.321 183.322 132.144 183.219 131.984 183.092C131.827 182.964 131.696 182.803 131.59 182.608C131.488 182.413 131.427 182.174 131.407 181.889C131.389 181.626 131.424 181.371 131.512 181.125C131.6 180.879 131.738 180.661 131.927 180.472C132.119 180.277 132.362 180.117 132.656 179.992C132.954 179.861 133.302 179.782 133.699 179.755C134.143 179.724 134.552 179.769 134.926 179.89C135.3 180.011 135.617 180.182 135.877 180.403L135.564 180.987ZM145.058 185.533L144.362 185.582C144.215 185.592 144.099 185.579 144.012 185.543C143.925 185.503 143.856 185.417 143.805 185.286L143.635 184.838C143.482 184.996 143.33 185.137 143.178 185.261C143.031 185.38 142.877 185.484 142.714 185.571C142.552 185.658 142.378 185.727 142.193 185.777C142.007 185.828 141.799 185.862 141.569 185.878C141.297 185.897 141.043 185.879 140.808 185.824C140.573 185.765 140.366 185.668 140.189 185.533C140.015 185.398 139.875 185.225 139.768 185.014C139.66 184.802 139.597 184.552 139.576 184.264C139.56 184.021 139.606 183.778 139.715 183.535C139.828 183.287 140.026 183.059 140.31 182.85C140.594 182.637 140.978 182.45 141.463 182.29C141.948 182.13 142.556 182.016 143.287 181.948L143.261 181.571C143.231 181.14 143.117 180.829 142.918 180.636C142.724 180.44 142.453 180.354 142.105 180.378C141.854 180.395 141.647 180.439 141.484 180.51C141.321 180.58 141.179 180.657 141.058 180.741C140.942 180.821 140.834 180.894 140.733 180.96C140.633 181.025 140.52 181.063 140.394 181.072C140.289 181.079 140.198 181.058 140.118 181.009C140.039 180.96 139.974 180.897 139.922 180.821L139.605 180.345C140.298 179.615 141.168 179.213 142.214 179.14C142.591 179.114 142.93 179.153 143.232 179.258C143.537 179.359 143.801 179.513 144.021 179.72C144.241 179.924 144.414 180.174 144.54 180.473C144.671 180.77 144.748 181.101 144.774 181.465L145.058 185.533ZM141.978 184.777C142.137 184.766 142.282 184.741 142.414 184.702C142.546 184.664 142.668 184.611 142.781 184.544C142.899 184.477 143.009 184.398 143.112 184.307C143.219 184.211 143.324 184.1 143.429 183.975L143.353 182.889C142.903 182.942 142.527 183.008 142.226 183.088C141.928 183.164 141.69 183.252 141.512 183.352C141.334 183.453 141.21 183.565 141.138 183.688C141.071 183.81 141.042 183.94 141.052 184.078C141.071 184.35 141.164 184.539 141.331 184.646C141.503 184.751 141.718 184.795 141.978 184.777ZM149.589 185.216L148.182 185.314L145.171 179.053L146.458 178.963C146.571 178.955 146.667 178.976 146.746 179.025C146.829 179.074 146.889 179.139 146.924 179.221L148.407 182.574C148.492 182.77 148.565 182.962 148.624 183.152C148.688 183.341 148.745 183.53 148.796 183.72C148.821 183.525 148.849 183.329 148.882 183.134C148.918 182.938 148.967 182.737 149.029 182.53L150.062 179.002C150.086 178.916 150.133 178.843 150.205 178.783C150.276 178.724 150.364 178.69 150.469 178.683L151.693 178.597L149.589 185.216ZM158.103 184.621L157.406 184.67C157.259 184.68 157.143 184.667 157.056 184.631C156.969 184.591 156.9 184.505 156.849 184.374L156.679 183.926C156.526 184.083 156.374 184.224 156.223 184.349C156.076 184.468 155.921 184.572 155.759 184.659C155.597 184.746 155.423 184.814 155.237 184.865C155.051 184.916 154.844 184.95 154.613 184.966C154.341 184.985 154.088 184.967 153.853 184.912C153.617 184.852 153.411 184.755 153.233 184.621C153.06 184.486 152.919 184.313 152.812 184.101C152.705 183.89 152.641 183.64 152.621 183.352C152.604 183.109 152.65 182.866 152.759 182.623C152.872 182.375 153.071 182.147 153.355 181.938C153.638 181.724 154.023 181.538 154.508 181.378C154.993 181.218 155.601 181.104 156.332 181.036L156.305 180.659C156.275 180.228 156.161 179.916 155.963 179.724C155.768 179.528 155.497 179.441 155.15 179.466C154.899 179.483 154.691 179.527 154.528 179.598C154.365 179.668 154.223 179.745 154.103 179.829C153.986 179.909 153.878 179.982 153.777 180.047C153.677 180.113 153.564 180.151 153.438 180.159C153.334 180.167 153.242 180.146 153.163 180.097C153.084 180.048 153.018 179.985 152.967 179.909L152.65 179.432C153.343 178.703 154.213 178.301 155.259 178.228C155.635 178.202 155.974 178.241 156.276 178.346C156.582 178.447 156.845 178.601 157.065 178.808C157.286 179.012 157.459 179.262 157.585 179.56C157.715 179.858 157.793 180.189 157.818 180.553L158.103 184.621ZM155.022 183.865C155.181 183.854 155.327 183.829 155.458 183.79C155.59 183.751 155.713 183.699 155.826 183.632C155.943 183.565 156.053 183.486 156.156 183.394C156.263 183.299 156.369 183.188 156.474 183.063L156.398 181.977C155.947 182.03 155.571 182.096 155.27 182.176C154.972 182.251 154.735 182.34 154.557 182.44C154.379 182.541 154.254 182.653 154.183 182.776C154.116 182.898 154.087 183.028 154.096 183.166C154.116 183.438 154.209 183.627 154.376 183.733C154.547 183.839 154.763 183.883 155.022 183.865ZM160.828 177.959L161.278 184.399L159.728 184.507L159.277 178.067L160.828 177.959ZM160.929 176.066C160.938 176.199 160.92 176.327 160.873 176.448C160.827 176.569 160.761 176.676 160.675 176.771C160.593 176.865 160.494 176.943 160.376 177.006C160.258 177.065 160.13 177.099 159.992 177.109C159.858 177.118 159.729 177.102 159.604 177.06C159.483 177.014 159.376 176.95 159.282 176.868C159.188 176.786 159.109 176.689 159.047 176.576C158.988 176.462 158.955 176.338 158.945 176.204C158.935 176.066 158.952 175.935 158.993 175.81C159.039 175.685 159.103 175.575 159.185 175.481C159.266 175.387 159.364 175.311 159.478 175.252C159.595 175.189 159.721 175.153 159.855 175.144C159.993 175.134 160.125 175.152 160.25 175.198C160.375 175.24 160.484 175.302 160.578 175.384C160.676 175.465 160.757 175.564 160.82 175.682C160.883 175.8 160.919 175.927 160.929 176.066ZM164.034 174.833L164.686 184.16L163.136 184.269L162.484 174.941L164.034 174.833ZM171.49 183.685L170.794 183.733C170.647 183.744 170.531 183.731 170.444 183.695C170.357 183.655 170.288 183.569 170.237 183.438L170.067 182.989C169.914 183.147 169.762 183.288 169.61 183.412C169.463 183.532 169.309 183.635 169.146 183.722C168.984 183.809 168.81 183.878 168.625 183.929C168.439 183.98 168.231 184.013 168.001 184.03C167.729 184.049 167.475 184.031 167.24 183.976C167.005 183.916 166.798 183.819 166.621 183.685C166.447 183.549 166.307 183.376 166.2 183.165C166.092 182.954 166.029 182.704 166.008 182.415C165.991 182.173 166.038 181.93 166.147 181.687C166.26 181.439 166.458 181.211 166.742 181.002C167.026 180.788 167.41 180.602 167.895 180.442C168.38 180.282 168.988 180.168 169.719 180.1L169.693 179.723C169.663 179.292 169.549 178.98 169.35 178.788C169.156 178.591 168.885 178.505 168.537 178.53C168.286 178.547 168.079 178.591 167.916 178.661C167.752 178.732 167.611 178.809 167.49 178.893C167.374 178.973 167.266 179.045 167.165 179.111C167.065 179.177 166.952 179.214 166.826 179.223C166.721 179.231 166.63 179.21 166.55 179.161C166.471 179.111 166.406 179.049 166.354 178.972L166.037 178.496C166.73 177.767 167.6 177.365 168.646 177.292C169.023 177.266 169.362 177.305 169.664 177.41C169.969 177.511 170.232 177.665 170.453 177.872C170.673 178.075 170.846 178.326 170.972 178.624C171.103 178.922 171.18 179.253 171.206 179.617L171.49 183.685ZM168.41 182.929C168.569 182.918 168.714 182.893 168.846 182.854C168.978 182.815 169.1 182.763 169.213 182.696C169.331 182.629 169.441 182.55 169.544 182.458C169.651 182.363 169.756 182.252 169.861 182.127L169.785 181.041C169.335 181.094 168.959 181.16 168.657 181.24C168.36 181.315 168.122 181.403 167.944 181.504C167.766 181.605 167.642 181.717 167.57 181.839C167.503 181.962 167.474 182.092 167.484 182.23C167.503 182.502 167.596 182.691 167.763 182.797C167.935 182.903 168.15 182.947 168.41 182.929ZM173.034 183.577L172.381 174.249L173.932 174.141L174.189 177.819C174.425 177.529 174.699 177.293 175.01 177.112C175.321 176.926 175.692 176.818 176.123 176.788C176.474 176.764 176.799 176.814 177.098 176.941C177.401 177.062 177.667 177.254 177.896 177.516C178.128 177.777 178.315 178.107 178.457 178.505C178.602 178.902 178.694 179.365 178.73 179.892C178.764 180.373 178.73 180.823 178.629 181.243C178.528 181.662 178.367 182.031 178.145 182.349C177.928 182.667 177.654 182.924 177.322 183.119C176.995 183.31 176.62 183.421 176.198 183.45C176.001 183.464 175.819 183.455 175.653 183.425C175.487 183.399 175.335 183.355 175.196 183.293C175.057 183.231 174.926 183.154 174.802 183.062C174.681 182.965 174.564 182.858 174.451 182.74L174.412 183.178C174.395 183.288 174.356 183.369 174.297 183.419C174.241 183.469 174.161 183.498 174.057 183.505L173.034 183.577ZM175.673 178.031C175.351 178.053 175.08 178.141 174.859 178.296C174.643 178.445 174.445 178.651 174.265 178.911L174.467 181.799C174.658 182.004 174.859 182.143 175.071 182.217C175.286 182.286 175.514 182.312 175.757 182.295C175.992 182.279 176.2 182.22 176.382 182.119C176.564 182.018 176.714 181.873 176.831 181.684C176.952 181.494 177.039 181.261 177.091 180.984C177.143 180.703 177.156 180.376 177.13 180.004C177.103 179.627 177.05 179.312 176.969 179.056C176.892 178.797 176.791 178.59 176.667 178.434C176.542 178.279 176.396 178.169 176.227 178.105C176.063 178.041 175.879 178.016 175.673 178.031ZM181.173 173.634L181.825 182.962L180.275 183.07L179.623 173.743L181.173 173.634ZM185.787 176.112C186.193 176.084 186.57 176.123 186.918 176.229C187.27 176.335 187.578 176.504 187.843 176.738C188.107 176.968 188.321 177.26 188.484 177.614C188.647 177.964 188.745 178.372 188.778 178.836C188.786 178.953 188.787 179.052 188.78 179.133C188.777 179.208 188.762 179.27 188.736 179.319C188.714 179.362 188.68 179.396 188.636 179.42C188.591 179.44 188.533 179.453 188.462 179.458L184.482 179.736C184.574 180.394 184.786 180.867 185.117 181.155C185.449 181.443 185.87 181.569 186.38 181.533C186.631 181.516 186.845 181.471 187.021 181.4C187.201 181.329 187.355 181.253 187.484 181.172C187.617 181.091 187.732 181.018 187.828 180.953C187.929 180.887 188.027 180.85 188.123 180.844C188.186 180.839 188.241 180.848 188.289 180.87C188.337 180.892 188.379 180.925 188.416 180.968L188.907 181.502C188.75 181.714 188.569 181.897 188.365 182.05C188.161 182.199 187.945 182.324 187.717 182.424C187.492 182.519 187.26 182.592 187.019 182.643C186.783 182.693 186.552 182.726 186.326 182.742C185.878 182.773 185.457 182.729 185.062 182.609C184.666 182.486 184.316 182.289 184.011 182.021C183.706 181.748 183.457 181.403 183.264 180.988C183.071 180.568 182.954 180.076 182.915 179.511C182.884 179.072 182.926 178.655 183.042 178.26C183.157 177.861 183.336 177.509 183.58 177.206C183.827 176.899 184.136 176.648 184.505 176.454C184.878 176.26 185.305 176.146 185.787 176.112ZM185.896 177.221C185.444 177.253 185.099 177.405 184.862 177.678C184.624 177.951 184.486 178.325 184.448 178.798L187.361 178.595C187.347 178.394 187.306 178.207 187.24 178.036C187.173 177.859 187.078 177.708 186.956 177.582C186.833 177.456 186.684 177.362 186.507 177.298C186.33 177.231 186.126 177.205 185.896 177.221ZM192.716 182.2L192.266 175.76L193.176 175.697C193.335 175.685 193.448 175.707 193.515 175.761C193.582 175.815 193.631 175.913 193.661 176.054L193.81 176.825C194.012 176.412 194.26 176.079 194.554 175.827C194.847 175.575 195.187 175.436 195.572 175.409C195.89 175.387 196.158 175.442 196.378 175.574L196.258 176.749C196.251 176.825 196.228 176.881 196.188 176.918C196.148 176.95 196.093 176.969 196.022 176.974C195.959 176.978 195.872 176.969 195.761 176.948C195.65 176.926 195.505 176.921 195.325 176.934C195.003 176.956 194.733 177.066 194.515 177.262C194.298 177.454 194.121 177.727 193.986 178.081L194.267 182.092L192.716 182.2ZM199.041 175.286L199.492 181.727L197.941 181.835L197.491 175.395L199.041 175.286ZM199.142 173.393C199.152 173.527 199.133 173.655 199.087 173.776C199.041 173.897 198.975 174.004 198.889 174.099C198.807 174.193 198.707 174.271 198.59 174.334C198.472 174.393 198.344 174.427 198.206 174.437C198.072 174.446 197.943 174.43 197.818 174.388C197.697 174.342 197.589 174.278 197.495 174.196C197.401 174.114 197.323 174.017 197.26 173.903C197.202 173.79 197.168 173.666 197.159 173.532C197.149 173.394 197.165 173.262 197.207 173.138C197.253 173.012 197.317 172.903 197.398 172.809C197.48 172.715 197.578 172.639 197.691 172.58C197.809 172.517 197.935 172.481 198.069 172.472C198.207 172.462 198.338 172.48 198.463 172.526C198.588 172.568 198.698 172.63 198.792 172.711C198.89 172.793 198.971 172.892 199.033 173.01C199.096 173.127 199.133 173.255 199.142 173.393ZM203.019 174.895C203.295 174.875 203.557 174.887 203.803 174.928C204.05 174.966 204.277 175.032 204.486 175.126L206.338 174.997L206.378 175.574C206.385 175.671 206.365 175.748 206.319 175.806C206.272 175.864 206.189 175.907 206.069 175.937L205.499 176.084C205.549 176.19 205.588 176.303 205.617 176.422C205.651 176.542 205.672 176.669 205.682 176.803C205.704 177.121 205.659 177.414 205.548 177.682C205.44 177.947 205.28 178.176 205.066 178.372C204.857 178.568 204.601 178.726 204.298 178.848C204 178.966 203.67 179.037 203.31 179.063C203.068 179.08 202.83 179.073 202.596 179.043C202.404 179.179 202.313 179.322 202.324 179.472C202.333 179.602 202.398 179.694 202.52 179.749C202.645 179.799 202.805 179.83 202.999 179.841C203.197 179.853 203.42 179.854 203.668 179.845C203.915 179.832 204.169 179.827 204.43 179.83C204.691 179.832 204.947 179.852 205.197 179.889C205.448 179.922 205.673 179.989 205.874 180.088C206.078 180.187 206.246 180.331 206.377 180.52C206.512 180.704 206.59 180.948 206.611 181.254C206.631 181.539 206.579 181.82 206.456 182.097C206.336 182.375 206.15 182.628 205.897 182.856C205.648 183.083 205.335 183.273 204.959 183.426C204.583 183.582 204.148 183.678 203.655 183.713C203.165 183.747 202.737 183.728 202.37 183.657C202.004 183.59 201.696 183.486 201.446 183.343C201.201 183.205 201.013 183.037 200.881 182.84C200.75 182.644 200.676 182.434 200.661 182.213C200.64 181.911 200.714 181.652 200.884 181.434C201.054 181.216 201.297 181.035 201.615 180.891C201.45 180.814 201.314 180.706 201.208 180.566C201.101 180.426 201.04 180.239 201.024 180.005C201.017 179.908 201.027 179.809 201.053 179.706C201.079 179.599 201.122 179.493 201.182 179.388C201.246 179.283 201.328 179.182 201.426 179.087C201.524 178.988 201.642 178.898 201.779 178.816C201.441 178.664 201.167 178.447 200.958 178.167C200.754 177.887 200.638 177.551 200.61 177.157C200.588 176.839 200.63 176.548 200.738 176.284C200.85 176.016 201.012 175.784 201.226 175.588C201.443 175.388 201.703 175.229 202.006 175.111C202.313 174.992 202.651 174.92 203.019 174.895ZM205.198 181.618C205.19 181.492 205.145 181.392 205.064 181.318C204.983 181.244 204.876 181.19 204.744 181.157C204.611 181.121 204.456 181.098 204.278 181.089C204.105 181.08 203.92 181.078 203.723 181.084C203.53 181.085 203.328 181.088 203.118 181.095C202.912 181.096 202.712 181.091 202.518 181.08C202.349 181.188 202.215 181.313 202.115 181.455C202.02 181.592 201.978 181.746 201.99 181.918C201.998 182.031 202.032 182.133 202.093 182.226C202.159 182.322 202.255 182.402 202.381 182.464C202.512 182.527 202.677 182.57 202.876 182.594C203.076 182.622 203.318 182.626 203.602 182.606C203.891 182.586 204.139 182.545 204.345 182.485C204.551 182.428 204.718 182.356 204.846 182.267C204.979 182.182 205.073 182.083 205.128 181.969C205.184 181.86 205.207 181.743 205.198 181.618ZM203.241 178.071C203.434 178.057 203.599 178.021 203.738 177.96C203.876 177.896 203.989 177.815 204.074 177.716C204.164 177.617 204.227 177.502 204.264 177.369C204.305 177.235 204.321 177.091 204.31 176.936C204.288 176.618 204.174 176.374 203.968 176.203C203.767 176.028 203.476 175.954 203.095 175.981C202.714 176.007 202.434 176.121 202.255 176.323C202.079 176.521 202.003 176.778 202.025 177.096C202.035 177.247 202.068 177.385 202.123 177.512C202.183 177.638 202.262 177.746 202.361 177.836C202.463 177.921 202.588 177.986 202.734 178.031C202.884 178.071 203.053 178.084 203.241 178.071ZM207.747 181.149L207.094 171.822L208.645 171.713L208.895 175.297C209.13 175.041 209.392 174.83 209.684 174.662C209.975 174.495 210.323 174.397 210.729 174.368C211.08 174.344 211.396 174.383 211.677 174.485C211.957 174.583 212.195 174.735 212.39 174.94C212.589 175.14 212.745 175.388 212.858 175.683C212.975 175.973 213.046 176.298 213.072 176.658L213.358 180.757L211.808 180.865L211.521 176.766C211.494 176.373 211.38 176.076 211.181 175.876C210.986 175.671 210.707 175.581 210.342 175.606C210.075 175.625 209.828 175.703 209.602 175.841C209.376 175.979 209.166 176.16 208.971 176.383L209.297 181.041L207.747 181.149ZM217.004 180.603C216.448 180.642 216.008 180.515 215.684 180.222C215.361 179.925 215.18 179.498 215.141 178.942L214.889 175.345L214.236 175.391C214.153 175.397 214.078 175.375 214.011 175.325C213.949 175.274 213.914 175.195 213.906 175.086L213.863 174.471L214.887 174.229L215.09 172.448C215.101 172.364 215.134 172.296 215.19 172.246C215.249 172.196 215.325 172.167 215.417 172.161L216.221 172.105L216.362 174.132L218.057 174.013L218.134 175.118L216.44 175.237L216.684 178.727C216.698 178.928 216.759 179.081 216.867 179.187C216.976 179.293 217.113 179.34 217.281 179.328C217.377 179.322 217.456 179.306 217.517 179.28C217.582 179.25 217.637 179.221 217.681 179.193C217.73 179.164 217.772 179.138 217.808 179.115C217.844 179.087 217.881 179.072 217.919 179.069C217.965 179.066 218.003 179.076 218.034 179.099C218.065 179.118 218.099 179.149 218.135 179.193L218.653 179.914C218.44 180.118 218.19 180.278 217.904 180.395C217.618 180.512 217.318 180.581 217.004 180.603ZM222.164 180.141L221.714 173.701L222.661 173.635C222.862 173.621 223.001 173.706 223.077 173.89L223.219 174.391C223.339 174.248 223.467 174.117 223.601 173.998C223.74 173.879 223.887 173.774 224.04 173.683C224.198 173.592 224.367 173.52 224.548 173.465C224.729 173.41 224.929 173.375 225.146 173.36C225.498 173.335 225.814 173.374 226.094 173.477C226.375 173.575 226.612 173.726 226.807 173.931C227.006 174.132 227.163 174.38 227.276 174.675C227.393 174.965 227.464 175.29 227.489 175.65L227.776 179.749L226.225 179.857L225.939 175.758C225.911 175.365 225.798 175.068 225.599 174.867C225.404 174.662 225.124 174.573 224.76 174.598C224.492 174.617 224.245 174.695 224.019 174.833C223.794 174.971 223.583 175.151 223.389 175.375L223.714 180.033L222.164 180.141ZM231.591 172.909C232.072 172.876 232.513 172.923 232.913 173.05C233.317 173.178 233.667 173.374 233.963 173.639C234.259 173.904 234.497 174.237 234.676 174.636C234.856 175.036 234.963 175.489 234.999 175.995C235.034 176.506 234.991 176.971 234.869 177.392C234.747 177.813 234.558 178.177 234.302 178.485C234.046 178.793 233.727 179.038 233.344 179.221C232.966 179.403 232.536 179.51 232.055 179.544C231.574 179.578 231.131 179.531 230.727 179.404C230.323 179.276 229.97 179.078 229.67 178.809C229.373 178.54 229.133 178.205 228.95 177.806C228.771 177.406 228.663 176.951 228.627 176.441C228.592 175.934 228.635 175.471 228.757 175.05C228.883 174.629 229.075 174.267 229.331 173.963C229.591 173.659 229.913 173.416 230.295 173.233C230.678 173.051 231.11 172.943 231.591 172.909ZM231.972 178.352C232.507 178.314 232.89 178.106 233.12 177.729C233.355 177.351 233.447 176.814 233.399 176.12C233.35 175.425 233.184 174.905 232.899 174.559C232.618 174.213 232.21 174.058 231.674 174.096C231.13 174.134 230.741 174.346 230.508 174.732C230.274 175.115 230.181 175.651 230.229 176.341C230.277 177.032 230.444 177.55 230.729 177.896C231.013 178.238 231.428 178.39 231.972 178.352ZM235.199 172.758L236.43 172.672C236.547 172.664 236.647 172.684 236.73 172.733C236.814 172.782 236.869 172.847 236.895 172.93L238.059 176.305C238.122 176.49 238.175 176.671 238.217 176.849C238.263 177.026 238.307 177.204 238.349 177.382C238.382 177.199 238.418 177.016 238.455 176.832C238.497 176.648 238.541 176.46 238.586 176.268L239.412 172.741C239.431 172.656 239.476 172.583 239.548 172.523C239.619 172.464 239.705 172.43 239.806 172.423L240.49 172.375C240.603 172.368 240.699 172.388 240.778 172.437C240.857 172.486 240.912 172.552 240.943 172.634L242.244 176.075C242.311 176.251 242.371 176.424 242.425 176.592C242.483 176.757 242.538 176.923 242.592 177.092C242.609 176.91 242.628 176.728 242.649 176.545C242.674 176.363 242.707 176.173 242.748 175.977L243.461 172.47C243.476 172.385 243.522 172.313 243.597 172.253C243.673 172.193 243.763 172.159 243.868 172.152L245.042 172.07L243.452 178.653L242.203 178.74C242.069 178.749 241.966 178.664 241.895 178.484L240.473 174.843C240.427 174.724 240.383 174.605 240.341 174.486C240.303 174.363 240.269 174.241 240.24 174.121C240.224 174.249 240.205 174.376 240.185 174.504C240.164 174.627 240.139 174.753 240.11 174.881L239.196 178.673C239.15 178.861 239.043 178.961 238.876 178.973L237.69 179.056L235.199 172.758Z" fill="#8F9090"/>
</g>
<rect x="0.880682" y="21.9176" width="307.536" height="195.061" rx="12.1913" transform="rotate(-4 0.880682 21.9176)" stroke="#3D3D3D" stroke-width="0.786538"/>
<defs>
<radialGradient id="paint0_radial_5415_165688" cx="0" cy="0" r="1" gradientUnits="userSpaceOnUse" gradientTransform="translate(202.771 112.162) rotate(89.0388) scale(345.635)">
<stop stop-color="#D9D9D9" stop-opacity="0.15"/>
<stop offset="0.586584" stop-color="#111212" stop-opacity="0"/>
</radialGradient>
<clipPath id="clip0_5415_165688">
<rect x="0.460938" y="21.5527" width="308.323" height="195.848" rx="12.5846" transform="rotate(-4 0.460938 21.5527)" fill="white"/>
</clipPath>
</defs>
</svg>
