<svg width="44" height="44" viewBox="0 0 44 44" fill="none" xmlns="http://www.w3.org/2000/svg">
<g clip-path="url(#clip0_6800_60754)">
<rect width="43.6129" height="43.6129" rx="21.8065" fill="#0C0D0D"/>
<g filter="url(#filter0_ddi_6800_60754)">
<path d="M10.3502 29.5489C8.40225 31.18 7.75293 36.0214 7.75293 36.0214C7.75293 36.0214 12.6099 35.3742 14.2462 33.4324C15.1682 32.345 15.1552 30.6751 14.1293 29.6654C13.6245 29.1851 12.9596 28.9076 12.2621 28.8861C11.5647 28.8646 10.8838 29.1006 10.3502 29.5489Z" fill="#F0BE45"/>
</g>
<path d="M20.0893 27.6044L16.1934 23.7208C16.8844 21.9337 17.7546 20.2205 18.7907 18.6075C20.3038 16.1958 22.4108 14.2101 24.9112 12.8393C27.4116 11.4684 30.2222 10.7581 33.0758 10.7757C33.0758 14.2968 32.0629 20.4845 25.2839 25.0153C23.6436 26.0493 21.9033 26.9166 20.0893 27.6044Z" fill="url(#paint0_radial_6800_60754)"/>
<path d="M16.1934 23.7193H9.7002C9.7002 23.7193 10.4145 19.797 12.2975 18.5413C14.4013 17.1432 18.7907 18.5413 18.7907 18.5413" fill="#003D71"/>
<path d="M20.0898 27.6037V34.0762C20.0898 34.0762 24.0248 33.3642 25.2844 31.4872C26.687 29.3901 25.2844 25.0146 25.2844 25.0146" fill="#003D71"/>
<path d="M7.61411 11.9551L6.57549 15.1155C6.52231 15.2796 6.4308 15.4288 6.3085 15.5508C6.18619 15.6729 6.03658 15.7642 5.87196 15.8173L2.69434 16.8592L5.86486 17.8945C6.02952 17.9475 6.1792 18.0387 6.3016 18.1606C6.424 18.2825 6.51562 18.4317 6.56893 18.5958L7.61411 21.7633L8.65273 18.6029C8.70591 18.4387 8.79742 18.2895 8.91972 18.1675C9.04203 18.0455 9.19164 17.9542 9.35626 17.901L12.5339 16.8592L9.36336 15.8239C9.19871 15.7709 9.04902 15.6796 8.92662 15.5577C8.80422 15.4358 8.7126 15.2867 8.65929 15.1226L7.61411 11.9551Z" fill="#E6F1FA"/>
<g clip-path="url(#clip1_6800_60754)">
<path d="M27.637 4.76562L27.2908 5.8191C27.2731 5.87381 27.2426 5.92354 27.2018 5.96421C27.161 6.00488 27.1112 6.03533 27.0563 6.05304L25.9971 6.40032L27.0539 6.74543C27.1088 6.7631 27.1587 6.7935 27.1995 6.83414C27.2403 6.87478 27.2708 6.92449 27.2886 6.97919L27.637 8.03502L27.9832 6.98155C28.0009 6.92684 28.0314 6.8771 28.0722 6.83643C28.113 6.79576 28.1628 6.76532 28.2177 6.74761L29.2769 6.40032L28.2201 6.05522C28.1652 6.03755 28.1153 6.00714 28.0745 5.96651C28.0337 5.92587 28.0032 5.87616 27.9854 5.82146L27.637 4.76562Z" fill="#E6F1FA"/>
</g>
<path d="M43.0621 13.5908L42.3697 15.6978C42.3342 15.8072 42.2732 15.9067 42.1917 15.988C42.1101 16.0693 42.0104 16.1302 41.9006 16.1657L39.7822 16.8602L41.8959 17.5504C42.0057 17.5858 42.1055 17.6466 42.1871 17.7279C42.2687 17.8091 42.3298 17.9086 42.3653 18.0179L43.0621 20.1296L43.7545 18.0227C43.7899 17.9132 43.8509 17.8138 43.9325 17.7324C44.014 17.6511 44.1138 17.5902 44.2235 17.5548L46.3419 16.8602L44.2282 16.17C44.1185 16.1347 44.0187 16.0739 43.9371 15.9926C43.8555 15.9113 43.7944 15.8119 43.7589 15.7025L43.0621 13.5908Z" fill="#E6F1FA"/>
<path d="M30.3716 36.9648L29.6792 39.0718C29.6438 39.1812 29.5828 39.2807 29.5012 39.362C29.4197 39.4434 29.32 39.5042 29.2102 39.5397L27.0918 40.2342L29.2055 40.9244C29.3152 40.9598 29.415 41.0206 29.4966 41.1019C29.5782 41.1832 29.6393 41.2826 29.6749 41.392L30.3716 43.5036L31.0641 41.3967C31.0995 41.2873 31.1605 41.1878 31.2421 41.1065C31.3236 41.0251 31.4233 40.9642 31.5331 40.9288L33.6515 40.2342L31.5378 39.544C31.428 39.5087 31.3283 39.4479 31.2467 39.3666C31.1651 39.2853 31.104 39.1859 31.0684 39.0765L30.3716 36.9648Z" fill="#E6F1FA"/>
</g>
<defs>
<filter id="filter0_ddi_6800_60754" x="-1.67038" y="18.5191" width="26.0126" height="27.868" filterUnits="userSpaceOnUse" color-interpolation-filters="sRGB">
<feFlood flood-opacity="0" result="BackgroundImageFix"/>
<feColorMatrix in="SourceAlpha" type="matrix" values="0 0 0 0 0 0 0 0 0 0 0 0 0 0 0 0 0 0 127 0" result="hardAlpha"/>
<feOffset dy="0.942331"/>
<feGaussianBlur stdDeviation="4.71165"/>
<feComposite in2="hardAlpha" operator="out"/>
<feColorMatrix type="matrix" values="0 0 0 0 0.901961 0 0 0 0 0.737255 0 0 0 0 0.129412 0 0 0 0.5 0"/>
<feBlend mode="normal" in2="BackgroundImageFix" result="effect1_dropShadow_6800_60754"/>
<feColorMatrix in="SourceAlpha" type="matrix" values="0 0 0 0 0 0 0 0 0 0 0 0 0 0 0 0 0 0 127 0" result="hardAlpha"/>
<feOffset dy="-0.942331"/>
<feGaussianBlur stdDeviation="4.71165"/>
<feComposite in2="hardAlpha" operator="out"/>
<feColorMatrix type="matrix" values="0 0 0 0 0.901961 0 0 0 0 0.733333 0 0 0 0 0.12549 0 0 0 0.5 0"/>
<feBlend mode="normal" in2="effect1_dropShadow_6800_60754" result="effect2_dropShadow_6800_60754"/>
<feBlend mode="normal" in="SourceGraphic" in2="effect2_dropShadow_6800_60754" result="shape"/>
<feColorMatrix in="SourceAlpha" type="matrix" values="0 0 0 0 0 0 0 0 0 0 0 0 0 0 0 0 0 0 127 0" result="hardAlpha"/>
<feOffset dy="0.942331"/>
<feGaussianBlur stdDeviation="2.35583"/>
<feComposite in2="hardAlpha" operator="arithmetic" k2="-1" k3="1"/>
<feColorMatrix type="matrix" values="0 0 0 0 0.988235 0 0 0 0 0.858824 0 0 0 0 0.168627 0 0 0 1 0"/>
<feBlend mode="normal" in2="shape" result="effect3_innerShadow_6800_60754"/>
</filter>
<radialGradient id="paint0_radial_6800_60754" cx="0" cy="0" r="1" gradientTransform="matrix(-7.34073 6.8438 -3.54733 -3.78069 24.6346 19.1899)" gradientUnits="userSpaceOnUse">
<stop stop-color="#469AE1"/>
<stop offset="1" stop-color="#01457F"/>
</radialGradient>
<clipPath id="clip0_6800_60754">
<rect width="43.6129" height="43.6129" rx="21.8065" fill="white"/>
</clipPath>
<clipPath id="clip1_6800_60754">
<rect width="4.37313" height="4.3592" fill="white" transform="translate(25.4502 4.2207)"/>
</clipPath>
</defs>
</svg>
