<svg width="163" height="170" viewBox="0 0 163 170" fill="none" xmlns="http://www.w3.org/2000/svg">
<path d="M83.15 102.1H51.55C35.75 102.1 30.5 91.6004 30.5 81.0504V38.9504C30.5 23.1504 35.75 17.9004 51.55 17.9004H83.15C98.95 17.9004 104.2 23.1504 104.2 38.9504V81.0504C104.2 96.8504 98.9 102.1 83.15 102.1Z" fill="#3D3D3D"/>
<path opacity="0.4" d="M118.101 85.5007L104.201 75.7507V44.2007L118.101 34.4507C124.901 29.7007 130.501 32.6007 130.501 40.9507V79.0507C130.501 87.4007 124.901 90.3007 118.101 85.5007Z" fill="#3D3D3D"/>
<path opacity="0.4" d="M78 55C82.1421 55 85.5 51.6421 85.5 47.5C85.5 43.3579 82.1421 40 78 40C73.8579 40 70.5 43.3579 70.5 47.5C70.5 51.6421 73.8579 55 78 55Z" fill="#3D3D3D" stroke="#171717" stroke-width="7.5" stroke-linecap="round" stroke-linejoin="round"/>
<rect y="128" width="161" height="42" rx="21" fill="url(#paint0_linear_4285_57709)"/>
<path d="M17.8958 155.256C16.8718 155.256 15.9705 155.021 15.1918 154.552C14.4131 154.072 13.8051 153.389 13.3678 152.504C12.9305 151.619 12.7118 150.563 12.7118 149.336C12.7118 148.12 12.9251 147.069 13.3518 146.184C13.7891 145.288 14.3971 144.6 15.1758 144.12C15.9545 143.629 16.8665 143.384 17.9118 143.384C19.3198 143.384 20.4131 143.736 21.1918 144.44C21.9705 145.144 22.4771 146.12 22.7118 147.368L20.9038 147.464C20.7545 146.685 20.4345 146.077 19.9438 145.64C19.4531 145.192 18.7758 144.968 17.9118 144.968C17.2185 144.968 16.6158 145.144 16.1038 145.496C15.6025 145.848 15.2078 146.349 14.9198 147C14.6425 147.651 14.5038 148.429 14.5038 149.336C14.5038 150.243 14.6425 151.021 14.9198 151.672C15.2078 152.323 15.6078 152.819 16.1198 153.16C16.6318 153.501 17.2238 153.672 17.8958 153.672C18.8131 153.672 19.5225 153.432 20.0238 152.952C20.5358 152.461 20.8558 151.789 20.9838 150.936L22.7918 151.032C22.6531 151.896 22.3758 152.643 21.9598 153.272C21.5438 153.901 20.9945 154.392 20.3118 154.744C19.6291 155.085 18.8238 155.256 17.8958 155.256ZM24.4891 155V146.488H26.0411L26.1051 148.744L25.9611 148.696C26.0784 147.928 26.3131 147.368 26.6651 147.016C27.0277 146.664 27.5131 146.488 28.1211 146.488H28.9371V148.008H28.1211C27.6944 148.008 27.3371 148.077 27.0491 148.216C26.7611 148.355 26.5424 148.568 26.3931 148.856C26.2544 149.144 26.1851 149.517 26.1851 149.976V155H24.4891ZM33.6493 155.192C32.8173 155.192 32.0973 155.011 31.4893 154.648C30.892 154.285 30.428 153.768 30.0973 153.096C29.7773 152.424 29.6173 151.64 29.6173 150.744C29.6173 149.848 29.7773 149.069 30.0973 148.408C30.428 147.736 30.892 147.219 31.4893 146.856C32.0866 146.483 32.7906 146.296 33.6013 146.296C34.3693 146.296 35.0466 146.477 35.6333 146.84C36.22 147.192 36.6733 147.704 36.9933 148.376C37.324 149.048 37.4893 149.859 37.4893 150.808V151.24H31.3773C31.42 152.072 31.6386 152.696 32.0333 153.112C32.4386 153.528 32.9826 153.736 33.6653 153.736C34.1666 153.736 34.5826 153.619 34.9133 153.384C35.244 153.149 35.4733 152.835 35.6013 152.44L37.3613 152.552C37.1373 153.341 36.6946 153.981 36.0333 154.472C35.3826 154.952 34.588 155.192 33.6493 155.192ZM31.3773 149.96H35.6973C35.644 149.203 35.4253 148.643 35.0413 148.28C34.668 147.917 34.188 147.736 33.6013 147.736C32.9933 147.736 32.492 147.928 32.0973 148.312C31.7133 148.685 31.4733 149.235 31.3773 149.96ZM41.7637 155.192C40.8784 155.192 40.169 154.989 39.6357 154.584C39.113 154.179 38.8517 153.608 38.8517 152.872C38.8517 152.136 39.0704 151.565 39.5077 151.16C39.9557 150.744 40.6437 150.445 41.5717 150.264L44.4997 149.704C44.4997 149.043 44.345 148.552 44.0357 148.232C43.7264 147.901 43.2677 147.736 42.6597 147.736C42.1157 147.736 41.689 147.859 41.3797 148.104C41.0704 148.339 40.857 148.691 40.7397 149.16L38.9957 149.048C39.1557 148.195 39.5504 147.523 40.1797 147.032C40.8197 146.541 41.6464 146.296 42.6597 146.296C43.8117 146.296 44.6864 146.605 45.2837 147.224C45.8917 147.832 46.1957 148.691 46.1957 149.8V153.112C46.1957 153.315 46.2277 153.459 46.2917 153.544C46.3664 153.619 46.4837 153.656 46.6437 153.656H46.9477V155C46.8944 155.011 46.809 155.021 46.6917 155.032C46.5744 155.043 46.4517 155.048 46.3237 155.048C45.961 155.048 45.6464 154.989 45.3797 154.872C45.1237 154.755 44.9317 154.563 44.8037 154.296C44.6757 154.019 44.6117 153.651 44.6117 153.192L44.7877 153.272C44.7024 153.645 44.5157 153.976 44.2277 154.264C43.9504 154.552 43.593 154.781 43.1557 154.952C42.729 155.112 42.265 155.192 41.7637 155.192ZM42.0357 153.848C42.5477 153.848 42.985 153.752 43.3477 153.56C43.7104 153.357 43.993 153.08 44.1957 152.728C44.3984 152.376 44.4997 151.976 44.4997 151.528V150.984L42.0037 151.464C41.4917 151.56 41.129 151.715 40.9157 151.928C40.713 152.131 40.6117 152.392 40.6117 152.712C40.6117 153.075 40.7344 153.357 40.9797 153.56C41.2357 153.752 41.5877 153.848 42.0357 153.848ZM51.2062 155C50.3955 155 49.7982 154.813 49.4142 154.44C49.0302 154.067 48.8382 153.485 48.8382 152.696V144.488H50.5342V152.568C50.5342 152.963 50.6195 153.235 50.7902 153.384C50.9609 153.533 51.2222 153.608 51.5742 153.608H52.7902V155H51.2062ZM47.5422 147.88V146.488H52.7902V147.88H47.5422ZM57.7743 155.192C56.9423 155.192 56.2223 155.011 55.6143 154.648C55.017 154.285 54.553 153.768 54.2223 153.096C53.9023 152.424 53.7423 151.64 53.7423 150.744C53.7423 149.848 53.9023 149.069 54.2223 148.408C54.553 147.736 55.017 147.219 55.6143 146.856C56.2116 146.483 56.9156 146.296 57.7263 146.296C58.4943 146.296 59.1716 146.477 59.7583 146.84C60.345 147.192 60.7983 147.704 61.1183 148.376C61.449 149.048 61.6143 149.859 61.6143 150.808V151.24H55.5023C55.545 152.072 55.7636 152.696 56.1583 153.112C56.5636 153.528 57.1076 153.736 57.7903 153.736C58.2916 153.736 58.7076 153.619 59.0383 153.384C59.369 153.149 59.5983 152.835 59.7263 152.44L61.4863 152.552C61.2623 153.341 60.8196 153.981 60.1583 154.472C59.5076 154.952 58.713 155.192 57.7743 155.192ZM55.5023 149.96H59.8223C59.769 149.203 59.5503 148.643 59.1663 148.28C58.793 147.917 58.313 147.736 57.7263 147.736C57.1183 147.736 56.617 147.928 56.2223 148.312C55.8383 148.685 55.5983 149.235 55.5023 149.96ZM69.2357 155C68.681 155 68.233 154.856 67.8917 154.568C67.5504 154.28 67.3797 153.821 67.3797 153.192V143.64H69.0757V153.032C69.0757 153.224 69.1237 153.368 69.2197 153.464C69.3264 153.56 69.4757 153.608 69.6677 153.608H70.3397V155H69.2357ZM71.7703 155V146.488H73.4663V155H71.7703ZM71.7383 145.256V143.56H73.4983V145.256H71.7383ZM77.9638 155L74.8598 146.488H76.6678L78.9878 153.272L81.3078 146.488H83.1318L80.0118 155H77.9638ZM87.7274 155.192C86.8954 155.192 86.1754 155.011 85.5674 154.648C84.9701 154.285 84.5061 153.768 84.1754 153.096C83.8554 152.424 83.6954 151.64 83.6954 150.744C83.6954 149.848 83.8554 149.069 84.1754 148.408C84.5061 147.736 84.9701 147.219 85.5674 146.856C86.1648 146.483 86.8688 146.296 87.6794 146.296C88.4474 146.296 89.1248 146.477 89.7114 146.84C90.2981 147.192 90.7514 147.704 91.0714 148.376C91.4021 149.048 91.5674 149.859 91.5674 150.808V151.24H85.4554C85.4981 152.072 85.7168 152.696 86.1114 153.112C86.5168 153.528 87.0608 153.736 87.7434 153.736C88.2448 153.736 88.6608 153.619 88.9914 153.384C89.3221 153.149 89.5514 152.835 89.6794 152.44L91.4394 152.552C91.2154 153.341 90.7728 153.981 90.1114 154.472C89.4608 154.952 88.6661 155.192 87.7274 155.192ZM85.4554 149.96H89.7754C89.7221 149.203 89.5034 148.643 89.1194 148.28C88.7461 147.917 88.2661 147.736 87.6794 147.736C87.0714 147.736 86.5701 147.928 86.1754 148.312C85.7914 148.685 85.5514 149.235 85.4554 149.96ZM100.613 155.192C99.8128 155.192 99.1355 155.069 98.5808 154.824C98.0368 154.579 97.6155 154.243 97.3168 153.816C97.0181 153.379 96.8475 152.877 96.8048 152.312L98.5488 152.232C98.6341 152.701 98.8368 153.075 99.1568 153.352C99.4768 153.629 99.9621 153.768 100.613 153.768C101.146 153.768 101.567 153.683 101.877 153.512C102.186 153.341 102.341 153.069 102.341 152.696C102.341 152.493 102.287 152.323 102.181 152.184C102.085 152.035 101.893 151.912 101.605 151.816C101.317 151.709 100.89 151.608 100.325 151.512C99.4821 151.352 98.8208 151.165 98.3408 150.952C97.8608 150.739 97.5195 150.467 97.3168 150.136C97.1141 149.805 97.0128 149.405 97.0128 148.936C97.0128 148.157 97.3008 147.523 97.8768 147.032C98.4635 146.541 99.3061 146.296 100.405 146.296C101.141 146.296 101.759 146.424 102.261 146.68C102.762 146.925 103.151 147.261 103.429 147.688C103.717 148.104 103.898 148.573 103.973 149.096L102.229 149.192C102.175 148.893 102.069 148.637 101.909 148.424C101.759 148.2 101.557 148.029 101.301 147.912C101.045 147.784 100.741 147.72 100.389 147.72C99.8448 147.72 99.4395 147.827 99.1728 148.04C98.9061 148.253 98.7728 148.531 98.7728 148.872C98.7728 149.128 98.8315 149.336 98.9488 149.496C99.0768 149.656 99.2795 149.789 99.5568 149.896C99.8341 149.992 100.202 150.077 100.661 150.152C101.546 150.301 102.239 150.488 102.741 150.712C103.242 150.925 103.594 151.192 103.797 151.512C103.999 151.832 104.101 152.221 104.101 152.68C104.101 153.213 103.951 153.667 103.653 154.04C103.354 154.413 102.943 154.701 102.421 154.904C101.898 155.096 101.295 155.192 100.613 155.192ZM108.769 155C107.958 155 107.361 154.813 106.977 154.44C106.593 154.067 106.401 153.485 106.401 152.696V144.488H108.097V152.568C108.097 152.963 108.182 153.235 108.353 153.384C108.523 153.533 108.785 153.608 109.137 153.608H110.353V155H108.769ZM105.105 147.88V146.488H110.353V147.88H105.105ZM112.145 155V146.488H113.697L113.761 148.744L113.617 148.696C113.735 147.928 113.969 147.368 114.321 147.016C114.684 146.664 115.169 146.488 115.777 146.488H116.593V148.008H115.777C115.351 148.008 114.993 148.077 114.705 148.216C114.417 148.355 114.199 148.568 114.049 148.856C113.911 149.144 113.841 149.517 113.841 149.976V155H112.145ZM121.306 155.192C120.474 155.192 119.754 155.011 119.146 154.648C118.548 154.285 118.084 153.768 117.754 153.096C117.434 152.424 117.274 151.64 117.274 150.744C117.274 149.848 117.434 149.069 117.754 148.408C118.084 147.736 118.548 147.219 119.146 146.856C119.743 146.483 120.447 146.296 121.258 146.296C122.026 146.296 122.703 146.477 123.29 146.84C123.876 147.192 124.33 147.704 124.65 148.376C124.98 149.048 125.146 149.859 125.146 150.808V151.24H119.034C119.076 152.072 119.295 152.696 119.69 153.112C120.095 153.528 120.639 153.736 121.322 153.736C121.823 153.736 122.239 153.619 122.57 153.384C122.9 153.149 123.13 152.835 123.258 152.44L125.018 152.552C124.794 153.341 124.351 153.981 123.69 154.472C123.039 154.952 122.244 155.192 121.306 155.192ZM119.034 149.96H123.354C123.3 149.203 123.082 148.643 122.698 148.28C122.324 147.917 121.844 147.736 121.258 147.736C120.65 147.736 120.148 147.928 119.754 148.312C119.37 148.685 119.13 149.235 119.034 149.96ZM129.42 155.192C128.535 155.192 127.825 154.989 127.292 154.584C126.769 154.179 126.508 153.608 126.508 152.872C126.508 152.136 126.727 151.565 127.164 151.16C127.612 150.744 128.3 150.445 129.228 150.264L132.156 149.704C132.156 149.043 132.001 148.552 131.692 148.232C131.383 147.901 130.924 147.736 130.316 147.736C129.772 147.736 129.345 147.859 129.036 148.104C128.727 148.339 128.513 148.691 128.396 149.16L126.652 149.048C126.812 148.195 127.207 147.523 127.836 147.032C128.476 146.541 129.303 146.296 130.316 146.296C131.468 146.296 132.343 146.605 132.94 147.224C133.548 147.832 133.852 148.691 133.852 149.8V153.112C133.852 153.315 133.884 153.459 133.948 153.544C134.023 153.619 134.14 153.656 134.3 153.656H134.604V155C134.551 155.011 134.465 155.021 134.348 155.032C134.231 155.043 134.108 155.048 133.98 155.048C133.617 155.048 133.303 154.989 133.036 154.872C132.78 154.755 132.588 154.563 132.46 154.296C132.332 154.019 132.268 153.651 132.268 153.192L132.444 153.272C132.359 153.645 132.172 153.976 131.884 154.264C131.607 154.552 131.249 154.781 130.812 154.952C130.385 155.112 129.921 155.192 129.42 155.192ZM129.692 153.848C130.204 153.848 130.641 153.752 131.004 153.56C131.367 153.357 131.649 153.08 131.852 152.728C132.055 152.376 132.156 151.976 132.156 151.528V150.984L129.66 151.464C129.148 151.56 128.785 151.715 128.572 151.928C128.369 152.131 128.268 152.392 128.268 152.712C128.268 153.075 128.391 153.357 128.636 153.56C128.892 153.752 129.244 153.848 129.692 153.848ZM136.036 155V146.488H137.588L137.636 148.6L137.444 148.536C137.54 148.067 137.705 147.667 137.94 147.336C138.185 147.005 138.484 146.749 138.836 146.568C139.188 146.387 139.572 146.296 139.988 146.296C140.713 146.296 141.305 146.504 141.764 146.92C142.223 147.325 142.511 147.885 142.628 148.6H142.356C142.452 148.099 142.612 147.683 142.836 147.352C143.071 147.011 143.369 146.749 143.732 146.568C144.095 146.387 144.505 146.296 144.964 146.296C145.561 146.296 146.068 146.424 146.484 146.68C146.911 146.925 147.231 147.288 147.444 147.768C147.668 148.248 147.78 148.835 147.78 149.528V155H146.084V149.944C146.084 149.208 145.951 148.653 145.684 148.28C145.417 147.907 145.012 147.72 144.468 147.72C144.116 147.72 143.807 147.811 143.54 147.992C143.273 148.173 143.065 148.435 142.916 148.776C142.777 149.117 142.708 149.528 142.708 150.008V155H141.092V150.008C141.092 149.283 140.969 148.723 140.724 148.328C140.489 147.923 140.084 147.72 139.508 147.72C139.145 147.72 138.831 147.811 138.564 147.992C138.308 148.173 138.105 148.44 137.956 148.792C137.807 149.133 137.732 149.539 137.732 150.008V155H136.036Z" fill="#E8E8E8"/>
<path d="M155 106L153.733 109.867C153.668 110.067 153.557 110.25 153.408 110.399C153.259 110.549 153.076 110.66 152.875 110.725L149 112L152.867 113.267C153.067 113.332 153.25 113.443 153.399 113.592C153.549 113.741 153.66 113.924 153.725 114.125L155 118L156.267 114.133C156.332 113.933 156.443 113.75 156.592 113.601C156.741 113.451 156.924 113.34 157.125 113.275L161 112L157.133 110.733C156.933 110.668 156.75 110.557 156.601 110.408C156.451 110.259 156.34 110.076 156.275 109.875L155 106Z" fill="#E7E7E7"/>
<path d="M19 3L17.1 8.8C17.0027 9.10122 16.8353 9.37504 16.6116 9.59895C16.3878 9.82287 16.1141 9.99048 15.813 10.088L10 12L15.8 13.9C16.1012 13.9973 16.375 14.1647 16.599 14.3884C16.8229 14.6122 16.9905 14.8859 17.088 15.187L19 21L20.9 15.2C20.9973 14.8988 21.1647 14.625 21.3884 14.401C21.6122 14.1771 21.8859 14.0095 22.187 13.912L28 12L22.2 10.1C21.8988 10.0027 21.625 9.83531 21.401 9.61157C21.1771 9.38783 21.0095 9.11414 20.912 8.813L19 3Z" fill="#E7E7E7"/>
<defs>
<linearGradient id="paint0_linear_4285_57709" x1="162.921" y1="148.847" x2="1.92111" y2="148.847" gradientUnits="userSpaceOnUse">
<stop stop-color="#0075FF"/>
<stop offset="1" stop-color="#FF2400"/>
</linearGradient>
</defs>
</svg>
