<svg width="58" height="65" viewBox="0 0 58 65" fill="none" xmlns="http://www.w3.org/2000/svg">
<path d="M10.4464 62.0058C6.12938 59.8632 2.83598 56.1809 1.25787 51.7323C-0.320247 47.2837 -0.060309 42.415 1.9831 38.1484L15.9465 9.08044C15.9465 9.08044 20.4029 -0.527585 25.6591 4.75682C25.6591 4.75682 29.6584 -1.00797 34.3434 1.06144C39.0283 3.13086 38.1142 6.16109 38.1142 6.16109C38.1142 6.16109 41.9992 0.95059 47.0269 4.49817C52.0547 8.04574 49.5408 11.815 49.5408 11.815C49.5408 11.815 57.8823 10.9281 57.6537 17.9124C57.4252 24.8967 47.9411 39.4566 47.9411 39.4566C47.9411 39.4566 53.7458 38.3627 56.1606 42.302C56.7657 43.3451 57.038 44.5389 56.9431 45.7323C56.8481 46.9256 56.3902 48.0648 55.6274 49.0055C50.1883 55.8863 40.4528 58.0665 30.1155 63.8461C26.9389 65.6273 18.6279 66.0634 10.4464 62.0058Z" fill="#006FCD"/>
</svg>
