<svg width="150" height="119" viewBox="0 0 150 119" fill="none" xmlns="http://www.w3.org/2000/svg">
<path d="M86.9735 36.5272L3.98545 84.2533C2.78926 85.1374 2.8937 86.9585 4.18311 87.7L52.5532 115.517C56.1318 117.575 60.5347 117.575 64.1133 115.517L145.631 68.6374C147.569 67.5229 147.569 64.7266 145.631 63.6121L98.5336 36.5272C94.955 34.4692 90.5521 34.4692 86.9735 36.5272Z" fill="#004F92"/>
<path d="M85.5243 33.6444L2.53623 81.3705C1.34004 82.2546 1.44448 84.0757 2.73389 84.8172L51.104 112.634C54.6826 114.692 59.0855 114.692 62.6641 112.634L144.182 65.7546C146.12 64.6401 146.12 61.8438 144.182 60.7293L97.0844 33.6444C93.5058 31.5864 89.1029 31.5864 85.5243 33.6444Z" fill="url(#paint0_linear_7340_69766)"/>
<path d="M80.0726 3.96988L72.8262 0L71.377 4.33078L73.9132 5.41348L80.0726 3.96988Z" fill="#002F56"/>
<path d="M34.4069 26.1015C34.4946 24.3607 35.1299 22.0117 36.9439 20.8969C43.3999 15.7399 46.357 12.1581 50.7169 5.28339C52.8635 2.14737 54.5559 1.03675 59.4155 1.56588C65.5317 1.89485 68.0346 1.4182 71.7385 0.0788754C73.3925 -0.231565 73.8209 0.346575 73.9132 2.30938V20.8969C72.0872 34.6084 66.7304 43.0496 55.2928 57.5304C54.4666 58.5765 53.1963 59.2001 51.8654 59.126C44.3798 58.7091 40.3577 56.0943 35.9415 48.3079C34.8776 46.432 34.248 44.3399 34.1486 42.1857C33.8591 35.9062 34.352 27.1892 34.4069 26.1015Z" fill="#002F56"/>
<path d="M40.9438 28.8707C41.0316 27.1807 41.6666 24.9004 43.4801 23.8181C49.9338 18.8116 52.8899 15.3344 57.2483 8.6604C59.3942 5.61592 61.086 4.53773 65.9439 5.05142C72.0581 5.37078 74.5601 4.90805 78.2628 3.60782C79.9162 3.30645 80.3444 3.86771 80.4367 5.77321V23.8181C78.6113 37.1295 73.2562 45.3243 61.8221 59.3827C60.995 60.3998 59.7436 61.0026 58.4345 60.9331C50.9716 60.5373 46.9481 58.0308 42.5568 50.5634C41.4373 48.6597 40.7765 46.5189 40.6777 44.3126C40.4055 38.2306 40.8895 29.9167 40.9438 28.8707Z" fill="#006FCD"/>
<path d="M57.2466 17.6698C57.2466 13.3615 63.7683 12.1226 63.7683 15.7104V35.6153C63.7683 39.5647 57.2466 41.5029 57.2466 37.0523V17.6698Z" fill="#004F92"/>
<path d="M65.5797 15.8826L63.0435 14.0781L61.5942 14.439L63.0435 16.6044L65.5797 15.8826Z" fill="#004F92"/>
<path d="M57.9816 39.0336L60.8697 41.1413L61.9877 40.4193L60.507 38.2751L57.9816 39.0336Z" fill="#004F92"/>
<ellipse cx="2.92967" cy="4.60429" rx="2.92967" ry="4.60429" transform="matrix(0.8433 0.537443 -0.540447 0.841378 60.7734 41.8672)" fill="#004F92"/>
<path d="M65.942 45.117L63.0435 43.3125L62.6812 45.4779H64.1304L65.942 45.117Z" fill="#004F92"/>
<path d="M58.3324 51.247L60.8693 52.691L61.6825 51.3659L60.2826 50.9922L58.3324 51.247Z" fill="#004F92"/>
<path d="M60.145 19.4628C60.145 15.1544 66.6668 14.0805 66.6668 17.6682V37.4082C66.6668 41.3576 60.145 44.0272 60.145 38.8453V19.4628Z" fill="#8ABDE8"/>
<ellipse cx="2.92967" cy="4.60429" rx="2.92967" ry="4.60429" transform="matrix(0.8433 0.537443 -0.540447 0.841378 63.2334 43.3125)" fill="#8ABDE8"/>
<path d="M86.2317 88.3993L46.7389 65.6875L17.3911 82.5651L56.8839 105.277L86.2317 88.3993Z" fill="white"/>
<path d="M48.4852 95.5055C44.8973 93.1948 45.0635 87.9129 48.7895 85.8346C54.9159 82.4172 62.4119 82.53 68.4358 86.1302L73.1883 88.9705L54.8686 99.6166L48.4852 95.5055Z" fill="#B0D2F0"/>
<ellipse cx="42.0291" cy="81.0261" rx="7.24638" ry="4.33078" fill="#B0D2F0"/>
<path d="M49.2098 86.0289C45.6219 83.7182 45.7881 78.4364 49.5141 76.358C55.6405 72.9407 63.1365 73.0534 69.1605 76.6536L73.9129 79.4939L55.5932 90.14L49.2098 86.0289Z" fill="#006FCD"/>
<ellipse cx="42.7537" cy="71.5573" rx="7.24638" ry="4.33078" fill="#006FCD"/>
<path d="M65.2173 65.6886L97.4637 46.9219" stroke="#8ABDE8" stroke-width="2.17391" stroke-linecap="round"/>
<path d="M76.0869 72.548L108.333 53.7812" stroke="#8ABDE8" stroke-width="2.17391" stroke-linecap="round"/>
<path d="M86.9565 79.0402L119.203 60.2734" stroke="#8ABDE8" stroke-width="2.17391" stroke-linecap="round"/>
<defs>
<linearGradient id="paint0_linear_7340_69766" x1="124.638" y1="35.3729" x2="17.3147" y2="112.282" gradientUnits="userSpaceOnUse">
<stop stop-color="white"/>
<stop offset="1" stop-color="#BBE0FF"/>
</linearGradient>
</defs>
</svg>
