<svg width="41" height="40" viewBox="0 0 41 40" fill="none" xmlns="http://www.w3.org/2000/svg">
<rect width="41" height="40" rx="20" fill="#3D3D3D"/>
<path d="M21.8886 10.2776C21.8886 9.50933 21.2679 8.88867 20.4997 8.88867C19.7314 8.88867 19.1108 9.50933 19.1108 10.2776V19.9998C19.1108 20.768 19.7314 21.3887 20.4997 21.3887C21.2679 21.3887 21.8886 20.768 21.8886 19.9998V10.2776ZM15.6169 14.123C16.2071 13.6326 16.2853 12.7559 15.7948 12.1656C15.3044 11.5753 14.4276 11.4972 13.8373 11.9876C11.5457 13.8974 10.083 16.7793 10.083 19.9998C10.083 25.7507 14.7488 30.4165 20.4997 30.4165C26.2505 30.4165 30.9163 25.7507 30.9163 19.9998C30.9163 16.7793 29.4493 13.8974 27.1577 11.9876C26.5674 11.4972 25.6906 11.5796 25.2002 12.1656C24.7097 12.7515 24.7922 13.6326 25.3781 14.123C27.0665 15.525 28.1342 17.6387 28.1342 19.9998C28.1342 24.2185 24.7141 27.6387 20.4953 27.6387C16.2766 27.6387 12.8564 24.2185 12.8564 19.9998C12.8564 17.6387 13.9285 15.525 15.6125 14.123H15.6169Z" fill="#E7E7E7"/>
</svg>
