<svg width="40" height="40" viewBox="0 0 40 40" fill="none" xmlns="http://www.w3.org/2000/svg">
<rect width="40" height="40" rx="20" fill="#3D3D3D"/>
<path d="M15 14C14.2044 14 13.4413 14.3161 12.8787 14.8787C12.3161 15.4413 12 16.2044 12 17V23C12 23.7957 12.3161 24.5587 12.8787 25.1213C13.4413 25.6839 14.2044 26 15 26H20C20.7956 26 21.5587 25.6839 22.1213 25.1213C22.6839 24.5587 23 23.7957 23 23V22.679L26.037 24.776C26.2246 24.9055 26.4441 24.9812 26.6717 24.9949C26.8992 25.0087 27.1262 24.9599 27.328 24.854C27.5299 24.748 27.6989 24.5888 27.8168 24.3937C27.9347 24.1986 27.997 23.975 27.997 23.747V16.252C27.9969 16.0241 27.9344 15.8006 27.8164 15.6056C27.6985 15.4107 27.5294 15.2517 27.3276 15.1458C27.1258 15.04 26.8989 14.9913 26.6714 15.0051C26.4439 15.0189 26.2246 15.0946 26.037 15.224L23 17.32V17C23 16.2044 22.6839 15.4413 22.1213 14.8787C21.5587 14.3161 20.7956 14 20 14H15ZM23 18.536L26.605 16.046C26.6425 16.0201 26.6865 16.0049 26.732 16.0022C26.7775 15.9995 26.8229 16.0092 26.8633 16.0305C26.9037 16.0517 26.9375 16.0835 26.961 16.1226C26.9846 16.1616 26.997 16.2064 26.997 16.252V23.747C26.997 23.7926 26.9846 23.8374 26.961 23.8764C26.9375 23.9155 26.9037 23.9473 26.8633 23.9685C26.8229 23.9898 26.7775 23.9995 26.732 23.9968C26.6865 23.9941 26.6425 23.9789 26.605 23.953L23 21.463V18.536ZM13 17C13 16.4696 13.2107 15.9609 13.5858 15.5858C13.9609 15.2107 14.4696 15 15 15H20C20.5304 15 21.0391 15.2107 21.4142 15.5858C21.7893 15.9609 22 16.4696 22 17V23C22 23.5304 21.7893 24.0391 21.4142 24.4142C21.0391 24.7893 20.5304 25 20 25H15C14.4696 25 13.9609 24.7893 13.5858 24.4142C13.2107 24.0391 13 23.5304 13 23V17Z" fill="white"/>
</svg>
