<svg width="53" height="26" viewBox="0 0 53 26" fill="none" xmlns="http://www.w3.org/2000/svg">
<rect width="53" height="26" rx="13" fill="#8C0F00"/>
<circle cx="12" cy="13" r="4" fill="#FFE8E6"/>
<path d="M27.8285 13.125C28.1752 13.125 28.4785 13.0838 28.7385 13.0015C28.9985 12.9148 29.2152 12.7957 29.3885 12.644C29.5618 12.4923 29.6918 12.3125 29.7785 12.1045C29.8652 11.8922 29.9085 11.6582 29.9085 11.4025C29.9085 10.8912 29.7395 10.5012 29.4015 10.2325C29.0635 9.96383 28.5522 9.8295 27.8675 9.8295H26.6325V13.125H27.8285ZM32.2355 18H30.877C30.6083 18 30.4133 17.896 30.292 17.688L28.108 14.5355C28.0343 14.4272 27.9542 14.3492 27.8675 14.3015C27.7808 14.2538 27.6508 14.23 27.4775 14.23H26.6325V18H25.1115V8.64H27.8675C28.4828 8.64 29.0115 8.70283 29.4535 8.8285C29.8998 8.95417 30.266 9.134 30.552 9.368C30.838 9.59767 31.0482 9.875 31.1825 10.2C31.3212 10.525 31.3905 10.8868 31.3905 11.2855C31.3905 11.6105 31.3407 11.9138 31.241 12.1955C31.1457 12.4772 31.0048 12.7328 30.8185 12.9625C30.6365 13.1922 30.4112 13.3915 30.1425 13.5605C29.8738 13.7295 29.5683 13.8617 29.226 13.957C29.4123 14.0697 29.5727 14.2278 29.707 14.4315L32.2355 18ZM37.0203 13.9375C37.0203 13.7035 36.9856 13.4868 36.9163 13.2875C36.8513 13.0838 36.7538 12.9083 36.6238 12.761C36.4938 12.6093 36.3313 12.4923 36.1363 12.41C35.9456 12.3233 35.7246 12.28 35.4733 12.28C34.9663 12.28 34.5676 12.4252 34.2773 12.7155C33.987 13.0058 33.8028 13.4132 33.7248 13.9375H37.0203ZM33.6858 14.7955C33.7031 15.1725 33.7616 15.4997 33.8613 15.777C33.961 16.05 34.0931 16.2775 34.2578 16.4595C34.4268 16.6415 34.6261 16.778 34.8558 16.869C35.0898 16.9557 35.3498 16.999 35.6358 16.999C35.9088 16.999 36.145 16.9687 36.3443 16.908C36.5436 16.843 36.717 16.7737 36.8643 16.7C37.0116 16.622 37.1373 16.5527 37.2413 16.492C37.3453 16.427 37.4406 16.3945 37.5273 16.3945C37.64 16.3945 37.7266 16.4378 37.7873 16.5245L38.1838 17.038C38.0191 17.233 37.8328 17.3977 37.6248 17.532C37.4168 17.6663 37.1958 17.7768 36.9618 17.8635C36.7278 17.9458 36.4873 18.0043 36.2403 18.039C35.9933 18.078 35.7528 18.0975 35.5188 18.0975C35.0595 18.0975 34.6326 18.0217 34.2383 17.87C33.8483 17.714 33.5081 17.4865 33.2178 17.1875C32.9318 16.8885 32.7065 16.518 32.5418 16.076C32.3815 15.634 32.3013 15.1248 32.3013 14.5485C32.3013 14.0892 32.3728 13.6602 32.5158 13.2615C32.6631 12.8628 32.8711 12.5162 33.1398 12.2215C33.4128 11.9268 33.7421 11.695 34.1278 11.526C34.5178 11.3527 34.9576 11.266 35.4473 11.266C35.8546 11.266 36.2316 11.3332 36.5783 11.4675C36.925 11.5975 37.224 11.7903 37.4753 12.046C37.7266 12.3017 37.9216 12.6158 38.0603 12.9885C38.2033 13.3568 38.2748 13.7772 38.2748 14.2495C38.2748 14.4662 38.251 14.6113 38.2033 14.685C38.1556 14.7587 38.069 14.7955 37.9433 14.7955H33.6858ZM44.2646 12.67C44.2212 12.7263 44.1801 12.7697 44.1411 12.8C44.1021 12.8303 44.0457 12.8455 43.9721 12.8455C43.8984 12.8455 43.8204 12.8195 43.7381 12.7675C43.6601 12.7155 43.5647 12.6592 43.4521 12.5985C43.3437 12.5335 43.2116 12.475 43.0556 12.423C42.8996 12.371 42.7046 12.345 42.4706 12.345C42.1672 12.345 41.9007 12.3992 41.6711 12.5075C41.4457 12.6158 41.2551 12.7718 41.0991 12.9755C40.9474 13.1748 40.8326 13.4197 40.7546 13.71C40.6809 13.996 40.6441 14.3188 40.6441 14.6785C40.6441 15.0512 40.6852 15.3827 40.7676 15.673C40.8499 15.9633 40.9669 16.2082 41.1186 16.4075C41.2746 16.6068 41.4609 16.7585 41.6776 16.8625C41.8986 16.9665 42.1456 17.0185 42.4186 17.0185C42.6872 17.0185 42.9061 16.986 43.0751 16.921C43.2441 16.856 43.3849 16.7845 43.4976 16.7065C43.6102 16.6285 43.7056 16.557 43.7836 16.492C43.8659 16.427 43.9526 16.3945 44.0436 16.3945C44.1562 16.3945 44.2429 16.4378 44.3036 16.5245L44.7001 17.038C44.5397 17.233 44.3621 17.3977 44.1671 17.532C43.9721 17.6663 43.7662 17.7768 43.5496 17.8635C43.3329 17.9458 43.1076 18.0043 42.8736 18.039C42.6396 18.078 42.4034 18.0975 42.1651 18.0975C41.7534 18.0975 41.3677 18.0217 41.0081 17.87C40.6527 17.714 40.3407 17.4908 40.0721 17.2005C39.8077 16.9058 39.5976 16.5483 39.4416 16.128C39.2899 15.7033 39.2141 15.2202 39.2141 14.6785C39.2141 14.1888 39.2834 13.736 39.4221 13.32C39.5607 12.8997 39.7622 12.5378 40.0266 12.2345C40.2952 11.9312 40.6267 11.695 41.0211 11.526C41.4154 11.3527 41.8704 11.266 42.3861 11.266C42.8671 11.266 43.2896 11.344 43.6536 11.5C44.0219 11.656 44.3491 11.877 44.6351 12.163L44.2646 12.67Z" fill="#FFE8E6"/>
</svg>
