<svg width="90" height="32" viewBox="0 0 90 32" fill="none" xmlns="http://www.w3.org/2000/svg">
<g clip-path="url(#clip0_5415_141162)">
<path d="M22.124 30.2426C20.1513 31.4181 17.7858 31.8061 15.5245 31.3252C13.2631 30.8443 11.2818 29.5319 9.99672 27.6636L1.25125 14.9204C1.25125 14.9204 -1.69422 10.7644 1.84398 10.0059C1.84398 10.0059 0.414878 6.99295 2.46579 5.66289C4.51671 4.33282 5.5458 5.43709 5.5458 5.43709C5.5458 5.43709 4.32035 2.61467 7.05854 1.49982C9.79673 0.384962 10.7567 2.32185 10.7567 2.32185C10.7567 2.32185 12.4585 -1.20618 15.3349 0.628395C18.2113 2.46297 21.9604 9.80126 21.9604 9.80126C21.9604 9.80126 22.9422 7.23286 25.1968 7.25403C25.7852 7.27444 26.3542 7.46363 26.8319 7.7977C27.3096 8.13177 27.6744 8.59573 27.8804 9.13093C29.4222 13.0118 29.1604 18.2297 27.7822 22.9079C26.975 25.6774 25.884 28.0164 22.124 30.2426Z" fill="#A1A8C4"/>
<path d="M1.51562 10.0872C1.51562 10.0872 7.37019 17.9935 9.01383 19.9656C9.01383 19.9656 1.91563 10.2283 1.82472 10.0166L1.51562 10.0872Z" fill="#1D1D1B"/>
<path d="M4.83594 5.07003L12.876 15.9258C12.876 15.9258 5.35957 5.30288 5.29775 4.48438L5.5414 5.43341L4.83594 5.07003Z" fill="#1D1D1B"/>
<path d="M10.2734 1.9375C10.2734 1.9375 10.3825 2.10684 10.568 2.40672C11.7316 4.26952 15.6589 11.0151 16.5571 12.3416L10.8334 1.99748L10.6698 2.18799L10.2734 1.9375Z" fill="#1D1D1B"/>
<path d="M22.279 13.4561C22.279 13.4561 22.0136 10.3409 21.6172 9.14844L22.0499 9.58591C22.3642 10.8523 22.4418 12.1632 22.279 13.4561Z" fill="#1D1D1B"/>
<path d="M9.27963 30.5708C7.21886 29.548 5.64674 27.7902 4.89342 25.6667C4.1401 23.5431 4.26418 21.219 5.23961 19.1823L11.9051 5.3066C11.9051 5.3066 14.0324 0.720167 16.5415 3.2427C16.5415 3.2427 18.4506 0.490851 20.6869 1.4787C22.9233 2.46654 22.4869 3.91304 22.4869 3.91304C22.4869 3.91304 24.3415 1.42578 26.7415 3.11923C29.1415 4.81268 27.9415 6.61197 27.9415 6.61197C27.9415 6.61197 31.9233 6.18861 31.8142 9.52259C31.7051 12.8566 27.1779 19.8068 27.1779 19.8068C27.1779 19.8068 29.9488 19.2846 31.1015 21.1651C31.3903 21.663 31.5203 22.2329 31.475 22.8025C31.4297 23.3722 31.2111 23.916 30.847 24.365C28.2506 27.6496 23.6033 28.6903 18.6687 31.4493C17.1524 32.2995 13.1851 32.5077 9.27963 30.5708Z" fill="#006FCD"/>
<path d="M16.3131 3.02344C16.3131 3.02344 12.404 11.9917 11.5312 14.3731C11.5312 14.3731 16.4113 3.43621 16.5495 3.24217L16.3131 3.02344Z" fill="#1D1D1B"/>
<path d="M22.4449 3.1543L17.0703 15.4671C17.0703 15.4671 22.5249 3.71173 23.1976 3.23545L22.4885 3.94105L22.4449 3.1543Z" fill="#1D1D1B"/>
<path d="M28.0357 6.04688L27.7775 6.53728C26.7448 8.47063 22.8393 15.2197 22.1484 16.6662L28.2757 6.5408L28.0212 6.50551L28.0357 6.04688Z" fill="#1D1D1B"/>
<path d="M24.125 21.9762C24.125 21.9762 26.7286 20.1346 27.5723 19.1855L27.4123 19.7747C26.4614 20.6939 25.348 21.4396 24.125 21.9762Z" fill="#1D1D1B"/>
<path d="M46.4265 28.0919C45.9269 29.1326 45.2133 29.9265 44.2855 30.4737C43.3637 31.0208 42.2724 31.2944 41.0117 31.2944C40.1969 31.2944 39.4416 31.1784 38.7458 30.9465C38.05 30.7145 37.4255 30.3726 36.8725 29.9206C36.1291 29.3199 35.57 28.6212 35.1954 27.8242C34.8266 27.0214 34.6423 26.1323 34.6423 25.157C34.6423 23.3015 35.2459 21.782 36.4532 20.5985C37.6664 19.4091 39.2245 18.8144 41.1276 18.8144C42.2219 18.8144 43.1734 19.0344 43.9822 19.4745C44.797 19.9086 45.5017 20.5836 46.0964 21.4995L44.5799 22.6146C44.2172 21.8414 43.7741 21.2616 43.2507 20.875C42.7274 20.4885 42.1297 20.2952 41.4577 20.2952C40.4288 20.2952 39.6319 20.7115 39.0669 21.5441C38.502 22.3707 38.2195 23.5423 38.2195 25.0588C38.2195 26.4564 38.5436 27.5834 39.1918 28.4398C39.8401 29.2962 40.6905 29.7243 41.7431 29.7243C42.4092 29.7243 43.0158 29.5102 43.563 29.0821C44.1101 28.6479 44.5888 28.0086 44.9992 27.1641L46.4265 28.0919ZM48.3088 31V19.0731H51.654V29.3943H55.9806V31H48.3088ZM59.7718 25.9598H62.7157L61.1724 21.6868L59.7718 25.9598ZM56.3731 31L60.4677 19.0731H63.6969L68.0681 31H64.5176L63.2598 27.4763H59.2544L58.068 31H56.3731ZM72.6979 20.5539V24.6752H73.4472C74.2442 24.6752 74.8329 24.5236 75.2135 24.2203C75.5942 23.917 75.7845 23.4472 75.7845 22.8108C75.7845 22.1388 75.5614 21.5946 75.1154 21.1783C74.6753 20.762 74.0955 20.5539 73.3759 20.5539H72.6979ZM69.4508 31V19.0731H74.2144C75.7428 19.0731 76.9293 19.4091 77.7738 20.0811C78.6183 20.7531 79.0405 21.6957 79.0405 22.9089C79.0405 23.9021 78.7015 24.6931 78.0235 25.2818C77.3515 25.8647 76.4416 26.1561 75.2938 26.1561H72.6979V31H69.4508Z" fill="white"/>
<path d="M75.0703 31.2908L77.1234 26.9336H78.4065L79.6897 28.303L82.1705 23.4062H84.8223V31.2908H82.1705L82.1591 28.2753L79.9463 31.2908L78.1071 29.2159L77.0378 31.2908H75.0703Z" fill="#A1A8C4"/>
<path d="M87.9907 23.4062H85.125V31.2908H87.9907V23.4062Z" fill="#A1A8C4"/>
<path d="M86.5507 22.6116C87.968 22.6116 89.117 21.4968 89.117 20.1217C89.117 18.7466 87.968 17.6318 86.5507 17.6318C85.1334 17.6318 83.9844 18.7466 83.9844 20.1217C83.9844 21.4968 85.1334 22.6116 86.5507 22.6116Z" fill="#A1A8C4"/>
</g>
<defs>
<clipPath id="clip0_5415_141162">
<rect width="90" height="32" fill="white"/>
</clipPath>
</defs>
</svg>
