<svg width="40" height="40" viewBox="0 0 40 40" fill="none" xmlns="http://www.w3.org/2000/svg">
<rect width="40" height="40" rx="20" fill="#3D3D3D"/>
<path d="M20 12.5C19.2541 12.5 18.5387 12.7963 18.0113 13.3238C17.4838 13.8512 17.1875 14.5666 17.1875 15.3125V20.3125C17.1875 20.6818 17.2602 21.0476 17.4016 21.3888C17.5429 21.73 17.7501 22.0401 18.0113 22.3012C18.2724 22.5624 18.5825 22.7696 18.9237 22.9109C19.2649 23.0523 19.6307 23.125 20 23.125C20.3693 23.125 20.7351 23.0523 21.0763 22.9109C21.4175 22.7696 21.7276 22.5624 21.9887 22.3012C22.2499 22.0401 22.4571 21.73 22.5984 21.3888C22.7398 21.0476 22.8125 20.6818 22.8125 20.3125V15.3125C22.8125 14.5666 22.5162 13.8512 21.9887 13.3238C21.4613 12.7963 20.7459 12.5 20 12.5ZM18.125 15.3125C18.125 15.0663 18.1735 14.8225 18.2677 14.595C18.362 14.3675 18.5001 14.1608 18.6742 13.9867C18.8483 13.8126 19.055 13.6745 19.2825 13.5802C19.51 13.486 19.7538 13.4375 20 13.4375C20.2462 13.4375 20.49 13.486 20.7175 13.5802C20.945 13.6745 21.1517 13.8126 21.3258 13.9867C21.4999 14.1608 21.638 14.3675 21.7323 14.595C21.8265 14.8225 21.875 15.0663 21.875 15.3125V20.3125C21.875 20.5587 21.8265 20.8025 21.7323 21.03C21.638 21.2575 21.4999 21.4642 21.3258 21.6383C21.1517 21.8124 20.945 21.9505 20.7175 22.0448C20.49 22.139 20.2462 22.1875 20 22.1875C19.7538 22.1875 19.51 22.139 19.2825 22.0448C19.055 21.9505 18.8483 21.8124 18.6742 21.6383C18.5001 21.4642 18.362 21.2575 18.2677 21.03C18.1735 20.8025 18.125 20.5587 18.125 20.3125V15.3125ZM15.9375 19.8438C15.9375 19.7194 15.8881 19.6002 15.8002 19.5123C15.7123 19.4244 15.5931 19.375 15.4688 19.375C15.3444 19.375 15.2252 19.4244 15.1373 19.5123C15.0494 19.6002 15 19.7194 15 19.8438V20.3125C15 21.5575 15.4644 22.7576 16.3024 23.6783C17.1404 24.599 18.2918 25.1739 19.5312 25.2906V27.0312C19.5312 27.1556 19.5806 27.2748 19.6685 27.3627C19.7565 27.4506 19.8757 27.5 20 27.5C20.1243 27.5 20.2435 27.4506 20.3315 27.3627C20.4194 27.2748 20.4688 27.1556 20.4688 27.0312V25.2906C21.7082 25.1739 22.8596 24.599 23.6976 23.6783C24.5356 22.7576 25 21.5575 25 20.3125V19.8438C25 19.7194 24.9506 19.6002 24.8627 19.5123C24.7748 19.4244 24.6556 19.375 24.5312 19.375C24.4069 19.375 24.2877 19.4244 24.1998 19.5123C24.1119 19.6002 24.0625 19.7194 24.0625 19.8438V20.3125C24.0625 21.3899 23.6345 22.4233 22.8726 23.1851C22.1108 23.947 21.0774 24.375 20 24.375C18.9226 24.375 17.8892 23.947 17.1274 23.1851C16.3655 22.4233 15.9375 21.3899 15.9375 20.3125V19.8438Z" fill="white"/>
</svg>
