<svg width="40" height="40" viewBox="0 0 40 40" fill="none" xmlns="http://www.w3.org/2000/svg">
<rect width="40" height="40" rx="20" fill="#3D3D3D"/>
<g clip-path="url(#clip0_4383_59631)">
<path d="M10.835 21.5461V18.4511C10.835 18.0091 11.0106 17.5851 11.3231 17.2726C11.6357 16.96 12.0596 16.7844 12.5016 16.7844H14.9183C15.0812 16.7844 15.2406 16.7366 15.3766 16.6469L20.3766 13.3503C20.5023 13.2675 20.6479 13.2203 20.7982 13.2137C20.9485 13.2071 21.0978 13.2412 21.2302 13.3126C21.3626 13.3839 21.4733 13.4898 21.5504 13.6189C21.6275 13.7481 21.6683 13.8957 21.6683 14.0461V25.9511C21.6683 26.1015 21.6275 26.2491 21.5504 26.3783C21.4733 26.5074 21.3626 26.6133 21.2302 26.6846C21.0978 26.7559 20.9485 26.7901 20.7982 26.7835C20.6479 26.7768 20.5023 26.7297 20.3766 26.6469L15.3766 23.3503C15.2406 23.2606 15.0812 23.2128 14.9183 23.2128H12.5016C12.0596 23.2128 11.6357 23.0372 11.3231 22.7246C11.0106 22.412 10.835 21.9881 10.835 21.5461Z" stroke="white" stroke-width="1.25"/>
<path d="M24.585 16.25C24.585 16.25 25.835 17.5 25.835 19.5833C25.835 21.6667 24.585 22.9167 24.585 22.9167M27.085 13.75C27.085 13.75 29.1683 15.8333 29.1683 19.5833C29.1683 23.3333 27.085 25.4167 27.085 25.4167" stroke="white" stroke-width="1.25" stroke-linecap="round" stroke-linejoin="round"/>
</g>
<defs>
<clipPath id="clip0_4383_59631">
<rect width="20" height="20" fill="white" transform="translate(10 10)"/>
</clipPath>
</defs>
</svg>
