<svg width="28" height="28" viewBox="0 0 28 28" fill="none" xmlns="http://www.w3.org/2000/svg">
<path d="M22.5655 16.9047L21.3989 14.968C21.1539 14.5363 20.9322 13.7197 20.9322 13.2413V10.2897C20.9322 7.54801 19.3222 5.17967 17.0005 4.07134C16.3939 2.99801 15.2739 2.33301 13.9905 2.33301C12.7189 2.33301 11.5755 3.02134 10.9689 4.10634C8.69388 5.23801 7.11888 7.58301 7.11888 10.2897V13.2413C7.11888 13.7197 6.89721 14.5363 6.65221 14.9563L5.47388 16.9047C5.00721 17.6863 4.90221 18.5497 5.19388 19.343C5.47388 20.1247 6.13888 20.7313 7.00221 21.023C9.26555 21.793 11.6455 22.1663 14.0255 22.1663C16.4055 22.1663 18.7855 21.793 21.0489 21.0347C21.8655 20.7663 22.4955 20.148 22.7989 19.343C23.1022 18.538 23.0205 17.6513 22.5655 16.9047Z" fill="#E7E7E7"/>
<path d="M17.3026 23.3447C16.8126 24.698 15.5176 25.6663 14.0009 25.6663C13.0793 25.6663 12.1693 25.293 11.5276 24.628C11.1543 24.278 10.8743 23.8113 10.7109 23.333C10.8626 23.3563 11.0143 23.368 11.1776 23.3913C11.4459 23.4263 11.7259 23.4613 12.0059 23.4847C12.6709 23.543 13.3476 23.578 14.0243 23.578C14.6893 23.578 15.3543 23.543 16.0076 23.4847C16.2526 23.4613 16.4976 23.4497 16.7309 23.4147C16.9176 23.3913 17.1043 23.368 17.3026 23.3447Z" fill="#E7E7E7"/>
</svg>
