<svg width="24" height="24" viewBox="0 0 24 24" fill="none" xmlns="http://www.w3.org/2000/svg">
<g clip-path="url(#clip0_4309_64795)">
<path d="M17.1161 16.1735C20.4702 12.0121 20.6193 6.56723 17.449 4.012C14.2788 1.45677 8.98974 2.75882 5.63564 6.92021C2.28154 11.0816 2.13249 16.5265 5.30273 19.0817C8.47297 21.637 13.762 20.3349 17.1161 16.1735Z" fill="#F4D325"/>
<path d="M17.3808 4.00733C16.1221 3.02681 14.5354 2.5663 12.9474 2.72066C14.1724 2.79551 15.3449 3.24463 16.3064 4.00733C19.4764 6.56266 19.3278 12.0073 15.9738 16.1687C13.9271 18.708 11.1604 20.18 8.59375 20.3633C11.4371 20.5763 14.7114 19.067 17.0478 16.1687C20.4018 12.0073 20.5511 6.56233 17.3808 4.00733Z" fill="#F8D98E"/>
<path d="M18.4541 4.36157C18.2871 4.227 18.1138 4.10041 17.9348 3.98224C17.9229 3.97646 17.9106 3.97145 17.8981 3.96724C17.8407 3.93884 17.7765 3.92707 17.7128 3.93324C17.6473 3.93991 17.5858 3.96736 17.5371 4.01157C17.5262 4.01859 17.5157 4.02627 17.5058 4.03457C17.4994 4.04124 17.4974 4.05024 17.4918 4.05724C17.4861 4.06424 17.4781 4.06857 17.4728 4.07624C17.4671 4.08814 17.4622 4.10039 17.4581 4.11291C17.4293 4.17088 17.4175 4.23584 17.4241 4.30024C17.4269 4.32099 17.4317 4.34141 17.4384 4.36124C17.4505 4.40301 17.4722 4.44137 17.5018 4.47324C17.5088 4.4845 17.5166 4.4953 17.5251 4.50557C20.2844 7.0509 19.9968 12.0842 16.8701 15.9639C13.6361 19.9756 8.54676 21.2572 5.52543 18.8216C5.5059 18.8085 5.48499 18.7977 5.46309 18.7892L5.44476 18.7796C5.41296 18.7661 5.3792 18.7577 5.34476 18.7549C5.33576 18.7542 5.32709 18.7529 5.31809 18.7526C5.24693 18.7508 5.17736 18.7739 5.12143 18.8179C5.11016 18.8237 5.09925 18.8301 5.08876 18.8372C5.08209 18.8429 5.07976 18.8509 5.07409 18.8572C5.06876 18.8629 5.06143 18.8656 5.05643 18.8716C5.05066 18.8814 5.04543 18.8915 5.04076 18.9019C5.02448 18.9252 5.01136 18.9505 5.00176 18.9772C4.99852 18.9879 4.99585 18.9987 4.99376 19.0096C4.9858 19.0419 4.98288 19.0753 4.98509 19.1086C4.98576 19.1152 4.98709 19.1212 4.98809 19.1279C4.99278 19.1641 5.0036 19.1993 5.02009 19.2319C5.02276 19.2372 5.02609 19.2419 5.02909 19.2469C5.03889 19.2685 5.05107 19.289 5.06543 19.3079C5.30023 19.5672 5.55501 19.8077 5.82743 20.0272C7.10116 21.0347 8.68393 21.5711 10.3078 21.5456C13.1711 21.5456 16.2711 20.0522 18.4838 17.3072C21.9651 12.9882 21.9514 7.18057 18.4538 4.36157H18.4541Z" fill="#F1B31C"/>
<path d="M17.7524 4.25391C17.9218 4.36524 18.0866 4.48546 18.2468 4.61457C21.6068 7.32257 21.5974 12.9089 18.2265 17.0912C14.8555 21.2736 9.39845 22.4696 6.03845 19.7616C5.77964 19.5531 5.53757 19.3246 5.31445 19.0782" stroke="#F8D98E" stroke-width="0.5" stroke-miterlimit="10"/>
<path d="M17.1185 16.1677C20.4726 12.0063 20.6217 6.56138 17.4515 4.00614C14.2812 1.45091 8.99219 2.75296 5.63808 6.91435C2.28398 11.0757 2.13493 16.5206 5.30517 19.0759C8.47541 21.6311 13.7644 20.3291 17.1185 16.1677Z" stroke="#F8D98E" stroke-width="0.5" stroke-miterlimit="10"/>
<path d="M17.127 16.1719L18.2221 17.0967" stroke="#F8D98E" stroke-width="0.5" stroke-miterlimit="10"/>
<path d="M15.9712 17.418L16.9364 18.4555" stroke="#F8D98E" stroke-width="0.5" stroke-miterlimit="10"/>
<path d="M14.7524 18.4336L15.545 19.5407" stroke="#F8D98E" stroke-width="0.5" stroke-miterlimit="10"/>
<path d="M13.4165 19.3242L14.0404 20.4387" stroke="#F8D98E" stroke-width="0.5" stroke-miterlimit="10"/>
<path d="M18.0176 14.9238L19.1804 15.7284" stroke="#F8D98E" stroke-width="0.5" stroke-miterlimit="10"/>
<path d="M15.7176 9.4762C15.7176 9.4762 15.1285 10.0206 14.6085 10.1393C13.671 10.3533 13.1836 9.25598 12.2114 9.35399C10.4536 9.5312 9.7356 11.5516 10.6641 12.8675C11.0272 13.382 11.3383 13.7319 12.0147 13.9087C12.8537 14.128 13.3272 13.0467 14.1077 13.3969C14.6013 13.6183 14.9664 14.3625 14.9664 14.3625C14.9664 14.3625 13.4822 15.5159 12.2563 15.6131C10.1157 15.7829 8.4292 14.5423 7.64988 12.8209C6.58816 10.4756 8.53873 7.64235 11.4779 7.57396C13.3086 7.53137 15.7176 9.4762 15.7176 9.4762Z" fill="#F1B31C"/>
<path d="M12.2078 7.3893C12.87 7.49112 13.4459 7.66973 13.9297 7.93067L13.9288 7.93052C14.4127 8.18926 14.8338 8.51862 15.1897 8.91875L15.3607 9.11103L15.1644 9.27648L14.5252 9.8155L14.5173 9.82218L14.3639 9.6247L14.5163 9.82204C14.4346 9.88534 14.3492 9.93687 14.2607 9.97442L14.2615 9.97553C14.2597 9.97637 14.2571 9.97672 14.2553 9.97754C14.2538 9.97814 14.2524 9.97924 14.251 9.97984L14.2502 9.97873C14.1259 10.0326 13.9861 10.032 13.8587 10.0124C13.7117 9.98977 13.5759 9.93289 13.4536 9.84539L13.4464 9.84034L13.5995 9.64157L13.4466 9.83938C13.3606 9.77313 13.2544 9.69835 13.1284 9.61459L13.1231 9.61081C13.0119 9.53255 12.8701 9.45467 12.6943 9.37891L12.6869 9.37579C12.5346 9.30475 12.3272 9.24541 12.0573 9.2039C11.7196 9.15199 11.4261 9.16034 11.1735 9.22018L11.1704 9.2207C10.9175 9.27674 10.702 9.37943 10.5197 9.52674L10.3903 9.64815C10.2667 9.77848 10.1587 9.93559 10.0685 10.1223L10.0683 10.1233C9.94835 10.3686 9.86001 10.6623 9.80699 11.0069C9.7522 11.3633 9.74933 11.6799 9.79313 11.9583L9.83792 12.1618C9.89089 12.3558 9.96746 12.5262 10.0653 12.6749L10.1723 12.8149C10.2861 12.9481 10.4227 13.0626 10.5838 13.1587C10.7989 13.2822 11.0556 13.3696 11.3583 13.4161C11.6739 13.4646 11.9148 13.4695 12.0895 13.4416C12.2922 13.4064 12.4572 13.3626 12.5884 13.3138C12.738 13.2532 12.8662 13.2 12.9728 13.1525L13.0954 13.1072C13.2199 13.0711 13.3498 13.0633 13.4814 13.0835C13.6969 13.1167 13.8848 13.2169 14 13.4053L14.4979 14.1191L14.6395 14.3227L14.4378 14.4656C14.1585 14.6637 13.8627 14.823 13.5514 14.9419L13.5482 14.9434C13.2428 15.0554 12.9298 15.1362 12.6097 15.1864L12.6076 15.1871C12.2945 15.2333 11.9739 15.2497 11.6472 15.239L11.648 15.2401C11.3312 15.2305 11.0171 15.2014 10.7059 15.1536C10.1508 15.0682 9.63766 14.9026 9.16804 14.6553L9.16515 14.6549C8.69562 14.4023 8.29714 14.079 7.97249 13.6851C7.64628 13.2891 7.41078 12.831 7.26514 12.3156L7.26462 12.3125C7.12385 11.7863 7.10323 11.2158 7.19702 10.6057C7.28163 10.0557 7.45505 9.55647 7.71926 9.11104L7.71956 9.10911C7.99097 8.65891 8.34396 8.2876 8.77567 7.9979C9.20894 7.70309 9.71572 7.50314 10.2905 7.39292C10.8709 7.28161 11.5111 7.28219 12.2078 7.3893Z" stroke="#F8D98E" stroke-width="0.5"/>
</g>
<defs>
<clipPath id="clip0_4309_64795">
<rect width="24" height="24" fill="white"/>
</clipPath>
</defs>
</svg>
