<svg width="200" height="256" viewBox="0 0 200 256" fill="none" xmlns="http://www.w3.org/2000/svg">
<g clip-path="url(#clip0_6595_53029)">
<rect width="200" height="256" rx="100" fill="#181919"/>
<path d="M100.335 176.474C121.462 176.474 138.589 159.348 138.589 138.221C138.589 117.094 121.462 99.967 100.335 99.967C79.2085 99.967 62.0818 117.094 62.0818 138.221C62.0818 159.348 79.2085 176.474 100.335 176.474Z" fill="#006FCD"/>
<path d="M100.335 195.601C62.0053 195.601 30.7904 221.307 30.7904 252.981C30.7904 255.123 32.4736 256.807 34.6158 256.807H166.055C168.197 256.807 169.88 255.123 169.88 252.981C169.88 221.307 138.666 195.601 100.335 195.601Z" fill="#006FCD"/>
</g>
<rect x="0.333333" y="0.333333" width="199.333" height="255.333" rx="99.6667" stroke="#3D3D3D" stroke-width="0.666667"/>
<defs>
<clipPath id="clip0_6595_53029">
<rect width="200" height="256" rx="100" fill="white"/>
</clipPath>
</defs>
</svg>
