<svg width="494" height="534" viewBox="0 0 494 534" fill="none" xmlns="http://www.w3.org/2000/svg">
<rect width="363.591" height="198.534" rx="18.5637" transform="matrix(0.998198 0.0600033 -0.0657834 0.997834 74.291 131.016)" fill="#121212"/>
<g filter="url(#filter0_ddi_4628_62680)">
<path d="M246.921 217.289C219.711 217.289 197.537 239.463 197.537 266.673C197.537 293.884 219.711 316.058 246.921 316.058C274.132 316.058 296.306 293.884 296.306 266.673C296.306 239.463 274.132 217.289 246.921 217.289ZM270.527 255.315L242.526 283.316C241.835 284.007 240.896 284.402 239.909 284.402C238.921 284.402 237.983 284.007 237.291 283.316L223.316 269.34C221.884 267.908 221.884 265.537 223.316 264.105C224.748 262.673 227.118 262.673 228.55 264.105L239.909 275.464L265.292 250.08C266.724 248.648 269.095 248.648 270.527 250.08C271.959 251.512 271.959 253.833 270.527 255.315Z" fill="#006FCD"/>
</g>
<path d="M109.19 172.527L129.501 173.748" stroke="#3D3D3D" stroke-width="2.32047" stroke-linecap="round" stroke-linejoin="round"/>
<path d="M118.759 182.402L119.932 163.875" stroke="#3D3D3D" stroke-width="2.32047" stroke-linecap="round" stroke-linejoin="round"/>
<rect width="124.437" height="12.8522" rx="6.4261" transform="matrix(0.998198 0.0600033 -0.0632057 0.998001 285.9 168.266)" fill="#3D3D3D"/>
<path d="M219.821 386.333C219.736 386.502 219.637 386.62 219.522 386.689C219.414 386.758 219.284 386.793 219.131 386.793C218.977 386.793 218.805 386.735 218.613 386.62C218.421 386.498 218.195 386.364 217.935 386.218C217.674 386.072 217.367 385.942 217.015 385.827C216.67 385.704 216.259 385.643 215.784 385.643C215.355 385.643 214.979 385.697 214.657 385.804C214.343 385.904 214.074 386.045 213.852 386.229C213.637 386.413 213.476 386.636 213.369 386.896C213.262 387.149 213.208 387.429 213.208 387.736C213.208 388.127 213.315 388.453 213.53 388.713C213.752 388.974 214.044 389.196 214.404 389.38C214.764 389.564 215.175 389.729 215.635 389.875C216.095 390.021 216.562 390.178 217.038 390.346C217.521 390.507 217.992 390.699 218.452 390.921C218.912 391.136 219.322 391.412 219.683 391.749C220.043 392.079 220.33 392.485 220.545 392.968C220.767 393.451 220.879 394.038 220.879 394.728C220.879 395.479 220.748 396.185 220.488 396.844C220.235 397.496 219.859 398.067 219.361 398.557C218.87 399.04 218.268 399.424 217.555 399.707C216.842 399.984 216.026 400.122 215.106 400.122C214.577 400.122 214.055 400.068 213.542 399.961C213.028 399.861 212.533 399.715 212.058 399.523C211.59 399.332 211.15 399.102 210.736 398.833C210.329 398.565 209.965 398.266 209.643 397.936L210.54 396.453C210.624 396.346 210.724 396.257 210.839 396.188C210.962 396.112 211.096 396.073 211.242 396.073C211.433 396.073 211.64 396.154 211.863 396.315C212.085 396.468 212.346 396.641 212.645 396.832C212.951 397.024 213.308 397.2 213.714 397.361C214.128 397.515 214.623 397.591 215.198 397.591C216.079 397.591 216.762 397.384 217.245 396.97C217.728 396.549 217.969 395.947 217.969 395.165C217.969 394.728 217.858 394.371 217.636 394.095C217.421 393.819 217.133 393.589 216.773 393.405C216.413 393.214 216.003 393.053 215.543 392.922C215.083 392.792 214.615 392.65 214.14 392.497C213.664 392.344 213.197 392.16 212.737 391.945C212.277 391.73 211.866 391.45 211.506 391.105C211.146 390.76 210.854 390.331 210.632 389.817C210.417 389.296 210.31 388.656 210.31 387.897C210.31 387.291 210.429 386.701 210.667 386.126C210.912 385.551 211.265 385.041 211.725 384.596C212.192 384.152 212.763 383.795 213.438 383.527C214.113 383.259 214.883 383.124 215.75 383.124C216.731 383.124 217.636 383.278 218.464 383.584C219.292 383.891 219.997 384.32 220.58 384.872L219.821 386.333ZM225.677 388.138V395.636C225.677 396.357 225.842 396.917 226.172 397.315C226.509 397.706 227.011 397.902 227.678 397.902C228.169 397.902 228.629 397.795 229.058 397.58C229.487 397.358 229.894 397.055 230.277 396.671V388.138H233.118V399.938H231.381C231.013 399.938 230.772 399.765 230.657 399.42L230.461 398.477C230.216 398.722 229.963 398.948 229.702 399.155C229.441 399.355 229.162 399.527 228.863 399.673C228.571 399.811 228.253 399.918 227.908 399.995C227.571 400.079 227.207 400.122 226.816 400.122C226.172 400.122 225.6 400.014 225.102 399.799C224.611 399.577 224.197 399.267 223.86 398.868C223.523 398.469 223.266 397.998 223.09 397.453C222.921 396.901 222.837 396.296 222.837 395.636V388.138H225.677ZM244.442 390.634C244.357 390.741 244.273 390.826 244.189 390.887C244.112 390.948 243.997 390.979 243.844 390.979C243.698 390.979 243.556 390.937 243.418 390.852C243.28 390.76 243.115 390.661 242.924 390.553C242.732 390.438 242.502 390.339 242.234 390.254C241.973 390.162 241.647 390.116 241.256 390.116C240.758 390.116 240.321 390.208 239.945 390.392C239.57 390.569 239.255 390.826 239.002 391.163C238.757 391.5 238.573 391.91 238.45 392.393C238.328 392.869 238.266 393.409 238.266 394.015C238.266 394.644 238.331 395.203 238.462 395.694C238.6 396.185 238.795 396.599 239.048 396.936C239.301 397.266 239.608 397.519 239.968 397.695C240.329 397.864 240.735 397.948 241.187 397.948C241.64 397.948 242.004 397.894 242.28 397.787C242.563 397.672 242.801 397.549 242.993 397.419C243.184 397.281 243.349 397.158 243.487 397.051C243.633 396.936 243.794 396.878 243.97 396.878C244.2 396.878 244.373 396.967 244.488 397.143L245.304 398.178C244.99 398.546 244.649 398.856 244.281 399.109C243.913 399.355 243.529 399.554 243.131 399.707C242.74 399.853 242.333 399.957 241.912 400.018C241.49 400.079 241.072 400.11 240.658 400.11C239.93 400.11 239.244 399.976 238.6 399.707C237.956 399.431 237.392 399.033 236.909 398.511C236.434 397.99 236.054 397.354 235.771 396.602C235.495 395.843 235.357 394.981 235.357 394.015C235.357 393.149 235.479 392.347 235.725 391.611C235.978 390.868 236.346 390.228 236.829 389.691C237.312 389.147 237.91 388.721 238.623 388.414C239.336 388.108 240.156 387.954 241.084 387.954C241.965 387.954 242.736 388.096 243.395 388.38C244.062 388.664 244.66 389.07 245.189 389.599L244.442 390.634ZM255.403 390.634C255.318 390.741 255.234 390.826 255.15 390.887C255.073 390.948 254.958 390.979 254.805 390.979C254.659 390.979 254.517 390.937 254.379 390.852C254.241 390.76 254.076 390.661 253.885 390.553C253.693 390.438 253.463 390.339 253.195 390.254C252.934 390.162 252.608 390.116 252.217 390.116C251.719 390.116 251.282 390.208 250.906 390.392C250.531 390.569 250.216 390.826 249.963 391.163C249.718 391.5 249.534 391.91 249.411 392.393C249.289 392.869 249.227 393.409 249.227 394.015C249.227 394.644 249.292 395.203 249.423 395.694C249.561 396.185 249.756 396.599 250.009 396.936C250.262 397.266 250.569 397.519 250.929 397.695C251.29 397.864 251.696 397.948 252.148 397.948C252.601 397.948 252.965 397.894 253.241 397.787C253.524 397.672 253.762 397.549 253.954 397.419C254.145 397.281 254.31 397.158 254.448 397.051C254.594 396.936 254.755 396.878 254.931 396.878C255.161 396.878 255.334 396.967 255.449 397.143L256.265 398.178C255.951 398.546 255.61 398.856 255.242 399.109C254.874 399.355 254.49 399.554 254.092 399.707C253.701 399.853 253.294 399.957 252.873 400.018C252.451 400.079 252.033 400.11 251.619 400.11C250.891 400.11 250.205 399.976 249.561 399.707C248.917 399.431 248.353 399.033 247.87 398.511C247.395 397.99 247.015 397.354 246.732 396.602C246.456 395.843 246.318 394.981 246.318 394.015C246.318 393.149 246.44 392.347 246.686 391.611C246.939 390.868 247.307 390.228 247.79 389.691C248.273 389.147 248.871 388.721 249.584 388.414C250.297 388.108 251.117 387.954 252.045 387.954C252.926 387.954 253.697 388.096 254.356 388.38C255.023 388.664 255.621 389.07 256.15 389.599L255.403 390.634ZM262.948 387.954C263.692 387.954 264.374 388.073 264.995 388.311C265.624 388.549 266.164 388.897 266.617 389.357C267.069 389.81 267.422 390.369 267.675 391.036C267.928 391.696 268.054 392.451 268.054 393.302C268.054 393.517 268.043 393.697 268.02 393.842C268.004 393.98 267.97 394.092 267.916 394.176C267.87 394.253 267.805 394.31 267.721 394.348C267.636 394.379 267.529 394.394 267.399 394.394H260.108C260.192 395.606 260.518 396.495 261.085 397.062C261.653 397.63 262.404 397.913 263.339 397.913C263.799 397.913 264.194 397.86 264.524 397.752C264.861 397.645 265.152 397.526 265.398 397.396C265.651 397.266 265.869 397.147 266.053 397.039C266.245 396.932 266.429 396.878 266.605 396.878C266.72 396.878 266.82 396.901 266.904 396.947C266.989 396.993 267.061 397.059 267.123 397.143L267.951 398.178C267.636 398.546 267.284 398.856 266.893 399.109C266.502 399.355 266.092 399.554 265.662 399.707C265.241 399.853 264.807 399.957 264.363 400.018C263.926 400.079 263.5 400.11 263.086 400.11C262.266 400.11 261.503 399.976 260.798 399.707C260.092 399.431 259.479 399.029 258.958 398.5C258.436 397.963 258.026 397.304 257.727 396.522C257.428 395.732 257.279 394.82 257.279 393.785C257.279 392.98 257.409 392.225 257.67 391.519C257.93 390.806 258.302 390.189 258.785 389.668C259.276 389.139 259.87 388.721 260.568 388.414C261.273 388.108 262.067 387.954 262.948 387.954ZM263.006 389.99C262.178 389.99 261.53 390.224 261.062 390.691C260.595 391.159 260.296 391.822 260.165 392.681H265.501C265.501 392.313 265.451 391.968 265.352 391.646C265.252 391.316 265.099 391.029 264.892 390.783C264.685 390.538 264.424 390.346 264.11 390.208C263.795 390.063 263.427 389.99 263.006 389.99ZM277.362 390.438C277.285 390.561 277.205 390.649 277.12 390.703C277.036 390.749 276.929 390.772 276.798 390.772C276.66 390.772 276.511 390.734 276.35 390.657C276.196 390.58 276.016 390.496 275.809 390.404C275.602 390.304 275.365 390.216 275.096 390.139C274.836 390.063 274.525 390.024 274.165 390.024C273.605 390.024 273.164 390.143 272.842 390.381C272.52 390.619 272.359 390.929 272.359 391.312C272.359 391.565 272.44 391.78 272.601 391.956C272.769 392.125 272.988 392.275 273.256 392.405C273.532 392.535 273.843 392.654 274.188 392.761C274.533 392.861 274.885 392.972 275.246 393.095C275.606 393.218 275.959 393.359 276.304 393.52C276.649 393.674 276.955 393.873 277.224 394.118C277.5 394.356 277.718 394.644 277.879 394.981C278.048 395.318 278.132 395.725 278.132 396.2C278.132 396.767 278.029 397.292 277.822 397.775C277.615 398.251 277.312 398.665 276.913 399.017C276.515 399.362 276.02 399.635 275.43 399.834C274.847 400.026 274.176 400.122 273.417 400.122C273.011 400.122 272.612 400.083 272.221 400.007C271.838 399.938 271.466 399.838 271.106 399.707C270.753 399.577 270.423 399.424 270.117 399.247C269.818 399.071 269.553 398.879 269.323 398.672L269.979 397.591C270.063 397.461 270.163 397.361 270.278 397.292C270.393 397.223 270.538 397.189 270.715 397.189C270.891 397.189 271.056 397.239 271.209 397.338C271.37 397.438 271.554 397.545 271.761 397.66C271.968 397.775 272.21 397.883 272.486 397.982C272.769 398.082 273.126 398.132 273.555 398.132C273.893 398.132 274.18 398.094 274.418 398.017C274.663 397.933 274.862 397.825 275.016 397.695C275.177 397.565 275.292 397.415 275.361 397.246C275.437 397.07 275.476 396.89 275.476 396.706C275.476 396.43 275.391 396.204 275.223 396.027C275.062 395.851 274.843 395.698 274.567 395.567C274.299 395.437 273.988 395.322 273.636 395.222C273.291 395.115 272.934 395 272.566 394.877C272.206 394.755 271.849 394.613 271.497 394.452C271.152 394.283 270.841 394.072 270.565 393.819C270.297 393.566 270.078 393.256 269.91 392.888C269.749 392.52 269.668 392.075 269.668 391.554C269.668 391.071 269.764 390.611 269.956 390.174C270.147 389.737 270.427 389.357 270.795 389.035C271.171 388.706 271.635 388.445 272.187 388.253C272.746 388.054 273.39 387.954 274.119 387.954C274.931 387.954 275.671 388.089 276.338 388.357C277.005 388.625 277.561 388.978 278.006 389.415L277.362 390.438ZM287.402 390.438C287.325 390.561 287.245 390.649 287.16 390.703C287.076 390.749 286.969 390.772 286.838 390.772C286.7 390.772 286.551 390.734 286.39 390.657C286.237 390.58 286.056 390.496 285.849 390.404C285.642 390.304 285.405 390.216 285.136 390.139C284.876 390.063 284.565 390.024 284.205 390.024C283.645 390.024 283.204 390.143 282.882 390.381C282.56 390.619 282.399 390.929 282.399 391.312C282.399 391.565 282.48 391.78 282.641 391.956C282.81 392.125 283.028 392.275 283.296 392.405C283.572 392.535 283.883 392.654 284.228 392.761C284.573 392.861 284.926 392.972 285.286 393.095C285.646 393.218 285.999 393.359 286.344 393.52C286.689 393.674 286.996 393.873 287.264 394.118C287.54 394.356 287.758 394.644 287.919 394.981C288.088 395.318 288.172 395.725 288.172 396.2C288.172 396.767 288.069 397.292 287.862 397.775C287.655 398.251 287.352 398.665 286.953 399.017C286.555 399.362 286.06 399.635 285.47 399.834C284.887 400.026 284.216 400.122 283.457 400.122C283.051 400.122 282.652 400.083 282.261 400.007C281.878 399.938 281.506 399.838 281.146 399.707C280.793 399.577 280.464 399.424 280.157 399.247C279.858 399.071 279.593 398.879 279.363 398.672L280.019 397.591C280.103 397.461 280.203 397.361 280.318 397.292C280.433 397.223 280.579 397.189 280.755 397.189C280.931 397.189 281.096 397.239 281.249 397.338C281.41 397.438 281.594 397.545 281.801 397.66C282.008 397.775 282.25 397.883 282.526 397.982C282.81 398.082 283.166 398.132 283.595 398.132C283.933 398.132 284.22 398.094 284.458 398.017C284.703 397.933 284.903 397.825 285.056 397.695C285.217 397.565 285.332 397.415 285.401 397.246C285.478 397.07 285.516 396.89 285.516 396.706C285.516 396.43 285.432 396.204 285.263 396.027C285.102 395.851 284.883 395.698 284.607 395.567C284.339 395.437 284.029 395.322 283.676 395.222C283.331 395.115 282.974 395 282.606 394.877C282.246 394.755 281.89 394.613 281.537 394.452C281.192 394.283 280.881 394.072 280.605 393.819C280.337 393.566 280.119 393.256 279.95 392.888C279.789 392.52 279.708 392.075 279.708 391.554C279.708 391.071 279.804 390.611 279.996 390.174C280.188 389.737 280.467 389.357 280.835 389.035C281.211 388.706 281.675 388.445 282.227 388.253C282.787 388.054 283.431 387.954 284.159 387.954C284.972 387.954 285.711 388.089 286.378 388.357C287.045 388.625 287.601 388.978 288.046 389.415L287.402 390.438Z" fill="white"/>
<defs>
<filter id="filter0_ddi_4628_62680" x="9.15527e-05" y="-0.00165749" width="493.843" height="533.351" filterUnits="userSpaceOnUse" color-interpolation-filters="sRGB">
<feFlood flood-opacity="0" result="BackgroundImageFix"/>
<feColorMatrix in="SourceAlpha" type="matrix" values="0 0 0 0 0 0 0 0 0 0 0 0 0 0 0 0 0 0 127 0" result="hardAlpha"/>
<feOffset dy="19.7537"/>
<feGaussianBlur stdDeviation="98.7685"/>
<feComposite in2="hardAlpha" operator="out"/>
<feColorMatrix type="matrix" values="0 0 0 0 0 0 0 0 0 0.435294 0 0 0 0 0.803922 0 0 0 0.5 0"/>
<feBlend mode="normal" in2="BackgroundImageFix" result="effect1_dropShadow_4628_62680"/>
<feColorMatrix in="SourceAlpha" type="matrix" values="0 0 0 0 0 0 0 0 0 0 0 0 0 0 0 0 0 0 127 0" result="hardAlpha"/>
<feOffset dy="-19.7537"/>
<feGaussianBlur stdDeviation="98.7685"/>
<feComposite in2="hardAlpha" operator="out"/>
<feColorMatrix type="matrix" values="0 0 0 0 0 0 0 0 0 0.435294 0 0 0 0 0.803922 0 0 0 0.5 0"/>
<feBlend mode="normal" in2="effect1_dropShadow_4628_62680" result="effect2_dropShadow_4628_62680"/>
<feBlend mode="normal" in="SourceGraphic" in2="effect2_dropShadow_4628_62680" result="shape"/>
<feColorMatrix in="SourceAlpha" type="matrix" values="0 0 0 0 0 0 0 0 0 0 0 0 0 0 0 0 0 0 127 0" result="hardAlpha"/>
<feOffset dy="19.7537"/>
<feGaussianBlur stdDeviation="49.3843"/>
<feComposite in2="hardAlpha" operator="arithmetic" k2="-1" k3="1"/>
<feColorMatrix type="matrix" values="0 0 0 0 1 0 0 0 0 1 0 0 0 0 1 0 0 0 0.1 0"/>
<feBlend mode="normal" in2="shape" result="effect3_innerShadow_4628_62680"/>
</filter>
</defs>
</svg>
