<svg width="16" height="16" viewBox="0 0 16 16" fill="none" xmlns="http://www.w3.org/2000/svg">
<path d="M7.99998 1.33301C6.25331 1.33301 4.83331 2.75301 4.83331 4.49967C4.83331 6.21301 6.17331 7.59967 7.91998 7.65967C7.97331 7.65301 8.02665 7.65301 8.06665 7.65967C8.07998 7.65967 8.08665 7.65967 8.09998 7.65967C8.10665 7.65967 8.10665 7.65967 8.11331 7.65967C9.81998 7.59967 11.16 6.21301 11.1666 4.49967C11.1666 2.75301 9.74665 1.33301 7.99998 1.33301Z" fill="#B4B4B4"/>
<path d="M11.3867 9.43293C9.5267 8.19293 6.49337 8.19293 4.62003 9.43293C3.77337 9.9996 3.3067 10.7663 3.3067 11.5863C3.3067 12.4063 3.77337 13.1663 4.61337 13.7263C5.5467 14.3529 6.77337 14.6663 8.00004 14.6663C9.2267 14.6663 10.4534 14.3529 11.3867 13.7263C12.2267 13.1596 12.6934 12.3996 12.6934 11.5729C12.6867 10.7529 12.2267 9.99293 11.3867 9.43293Z" fill="#B4B4B4"/>
</svg>
