<svg width="40" height="40" viewBox="0 0 40 40" fill="none" xmlns="http://www.w3.org/2000/svg">
<rect width="40" height="40" rx="20" fill="#3D3D3D"/>
<path d="M17.3084 21.7638H18.1418V20.0971C18.1418 19.7538 18.264 19.4593 18.5084 19.2138C18.754 18.9693 19.0484 18.8471 19.3918 18.8471H21.0584V19.9363L22.5643 18.4304L21.0576 16.9238V18.0138H19.3909C18.8143 18.0138 18.3229 18.2165 17.9168 18.6221C17.5107 19.0276 17.3079 19.5193 17.3084 20.0971V21.7638ZM13.8468 24.5521C13.4629 24.5521 13.1426 24.4235 12.8859 24.1663C12.6293 23.909 12.5007 23.5888 12.5001 23.2054V15.0646C12.5001 14.6813 12.6287 14.361 12.8859 14.1038C13.1432 13.8465 13.4632 13.7182 13.8459 13.7188H26.1543C26.5376 13.7188 26.8576 13.8471 27.1143 14.1038C27.3709 14.3604 27.4995 14.6807 27.5001 15.0646V23.2063C27.5001 23.5896 27.3715 23.9096 27.1143 24.1663C26.857 24.4229 26.5368 24.5515 26.1534 24.5521H13.8468ZM13.8468 23.7188H26.1543C26.282 23.7188 26.3995 23.6651 26.5068 23.5579C26.614 23.4507 26.6673 23.3332 26.6668 23.2054V15.0646C26.6668 14.9368 26.6134 14.8193 26.5068 14.7121C26.3995 14.6049 26.2818 14.5513 26.1534 14.5513H13.8468C13.7184 14.5513 13.6007 14.6049 13.4934 14.7121C13.3868 14.8188 13.3334 14.9363 13.3334 15.0646V23.2063C13.3334 23.334 13.3868 23.4513 13.4934 23.5579C13.6001 23.6646 13.7176 23.7182 13.8459 23.7188M11.4751 26.2188V25.3854H28.5251V26.2188H11.4751Z" fill="white"/>
</svg>
