<svg width="40" height="40" viewBox="0 0 40 40" fill="none" xmlns="http://www.w3.org/2000/svg">
<rect width="40" height="40" rx="20" fill="#3D3D3D"/>
<path d="M18.4766 11.0986V28.9035L24.0234 27.2395V12.7627L18.4766 11.0986ZM24.7241 12.1486L24.7266 12.2395V13.3995H25.3516V12.1495L24.7241 12.1486ZM14.6484 12.1495V16.7304H15.3516V12.8526H17.7734V12.1495H14.6484ZM24.7266 14.1026V14.7276H25.3516V14.1026H24.7266ZM24.7266 15.4307V24.6495H25.3516V15.4307H24.7266ZM15.3516 17.7248V19.1026H11.6016V20.8995H15.3516V22.2773L17.6279 20.0011L15.3516 17.7248ZM19.5312 19.0636C19.7901 19.0636 20 19.4833 20 20.0011C20 20.5188 19.7901 20.9386 19.5312 20.9386C19.2724 20.9386 19.0625 20.5188 19.0625 20.0011C19.0625 19.4833 19.2724 19.0636 19.5312 19.0636ZM15.3516 23.2718H14.6484V27.5011H15.3516V23.2718ZM24.7266 25.3526V25.8995H25.3516V25.3526H24.7266ZM24.7266 26.6026V27.5011H25.3516V26.6026H24.7266ZM11.25 28.3995V29.1026H17.7734V28.3995H11.25ZM22.6036 28.3995L20.2598 29.1026H28.75V28.3995H22.6036Z" fill="white"/>
</svg>
