<svg width="28" height="28" viewBox="0 0 28 28" fill="none" xmlns="http://www.w3.org/2000/svg">
<path d="M13.4173 25.3757C6.82565 25.3757 1.45898 20.009 1.45898 13.4173C1.45898 6.82565 6.82565 1.45898 13.4173 1.45898C20.009 1.45898 25.3757 6.82565 25.3757 13.4173C25.3757 20.009 20.009 25.3757 13.4173 25.3757ZM13.4173 3.20898C7.78232 3.20898 3.20898 7.79398 3.20898 13.4173C3.20898 19.0407 7.78232 23.6257 13.4173 23.6257C19.0523 23.6257 23.6257 19.0407 23.6257 13.4173C23.6257 7.79398 19.0523 3.20898 13.4173 3.20898Z" fill="white"/>
<path d="M25.6664 26.5414C25.4447 26.5414 25.223 26.4597 25.048 26.2847L22.7147 23.9514C22.3764 23.613 22.3764 23.053 22.7147 22.7147C23.053 22.3764 23.613 22.3764 23.9514 22.7147L26.2847 25.048C26.623 25.3864 26.623 25.9464 26.2847 26.2847C26.1097 26.4597 25.888 26.5414 25.6664 26.5414Z" fill="white"/>
</svg>
