<svg width="408" height="54" viewBox="0 0 408 54" fill="none" xmlns="http://www.w3.org/2000/svg">
<rect width="408" height="54" rx="27" fill="url(#paint0_linear_5561_71915)"/>
<path d="M143.46 33.112C142.681 33.112 141.977 32.9787 141.348 32.712C140.729 32.4453 140.239 32.0613 139.876 31.56C139.513 31.0587 139.327 30.4667 139.316 29.784H141.716C141.748 30.2427 141.908 30.6053 142.196 30.872C142.495 31.1387 142.9 31.272 143.412 31.272C143.935 31.272 144.345 31.1493 144.644 30.904C144.943 30.648 145.092 30.3173 145.092 29.912C145.092 29.5813 144.991 29.3093 144.788 29.096C144.585 28.8827 144.329 28.7173 144.02 28.6C143.721 28.472 143.305 28.3333 142.772 28.184C142.047 27.9707 141.455 27.7627 140.996 27.56C140.548 27.3467 140.159 27.032 139.828 26.616C139.508 26.1893 139.348 25.624 139.348 24.92C139.348 24.2587 139.513 23.6827 139.844 23.192C140.175 22.7013 140.639 22.328 141.236 22.072C141.833 21.8053 142.516 21.672 143.284 21.672C144.436 21.672 145.369 21.9547 146.084 22.52C146.809 23.0747 147.209 23.8533 147.284 24.856H144.82C144.799 24.472 144.633 24.1573 144.324 23.912C144.025 23.656 143.625 23.528 143.124 23.528C142.687 23.528 142.335 23.64 142.068 23.864C141.812 24.088 141.684 24.4133 141.684 24.84C141.684 25.1387 141.78 25.3893 141.972 25.592C142.175 25.784 142.42 25.944 142.708 26.072C143.007 26.1893 143.423 26.328 143.956 26.488C144.681 26.7013 145.273 26.9147 145.732 27.128C146.191 27.3413 146.585 27.6613 146.916 28.088C147.247 28.5147 147.412 29.0747 147.412 29.768C147.412 30.3653 147.257 30.92 146.948 31.432C146.639 31.944 146.185 32.3547 145.588 32.664C144.991 32.9627 144.281 33.112 143.46 33.112ZM151.962 25.976V30.264C151.962 30.5627 152.031 30.7813 152.17 30.92C152.319 31.048 152.565 31.112 152.906 31.112H153.946V33H152.538C150.65 33 149.706 32.0827 149.706 30.248V25.976H148.65V24.136H149.706V21.944H151.962V24.136H153.946V25.976H151.962ZM154.981 28.536C154.981 27.64 155.157 26.8453 155.509 26.152C155.872 25.4587 156.357 24.9253 156.965 24.552C157.584 24.1787 158.272 23.992 159.029 23.992C159.69 23.992 160.266 24.1253 160.757 24.392C161.258 24.6587 161.658 24.9947 161.957 25.4V24.136H164.213V33H161.957V31.704C161.669 32.12 161.269 32.4667 160.757 32.744C160.256 33.0107 159.674 33.144 159.013 33.144C158.266 33.144 157.584 32.952 156.965 32.568C156.357 32.184 155.872 31.6453 155.509 30.952C155.157 30.248 154.981 29.4427 154.981 28.536ZM161.957 28.568C161.957 28.024 161.85 27.56 161.637 27.176C161.424 26.7813 161.136 26.4827 160.773 26.28C160.41 26.0667 160.021 25.96 159.605 25.96C159.189 25.96 158.805 26.0613 158.453 26.264C158.101 26.4667 157.813 26.7653 157.589 27.16C157.376 27.544 157.269 28.0027 157.269 28.536C157.269 29.0693 157.376 29.5387 157.589 29.944C157.813 30.3387 158.101 30.6427 158.453 30.856C158.816 31.0693 159.2 31.176 159.605 31.176C160.021 31.176 160.41 31.0747 160.773 30.872C161.136 30.6587 161.424 30.36 161.637 29.976C161.85 29.5813 161.957 29.112 161.957 28.568ZM168.641 25.512C168.929 25.0427 169.302 24.6747 169.761 24.408C170.23 24.1413 170.764 24.008 171.361 24.008V26.36H170.769C170.065 26.36 169.532 26.5253 169.169 26.856C168.817 27.1867 168.641 27.7627 168.641 28.584V33H166.401V24.136H168.641V25.512ZM175.478 25.976V30.264C175.478 30.5627 175.547 30.7813 175.686 30.92C175.835 31.048 176.08 31.112 176.422 31.112H177.462V33H176.054C174.166 33 173.222 32.0827 173.222 30.248V25.976H172.166V24.136H173.222V21.944H175.478V24.136H177.462V25.976H175.478ZM185.125 21.16V33H182.885V21.16H185.125ZM188.474 23.08C188.08 23.08 187.749 22.9573 187.482 22.712C187.226 22.456 187.098 22.1413 187.098 21.768C187.098 21.3947 187.226 21.0853 187.482 20.84C187.749 20.584 188.08 20.456 188.474 20.456C188.869 20.456 189.194 20.584 189.45 20.84C189.717 21.0853 189.85 21.3947 189.85 21.768C189.85 22.1413 189.717 22.456 189.45 22.712C189.194 22.9573 188.869 23.08 188.474 23.08ZM189.578 24.136V33H187.338V24.136H189.578ZM195.488 30.936L197.728 24.136H200.112L196.832 33H194.112L190.848 24.136H193.248L195.488 30.936ZM209.61 28.376C209.61 28.696 209.588 28.984 209.546 29.24H203.066C203.119 29.88 203.343 30.3813 203.738 30.744C204.132 31.1067 204.618 31.288 205.194 31.288C206.026 31.288 206.618 30.9307 206.97 30.216H209.386C209.13 31.0693 208.639 31.7733 207.914 32.328C207.188 32.872 206.298 33.144 205.242 33.144C204.388 33.144 203.62 32.9573 202.938 32.584C202.266 32.2 201.738 31.6613 201.354 30.968C200.98 30.2747 200.794 29.4747 200.794 28.568C200.794 27.6507 200.98 26.8453 201.354 26.152C201.727 25.4587 202.25 24.9253 202.922 24.552C203.594 24.1787 204.367 23.992 205.242 23.992C206.084 23.992 206.836 24.1733 207.498 24.536C208.17 24.8987 208.687 25.416 209.05 26.088C209.423 26.7493 209.61 27.512 209.61 28.376ZM207.29 27.736C207.279 27.16 207.071 26.7013 206.666 26.36C206.26 26.008 205.764 25.832 205.178 25.832C204.623 25.832 204.154 26.0027 203.77 26.344C203.396 26.6747 203.167 27.1387 203.082 27.736H207.29ZM214.637 33.144C213.911 33.144 213.261 33.016 212.685 32.76C212.109 32.4933 211.65 32.136 211.309 31.688C210.978 31.24 210.797 30.744 210.765 30.2H213.021C213.063 30.5413 213.229 30.824 213.517 31.048C213.815 31.272 214.183 31.384 214.621 31.384C215.047 31.384 215.378 31.2987 215.613 31.128C215.858 30.9573 215.981 30.7387 215.981 30.472C215.981 30.184 215.831 29.9707 215.533 29.832C215.245 29.6827 214.781 29.5227 214.141 29.352C213.479 29.192 212.935 29.0267 212.509 28.856C212.093 28.6853 211.73 28.424 211.421 28.072C211.122 27.72 210.973 27.2453 210.973 26.648C210.973 26.1573 211.111 25.7093 211.389 25.304C211.677 24.8987 212.082 24.5787 212.605 24.344C213.138 24.1093 213.762 23.992 214.477 23.992C215.533 23.992 216.375 24.2587 217.005 24.792C217.634 25.3147 217.981 26.024 218.045 26.92H215.901C215.869 26.568 215.719 26.2907 215.453 26.088C215.197 25.8747 214.85 25.768 214.413 25.768C214.007 25.768 213.693 25.8427 213.469 25.992C213.255 26.1413 213.149 26.3493 213.149 26.616C213.149 26.9147 213.298 27.144 213.597 27.304C213.895 27.4533 214.359 27.608 214.989 27.768C215.629 27.928 216.157 28.0933 216.573 28.264C216.989 28.4347 217.346 28.7013 217.645 29.064C217.954 29.416 218.114 29.8853 218.125 30.472C218.125 30.984 217.981 31.4427 217.693 31.848C217.415 32.2533 217.01 32.5733 216.477 32.808C215.954 33.032 215.341 33.144 214.637 33.144ZM222.571 25.976V30.264C222.571 30.5627 222.641 30.7813 222.779 30.92C222.929 31.048 223.174 31.112 223.515 31.112H224.555V33H223.147C221.259 33 220.315 32.0827 220.315 30.248V25.976H219.259V24.136H220.315V21.944H222.571V24.136H224.555V25.976H222.571ZM228.407 25.512C228.695 25.0427 229.068 24.6747 229.527 24.408C229.996 24.1413 230.529 24.008 231.127 24.008V26.36H230.535C229.831 26.36 229.297 26.5253 228.935 26.856C228.583 27.1867 228.407 27.7627 228.407 28.584V33H226.167V24.136H228.407V25.512ZM240.875 28.376C240.875 28.696 240.854 28.984 240.811 29.24H234.331C234.385 29.88 234.609 30.3813 235.003 30.744C235.398 31.1067 235.883 31.288 236.459 31.288C237.291 31.288 237.883 30.9307 238.235 30.216H240.651C240.395 31.0693 239.905 31.7733 239.179 32.328C238.454 32.872 237.563 33.144 236.507 33.144C235.654 33.144 234.886 32.9573 234.203 32.584C233.531 32.2 233.003 31.6613 232.619 30.968C232.246 30.2747 232.059 29.4747 232.059 28.568C232.059 27.6507 232.246 26.8453 232.619 26.152C232.993 25.4587 233.515 24.9253 234.187 24.552C234.859 24.1787 235.633 23.992 236.507 23.992C237.35 23.992 238.102 24.1733 238.763 24.536C239.435 24.8987 239.953 25.416 240.315 26.088C240.689 26.7493 240.875 27.512 240.875 28.376ZM238.555 27.736C238.545 27.16 238.337 26.7013 237.931 26.36C237.526 26.008 237.03 25.832 236.443 25.832C235.889 25.832 235.419 26.0027 235.035 26.344C234.662 26.6747 234.433 27.1387 234.347 27.736H238.555ZM241.934 28.536C241.934 27.64 242.11 26.8453 242.462 26.152C242.825 25.4587 243.31 24.9253 243.918 24.552C244.537 24.1787 245.225 23.992 245.982 23.992C246.644 23.992 247.22 24.1253 247.71 24.392C248.212 24.6587 248.612 24.9947 248.91 25.4V24.136H251.166V33H248.91V31.704C248.622 32.12 248.222 32.4667 247.71 32.744C247.209 33.0107 246.628 33.144 245.966 33.144C245.22 33.144 244.537 32.952 243.918 32.568C243.31 32.184 242.825 31.6453 242.462 30.952C242.11 30.248 241.934 29.4427 241.934 28.536ZM248.91 28.568C248.91 28.024 248.804 27.56 248.59 27.176C248.377 26.7813 248.089 26.4827 247.726 26.28C247.364 26.0667 246.974 25.96 246.558 25.96C246.142 25.96 245.758 26.0613 245.406 26.264C245.054 26.4667 244.766 26.7653 244.542 27.16C244.329 27.544 244.222 28.0027 244.222 28.536C244.222 29.0693 244.329 29.5387 244.542 29.944C244.766 30.3387 245.054 30.6427 245.406 30.856C245.769 31.0693 246.153 31.176 246.558 31.176C246.974 31.176 247.364 31.0747 247.726 30.872C248.089 30.6587 248.377 30.36 248.59 29.976C248.804 29.5813 248.91 29.112 248.91 28.568ZM264.362 24.008C265.45 24.008 266.325 24.344 266.986 25.016C267.658 25.6773 267.994 26.6053 267.994 27.8V33H265.754V28.104C265.754 27.4107 265.578 26.8827 265.226 26.52C264.874 26.1467 264.394 25.96 263.786 25.96C263.178 25.96 262.693 26.1467 262.33 26.52C261.978 26.8827 261.802 27.4107 261.802 28.104V33H259.562V28.104C259.562 27.4107 259.386 26.8827 259.034 26.52C258.682 26.1467 258.202 25.96 257.594 25.96C256.975 25.96 256.485 26.1467 256.122 26.52C255.77 26.8827 255.594 27.4107 255.594 28.104V33H253.354V24.136H255.594V25.208C255.882 24.8347 256.25 24.5413 256.698 24.328C257.157 24.1147 257.658 24.008 258.202 24.008C258.895 24.008 259.514 24.1573 260.058 24.456C260.602 24.744 261.023 25.16 261.322 25.704C261.61 25.192 262.026 24.7813 262.57 24.472C263.125 24.1627 263.722 24.008 264.362 24.008Z" fill="white"/>
<defs>
<linearGradient id="paint0_linear_5561_71915" x1="412.868" y1="26.8028" x2="4.86841" y2="26.8028" gradientUnits="userSpaceOnUse">
<stop stop-color="#0075FF"/>
<stop offset="1" stop-color="#FF2400"/>
</linearGradient>
</defs>
</svg>
