<svg width="408" height="54" viewBox="0 0 408 54" fill="none" xmlns="http://www.w3.org/2000/svg">
<rect width="408" height="54" rx="27" fill="url(#paint0_linear_5561_71915)"/>
<path d="M108.46 33.112C107.681 33.112 106.977 32.9787 106.348 32.712C105.729 32.4453 105.239 32.0613 104.876 31.56C104.513 31.0587 104.327 30.4667 104.316 29.784H106.716C106.748 30.2427 106.908 30.6053 107.196 30.872C107.495 31.1387 107.9 31.272 108.412 31.272C108.935 31.272 109.345 31.1493 109.644 30.904C109.943 30.648 110.092 30.3173 110.092 29.912C110.092 29.5813 109.991 29.3093 109.788 29.096C109.585 28.8827 109.329 28.7173 109.02 28.6C108.721 28.472 108.305 28.3333 107.772 28.184C107.047 27.9707 106.455 27.7627 105.996 27.56C105.548 27.3467 105.159 27.032 104.828 26.616C104.508 26.1893 104.348 25.624 104.348 24.92C104.348 24.2587 104.513 23.6827 104.844 23.192C105.175 22.7013 105.639 22.328 106.236 22.072C106.833 21.8053 107.516 21.672 108.284 21.672C109.436 21.672 110.369 21.9547 111.084 22.52C111.809 23.0747 112.209 23.8533 112.284 24.856H109.82C109.799 24.472 109.633 24.1573 109.324 23.912C109.025 23.656 108.625 23.528 108.124 23.528C107.687 23.528 107.335 23.64 107.068 23.864C106.812 24.088 106.684 24.4133 106.684 24.84C106.684 25.1387 106.78 25.3893 106.972 25.592C107.175 25.784 107.42 25.944 107.708 26.072C108.007 26.1893 108.423 26.328 108.956 26.488C109.681 26.7013 110.273 26.9147 110.732 27.128C111.191 27.3413 111.585 27.6613 111.916 28.088C112.247 28.5147 112.412 29.0747 112.412 29.768C112.412 30.3653 112.257 30.92 111.948 31.432C111.639 31.944 111.185 32.3547 110.588 32.664C109.991 32.9627 109.281 33.112 108.46 33.112ZM116.962 25.976V30.264C116.962 30.5627 117.031 30.7813 117.17 30.92C117.319 31.048 117.565 31.112 117.906 31.112H118.946V33H117.538C115.65 33 114.706 32.0827 114.706 30.248V25.976H113.65V24.136H114.706V21.944H116.962V24.136H118.946V25.976H116.962ZM119.981 28.536C119.981 27.64 120.157 26.8453 120.509 26.152C120.872 25.4587 121.357 24.9253 121.965 24.552C122.584 24.1787 123.272 23.992 124.029 23.992C124.69 23.992 125.266 24.1253 125.757 24.392C126.258 24.6587 126.658 24.9947 126.957 25.4V24.136H129.213V33H126.957V31.704C126.669 32.12 126.269 32.4667 125.757 32.744C125.256 33.0107 124.674 33.144 124.013 33.144C123.266 33.144 122.584 32.952 121.965 32.568C121.357 32.184 120.872 31.6453 120.509 30.952C120.157 30.248 119.981 29.4427 119.981 28.536ZM126.957 28.568C126.957 28.024 126.85 27.56 126.637 27.176C126.424 26.7813 126.136 26.4827 125.773 26.28C125.41 26.0667 125.021 25.96 124.605 25.96C124.189 25.96 123.805 26.0613 123.453 26.264C123.101 26.4667 122.813 26.7653 122.589 27.16C122.376 27.544 122.269 28.0027 122.269 28.536C122.269 29.0693 122.376 29.5387 122.589 29.944C122.813 30.3387 123.101 30.6427 123.453 30.856C123.816 31.0693 124.2 31.176 124.605 31.176C125.021 31.176 125.41 31.0747 125.773 30.872C126.136 30.6587 126.424 30.36 126.637 29.976C126.85 29.5813 126.957 29.112 126.957 28.568ZM133.641 25.512C133.929 25.0427 134.302 24.6747 134.761 24.408C135.23 24.1413 135.764 24.008 136.361 24.008V26.36H135.769C135.065 26.36 134.532 26.5253 134.169 26.856C133.817 27.1867 133.641 27.7627 133.641 28.584V33H131.401V24.136H133.641V25.512ZM140.478 25.976V30.264C140.478 30.5627 140.547 30.7813 140.686 30.92C140.835 31.048 141.08 31.112 141.422 31.112H142.462V33H141.054C139.166 33 138.222 32.0827 138.222 30.248V25.976H137.166V24.136H138.222V21.944H140.478V24.136H142.462V25.976H140.478ZM145.209 23.08C144.814 23.08 144.483 22.9573 144.217 22.712C143.961 22.456 143.833 22.1413 143.833 21.768C143.833 21.3947 143.961 21.0853 144.217 20.84C144.483 20.584 144.814 20.456 145.209 20.456C145.603 20.456 145.929 20.584 146.185 20.84C146.451 21.0853 146.585 21.3947 146.585 21.768C146.585 22.1413 146.451 22.456 146.185 22.712C145.929 22.9573 145.603 23.08 145.209 23.08ZM146.313 24.136V33H144.073V24.136H146.313ZM153.438 24.008C154.494 24.008 155.347 24.344 155.998 25.016C156.649 25.6773 156.974 26.6053 156.974 27.8V33H154.734V28.104C154.734 27.4 154.558 26.8613 154.206 26.488C153.854 26.104 153.374 25.912 152.766 25.912C152.147 25.912 151.657 26.104 151.294 26.488C150.942 26.8613 150.766 27.4 150.766 28.104V33H148.526V24.136H150.766V25.24C151.065 24.856 151.443 24.5573 151.902 24.344C152.371 24.12 152.883 24.008 153.438 24.008ZM162.576 23.992C163.237 23.992 163.819 24.1253 164.32 24.392C164.821 24.648 165.216 24.984 165.504 25.4V24.136H167.76V33.064C167.76 33.8853 167.595 34.616 167.264 35.256C166.933 35.9067 166.437 36.4187 165.776 36.792C165.115 37.176 164.315 37.368 163.376 37.368C162.117 37.368 161.083 37.0747 160.272 36.488C159.472 35.9013 159.019 35.1013 158.912 34.088H161.136C161.253 34.4933 161.504 34.8133 161.888 35.048C162.283 35.2933 162.757 35.416 163.312 35.416C163.963 35.416 164.491 35.2187 164.896 34.824C165.301 34.44 165.504 33.8533 165.504 33.064V31.688C165.216 32.104 164.816 32.4507 164.304 32.728C163.803 33.0053 163.227 33.144 162.576 33.144C161.829 33.144 161.147 32.952 160.528 32.568C159.909 32.184 159.419 31.6453 159.056 30.952C158.704 30.248 158.528 29.4427 158.528 28.536C158.528 27.64 158.704 26.8453 159.056 26.152C159.419 25.4587 159.904 24.9253 160.512 24.552C161.131 24.1787 161.819 23.992 162.576 23.992ZM165.504 28.568C165.504 28.024 165.397 27.56 165.184 27.176C164.971 26.7813 164.683 26.4827 164.32 26.28C163.957 26.0667 163.568 25.96 163.152 25.96C162.736 25.96 162.352 26.0613 162 26.264C161.648 26.4667 161.36 26.7653 161.136 27.16C160.923 27.544 160.816 28.0027 160.816 28.536C160.816 29.0693 160.923 29.5387 161.136 29.944C161.36 30.3387 161.648 30.6427 162 30.856C162.363 31.0693 162.747 31.176 163.152 31.176C163.568 31.176 163.957 31.0747 164.32 30.872C164.683 30.6587 164.971 30.36 165.184 29.976C165.397 29.5813 165.504 29.112 165.504 28.568ZM176 21.16V33H173.76V21.16H176ZM179.349 23.08C178.955 23.08 178.624 22.9573 178.357 22.712C178.101 22.456 177.973 22.1413 177.973 21.768C177.973 21.3947 178.101 21.0853 178.357 20.84C178.624 20.584 178.955 20.456 179.349 20.456C179.744 20.456 180.069 20.584 180.325 20.84C180.592 21.0853 180.725 21.3947 180.725 21.768C180.725 22.1413 180.592 22.456 180.325 22.712C180.069 22.9573 179.744 23.08 179.349 23.08ZM180.453 24.136V33H178.213V24.136H180.453ZM186.363 30.936L188.603 24.136H190.987L187.707 33H184.987L181.723 24.136H184.123L186.363 30.936ZM200.485 28.376C200.485 28.696 200.463 28.984 200.421 29.24H193.941C193.994 29.88 194.218 30.3813 194.613 30.744C195.007 31.1067 195.493 31.288 196.069 31.288C196.901 31.288 197.493 30.9307 197.845 30.216H200.261C200.005 31.0693 199.514 31.7733 198.789 32.328C198.063 32.872 197.173 33.144 196.117 33.144C195.263 33.144 194.495 32.9573 193.813 32.584C193.141 32.2 192.613 31.6613 192.229 30.968C191.855 30.2747 191.669 29.4747 191.669 28.568C191.669 27.6507 191.855 26.8453 192.229 26.152C192.602 25.4587 193.125 24.9253 193.797 24.552C194.469 24.1787 195.242 23.992 196.117 23.992C196.959 23.992 197.711 24.1733 198.373 24.536C199.045 24.8987 199.562 25.416 199.925 26.088C200.298 26.7493 200.485 27.512 200.485 28.376ZM198.165 27.736C198.154 27.16 197.946 26.7013 197.541 26.36C197.135 26.008 196.639 25.832 196.053 25.832C195.498 25.832 195.029 26.0027 194.645 26.344C194.271 26.6747 194.042 27.1387 193.957 27.736H198.165ZM205.512 33.144C204.786 33.144 204.136 33.016 203.56 32.76C202.984 32.4933 202.525 32.136 202.184 31.688C201.853 31.24 201.672 30.744 201.64 30.2H203.896C203.938 30.5413 204.104 30.824 204.392 31.048C204.69 31.272 205.058 31.384 205.496 31.384C205.922 31.384 206.253 31.2987 206.488 31.128C206.733 30.9573 206.856 30.7387 206.856 30.472C206.856 30.184 206.706 29.9707 206.408 29.832C206.12 29.6827 205.656 29.5227 205.016 29.352C204.354 29.192 203.81 29.0267 203.384 28.856C202.968 28.6853 202.605 28.424 202.296 28.072C201.997 27.72 201.848 27.2453 201.848 26.648C201.848 26.1573 201.986 25.7093 202.264 25.304C202.552 24.8987 202.957 24.5787 203.48 24.344C204.013 24.1093 204.637 23.992 205.352 23.992C206.408 23.992 207.25 24.2587 207.88 24.792C208.509 25.3147 208.856 26.024 208.92 26.92H206.776C206.744 26.568 206.594 26.2907 206.328 26.088C206.072 25.8747 205.725 25.768 205.288 25.768C204.882 25.768 204.568 25.8427 204.344 25.992C204.13 26.1413 204.024 26.3493 204.024 26.616C204.024 26.9147 204.173 27.144 204.472 27.304C204.77 27.4533 205.234 27.608 205.864 27.768C206.504 27.928 207.032 28.0933 207.448 28.264C207.864 28.4347 208.221 28.7013 208.52 29.064C208.829 29.416 208.989 29.8853 209 30.472C209 30.984 208.856 31.4427 208.568 31.848C208.29 32.2533 207.885 32.5733 207.352 32.808C206.829 33.032 206.216 33.144 205.512 33.144ZM213.446 25.976V30.264C213.446 30.5627 213.516 30.7813 213.654 30.92C213.804 31.048 214.049 31.112 214.39 31.112H215.43V33H214.022C212.134 33 211.19 32.0827 211.19 30.248V25.976H210.134V24.136H211.19V21.944H213.446V24.136H215.43V25.976H213.446ZM219.282 25.512C219.57 25.0427 219.943 24.6747 220.402 24.408C220.871 24.1413 221.404 24.008 222.002 24.008V26.36H221.41C220.706 26.36 220.172 26.5253 219.81 26.856C219.458 27.1867 219.282 27.7627 219.282 28.584V33H217.042V24.136H219.282V25.512ZM231.75 28.376C231.75 28.696 231.729 28.984 231.686 29.24H225.206C225.26 29.88 225.484 30.3813 225.878 30.744C226.273 31.1067 226.758 31.288 227.334 31.288C228.166 31.288 228.758 30.9307 229.11 30.216H231.526C231.27 31.0693 230.78 31.7733 230.054 32.328C229.329 32.872 228.438 33.144 227.382 33.144C226.529 33.144 225.761 32.9573 225.078 32.584C224.406 32.2 223.878 31.6613 223.494 30.968C223.121 30.2747 222.934 29.4747 222.934 28.568C222.934 27.6507 223.121 26.8453 223.494 26.152C223.868 25.4587 224.39 24.9253 225.062 24.552C225.734 24.1787 226.508 23.992 227.382 23.992C228.225 23.992 228.977 24.1733 229.638 24.536C230.31 24.8987 230.828 25.416 231.19 26.088C231.564 26.7493 231.75 27.512 231.75 28.376ZM229.43 27.736C229.42 27.16 229.212 26.7013 228.806 26.36C228.401 26.008 227.905 25.832 227.318 25.832C226.764 25.832 226.294 26.0027 225.91 26.344C225.537 26.6747 225.308 27.1387 225.222 27.736H229.43ZM232.809 28.536C232.809 27.64 232.985 26.8453 233.337 26.152C233.7 25.4587 234.185 24.9253 234.793 24.552C235.412 24.1787 236.1 23.992 236.857 23.992C237.519 23.992 238.095 24.1253 238.585 24.392C239.087 24.6587 239.487 24.9947 239.785 25.4V24.136H242.041V33H239.785V31.704C239.497 32.12 239.097 32.4667 238.585 32.744C238.084 33.0107 237.503 33.144 236.841 33.144C236.095 33.144 235.412 32.952 234.793 32.568C234.185 32.184 233.7 31.6453 233.337 30.952C232.985 30.248 232.809 29.4427 232.809 28.536ZM239.785 28.568C239.785 28.024 239.679 27.56 239.465 27.176C239.252 26.7813 238.964 26.4827 238.601 26.28C238.239 26.0667 237.849 25.96 237.433 25.96C237.017 25.96 236.633 26.0613 236.281 26.264C235.929 26.4667 235.641 26.7653 235.417 27.16C235.204 27.544 235.097 28.0027 235.097 28.536C235.097 29.0693 235.204 29.5387 235.417 29.944C235.641 30.3387 235.929 30.6427 236.281 30.856C236.644 31.0693 237.028 31.176 237.433 31.176C237.849 31.176 238.239 31.0747 238.601 30.872C238.964 30.6587 239.252 30.36 239.465 29.976C239.679 29.5813 239.785 29.112 239.785 28.568ZM255.237 24.008C256.325 24.008 257.2 24.344 257.861 25.016C258.533 25.6773 258.869 26.6053 258.869 27.8V33H256.629V28.104C256.629 27.4107 256.453 26.8827 256.101 26.52C255.749 26.1467 255.269 25.96 254.661 25.96C254.053 25.96 253.568 26.1467 253.205 26.52C252.853 26.8827 252.677 27.4107 252.677 28.104V33H250.437V28.104C250.437 27.4107 250.261 26.8827 249.909 26.52C249.557 26.1467 249.077 25.96 248.469 25.96C247.85 25.96 247.36 26.1467 246.997 26.52C246.645 26.8827 246.469 27.4107 246.469 28.104V33H244.229V24.136H246.469V25.208C246.757 24.8347 247.125 24.5413 247.573 24.328C248.032 24.1147 248.533 24.008 249.077 24.008C249.77 24.008 250.389 24.1573 250.933 24.456C251.477 24.744 251.898 25.16 252.197 25.704C252.485 25.192 252.901 24.7813 253.445 24.472C254 24.1627 254.597 24.008 255.237 24.008Z" fill="white"/>
<g clip-path="url(#clip0_5561_71915)">
<path d="M282.5 15L280.6 20.8C280.503 21.1012 280.335 21.375 280.112 21.599C279.888 21.8229 279.614 21.9905 279.313 22.088L273.5 24L279.3 25.9C279.601 25.9973 279.875 26.1647 280.099 26.3884C280.323 26.6122 280.49 26.8859 280.588 27.187L282.5 33L284.4 27.2C284.497 26.8988 284.665 26.625 284.888 26.401C285.112 26.1771 285.386 26.0095 285.687 25.912L291.5 24L285.7 22.1C285.399 22.0027 285.125 21.8353 284.901 21.6116C284.677 21.3878 284.51 21.1141 284.412 20.813L282.5 15Z" fill="#E7E7E7"/>
<path d="M296.5 28L295.233 31.8667C295.168 32.0675 295.057 32.25 294.908 32.3993C294.759 32.5486 294.576 32.6603 294.375 32.7253L290.5 34L294.367 35.2667C294.567 35.3315 294.75 35.4431 294.899 35.5923C295.049 35.7414 295.16 35.9239 295.225 36.1247L296.5 40L297.767 36.1333C297.832 35.9325 297.943 35.75 298.092 35.6007C298.241 35.4514 298.424 35.3397 298.625 35.2747L302.5 34L298.633 32.7333C298.433 32.6685 298.25 32.5569 298.101 32.4077C297.951 32.2586 297.84 32.0761 297.775 31.8753L296.5 28Z" fill="#E7E7E7"/>
</g>
<defs>
<linearGradient id="paint0_linear_5561_71915" x1="412.868" y1="26.8028" x2="4.86841" y2="26.8028" gradientUnits="userSpaceOnUse">
<stop stop-color="#0075FF"/>
<stop offset="1" stop-color="#FF2400"/>
</linearGradient>
<clipPath id="clip0_5561_71915">
<rect width="34" height="30" fill="white" transform="translate(270.5 12)"/>
</clipPath>
</defs>
</svg>
