<svg width="32" height="32" viewBox="0 0 32 32" fill="none" xmlns="http://www.w3.org/2000/svg">
<path d="M16.0001 2.66797C8.65341 2.66797 2.66675 8.65463 2.66675 16.0013C2.66675 23.348 8.65341 29.3346 16.0001 29.3346C23.3467 29.3346 29.3334 23.348 29.3334 16.0013C29.3334 8.65463 23.3467 2.66797 16.0001 2.66797ZM22.3734 12.9346L14.8134 20.4946C14.6267 20.6813 14.3734 20.788 14.1067 20.788C13.8401 20.788 13.5867 20.6813 13.4001 20.4946L9.62675 16.7213C9.24008 16.3346 9.24008 15.6946 9.62675 15.308C10.0134 14.9213 10.6534 14.9213 11.0401 15.308L14.1067 18.3746L20.9601 11.5213C21.3467 11.1346 21.9867 11.1346 22.3734 11.5213C22.7601 11.908 22.7601 12.5346 22.3734 12.9346Z" fill="#BCFF59"/>
</svg>
