<svg width="29" height="28" viewBox="0 0 29 28" fill="none" xmlns="http://www.w3.org/2000/svg">
<path d="M25 6.97786C21.115 6.59286 17.2067 6.39453 13.31 6.39453C11 6.39453 8.69 6.5112 6.38 6.74453L4 6.97786" stroke="white" stroke-width="1.75" stroke-linecap="round" stroke-linejoin="round"/>
<path d="M10.4167 5.79898L10.6733 4.27065C10.86 3.16232 11 2.33398 12.9717 2.33398H16.0283C18 2.33398 18.1517 3.20898 18.3267 4.28232L18.5833 5.79898" stroke="white" stroke-width="1.75" stroke-linecap="round" stroke-linejoin="round"/>
<path d="M22.4917 10.6641L21.7333 22.4124C21.605 24.2441 21.5 25.6674 18.245 25.6674H10.755C7.5 25.6674 7.395 24.2441 7.26666 22.4124L6.50833 10.6641" stroke="white" stroke-width="1.75" stroke-linecap="round" stroke-linejoin="round"/>
<path d="M12.5517 19.25H16.4367" stroke="white" stroke-width="1.75" stroke-linecap="round" stroke-linejoin="round"/>
<path d="M11.5833 14.584H17.4167" stroke="white" stroke-width="1.75" stroke-linecap="round" stroke-linejoin="round"/>
</svg>
