<svg width="20" height="20" viewBox="0 0 20 20" fill="none" xmlns="http://www.w3.org/2000/svg">
<path d="M8.47656 1.09863V18.9035L14.0234 17.2395V2.76266L8.47656 1.09863ZM14.7241 2.14863L14.7266 2.23953V3.39949H15.3516V2.14949L14.7241 2.14863ZM4.64844 2.14949V6.73035H5.35156V2.85262H7.77344V2.14949H4.64844ZM14.7266 4.10262V4.72762H15.3516V4.10262H14.7266ZM14.7266 5.43074V14.6495H15.3516V5.43074H14.7266ZM5.35156 7.72477V9.10262H1.60156V10.8995H5.35156V12.2773L7.62785 10.0011L5.35156 7.72477ZM9.53125 9.06355C9.79012 9.06355 10 9.48328 10 10.0011C10 10.5188 9.79012 10.9386 9.53125 10.9386C9.27238 10.9386 9.0625 10.5188 9.0625 10.0011C9.0625 9.48328 9.27238 9.06355 9.53125 9.06355ZM5.35156 13.2718H4.64844V17.5011H5.35156V13.2718ZM14.7266 15.3526V15.8995H15.3516V15.3526H14.7266ZM14.7266 16.6026V17.5011H15.3516V16.6026H14.7266ZM1.25 18.3995V19.1026H7.77344V18.3995H1.25ZM12.6036 18.3995L10.2598 19.1026H18.75V18.3995H12.6036Z" fill="white"/>
</svg>
