<svg width="18" height="18" viewBox="0 0 18 18" fill="none" xmlns="http://www.w3.org/2000/svg">
<path d="M8.75 1.25C8.00408 1.25 7.28871 1.54632 6.76126 2.07376C6.23382 2.60121 5.9375 3.31658 5.9375 4.0625V9.0625C5.9375 9.43184 6.01025 9.79757 6.15159 10.1388C6.29293 10.48 6.5001 10.7901 6.76126 11.0512C7.02243 11.3124 7.33247 11.5196 7.6737 11.6609C8.01493 11.8023 8.38066 11.875 8.75 11.875C9.11934 11.875 9.48507 11.8023 9.8263 11.6609C10.1675 11.5196 10.4776 11.3124 10.7387 11.0512C10.9999 10.7901 11.2071 10.48 11.3484 10.1388C11.4898 9.79757 11.5625 9.43184 11.5625 9.0625V4.0625C11.5625 3.31658 11.2662 2.60121 10.7387 2.07376C10.2113 1.54632 9.49592 1.25 8.75 1.25ZM6.875 4.0625C6.875 3.81627 6.9235 3.57245 7.01773 3.34497C7.11195 3.11748 7.25006 2.91078 7.42417 2.73667C7.59828 2.56256 7.80498 2.42445 8.03247 2.33023C8.25995 2.236 8.50377 2.1875 8.75 2.1875C8.99623 2.1875 9.24005 2.236 9.46753 2.33023C9.69502 2.42445 9.90172 2.56256 10.0758 2.73667C10.2499 2.91078 10.388 3.11748 10.4823 3.34497C10.5765 3.57245 10.625 3.81627 10.625 4.0625V9.0625C10.625 9.30873 10.5765 9.55255 10.4823 9.78003C10.388 10.0075 10.2499 10.2142 10.0758 10.3883C9.90172 10.5624 9.69502 10.7005 9.46753 10.7948C9.24005 10.889 8.99623 10.9375 8.75 10.9375C8.50377 10.9375 8.25995 10.889 8.03247 10.7948C7.80498 10.7005 7.59828 10.5624 7.42417 10.3883C7.25006 10.2142 7.11195 10.0075 7.01773 9.78003C6.9235 9.55255 6.875 9.30873 6.875 9.0625V4.0625ZM4.6875 8.59375C4.6875 8.46943 4.63811 8.3502 4.55021 8.26229C4.4623 8.17439 4.34307 8.125 4.21875 8.125C4.09443 8.125 3.9752 8.17439 3.88729 8.26229C3.79939 8.3502 3.75 8.46943 3.75 8.59375V9.0625C3.74996 10.3075 4.21438 11.5076 5.0524 12.4283C5.89043 13.349 7.04178 13.9239 8.28125 14.0406V15.7812C8.28125 15.9056 8.33064 16.0248 8.41854 16.1127C8.50645 16.2006 8.62568 16.25 8.75 16.25C8.87432 16.25 8.99355 16.2006 9.08146 16.1127C9.16936 16.0248 9.21875 15.9056 9.21875 15.7812V14.0406C10.4582 13.9239 11.6096 13.349 12.4476 12.4283C13.2856 11.5076 13.75 10.3075 13.75 9.0625V8.59375C13.75 8.46943 13.7006 8.3502 13.6127 8.26229C13.5248 8.17439 13.4056 8.125 13.2812 8.125C13.1569 8.125 13.0377 8.17439 12.9498 8.26229C12.8619 8.3502 12.8125 8.46943 12.8125 8.59375V9.0625C12.8125 10.1399 12.3845 11.1733 11.6226 11.9351C10.8608 12.697 9.82744 13.125 8.75 13.125C7.67256 13.125 6.63925 12.697 5.87738 11.9351C5.11551 11.1733 4.6875 10.1399 4.6875 9.0625V8.59375Z" fill="white"/>
</svg>
