<svg width="25" height="13" viewBox="0 0 25 13" fill="none" xmlns="http://www.w3.org/2000/svg">
<path fill-rule="evenodd" clip-rule="evenodd" d="M6.81167 0.429874L7.96362 1.46111L2.80069 6.67883L2.57775 6.47923C2.41354 6.33227 2.38631 6.15779 2.37691 5.89928C2.36929 5.68959 2.13045 3.17516 4.31343 0.927784C5.56542 -0.361134 6.23709 -0.084523 6.81167 0.429874Z" fill="url(#paint0_linear_7047_37946)"/>
<path fill-rule="evenodd" clip-rule="evenodd" d="M9.21935 0.456434L12.3778 3.28401C13.0345 3.87191 13.1445 4.92631 12.7181 5.72288C11.1403 8.67069 6.90345 9.92112 6.90345 9.92112C6.66364 10.0011 6.46839 10.0652 6.2175 9.84059L2.57604 6.58057C2.41184 6.43355 2.40289 6.18665 2.55598 6.02905L6.92149 0.533452C7.53387 -0.0969842 8.56266 -0.131469 9.21935 0.456434Z" fill="#FF1616"/>
<path fill-rule="evenodd" clip-rule="evenodd" d="M2.81842 6.70837L6.23699 9.7688C6.40115 9.91576 6.41014 10.1627 6.25701 10.3203L4.31663 12.318C4.16349 12.4756 3.90631 12.4842 3.74215 12.3372L0.323585 9.27679C0.159427 9.12983 0.150434 8.88292 0.303516 8.72528L2.24395 6.72764C2.39703 6.56999 2.65426 6.56136 2.81842 6.70837Z" fill="#FC0231"/>
<path fill-rule="evenodd" clip-rule="evenodd" d="M1.80183 6.51367L5.51761 9.84023C5.68177 9.98719 5.69077 10.2341 5.53768 10.3917L4.29026 11.676C4.13718 11.8336 3.88 11.8422 3.71579 11.6952L0 8.36869L1.80183 6.51367Z" fill="#FF5134"/>
<path fill-rule="evenodd" clip-rule="evenodd" d="M1.52281 6.79688L5.0528 9.9571C5.15543 10.049 5.16102 10.2033 5.06535 10.3018L4.16443 11.2293C4.06876 11.3278 3.90801 11.3332 3.80538 11.2413L0.275391 8.08111L1.52281 6.79688Z" fill="#1C8CEA"/>
<path fill-rule="evenodd" clip-rule="evenodd" d="M17.6323 0.429906L16.4803 1.46122L21.6436 6.67933L21.8666 6.47972C22.0308 6.33275 22.058 6.15826 22.0674 5.89973C22.075 5.69002 22.3139 3.1754 20.1308 0.927855C18.8787 -0.361162 18.2069 -0.0845295 17.6323 0.429906Z" fill="url(#paint1_linear_7047_37946)"/>
<path fill-rule="evenodd" clip-rule="evenodd" d="M15.2245 0.456466L12.0658 3.28425C11.4091 3.8722 11.299 4.92668 11.7254 5.72331C13.3034 8.67134 17.5405 9.92187 17.5405 9.92187C17.7804 10.0019 17.9756 10.0659 18.2265 9.84134L21.8683 6.58106C22.0325 6.43404 22.0414 6.18711 21.8884 6.0295L17.5225 0.53349C16.9101 -0.0969943 15.8812 -0.131482 15.2245 0.456466Z" fill="#006FCD"/>
<path fill-rule="evenodd" clip-rule="evenodd" d="M21.6257 6.70838L18.2069 9.76904C18.0427 9.91602 18.0337 10.1629 18.1869 10.3205L20.1274 12.3184C20.2805 12.476 20.5377 12.4846 20.7019 12.3377L24.1207 9.277C24.2849 9.13002 24.2939 8.8831 24.1408 8.72544L22.2002 6.72764C22.0471 6.56999 21.7899 6.56135 21.6257 6.70838Z" fill="#006FCD"/>
<path fill-rule="evenodd" clip-rule="evenodd" d="M22.6424 6.51367L18.9263 9.84048C18.7621 9.98746 18.7531 10.2344 18.9062 10.392L20.1537 11.6764C20.3068 11.834 20.564 11.8426 20.7283 11.6956L24.4443 8.36883L22.6424 6.51367Z" fill="#006FCD"/>
<path fill-rule="evenodd" clip-rule="evenodd" d="M22.9214 6.80664L19.3912 9.96711C19.2885 10.059 19.283 10.2133 19.3786 10.3118L20.2796 11.2394C20.3753 11.3379 20.5361 11.3433 20.6387 11.2514L24.1689 8.09098L22.9214 6.80664Z" fill="#FF5134"/>
<defs>
<linearGradient id="paint0_linear_7047_37946" x1="5.14712" y1="6.66307" x2="5.14712" y2="-0.0147238" gradientUnits="userSpaceOnUse">
<stop stop-color="#FF3434"/>
<stop offset="1" stop-color="#FF5858"/>
</linearGradient>
<linearGradient id="paint1_linear_7047_37946" x1="19.297" y1="6.66358" x2="19.297" y2="-0.014725" gradientUnits="userSpaceOnUse">
<stop stop-color="#007AFF"/>
<stop offset="1" stop-color="#80BDFF"/>
</linearGradient>
</defs>
</svg>
