<svg width="18" height="18" viewBox="0 0 18 18" fill="none" xmlns="http://www.w3.org/2000/svg">
<path d="M15.4526 16.485L13.1587 14.191H1.29076V13.4619H12.4266L11.6974 12.7327H3.36597C3.03007 12.7327 2.74982 12.6202 2.52524 12.3951C2.30066 12.17 2.18812 11.8898 2.18764 11.5544V4.40562C2.18764 4.24667 2.22969 4.10424 2.31378 3.97833C2.39788 3.85194 2.50531 3.75132 2.63607 3.67646L1.01514 2.0475L1.53139 1.53125L15.9689 15.9687L15.4526 16.485ZM7.34795 8.37448L6.77409 7.79625C6.67639 7.90563 6.58864 8.04903 6.51087 8.22646C6.43309 8.40437 6.3942 8.60708 6.3942 8.83458V10.2929H7.12337V8.9775C7.12337 8.84625 7.14208 8.73396 7.17951 8.64062C7.21694 8.54729 7.27309 8.45858 7.34795 8.37448ZM14.6732 12.5949L10.2376 8.15937L10.9938 7.37625L9.67545 6.05792V7.01167H9.0892L5.3318 3.25354H14.135C14.4704 3.25354 14.7504 3.36583 14.975 3.59042C15.1996 3.815 15.3122 4.09524 15.3126 4.43115V11.5551C15.3126 11.7588 15.2618 11.9557 15.1602 12.1457C15.0591 12.3358 14.8968 12.4855 14.6732 12.5949Z" fill="white"/>
</svg>
