<svg width="20" height="20" viewBox="0 0 20 20" fill="none" xmlns="http://www.w3.org/2000/svg">
<g clip-path="url(#clip0_4309_60796)">
<path d="M0.834961 11.5461V8.45109C0.834961 8.00906 1.01056 7.58514 1.32312 7.27258C1.63568 6.96001 2.0596 6.78442 2.50163 6.78442H4.91829C5.08123 6.78438 5.24058 6.73658 5.37663 6.64692L10.3766 3.35025C10.5023 3.26752 10.6479 3.22034 10.7982 3.2137C10.9485 3.20707 11.0978 3.24123 11.2302 3.31257C11.3626 3.38391 11.4733 3.48977 11.5504 3.61891C11.6275 3.74805 11.6683 3.89566 11.6683 4.04609V15.9511C11.6683 16.1015 11.6275 16.2491 11.5504 16.3783C11.4733 16.5074 11.3626 16.6133 11.2302 16.6846C11.0978 16.7559 10.9485 16.7901 10.7982 16.7835C10.6479 16.7768 10.5023 16.7297 10.3766 16.6469L5.37663 13.3503C5.24058 13.2606 5.08123 13.2128 4.91829 13.2128H2.50163C2.0596 13.2128 1.63568 13.0372 1.32312 12.7246C1.01056 12.412 0.834961 11.9881 0.834961 11.5461Z" stroke="white" stroke-width="1.25"/>
<path d="M14.585 6.25C14.585 6.25 15.835 7.5 15.835 9.58333C15.835 11.6667 14.585 12.9167 14.585 12.9167M17.085 3.75C17.085 3.75 19.1683 5.83333 19.1683 9.58333C19.1683 13.3333 17.085 15.4167 17.085 15.4167" stroke="white" stroke-width="1.25" stroke-linecap="round" stroke-linejoin="round"/>
</g>
<defs>
<clipPath id="clip0_4309_60796">
<rect width="20" height="20" fill="white"/>
</clipPath>
</defs>
</svg>
