<svg width="23" height="23" viewBox="0 0 23 23" fill="none" xmlns="http://www.w3.org/2000/svg">
<path d="M12.4999 1.38889C12.4999 0.62066 11.8792 0 11.111 0C10.3428 0 9.72211 0.62066 9.72211 1.38889V11.1111C9.72211 11.8793 10.3428 12.5 11.111 12.5C11.8792 12.5 12.4999 11.8793 12.4999 11.1111V1.38889ZM6.22819 5.23438C6.81847 4.74392 6.89659 3.86719 6.40614 3.27691C5.91569 2.68663 5.03895 2.60851 4.44868 3.09896C2.15701 5.00868 0.694336 7.89063 0.694336 11.1111C0.694336 16.862 5.36013 21.5278 11.111 21.5278C16.8619 21.5278 21.5277 16.862 21.5277 11.1111C21.5277 7.89063 20.0607 5.00868 17.769 3.09896C17.1787 2.60851 16.302 2.69097 15.8115 3.27691C15.3211 3.86285 15.4035 4.74392 15.9895 5.23438C17.6778 6.63628 18.7456 8.75 18.7456 11.1111C18.7456 15.3299 15.3254 18.75 11.1067 18.75C6.88791 18.75 3.46777 15.3299 3.46777 11.1111C3.46777 8.75 4.53982 6.63628 6.22385 5.23438H6.22819Z" fill="#E7E7E7"/>
</svg>
