<svg width="20" height="20" viewBox="0 0 20 20" fill="none" xmlns="http://www.w3.org/2000/svg">
<path d="M5 4C4.20435 4 3.44129 4.31607 2.87868 4.87868C2.31607 5.44129 2 6.20435 2 7V13C2 13.7957 2.31607 14.5587 2.87868 15.1213C3.44129 15.6839 4.20435 16 5 16H10C10.7956 16 11.5587 15.6839 12.1213 15.1213C12.6839 14.5587 13 13.7957 13 13V12.679L16.037 14.776C16.2246 14.9055 16.4441 14.9812 16.6717 14.9949C16.8992 15.0087 17.1262 14.9599 17.328 14.854C17.5299 14.748 17.6989 14.5888 17.8168 14.3937C17.9347 14.1986 17.997 13.975 17.997 13.747V6.252C17.9969 6.02411 17.9344 5.8006 17.8164 5.60563C17.6985 5.41066 17.5294 5.25166 17.3276 5.14581C17.1258 5.03996 16.8989 4.99129 16.6714 5.00507C16.4439 5.01886 16.2246 5.09456 16.037 5.224L13 7.32V7C13 6.20435 12.6839 5.44129 12.1213 4.87868C11.5587 4.31607 10.7956 4 10 4H5ZM13 8.536L16.605 6.046C16.6425 6.02009 16.6865 6.00495 16.732 6.00221C16.7775 5.99947 16.8229 6.00924 16.8633 6.03045C16.9037 6.05167 16.9375 6.08353 16.961 6.12258C16.9846 6.16163 16.997 6.20639 16.997 6.252V13.747C16.997 13.7926 16.9846 13.8374 16.961 13.8764C16.9375 13.9155 16.9037 13.9473 16.8633 13.9685C16.8229 13.9898 16.7775 13.9995 16.732 13.9968C16.6865 13.9941 16.6425 13.9789 16.605 13.953L13 11.463V8.536ZM3 7C3 6.46957 3.21071 5.96086 3.58579 5.58579C3.96086 5.21071 4.46957 5 5 5H10C10.5304 5 11.0391 5.21071 11.4142 5.58579C11.7893 5.96086 12 6.46957 12 7V13C12 13.5304 11.7893 14.0391 11.4142 14.4142C11.0391 14.7893 10.5304 15 10 15H5C4.46957 15 3.96086 14.7893 3.58579 14.4142C3.21071 14.0391 3 13.5304 3 13V7Z" fill="white"/>
</svg>
