<svg width="18" height="18" viewBox="0 0 18 18" fill="none" xmlns="http://www.w3.org/2000/svg">
<path d="M11.8221 12.5963L15.4719 16.2473C15.5227 16.2981 15.5831 16.3384 15.6495 16.366C15.716 16.3935 15.7872 16.4076 15.8591 16.4076C15.931 16.4076 16.0022 16.3935 16.0686 16.366C16.1351 16.3384 16.1954 16.2981 16.2463 16.2473C16.2971 16.1964 16.3375 16.136 16.365 16.0696C16.3925 16.0032 16.4067 15.932 16.4067 15.8601C16.4067 15.7882 16.3925 15.717 16.365 15.6505C16.3375 15.5841 16.2971 15.5237 16.2463 15.4729L2.02753 1.25413C1.97668 1.20328 1.91632 1.16295 1.84988 1.13543C1.78345 1.10791 1.71225 1.09375 1.64034 1.09375C1.56843 1.09375 1.49723 1.10791 1.43079 1.13543C1.36436 1.16295 1.304 1.20328 1.25315 1.25413C1.20231 1.30497 1.16197 1.36534 1.13445 1.43177C1.10694 1.49821 1.09277 1.56941 1.09277 1.64132C1.09277 1.71322 1.10694 1.78443 1.13445 1.85086C1.16197 1.91729 1.20231 1.97766 1.25315 2.0285L6.01534 6.7896V8.75069C6.0152 9.24482 6.14895 9.72974 6.40238 10.1539C6.65582 10.5781 7.01945 10.9257 7.45464 11.1597C7.88983 11.3938 8.3803 11.5055 8.87392 11.483C9.36753 11.4606 9.84584 11.3048 10.258 11.0323L11.0422 11.8165C10.4732 12.2419 9.79708 12.5007 9.08942 12.5637C8.38175 12.6268 7.67051 12.4916 7.03528 12.1735C6.40005 11.8553 5.86589 11.3666 5.4926 10.7621C5.1193 10.1576 4.92159 9.46116 4.92159 8.75069C4.92159 8.60565 4.86397 8.46655 4.76141 8.36399C4.65885 8.26143 4.51975 8.20382 4.37471 8.20382C4.22967 8.20382 4.09057 8.26143 3.98802 8.36399C3.88546 8.46655 3.82784 8.60565 3.82784 8.75069C3.82761 9.96152 4.27371 11.13 5.08085 12.0325C5.88799 12.9351 6.9995 13.5085 8.20284 13.643V14.7663C8.20284 14.9114 8.26046 15.0505 8.36302 15.153C8.46557 15.2556 8.60467 15.3132 8.74971 15.3132C8.89475 15.3132 9.03385 15.2556 9.13641 15.153C9.23897 15.0505 9.29659 14.9114 9.29659 14.7663V13.643C10.2204 13.5396 11.096 13.1767 11.8221 12.5963ZM13.1903 10.8726L12.3547 10.0369C12.4991 9.63553 12.5767 9.20241 12.5767 8.75069C12.5767 8.60565 12.6344 8.46655 12.7369 8.36399C12.8395 8.26143 12.9786 8.20382 13.1236 8.20382C13.2687 8.20382 13.4078 8.26143 13.5103 8.36399C13.6129 8.46655 13.6705 8.60565 13.6705 8.75069C13.6705 9.51085 13.4988 10.2305 13.1903 10.8726ZM11.4557 9.13788L6.2144 3.89444C6.45225 3.30566 6.88761 2.81802 7.44577 2.5152C8.00392 2.21238 8.65007 2.11327 9.27333 2.23487C9.89658 2.35646 10.4581 2.69119 10.8615 3.18161C11.2649 3.67203 11.485 4.28756 11.4841 4.92257V8.75069C11.4841 8.88194 11.475 9.011 11.4567 9.13788" fill="white"/>
</svg>
