<svg width="14" height="14" viewBox="0 0 14 14" fill="none" xmlns="http://www.w3.org/2000/svg">
<path d="M0.747803 0.128303C0.707126 0.0876256 0.658835 0.055359 0.605688 0.0333448C0.552541 0.0113306 0.495579 4.28601e-10 0.438053 0C0.380527 -4.28601e-10 0.323564 0.0113306 0.270417 0.0333448C0.21727 0.055359 0.168979 0.0876256 0.128303 0.128303C0.0876256 0.168979 0.055359 0.21727 0.0333448 0.270417C0.0113306 0.323564 -4.28601e-10 0.380527 0 0.438053C4.28601e-10 0.495579 0.0113306 0.552541 0.0333448 0.605688C0.055359 0.658835 0.0876256 0.707126 0.128303 0.747803L1.4233 2.04193C0.99472 2.26274 0.635227 2.59732 0.384256 3.00897C0.133284 3.42062 0.000529576 3.89343 0.000552624 4.37555V9.62555C0.000552624 10.3217 0.277114 10.9894 0.769397 11.4817C1.26168 11.974 1.92936 12.2506 2.62555 12.2506H7.00055C7.59974 12.2507 8.18096 12.0459 8.64765 11.6701C9.11435 11.2943 9.43842 10.7701 9.56605 10.1847L13.2533 13.8728C13.3355 13.955 13.4469 14.0011 13.5631 14.0011C13.6792 14.0011 13.7907 13.955 13.8728 13.8728C13.955 13.7907 14.0011 13.6792 14.0011 13.5631C14.0011 13.4469 13.955 13.3355 13.8728 13.2533L0.747803 0.128303ZM10.5006 8.64555L13.1921 11.3362C13.6374 11.2137 13.9988 10.8129 13.9988 10.2801V3.72105C13.9987 3.52165 13.944 3.32608 13.8408 3.15548C13.7376 2.98488 13.5897 2.84575 13.4131 2.75313C13.2365 2.66051 13.0379 2.61793 12.8389 2.62999C12.6399 2.64205 12.4479 2.70829 12.2838 2.82155L10.5006 4.0518V8.64555ZM3.60643 1.75055L9.62555 7.76968V4.37555C9.62555 3.67936 9.34899 3.01168 8.85671 2.5194C8.36442 2.02711 7.69675 1.75055 7.00055 1.75055H3.60643Z" fill="white"/>
</svg>
