<svg width="24" height="24" viewBox="0 0 24 24" fill="none" xmlns="http://www.w3.org/2000/svg">
<path d="M21 11.7501H3C2.04 11.7501 1.25 10.9601 1.25 10.0001V6.68013C1.25 6.00013 1.71998 5.31013 2.34998 5.06013L11.35 1.46016C11.73 1.31016 12.27 1.31016 12.65 1.46016L21.65 5.06013C22.28 5.31013 22.75 6.01013 22.75 6.68013V10.0001C22.75 10.9601 21.96 11.7501 21 11.7501ZM12 2.84016C11.96 2.84016 11.92 2.84011 11.9 2.85011L2.90997 6.45015C2.84997 6.48015 2.75 6.61013 2.75 6.68013V10.0001C2.75 10.1401 2.86 10.2501 3 10.2501H21C21.14 10.2501 21.25 10.1401 21.25 10.0001V6.68013C21.25 6.61013 21.16 6.48015 21.09 6.45015L12.09 2.85011C12.07 2.84011 12.04 2.84016 12 2.84016Z" fill="white"/>
<path d="M3 17.75H21C21.6839 17.75 22.25 18.3161 22.25 19V22C22.25 22.1339 22.1339 22.25 22 22.25H2C1.86614 22.25 1.75 22.1339 1.75 22V19C1.75 18.3161 2.31614 17.75 3 17.75ZM3 18.25C2.58386 18.25 2.25 18.5839 2.25 19V21.75H21.75V19C21.75 18.5839 21.4161 18.25 21 18.25H3Z" fill="white" stroke="white"/>
<path d="M4 10.75C4.13386 10.75 4.25 10.8661 4.25 11V18C4.25 18.1339 4.13386 18.25 4 18.25C3.86614 18.25 3.75 18.1339 3.75 18V11C3.75 10.8661 3.86614 10.75 4 10.75Z" fill="white" stroke="white"/>
<path d="M8 10.75C8.13386 10.75 8.25 10.8661 8.25 11V18C8.25 18.1339 8.13386 18.25 8 18.25C7.86614 18.25 7.75 18.1339 7.75 18V11C7.75 10.8661 7.86614 10.75 8 10.75Z" fill="white" stroke="white"/>
<path d="M12 10.75C12.1339 10.75 12.25 10.8661 12.25 11V18C12.25 18.1339 12.1339 18.25 12 18.25C11.8661 18.25 11.75 18.1339 11.75 18V11C11.75 10.8661 11.8661 10.75 12 10.75Z" fill="white" stroke="white"/>
<path d="M16 10.75C16.1339 10.75 16.25 10.8661 16.25 11V18C16.25 18.1339 16.1339 18.25 16 18.25C15.8661 18.25 15.75 18.1339 15.75 18V11C15.75 10.8661 15.8661 10.75 16 10.75Z" fill="white" stroke="white"/>
<path d="M20 10.75C20.1339 10.75 20.25 10.8661 20.25 11V18C20.25 18.1339 20.1339 18.25 20 18.25C19.8661 18.25 19.75 18.1339 19.75 18V11C19.75 10.8661 19.8661 10.75 20 10.75Z" fill="white" stroke="white"/>
<path d="M1 21.75H23C23.1339 21.75 23.25 21.8661 23.25 22C23.25 22.1339 23.1339 22.25 23 22.25H1C0.866142 22.25 0.75 22.1339 0.75 22C0.75 21.8661 0.866142 21.75 1 21.75Z" fill="white" stroke="white"/>
<path d="M12 9.25C10.76 9.25 9.75 8.24 9.75 7C9.75 5.76 10.76 4.75 12 4.75C13.24 4.75 14.25 5.76 14.25 7C14.25 8.24 13.24 9.25 12 9.25ZM12 6.25C11.59 6.25 11.25 6.59 11.25 7C11.25 7.41 11.59 7.75 12 7.75C12.41 7.75 12.75 7.41 12.75 7C12.75 6.59 12.41 6.25 12 6.25Z" fill="white"/>
</svg>
