<svg width="440" height="578" viewBox="0 0 440 578" fill="none" xmlns="http://www.w3.org/2000/svg">
<circle cx="216.578" cy="245.329" r="245.329" fill="url(#paint0_radial_5648_50070)"/>
<path d="M279.216 440.41L310.445 358.688C327.551 369.262 349.118 382.336 354.793 387.958C360.031 393.147 363.027 407.09 357.454 417.988C354.085 424.082 346.688 428.896 339.461 428.282C324.917 425.979 317.692 422.851 305.954 415.05C307.894 420.333 307.962 423.204 307.608 428.282C306.323 435.576 302.782 441.369 296.582 442.891C290.382 444.413 285.236 444.151 279.216 440.41Z" fill="#080501"/>
<g filter="url(#filter0_n_5648_50070)">
<path d="M392.748 63.7902C379.595 60.2658 208.007 49.2466 208.007 49.2466L47.2441 469.422C47.2441 469.422 184.952 571.996 197.777 576.11C210.601 580.225 225.642 576.11 233.583 559.303C241.524 542.496 401.707 111.598 405.902 95.9428C410.097 80.2873 405.902 67.3146 392.748 63.7902Z" fill="url(#paint1_linear_5648_50070)"/>
</g>
<path d="M195.724 57.4477C198.491 51.0271 205.106 47.1467 212.061 47.8648L377.739 64.9738C388.257 66.06 394.848 76.8684 390.997 86.7162L208.09 554.462C204.362 563.997 192.76 567.625 184.263 561.914L35.6007 461.984C29.2085 457.687 26.7847 449.446 29.8331 442.373L195.724 57.4477Z" fill="#549FDE"/>
<path d="M199.422 66.1239C202.186 59.691 208.812 55.8026 215.776 56.5265L367.646 72.3122C378.144 73.4034 384.728 84.1822 380.906 94.0207L207.882 539.373C204.209 548.828 192.779 552.522 184.267 547.006L45.8192 457.287C39.2758 453.047 36.7419 444.707 39.8202 437.543L199.422 66.1239Z" fill="#070707"/>
<path d="M183.514 127.781C186.329 121.194 193.178 117.28 200.281 118.199L335.476 135.693C345.83 137.033 352.148 147.77 348.291 157.472L287.753 309.742C285.037 316.573 278.016 320.675 270.732 319.685L131.615 300.795C121.145 299.373 114.903 288.372 119.055 278.655L183.514 127.781Z" fill="#004F92"/>
<path d="M79.5966 372.025C82.4866 365.59 89.2497 361.807 96.2454 362.712L231.824 380.256C242.129 381.589 248.449 392.239 244.682 401.923L221.294 462.053C218.613 468.945 211.558 473.102 204.229 472.107L65.609 453.284C55.0171 451.846 48.787 440.625 53.1663 430.875L79.5966 372.025Z" fill="#004F92"/>
<path d="M180.82 125.467C183.634 118.88 190.483 114.966 197.586 115.886L332.781 133.379C343.135 134.719 349.453 145.456 345.596 155.158L285.058 307.428C282.342 314.259 275.321 318.361 268.037 317.372L128.921 298.482C118.45 297.06 112.208 286.058 116.36 276.341L180.82 125.467Z" fill="url(#paint2_linear_5648_50070)"/>
<path d="M76.8835 369.66C79.7863 363.251 86.5344 359.491 93.5113 360.394L229.08 377.936C239.4 379.271 245.72 389.949 241.924 399.639L218.982 458.212C216.29 465.085 209.246 469.224 201.932 468.231L63.3518 449.414C52.7388 447.973 46.5109 436.714 50.93 426.958L76.8835 369.66Z" fill="url(#paint3_linear_5648_50070)"/>
<path d="M-40.2565 209.616L-86.6052 257.813L-109 485.656C-99.4389 478.584 -94.1147 475.04 -70.7789 470.832C-53.529 478.389 -42.0383 479.148 -28.6706 478.84C-1.41033 478.272 47.4298 470.221 41.7944 466.026C36.159 461.83 21.2938 457.814 36.159 428.572C36.159 428.572 111.278 252.318 113.284 251.361C115.29 250.405 118.778 260.127 132.904 263.207L186.807 270.845C196.584 270.845 202.531 269.585 209.434 263.207C217.14 257.888 217.412 250.839 217.39 240.658C214.274 233.894 204.35 227.692 173.118 212.617C173.118 212.617 144.321 190.377 133.577 180.127C122.834 169.876 111.824 169.274 74.5979 180.127L-11.543 192.543C-24.5218 197.289 -30.9211 200.912 -40.2565 209.616Z" fill="url(#paint4_linear_5648_50070)"/>
<path d="M365.216 295.905C360.042 284.511 353.917 281.172 341.574 276.068L322.161 326.816C336.309 332.489 345.062 333.518 354.268 328.536C362.902 323.863 369.473 305.28 365.216 295.905Z" fill="#080501"/>
<path d="M212.137 234.611C212.137 234.611 183.483 218.617 182.411 218.703C181.339 218.79 174.091 241.482 175.823 244.412C177.556 247.342 191.556 256.023 191.556 256.023C200.952 260.322 207.127 260.305 212.137 256.785C216.929 253.418 219.559 244.673 218.026 241.231C216.775 238.423 214.774 236.734 212.137 234.611Z" fill="url(#paint5_linear_5648_50070)"/>
<path d="M247.896 74.4664C249.291 71.0221 252.796 68.9166 256.492 69.304L317.513 75.6998C323.028 76.2778 326.452 81.9785 324.371 87.1181C322.977 90.5624 319.471 92.6679 315.775 92.2806L254.754 85.8848C249.239 85.3068 245.816 79.606 247.896 74.4664Z" fill="#1E1F1F"/>
<rect width="90.2164" height="15.1145" rx="7.55725" transform="matrix(0.992517 0.122104 -0.173436 0.984845 199.451 84.7305)" fill="url(#paint6_linear_5648_50070)"/>
<rect width="154.505" height="6.70589" rx="3.35294" transform="matrix(0.992517 0.122104 -0.173436 0.984845 112.168 304.009)" fill="#B4B4B4"/>
<rect width="53.7419" height="6.70589" rx="3.35294" transform="matrix(0.992517 0.122104 -0.173436 0.984845 107.892 316.199)" fill="#B4B4B4"/>
<rect width="53.7419" height="14.0233" rx="7.01165" transform="matrix(0.992517 0.122104 -0.173436 0.984845 102.672 331.738)" fill="#B4B4B4"/>
<rect width="44.0157" height="14.0233" rx="7.01165" transform="matrix(0.992517 0.122104 -0.173436 0.984845 224.262 346.065)" fill="#002F56"/>
<path d="M297.151 105.168C297.816 100.999 301.805 98.0136 305.987 98.5544L375.508 107.545L370.752 121.56L303.341 113.387C299.26 112.892 296.503 109.231 297.151 105.168Z" fill="url(#paint7_linear_5648_50070)"/>
<ellipse cx="205.227" cy="92.7429" rx="4.68803" ry="5.59424" transform="rotate(17.2836 205.227 92.7429)" fill="white" fill-opacity="0.2"/>
<ellipse cx="279.995" cy="102.455" rx="4.68803" ry="5.59424" transform="rotate(17.2836 279.995 102.455)" fill="white" fill-opacity="0.2"/>
<ellipse cx="304.544" cy="105.537" rx="4.68803" ry="5.59424" transform="rotate(16.3628 304.544 105.537)" fill="white" fill-opacity="0.2"/>
<rect x="230.608" y="93.7968" width="19.1319" height="3.46923" rx="1.73462" transform="rotate(7.72132 230.608 93.7968)" fill="#D9D9D9" fill-opacity="0.5"/>
<rect x="339.294" y="108.875" width="19.1319" height="3.46923" rx="1.73462" transform="rotate(6.80047 339.294 108.875)" fill="#D9D9D9" fill-opacity="0.5"/>
<path d="M340.695 219.246L346.646 201.394C343.818 195.74 343.095 189.265 344.605 183.126C346.115 176.988 349.76 171.587 354.889 167.89C360.017 164.194 366.293 162.443 372.594 162.951C378.895 163.458 384.81 166.192 389.28 170.662C393.75 175.132 396.483 181.047 396.991 187.348C397.499 193.649 395.748 199.925 392.051 205.053C388.355 210.181 382.954 213.827 376.815 215.337C370.677 216.847 364.201 216.123 358.547 213.296L340.695 219.246Z" fill="#004F92"/>
<path d="M341.695 216.542L347.646 198.69C344.818 193.036 344.095 186.561 345.605 180.422C347.115 174.284 350.76 168.883 355.889 165.186C361.017 161.49 367.293 159.739 373.594 160.246C379.895 160.754 385.81 163.488 390.28 167.958C394.75 172.428 397.483 178.343 397.991 184.644C398.499 190.945 396.748 197.221 393.051 202.349C389.355 207.477 383.954 211.122 377.815 212.633C371.677 214.143 365.201 213.419 359.547 210.592L341.695 216.542Z" fill="url(#paint8_linear_5648_50070)"/>
<path d="M361.006 191.247C360.174 191.247 359.518 191.047 359.038 190.647C358.574 190.247 358.342 189.727 358.342 189.087C358.342 188.527 358.494 188.007 358.798 187.527C359.118 187.047 359.55 186.671 360.094 186.399C360.654 186.111 361.27 185.967 361.942 185.967C362.758 185.967 363.398 186.175 363.862 186.591C364.326 186.991 364.558 187.511 364.558 188.151C364.558 188.711 364.406 189.231 364.102 189.711C363.798 190.175 363.374 190.551 362.83 190.839C362.286 191.111 361.678 191.247 361.006 191.247ZM368.67 191.247C367.838 191.247 367.182 191.047 366.702 190.647C366.238 190.247 366.006 189.727 366.006 189.087C366.006 188.527 366.158 188.007 366.462 187.527C366.782 187.047 367.214 186.671 367.758 186.399C368.318 186.111 368.934 185.967 369.606 185.967C370.422 185.967 371.062 186.175 371.526 186.591C371.99 186.991 372.222 187.511 372.222 188.151C372.222 188.711 372.07 189.231 371.766 189.711C371.462 190.175 371.038 190.551 370.494 190.839C369.95 191.111 369.342 191.247 368.67 191.247ZM376.334 191.247C375.502 191.247 374.846 191.047 374.366 190.647C373.902 190.247 373.67 189.727 373.67 189.087C373.67 188.527 373.822 188.007 374.126 187.527C374.446 187.047 374.878 186.671 375.422 186.399C375.982 186.111 376.598 185.967 377.27 185.967C378.086 185.967 378.726 186.175 379.19 186.591C379.654 186.991 379.886 187.511 379.886 188.151C379.886 188.711 379.734 189.231 379.43 189.711C379.126 190.175 378.702 190.551 378.158 190.839C377.614 191.111 377.006 191.247 376.334 191.247Z" fill="#004F92"/>
<path d="M142.835 123.19L136.885 105.338C139.712 99.6838 140.436 93.2082 138.926 87.0697C137.416 80.9312 133.77 75.5304 128.642 71.8338C123.514 68.1372 117.238 66.3862 110.937 66.8939C104.636 67.4017 98.7209 70.1351 94.2509 74.6052C89.7809 79.0752 87.0474 84.99 86.5396 91.2911C86.0319 97.5922 87.783 103.868 91.4795 108.997C95.1761 114.125 100.577 117.77 106.715 119.28C112.854 120.79 119.33 120.067 124.983 117.239L142.835 123.19Z" fill="#004F92"/>
<path d="M141.835 120.486L135.885 102.634C138.712 96.9797 139.436 90.5041 137.926 84.3656C136.416 78.2271 132.77 72.8263 127.642 69.1297C122.514 65.4331 116.238 63.6821 109.937 64.1898C103.636 64.6976 97.7209 67.431 93.2509 71.9011C88.7809 76.3711 86.0474 82.2859 85.5396 88.587C85.0319 94.8881 86.783 101.164 90.4795 106.292C94.1761 111.421 99.5769 115.066 105.715 116.576C111.854 118.086 118.33 117.363 123.983 114.535L141.835 120.486Z" fill="url(#paint9_linear_5648_50070)"/>
<path d="M99.98 102.472H123.98V78.4722H99.98V102.472Z" fill="white"/>
<defs>
<filter id="filter0_n_5648_50070" x="47.2441" y="49.2466" width="360.222" height="528.344" filterUnits="userSpaceOnUse" color-interpolation-filters="sRGB">
<feFlood flood-opacity="0" result="BackgroundImageFix"/>
<feBlend mode="normal" in="SourceGraphic" in2="BackgroundImageFix" result="shape"/>
<feTurbulence type="fractalNoise" baseFrequency="2 2" stitchTiles="stitch" numOctaves="3" result="noise" seed="9908" />
<feColorMatrix in="noise" type="luminanceToAlpha" result="alphaNoise" />
<feComponentTransfer in="alphaNoise" result="coloredNoise1">
<feFuncA type="discrete" tableValues="1 1 1 1 1 1 1 1 1 1 1 1 1 1 1 1 1 1 1 1 1 1 1 1 1 1 1 1 1 1 1 1 1 1 1 1 1 1 1 1 1 1 1 1 1 1 1 1 1 1 1 0 0 0 0 0 0 0 0 0 0 0 0 0 0 0 0 0 0 0 0 0 0 0 0 0 0 0 0 0 0 0 0 0 0 0 0 0 0 0 0 0 0 0 0 0 0 0 0 0 "/>
</feComponentTransfer>
<feComposite operator="in" in2="shape" in="coloredNoise1" result="noise1Clipped" />
<feFlood flood-color="rgba(143, 143, 143, 0.25)" result="color1Flood" />
<feComposite operator="in" in2="noise1Clipped" in="color1Flood" result="color1" />
<feMerge result="effect1_noise_5648_50070">
<feMergeNode in="shape" />
<feMergeNode in="color1" />
</feMerge>
</filter>
<radialGradient id="paint0_radial_5648_50070" cx="0" cy="0" r="1" gradientUnits="userSpaceOnUse" gradientTransform="translate(216.578 245.329) rotate(90) scale(245.329)">
<stop stop-color="#006FCD"/>
<stop offset="1" stop-color="#006FCD" stop-opacity="0"/>
</radialGradient>
<linearGradient id="paint1_linear_5648_50070" x1="407.466" y1="65.1744" x2="47.2442" y2="561.662" gradientUnits="userSpaceOnUse">
<stop stop-color="#00539A"/>
<stop offset="0.508537" stop-color="#00192E"/>
</linearGradient>
<linearGradient id="paint2_linear_5648_50070" x1="242.508" y1="121.483" x2="218.665" y2="311.296" gradientUnits="userSpaceOnUse">
<stop stop-color="#B0D2F0"/>
<stop offset="1" stop-color="#006FCD"/>
</linearGradient>
<linearGradient id="paint3_linear_5648_50070" x1="138.7" y1="366.026" x2="114.856" y2="555.839" gradientUnits="userSpaceOnUse">
<stop stop-color="#B0D2F0"/>
<stop offset="1" stop-color="#006FCD"/>
</linearGradient>
<linearGradient id="paint4_linear_5648_50070" x1="54.1954" y1="172.211" x2="120.068" y2="444.658" gradientUnits="userSpaceOnUse">
<stop offset="0.142566"/>
<stop offset="0.639192" stop-color="#783910"/>
</linearGradient>
<linearGradient id="paint5_linear_5648_50070" x1="217.913" y1="254.106" x2="170.561" y2="227.099" gradientUnits="userSpaceOnUse">
<stop stop-color="#FED8CD"/>
<stop offset="1" stop-color="#F97855"/>
</linearGradient>
<linearGradient id="paint6_linear_5648_50070" x1="91.2929" y1="7.50206" x2="1.0765" y2="7.50206" gradientUnits="userSpaceOnUse">
<stop stop-color="#0075FF"/>
<stop offset="1" stop-color="#FF2400"/>
</linearGradient>
<linearGradient id="paint7_linear_5648_50070" x1="375.439" y1="113.869" x2="298.657" y2="101.616" gradientUnits="userSpaceOnUse">
<stop stop-color="#0075FF"/>
<stop offset="1" stop-color="#FF2400"/>
</linearGradient>
<linearGradient id="paint8_linear_5648_50070" x1="369.886" y1="160.16" x2="369.886" y2="216.542" gradientUnits="userSpaceOnUse">
<stop stop-color="#549FDE"/>
<stop offset="1" stop-color="#8CB5D7"/>
</linearGradient>
<linearGradient id="paint9_linear_5648_50070" x1="113.645" y1="64.1038" x2="113.645" y2="120.486" gradientUnits="userSpaceOnUse">
<stop stop-color="#549FDE"/>
<stop offset="1" stop-color="#8CB5D7"/>
</linearGradient>
</defs>
</svg>
