<svg width="40" height="40" viewBox="0 0 40 40" fill="none" xmlns="http://www.w3.org/2000/svg">
<rect width="40" height="40" rx="20" fill="white"/>
<path d="M10 15.5996C10 12.2617 12.9838 9.71458 16.2803 10.2383L25.4238 11.6914C28.0598 12.1105 30 14.3837 30 17.0527V23.4307C29.9998 26.2072 27.9046 28.5365 25.1436 28.8291L16.001 29.7979C12.7945 30.1376 10.0001 27.6238 10 24.3994V15.5996ZM19.0488 16.2842C18.1442 15.7473 16.999 16.4002 16.999 17.4521V22.4756C16.9993 23.4681 18.0301 24.1245 18.9297 23.7051L23.6699 21.4951C24.6584 21.0342 24.727 19.6543 23.7891 19.0977L19.0488 16.2842Z" fill="#121212"/>
</svg>
