<svg width="44" height="44" viewBox="0 0 44 44" fill="none" xmlns="http://www.w3.org/2000/svg">
<rect width="43.6129" height="43.6129" rx="21.8065" fill="#006FCD"/>
<path d="M33.9513 17.4255L33.6113 14.178C33.1189 10.6374 31.5128 9.19531 28.0777 9.19531H25.3108H23.5757H20.0116H18.2765H15.4627C12.0159 9.19531 10.4215 10.6374 9.91734 14.2131L9.6008 17.4372C9.48356 18.6917 9.82355 19.911 10.5622 20.8606C11.4532 22.0213 12.8249 22.6778 14.349 22.6778C15.8262 22.6778 17.2448 21.9392 18.1358 20.7551C18.933 21.9392 20.293 22.6778 21.8054 22.6778C23.3178 22.6778 24.6426 21.9744 25.4515 20.802C26.3542 21.9626 27.7494 22.6778 29.2032 22.6778C30.7624 22.6778 32.1693 21.9861 33.0486 20.7668C33.752 19.8289 34.0686 18.6448 33.9513 17.4255Z" fill="#B0D2F0"/>
<path d="M21.0431 27.2601C19.5542 27.4125 18.4287 28.6787 18.4287 30.1793V33.3917C18.4287 33.7082 18.6866 33.9661 19.0032 33.9661H24.5955C24.912 33.9661 25.17 33.7082 25.17 33.3917V30.5897C25.1817 28.1394 23.7396 26.9787 21.0431 27.2601Z" fill="#B0D2F0"/>
<path d="M32.7909 24.6103V28.104C32.7909 31.3398 30.1647 33.966 26.9289 33.966C26.6124 33.966 26.3545 33.7081 26.3545 33.3915V30.5895C26.3545 29.0888 25.8972 27.9165 25.0062 27.1192C24.2207 26.4041 23.1539 26.0524 21.8291 26.0524C21.536 26.0524 21.2429 26.0641 20.9263 26.0992C18.8395 26.3103 17.2567 28.0689 17.2567 30.1792V33.3915C17.2567 33.7081 16.9988 33.966 16.6823 33.966C13.4465 33.966 10.8203 31.3398 10.8203 28.104V24.6338C10.8203 23.8131 11.6293 23.2621 12.3913 23.5317C12.7079 23.6372 13.0244 23.7193 13.3527 23.7662C13.4934 23.7896 13.6458 23.8131 13.7865 23.8131C13.974 23.8365 14.1616 23.8483 14.3492 23.8483C15.7092 23.8483 17.0457 23.3441 18.1009 22.4766C19.1091 23.3441 20.4222 23.8483 21.8056 23.8483C23.2007 23.8483 24.4904 23.3676 25.4986 22.5C26.5538 23.3559 27.8669 23.8483 29.2034 23.8483C29.4144 23.8483 29.6254 23.8365 29.8248 23.8131C29.9654 23.8014 30.0944 23.7896 30.2234 23.7662C30.5868 23.7193 30.9151 23.6138 31.2433 23.5083C32.0054 23.2503 32.7909 23.8131 32.7909 24.6103Z" fill="#B0D2F0"/>
</svg>
