<svg width="260" height="150" viewBox="0 0 260 150" fill="none" xmlns="http://www.w3.org/2000/svg">
<rect width="260" height="150" rx="10" fill="#E8F0FC"/>
<rect x="110" y="25" width="127" height="20" rx="10" fill="#B6CFF5"/>
<rect x="107" y="53" width="66" height="5" rx="2.5" fill="#B6CFF5"/>
<rect x="107" y="105" width="38" height="3" rx="1.5" fill="#B6CFF5"/>
<rect x="37" y="105" width="38" height="3" rx="1.5" fill="#B6CFF5"/>
<rect x="28" y="97" width="38" height="3" rx="1.5" fill="#B6CFF5"/>
<rect x="107" y="118" width="38" height="3" rx="1.5" fill="#B6CFF5"/>
<rect x="107" y="131" width="38" height="3" rx="1.5" fill="#B6CFF5"/>
<rect x="153" y="105" width="38" height="3" rx="1.5" fill="#B6CFF5"/>
<rect x="153" y="118" width="38" height="3" rx="1.5" fill="#B6CFF5"/>
<rect x="153" y="131" width="38" height="3" rx="1.5" fill="#B6CFF5"/>
<rect x="199" y="105" width="38" height="3" rx="1.5" fill="#B6CFF5"/>
<rect x="199" y="118" width="38" height="3" rx="1.5" fill="#B6CFF5"/>
<rect x="199" y="131" width="38" height="3" rx="1.5" fill="#B6CFF5"/>
<rect x="110" y="68" width="127" height="5" rx="2.5" fill="#B6CFF5"/>
<rect x="193" y="53" width="40" height="5" rx="2.5" fill="#B6CFF5"/>
<path d="M61.1173 52.4999C68.1359 52.4999 73.8256 46.8102 73.8256 39.7916C73.8256 32.773 68.1359 27.0833 61.1173 27.0833C54.0986 27.0833 48.4089 32.773 48.4089 39.7916C48.4089 46.8102 54.0986 52.4999 61.1173 52.4999Z" fill="#6298EA"/>
<path d="M61.1169 58.8542C48.3832 58.8542 38.0132 67.3942 38.0132 77.9167C38.0132 78.6284 38.5724 79.1876 39.284 79.1876H82.9498C83.6615 79.1876 84.2207 78.6284 84.2207 77.9167C84.2207 67.3942 73.8507 58.8542 61.1169 58.8542Z" fill="#6298EA"/>
<path d="M54.5001 54.4062C46.443 54.4062 39.8855 47.8487 39.8855 39.7916C39.8855 31.7345 46.443 25.177 54.5001 25.177C62.5572 25.177 69.1147 31.7345 69.1147 39.7916C69.1147 47.8487 62.5572 54.4062 54.5001 54.4062ZM54.5001 28.9895C48.5526 28.9895 43.698 33.8441 43.698 39.7916C43.698 45.7391 48.5526 50.5937 54.5001 50.5937C60.4476 50.5937 65.3022 45.7391 65.3022 39.7916C65.3022 33.8441 60.4476 28.9895 54.5001 28.9895Z" fill="#242525"/>
<path d="M76.3333 79.8229C75.2912 79.8229 74.427 78.9587 74.427 77.9167C74.427 69.1479 65.4804 62.0312 54.5004 62.0312C43.5204 62.0312 34.5737 69.1479 34.5737 77.9167C34.5737 78.9587 33.7096 79.8229 32.6675 79.8229C31.6254 79.8229 30.7612 78.9587 30.7612 77.9167C30.7612 67.0637 41.4108 58.2188 54.5004 58.2188C67.59 58.2188 78.2395 67.0637 78.2395 77.9167C78.2395 78.9587 77.3754 79.8229 76.3333 79.8229Z" fill="#242525"/>
</svg>
