<svg width="28" height="28" viewBox="0 0 28 28" fill="none" xmlns="http://www.w3.org/2000/svg">
<g clip-path="url(#clip0_4285_57324)">
<path d="M19.9714 18.8681C23.8845 14.0132 24.0584 7.6608 20.3598 4.67969C16.6612 1.69859 10.4906 3.21765 6.57752 8.07261C2.6644 12.9276 2.49051 19.2799 6.18912 22.261C9.88774 25.2421 16.0583 23.7231 19.9714 18.8681Z" fill="#F4D325"/>
<path d="M20.2749 4.67586C18.8065 3.53193 16.9554 2.99467 15.1027 3.17475C16.5319 3.26208 17.8998 3.78606 19.0215 4.67586C22.7199 7.65709 22.5464 14.0092 18.6334 18.8641C16.2457 21.8266 13.0179 23.544 10.0234 23.7579C13.3407 24.0064 17.1607 22.2455 19.8864 18.8641C23.7994 14.0092 23.9737 7.6567 20.2749 4.67586Z" fill="#F8D98E"/>
<path d="M21.5233 5.08752C21.3284 4.93052 21.1262 4.78284 20.9174 4.64497C20.9035 4.63823 20.8892 4.63238 20.8746 4.62747C20.8076 4.59434 20.7327 4.5806 20.6584 4.5878C20.582 4.59558 20.5102 4.62761 20.4534 4.67919C20.4407 4.68737 20.4285 4.69633 20.4169 4.70602C20.4095 4.7138 20.4072 4.7243 20.4005 4.73247C20.3939 4.74064 20.3846 4.74569 20.3784 4.75464C20.3718 4.76852 20.3661 4.78281 20.3613 4.79741C20.3276 4.86505 20.3139 4.94083 20.3216 5.01597C20.3249 5.04017 20.3305 5.06401 20.3383 5.08714C20.3524 5.13587 20.3777 5.18062 20.4122 5.2178C20.4205 5.23094 20.4296 5.24354 20.4394 5.25552C23.6587 8.22508 23.323 14.0973 19.6753 18.6236C15.9023 23.3039 9.96471 24.7991 6.43982 21.9575C6.41704 21.9423 6.39265 21.9297 6.3671 21.9198L6.34571 21.9085C6.30861 21.8928 6.26922 21.883 6.22904 21.8797C6.21854 21.879 6.20843 21.8774 6.19793 21.877C6.1149 21.8749 6.03375 21.9019 5.96849 21.9532C5.95534 21.96 5.94261 21.9675 5.93038 21.9758C5.9226 21.9824 5.91988 21.9917 5.91327 21.9991C5.90704 22.0057 5.89849 22.0089 5.89266 22.0159C5.88592 22.0273 5.87982 22.0391 5.87438 22.0512C5.85538 22.0784 5.84008 22.1079 5.82888 22.1391C5.8251 22.1515 5.82198 22.1641 5.81954 22.1769C5.81025 22.2146 5.80684 22.2536 5.80943 22.2924C5.81021 22.3001 5.81177 22.3071 5.81293 22.3149C5.8184 22.3572 5.83102 22.3982 5.85027 22.4362C5.85338 22.4425 5.85727 22.4479 5.86077 22.4537C5.87219 22.479 5.88641 22.5028 5.90315 22.5249C6.17709 22.8275 6.47433 23.1081 6.79215 23.3641C8.27818 24.5396 10.1247 25.1653 12.0192 25.1355C15.3598 25.1355 18.9764 23.3933 21.5579 20.1908C25.6194 15.152 25.6035 8.37636 21.5229 5.08752H21.5233Z" fill="#F1B31C"/>
<path d="M20.7024 4.96484C20.9 5.09473 21.0922 5.23499 21.2791 5.38562C25.1991 8.54495 25.1882 15.0623 21.2554 19.9417C17.3226 24.8211 10.9561 26.2165 7.03607 23.0571C6.73413 22.8138 6.45171 22.5473 6.19141 22.2599" stroke="#F8D98E" stroke-width="0.583333" stroke-miterlimit="10"/>
<path d="M19.9714 18.8642C23.8845 14.0093 24.0584 7.65689 20.3598 4.67579C16.6612 1.69468 10.4906 3.21374 6.57752 8.0687C2.6644 12.9237 2.49051 19.276 6.18912 22.2571C9.88774 25.2382 16.0583 23.7192 19.9714 18.8642Z" stroke="#F8D98E" stroke-width="0.583333" stroke-miterlimit="10"/>
<path d="M19.9766 18.8672L21.2542 19.9462" stroke="#F8D98E" stroke-width="0.583333" stroke-miterlimit="10"/>
<path d="M18.6328 20.3203L19.7589 21.5307" stroke="#F8D98E" stroke-width="0.583333" stroke-miterlimit="10"/>
<path d="M17.2109 21.5059L18.1356 22.7975" stroke="#F8D98E" stroke-width="0.583333" stroke-miterlimit="10"/>
<path d="M15.6484 22.5449L16.3763 23.8452" stroke="#F8D98E" stroke-width="0.583333" stroke-miterlimit="10"/>
<path d="M21.0117 17.4102L22.3683 18.3488" stroke="#F8D98E" stroke-width="0.583333" stroke-miterlimit="10"/>
<path d="M18.3302 11.0575C18.3302 11.0575 17.643 11.6927 17.0363 11.8312C15.9425 12.0808 15.3739 10.8006 14.2396 10.9149C12.1888 11.1217 11.3512 13.4789 12.4345 15.014C12.8581 15.6143 13.2211 16.0226 14.0102 16.2288C14.989 16.4846 15.5414 15.2231 16.452 15.6316C17.0279 15.89 17.4538 16.7582 17.4538 16.7582C17.4538 16.7582 15.7222 18.1038 14.292 18.2173C11.7947 18.4153 9.82707 16.968 8.91786 14.9596C7.67919 12.2235 9.95485 8.91803 13.3839 8.83824C15.5197 8.78855 18.3302 11.0575 18.3302 11.0575Z" fill="#F1B31C"/>
<path d="M14.2353 8.62245C15.0081 8.74126 15.6801 8.94992 16.2447 9.25445L16.2437 9.2543C16.8083 9.55617 17.2993 9.94036 17.7145 10.4072L17.9132 10.6314L17.6849 10.8245L16.939 11.4539L16.929 11.4612C16.8335 11.5352 16.7334 11.5947 16.63 11.6385L16.6307 11.6406C16.4829 11.7087 16.3144 11.7066 16.1618 11.6831C15.9902 11.6568 15.8317 11.5901 15.6889 11.4879L15.6809 11.4818C15.5807 11.4045 15.4573 11.317 15.3103 11.2193L15.303 11.2152L15.3031 11.2142C15.1735 11.123 15.0081 11.032 14.8033 10.9437L14.7949 10.9404C14.6172 10.8575 14.375 10.789 14.0599 10.7405C13.666 10.6799 13.3232 10.689 13.0285 10.7588L13.0245 10.7592C12.7295 10.8246 12.4787 10.945 12.2661 11.1168L12.115 11.2576C11.9706 11.4097 11.8457 11.5937 11.7403 11.8116L11.7391 11.8134C11.5992 12.0996 11.4963 12.4416 11.4345 12.8435C11.3702 13.2614 11.3672 13.6327 11.4191 13.9586C11.4773 14.2839 11.5842 14.5593 11.736 14.7899L11.8602 14.9522C11.9928 15.1076 12.1524 15.2409 12.34 15.353C12.5912 15.4974 12.8907 15.5997 13.2442 15.6541C13.5208 15.6966 13.7481 15.7108 13.9306 15.7013L14.0983 15.6836C14.3343 15.6426 14.5266 15.5918 14.6794 15.5348C14.8546 15.4639 15.0047 15.4017 15.1293 15.3461C15.317 15.2613 15.5165 15.2348 15.7206 15.2661C15.972 15.3047 16.1915 15.4213 16.326 15.6408L16.9073 16.4741L17.0723 16.7119L16.8371 16.8793C16.5113 17.1105 16.1664 17.296 15.8032 17.4347L15.7992 17.4351C15.4427 17.5659 15.0777 17.6616 14.7041 17.7202L14.7012 17.7198C14.3359 17.7737 13.9623 17.7933 13.5812 17.7808L13.5821 17.7819C13.2124 17.7706 12.8459 17.7379 12.4829 17.6821C11.8352 17.5825 11.2362 17.3884 10.6882 17.0999L10.6863 17.0996C10.1384 16.8049 9.6731 16.4275 9.29427 15.9677C8.91369 15.5057 8.63868 14.9719 8.46877 14.3706L8.46743 14.3664C8.30325 13.7525 8.27977 13.087 8.38918 12.3754C8.48788 11.7336 8.68992 11.1509 8.99819 10.6312L8.99945 10.6295C9.31572 10.1048 9.72621 9.67229 10.2291 9.33446C10.735 8.98971 11.3273 8.75519 11.9988 8.62641C12.6759 8.49662 13.4227 8.49752 14.2353 8.62245Z" stroke="#F8D98E" stroke-width="0.583333"/>
</g>
<defs>
<clipPath id="clip0_4285_57324">
<rect width="28" height="28" fill="white"/>
</clipPath>
</defs>
</svg>
