<svg width="24" height="24" viewBox="0 0 24 24" fill="none" xmlns="http://www.w3.org/2000/svg">
<path d="M8 12.9V17.1C8 20.6 9.4 22 12.9 22H17.1C20.6 22 22 20.6 22 17.1V12.9C22 9.4 20.6 8 17.1 8H12.9C9.4 8 8 9.4 8 12.9Z" fill="white"/>
<path d="M6.90023 2H11.1002C14.1833 2 15.6293 3.09409 15.9305 5.73901C15.9935 6.29235 15.5352 6.75 14.9783 6.75H12.9002C8.70023 6.75 6.75023 8.7 6.75023 12.9V14.9781C6.75023 15.535 6.29258 15.9933 5.73925 15.9303C3.09432 15.629 2.00023 14.1831 2.00023 11.1V6.9C2.00023 3.4 3.40023 2 6.90023 2Z" fill="white"/>
</svg>
