<svg width="180" height="40" viewBox="0 0 180 40" fill="none" xmlns="http://www.w3.org/2000/svg">
<rect x="0.25" y="0.25" width="179.5" height="39.5" rx="7.75" fill="#121212"/>
<rect x="0.25" y="0.25" width="179.5" height="39.5" rx="7.75" stroke="#3D3D3D" stroke-width="0.5"/>
<path d="M21.008 14.832C22.1813 14.832 23.2107 15.0613 24.096 15.52C24.992 15.9787 25.68 16.6347 26.16 17.488C26.6507 18.3307 26.896 19.312 26.896 20.432C26.896 21.552 26.6507 22.5333 26.16 23.376C25.68 24.208 24.992 24.8533 24.096 25.312C23.2107 25.7707 22.1813 26 21.008 26H17.104V14.832H21.008ZM20.928 24.096C22.1013 24.096 23.008 23.776 23.648 23.136C24.288 22.496 24.608 21.5947 24.608 20.432C24.608 19.2693 24.288 18.3627 23.648 17.712C23.008 17.0507 22.1013 16.72 20.928 16.72H19.344V24.096H20.928ZM36.8128 21.376C36.8128 21.696 36.7914 21.984 36.7488 22.24H30.2688C30.3221 22.88 30.5461 23.3813 30.9408 23.744C31.3354 24.1067 31.8208 24.288 32.3968 24.288C33.2288 24.288 33.8208 23.9307 34.1728 23.216H36.5888C36.3328 24.0693 35.8421 24.7733 35.1168 25.328C34.3914 25.872 33.5008 26.144 32.4448 26.144C31.5914 26.144 30.8234 25.9573 30.1408 25.584C29.4688 25.2 28.9408 24.6613 28.5568 23.968C28.1834 23.2747 27.9967 22.4747 27.9967 21.568C27.9967 20.6507 28.1834 19.8453 28.5568 19.152C28.9301 18.4587 29.4528 17.9253 30.1248 17.552C30.7968 17.1787 31.5701 16.992 32.4448 16.992C33.2874 16.992 34.0394 17.1733 34.7008 17.536C35.3728 17.8987 35.8901 18.416 36.2528 19.088C36.6261 19.7493 36.8128 20.512 36.8128 21.376ZM34.4928 20.736C34.4821 20.16 34.2741 19.7013 33.8688 19.36C33.4634 19.008 32.9674 18.832 32.3808 18.832C31.8261 18.832 31.3568 19.0027 30.9728 19.344C30.5994 19.6747 30.3701 20.1387 30.2848 20.736H34.4928ZM40.6878 14.16V26H38.4478V14.16H40.6878ZM51.1409 21.376C51.1409 21.696 51.1195 21.984 51.0769 22.24H44.5969C44.6502 22.88 44.8742 23.3813 45.2689 23.744C45.6635 24.1067 46.1489 24.288 46.7249 24.288C47.5569 24.288 48.1489 23.9307 48.5009 23.216H50.9169C50.6609 24.0693 50.1702 24.7733 49.4449 25.328C48.7195 25.872 47.8289 26.144 46.7729 26.144C45.9195 26.144 45.1515 25.9573 44.4689 25.584C43.7969 25.2 43.2689 24.6613 42.8849 23.968C42.5115 23.2747 42.3249 22.4747 42.3249 21.568C42.3249 20.6507 42.5115 19.8453 42.8849 19.152C43.2582 18.4587 43.7809 17.9253 44.4529 17.552C45.1249 17.1787 45.8982 16.992 46.7729 16.992C47.6155 16.992 48.3675 17.1733 49.0289 17.536C49.7009 17.8987 50.2182 18.416 50.5809 19.088C50.9542 19.7493 51.1409 20.512 51.1409 21.376ZM48.8209 20.736C48.8102 20.16 48.6022 19.7013 48.1969 19.36C47.7915 19.008 47.2955 18.832 46.7089 18.832C46.1542 18.832 45.6849 19.0027 45.3009 19.344C44.9275 19.6747 44.6982 20.1387 44.6129 20.736H48.8209ZM55.3839 18.976V23.264C55.3839 23.5627 55.4532 23.7813 55.5919 23.92C55.7412 24.048 55.9865 24.112 56.3279 24.112H57.3679V26H55.9599C54.0719 26 53.1279 25.0827 53.1279 23.248V18.976H52.0719V17.136H53.1279V14.944H55.3839V17.136H57.3679V18.976H55.3839ZM67.219 21.376C67.219 21.696 67.1977 21.984 67.155 22.24H60.675C60.7283 22.88 60.9523 23.3813 61.347 23.744C61.7417 24.1067 62.227 24.288 62.803 24.288C63.635 24.288 64.227 23.9307 64.579 23.216H66.995C66.739 24.0693 66.2483 24.7733 65.523 25.328C64.7977 25.872 63.907 26.144 62.851 26.144C61.9977 26.144 61.2297 25.9573 60.547 25.584C59.875 25.2 59.347 24.6613 58.963 23.968C58.5897 23.2747 58.403 22.4747 58.403 21.568C58.403 20.6507 58.5897 19.8453 58.963 19.152C59.3363 18.4587 59.859 17.9253 60.531 17.552C61.203 17.1787 61.9763 16.992 62.851 16.992C63.6937 16.992 64.4457 17.1733 65.107 17.536C65.779 17.8987 66.2963 18.416 66.659 19.088C67.0323 19.7493 67.219 20.512 67.219 21.376ZM64.899 20.736C64.8883 20.16 64.6803 19.7013 64.275 19.36C63.8697 19.008 63.3737 18.832 62.787 18.832C62.2323 18.832 61.763 19.0027 61.379 19.344C61.0057 19.6747 60.7763 20.1387 60.691 20.736H64.899ZM76.5225 26.112C75.7438 26.112 75.0398 25.9787 74.4105 25.712C73.7918 25.4453 73.3012 25.0613 72.9385 24.56C72.5758 24.0587 72.3892 23.4667 72.3785 22.784H74.7785C74.8105 23.2427 74.9705 23.6053 75.2585 23.872C75.5572 24.1387 75.9625 24.272 76.4745 24.272C76.9972 24.272 77.4078 24.1493 77.7065 23.904C78.0052 23.648 78.1545 23.3173 78.1545 22.912C78.1545 22.5813 78.0532 22.3093 77.8505 22.096C77.6478 21.8827 77.3918 21.7173 77.0825 21.6C76.7838 21.472 76.3678 21.3333 75.8345 21.184C75.1092 20.9707 74.5172 20.7627 74.0585 20.56C73.6105 20.3467 73.2212 20.032 72.8905 19.616C72.5705 19.1893 72.4105 18.624 72.4105 17.92C72.4105 17.2587 72.5758 16.6827 72.9065 16.192C73.2372 15.7013 73.7012 15.328 74.2985 15.072C74.8958 14.8053 75.5785 14.672 76.3465 14.672C77.4985 14.672 78.4318 14.9547 79.1465 15.52C79.8718 16.0747 80.2718 16.8533 80.3465 17.856H77.8825C77.8612 17.472 77.6958 17.1573 77.3865 16.912C77.0878 16.656 76.6878 16.528 76.1865 16.528C75.7492 16.528 75.3972 16.64 75.1305 16.864C74.8745 17.088 74.7465 17.4133 74.7465 17.84C74.7465 18.1387 74.8425 18.3893 75.0345 18.592C75.2372 18.784 75.4825 18.944 75.7705 19.072C76.0692 19.1893 76.4852 19.328 77.0185 19.488C77.7438 19.7013 78.3358 19.9147 78.7945 20.128C79.2532 20.3413 79.6478 20.6613 79.9785 21.088C80.3092 21.5147 80.4745 22.0747 80.4745 22.768C80.4745 23.3653 80.3198 23.92 80.0105 24.432C79.7012 24.944 79.2478 25.3547 78.6505 25.664C78.0532 25.9627 77.3438 26.112 76.5225 26.112ZM85.0245 18.976V23.264C85.0245 23.5627 85.0938 23.7813 85.2325 23.92C85.3818 24.048 85.6272 24.112 85.9685 24.112H87.0085V26H85.6005C83.7125 26 82.7685 25.0827 82.7685 23.248V18.976H81.7125V17.136H82.7685V14.944H85.0245V17.136H87.0085V18.976H85.0245ZM90.8596 18.512C91.1476 18.0427 91.521 17.6747 91.9796 17.408C92.449 17.1413 92.9823 17.008 93.5796 17.008V19.36H92.9876C92.2836 19.36 91.7503 19.5253 91.3876 19.856C91.0356 20.1867 90.8596 20.7627 90.8596 21.584V26H88.6196V17.136H90.8596V18.512ZM103.328 21.376C103.328 21.696 103.307 21.984 103.264 22.24H96.7844C96.8377 22.88 97.0617 23.3813 97.4564 23.744C97.851 24.1067 98.3364 24.288 98.9124 24.288C99.7444 24.288 100.336 23.9307 100.688 23.216H103.104C102.848 24.0693 102.358 24.7733 101.632 25.328C100.907 25.872 100.016 26.144 98.9604 26.144C98.107 26.144 97.339 25.9573 96.6564 25.584C95.9844 25.2 95.4564 24.6613 95.0724 23.968C94.699 23.2747 94.5124 22.4747 94.5124 21.568C94.5124 20.6507 94.699 19.8453 95.0724 19.152C95.4457 18.4587 95.9684 17.9253 96.6404 17.552C97.3124 17.1787 98.0857 16.992 98.9604 16.992C99.803 16.992 100.555 17.1733 101.216 17.536C101.888 17.8987 102.406 18.416 102.768 19.088C103.142 19.7493 103.328 20.512 103.328 21.376ZM101.008 20.736C100.998 20.16 100.79 19.7013 100.384 19.36C99.979 19.008 99.483 18.832 98.8964 18.832C98.3417 18.832 97.8724 19.0027 97.4884 19.344C97.115 19.6747 96.8857 20.1387 96.8004 20.736H101.008ZM104.387 21.536C104.387 20.64 104.563 19.8453 104.915 19.152C105.278 18.4587 105.763 17.9253 106.371 17.552C106.99 17.1787 107.678 16.992 108.435 16.992C109.097 16.992 109.673 17.1253 110.163 17.392C110.665 17.6587 111.065 17.9947 111.363 18.4V17.136H113.619V26H111.363V24.704C111.075 25.12 110.675 25.4667 110.163 25.744C109.662 26.0107 109.081 26.144 108.419 26.144C107.673 26.144 106.99 25.952 106.371 25.568C105.763 25.184 105.278 24.6453 104.915 23.952C104.563 23.248 104.387 22.4427 104.387 21.536ZM111.363 21.568C111.363 21.024 111.257 20.56 111.043 20.176C110.83 19.7813 110.542 19.4827 110.179 19.28C109.817 19.0667 109.427 18.96 109.011 18.96C108.595 18.96 108.211 19.0613 107.859 19.264C107.507 19.4667 107.219 19.7653 106.995 20.16C106.782 20.544 106.675 21.0027 106.675 21.536C106.675 22.0693 106.782 22.5387 106.995 22.944C107.219 23.3387 107.507 23.6427 107.859 23.856C108.222 24.0693 108.606 24.176 109.011 24.176C109.427 24.176 109.817 24.0747 110.179 23.872C110.542 23.6587 110.83 23.36 111.043 22.976C111.257 22.5813 111.363 22.112 111.363 21.568ZM126.815 17.008C127.903 17.008 128.778 17.344 129.439 18.016C130.111 18.6773 130.447 19.6053 130.447 20.8V26H128.207V21.104C128.207 20.4107 128.031 19.8827 127.679 19.52C127.327 19.1467 126.847 18.96 126.239 18.96C125.631 18.96 125.146 19.1467 124.783 19.52C124.431 19.8827 124.255 20.4107 124.255 21.104V26H122.015V21.104C122.015 20.4107 121.839 19.8827 121.487 19.52C121.135 19.1467 120.655 18.96 120.047 18.96C119.428 18.96 118.938 19.1467 118.575 19.52C118.223 19.8827 118.047 20.4107 118.047 21.104V26H115.807V17.136H118.047V18.208C118.335 17.8347 118.703 17.5413 119.151 17.328C119.61 17.1147 120.111 17.008 120.655 17.008C121.348 17.008 121.967 17.1573 122.511 17.456C123.055 17.744 123.476 18.16 123.775 18.704C124.063 18.192 124.479 17.7813 125.023 17.472C125.578 17.1627 126.175 17.008 126.815 17.008Z" fill="url(#paint0_linear_7599_79551)"/>
<path d="M161 13.9805C157.67 13.6505 154.32 13.4805 150.98 13.4805C149 13.4805 147.02 13.5805 145.04 13.7805L143 13.9805" stroke="url(#paint1_linear_7599_79551)" stroke-width="1.5" stroke-linecap="round" stroke-linejoin="round"/>
<path d="M148.5 12.97L148.72 11.66C148.88 10.71 149 10 150.69 10H153.31C155 10 155.13 10.75 155.28 11.67L155.5 12.97" stroke="url(#paint2_linear_7599_79551)" stroke-width="1.5" stroke-linecap="round" stroke-linejoin="round"/>
<path d="M158.85 17.1406L158.2 27.2106C158.09 28.7806 158 30.0006 155.21 30.0006H148.79C146 30.0006 145.91 28.7806 145.8 27.2106L145.15 17.1406" stroke="url(#paint3_linear_7599_79551)" stroke-width="1.5" stroke-linecap="round" stroke-linejoin="round"/>
<path d="M150.33 24.5H153.66" stroke="url(#paint4_linear_7599_79551)" stroke-width="1.5" stroke-linecap="round" stroke-linejoin="round"/>
<path d="M149.5 20.5H154.5" stroke="url(#paint5_linear_7599_79551)" stroke-width="1.5" stroke-linecap="round" stroke-linejoin="round"/>
<defs>
<linearGradient id="paint0_linear_7599_79551" x1="74" y1="8" x2="74" y2="32" gradientUnits="userSpaceOnUse">
<stop stop-color="#EE1B41"/>
<stop offset="1" stop-color="#EE1B41"/>
</linearGradient>
<linearGradient id="paint1_linear_7599_79551" x1="152" y1="13.4805" x2="152" y2="13.9805" gradientUnits="userSpaceOnUse">
<stop stop-color="#EE1B41"/>
<stop offset="1" stop-color="#EE1B41"/>
</linearGradient>
<linearGradient id="paint2_linear_7599_79551" x1="152" y1="10" x2="152" y2="12.97" gradientUnits="userSpaceOnUse">
<stop stop-color="#EE1B41"/>
<stop offset="1" stop-color="#EE1B41"/>
</linearGradient>
<linearGradient id="paint3_linear_7599_79551" x1="152" y1="17.1406" x2="152" y2="30.0006" gradientUnits="userSpaceOnUse">
<stop stop-color="#EE1B41"/>
<stop offset="1" stop-color="#EE1B41"/>
</linearGradient>
<linearGradient id="paint4_linear_7599_79551" x1="151.995" y1="24.5" x2="151.995" y2="25.5" gradientUnits="userSpaceOnUse">
<stop stop-color="#EE1B41"/>
<stop offset="1" stop-color="#EE1B41"/>
</linearGradient>
<linearGradient id="paint5_linear_7599_79551" x1="152" y1="20.5" x2="152" y2="21.5" gradientUnits="userSpaceOnUse">
<stop stop-color="#EE1B41"/>
<stop offset="1" stop-color="#EE1B41"/>
</linearGradient>
</defs>
</svg>
