<svg width="20" height="21" viewBox="0 0 20 21" fill="none" xmlns="http://www.w3.org/2000/svg">
<path d="M9.10834 19.4586C8.70834 19.4586 8.30837 19.3586 7.9417 19.1586C7.20003 18.7419 6.75833 18.0003 6.75833 17.1586V12.7003C6.75833 12.2753 6.48332 11.6503 6.22499 11.3253L3.05833 8.00027C2.53333 7.47527 2.125 6.5586 2.125 5.8836V3.95028C2.125 2.60862 3.14168 1.55859 4.43335 1.55859H15.55C16.825 1.55859 17.8583 2.59194 17.8583 3.86694V5.71694C17.8583 6.59194 17.3334 7.60026 16.8334 8.09192C16.5917 8.33359 16.1917 8.33359 15.95 8.09192C15.7084 7.85026 15.7084 7.45026 15.95 7.20859C16.2584 6.90026 16.6083 6.20861 16.6083 5.71694V3.86694C16.6083 3.28361 16.1333 2.80859 15.55 2.80859H4.43335C3.84168 2.80859 3.375 3.30862 3.375 3.95028V5.8836C3.375 6.19193 3.625 6.80028 3.95 7.12528L7.15837 10.5003C7.58337 11.0253 7.99999 11.9086 7.99999 12.7003V17.1586C7.99999 17.7086 8.37501 17.9753 8.54168 18.0669C8.90001 18.2669 9.32503 18.2586 9.65837 18.0586L10.825 17.3086C11.0667 17.1669 11.3 16.7086 11.3 16.4003C11.3 16.0586 11.5833 15.7753 11.925 15.7753C12.2667 15.7753 12.55 16.0586 12.55 16.4003C12.55 17.1503 12.0833 18.0086 11.4917 18.3669L10.3334 19.1169C9.95836 19.3419 9.53334 19.4586 9.10834 19.4586Z" fill="#B4B4B4"/>
<path d="M13.3932 14.8919C11.5766 14.8919 10.1016 13.4169 10.1016 11.6003C10.1016 9.7836 11.5766 8.30859 13.3932 8.30859C15.2099 8.30859 16.6849 9.7836 16.6849 11.6003C16.6849 13.4169 15.2099 14.8919 13.3932 14.8919ZM13.3932 9.55859C12.2682 9.55859 11.3516 10.4753 11.3516 11.6003C11.3516 12.7253 12.2682 13.6419 13.3932 13.6419C14.5182 13.6419 15.4349 12.7253 15.4349 11.6003C15.4349 10.4753 14.5182 9.55859 13.3932 9.55859Z" fill="#B4B4B4"/>
<path d="M16.5578 15.3898C16.3995 15.3898 16.2411 15.3315 16.1161 15.2065L15.2828 14.3732C15.0411 14.1315 15.0411 13.7315 15.2828 13.4898C15.5245 13.2482 15.9245 13.2482 16.1661 13.4898L16.9995 14.3232C17.2411 14.5648 17.2411 14.9648 16.9995 15.2065C16.8828 15.3232 16.7161 15.3898 16.5578 15.3898Z" fill="#B4B4B4"/>
</svg>
