<svg width="24" height="24" viewBox="0 0 24 24" fill="none" xmlns="http://www.w3.org/2000/svg">
<path d="M13.5921 15.0674C13.6927 15.0638 13.7931 15.0806 13.8871 15.1166C13.9811 15.1527 14.067 15.2073 14.1394 15.2773C14.2119 15.3472 14.2695 15.4311 14.3089 15.5238C14.3482 15.6165 14.3685 15.7162 14.3685 15.8169C14.3685 15.9176 14.3482 16.0173 14.3089 16.11C14.2695 16.2027 14.2119 16.2866 14.1394 16.3565C14.067 16.4265 13.9812 16.4811 13.8871 16.5172C13.7931 16.5532 13.6927 16.57 13.5921 16.5664L7.93522 16.5664C7.73647 16.5663 7.5459 16.4873 7.40536 16.3468C7.26482 16.2062 7.18581 16.0157 7.18569 15.8169L7.18569 10.16C7.18214 10.0594 7.19889 9.95905 7.23496 9.86501C7.27103 9.77097 7.32567 9.68516 7.39562 9.6127C7.46557 9.54023 7.5494 9.4826 7.64211 9.44324C7.73482 9.40388 7.8345 9.38359 7.93522 9.38359C8.03594 9.38359 8.13563 9.40388 8.22834 9.44324C8.32104 9.4826 8.40487 9.54023 8.47482 9.6127C8.54478 9.68516 8.59942 9.77097 8.63548 9.86501C8.67155 9.95905 8.68831 10.0594 8.68475 10.16L8.68475 14.0067L15.5366 7.15484C15.6773 7.01419 15.868 6.93517 16.0669 6.93517C16.2659 6.93517 16.4566 7.01419 16.5973 7.15484C16.7379 7.29549 16.8169 7.48626 16.8169 7.68517C16.8169 7.88408 16.7379 8.07485 16.5973 8.2155L9.74541 15.0674L13.5921 15.0674Z" fill="#009A00"/>
</svg>
