<svg width="257" height="255" viewBox="0 0 257 255" fill="none" xmlns="http://www.w3.org/2000/svg">
<path d="M140.474 36.5272L57.4855 84.2533C56.2893 85.1374 56.3937 86.9585 57.6831 87.7L106.053 115.517C109.632 117.575 114.035 117.575 117.613 115.517L199.131 68.6374C201.069 67.5229 201.069 64.7266 199.131 63.6121L152.034 36.5272C148.455 34.4692 144.052 34.4692 140.474 36.5272Z" fill="#004F92"/>
<path d="M139.024 33.6444L56.0362 81.3705C54.84 82.2546 54.9445 84.0757 56.2339 84.8172L104.604 112.634C108.183 114.692 112.586 114.692 116.164 112.634L197.682 65.7546C199.62 64.6401 199.62 61.8438 197.682 60.7293L150.584 33.6444C147.006 31.5864 142.603 31.5864 139.024 33.6444Z" fill="url(#paint0_linear_7255_69909)"/>
<path d="M133.573 3.96988L126.326 0L124.877 4.33078L127.413 5.41348L133.573 3.96988Z" fill="#002F56"/>
<path d="M87.9069 26.1015C87.9946 24.3607 88.6299 22.0117 90.4439 20.8969C96.8999 15.7399 99.857 12.1581 104.217 5.28339C106.364 2.14737 108.056 1.03675 112.915 1.56588C119.032 1.89485 121.535 1.4182 125.239 0.0788754C126.893 -0.231565 127.321 0.346575 127.413 2.30938V20.8969C125.587 34.6084 120.23 43.0496 108.793 57.5304C107.967 58.5765 106.696 59.2001 105.365 59.126C97.8798 58.7091 93.8577 56.0943 89.4415 48.3079C88.3776 46.432 87.748 44.3399 87.6486 42.1857C87.3591 35.9062 87.852 27.1892 87.9069 26.1015Z" fill="#002F56"/>
<path d="M94.4438 28.8707C94.5316 27.1807 95.1666 24.9004 96.9801 23.8181C103.434 18.8116 106.39 15.3344 110.748 8.6604C112.894 5.61592 114.586 4.53773 119.444 5.05142C125.558 5.37078 128.06 4.90805 131.763 3.60782C133.416 3.30645 133.844 3.86771 133.937 5.77321V23.8181C132.111 37.1295 126.756 45.3243 115.322 59.3827C114.495 60.3998 113.244 61.0026 111.934 60.9331C104.472 60.5373 100.448 58.0308 96.0568 50.5634C94.9373 48.6597 94.2765 46.5189 94.1777 44.3126C93.9055 38.2306 94.3895 29.9167 94.4438 28.8707Z" fill="#006FCD"/>
<path d="M110.747 17.6698C110.747 13.3615 117.268 12.1226 117.268 15.7104V35.6153C117.268 39.5647 110.747 41.5029 110.747 37.0523V17.6698Z" fill="#004F92"/>
<path d="M119.08 15.8826L116.544 14.0781L115.094 14.439L116.544 16.6044L119.08 15.8826Z" fill="#004F92"/>
<path d="M111.482 39.0336L114.37 41.1413L115.488 40.4193L114.007 38.2751L111.482 39.0336Z" fill="#004F92"/>
<ellipse cx="2.92967" cy="4.60429" rx="2.92967" ry="4.60429" transform="matrix(0.8433 0.537443 -0.540447 0.841378 114.273 41.8672)" fill="#004F92"/>
<path d="M119.442 45.117L116.543 43.3125L116.181 45.4779H117.63L119.442 45.117Z" fill="#004F92"/>
<path d="M111.832 51.247L114.369 52.691L115.182 51.3659L113.783 50.9922L111.832 51.247Z" fill="#004F92"/>
<path d="M113.645 19.4628C113.645 15.1544 120.167 14.0805 120.167 17.6682V37.4082C120.167 41.3576 113.645 44.0272 113.645 38.8453V19.4628Z" fill="#8ABDE8"/>
<ellipse cx="2.92967" cy="4.60429" rx="2.92967" ry="4.60429" transform="matrix(0.8433 0.537443 -0.540447 0.841378 116.733 43.3125)" fill="#8ABDE8"/>
<path d="M139.732 88.3993L100.239 65.6875L70.8911 82.5651L110.384 105.277L139.732 88.3993Z" fill="white"/>
<path d="M101.985 95.5055C98.3973 93.1948 98.5635 87.9129 102.289 85.8346C108.416 82.4172 115.912 82.53 121.936 86.1302L126.688 88.9705L108.369 99.6166L101.985 95.5055Z" fill="#B0D2F0"/>
<ellipse cx="95.5291" cy="81.0339" rx="7.24638" ry="4.33078" fill="#B0D2F0"/>
<path d="M102.71 86.0289C99.1219 83.7182 99.2881 78.4364 103.014 76.358C109.14 72.9407 116.637 73.0534 122.66 76.6536L127.413 79.4939L109.093 90.14L102.71 86.0289Z" fill="#006FCD"/>
<ellipse cx="96.2537" cy="71.5573" rx="7.24638" ry="4.33078" fill="#006FCD"/>
<path d="M118.717 65.6886L150.964 46.9219" stroke="#8ABDE8" stroke-width="2.17391" stroke-linecap="round"/>
<path d="M129.587 72.548L161.833 53.7812" stroke="#8ABDE8" stroke-width="2.17391" stroke-linecap="round"/>
<path d="M140.457 79.0402L172.703 60.2734" stroke="#8ABDE8" stroke-width="2.17391" stroke-linecap="round"/>
<path d="M55.9338 160.844L50.8538 154.624V160.844H48.0538V146.884H50.8538V153.144L55.9338 146.884H59.3138L53.5538 153.804L59.4738 160.844H55.9338ZM72.4155 146.884L67.6955 155.984V160.844H64.8955V155.984L60.1555 146.884H63.3155L66.3155 153.264L69.2955 146.884H72.4155ZM73.3504 153.844C73.3504 152.47 73.6571 151.244 74.2704 150.164C74.8971 149.07 75.7437 148.224 76.8104 147.624C77.8904 147.01 79.0971 146.704 80.4304 146.704C81.9904 146.704 83.3571 147.104 84.5304 147.904C85.7037 148.704 86.5237 149.81 86.9904 151.224H83.7704C83.4504 150.557 82.9971 150.057 82.4104 149.724C81.8371 149.39 81.1704 149.224 80.4104 149.224C79.5971 149.224 78.8704 149.417 78.2304 149.804C77.6037 150.177 77.1104 150.71 76.7504 151.404C76.4037 152.097 76.2304 152.91 76.2304 153.844C76.2304 154.764 76.4037 155.577 76.7504 156.284C77.1104 156.977 77.6037 157.517 78.2304 157.904C78.8704 158.277 79.5971 158.464 80.4104 158.464C81.1704 158.464 81.8371 158.297 82.4104 157.964C82.9971 157.617 83.4504 157.11 83.7704 156.444H86.9904C86.5237 157.87 85.7037 158.984 84.5304 159.784C83.3704 160.57 82.0037 160.964 80.4304 160.964C79.0971 160.964 77.8904 160.664 76.8104 160.064C75.7437 159.45 74.8971 158.604 74.2704 157.524C73.6571 156.444 73.3504 155.217 73.3504 153.844ZM106.688 146.884L101.568 160.844H98.1676L93.0476 146.884H96.0476L99.8876 157.984L103.708 146.884H106.688ZM118.666 155.064C118.666 155.464 118.64 155.824 118.586 156.144H110.486C110.553 156.944 110.833 157.57 111.326 158.024C111.82 158.477 112.426 158.704 113.146 158.704C114.186 158.704 114.926 158.257 115.366 157.364H118.386C118.066 158.43 117.453 159.31 116.546 160.004C115.64 160.684 114.526 161.024 113.206 161.024C112.14 161.024 111.18 160.79 110.326 160.324C109.486 159.844 108.826 159.17 108.346 158.304C107.88 157.437 107.646 156.437 107.646 155.304C107.646 154.157 107.88 153.15 108.346 152.284C108.813 151.417 109.466 150.75 110.306 150.284C111.146 149.817 112.113 149.584 113.206 149.584C114.26 149.584 115.2 149.81 116.026 150.264C116.866 150.717 117.513 151.364 117.966 152.204C118.433 153.03 118.666 153.984 118.666 155.064ZM115.766 154.264C115.753 153.544 115.493 152.97 114.986 152.544C114.48 152.104 113.86 151.884 113.126 151.884C112.433 151.884 111.846 152.097 111.366 152.524C110.9 152.937 110.613 153.517 110.506 154.264H115.766ZM123.51 151.484C123.87 150.897 124.337 150.437 124.91 150.104C125.497 149.77 126.163 149.604 126.91 149.604V152.544H126.17C125.29 152.544 124.623 152.75 124.17 153.164C123.73 153.577 123.51 154.297 123.51 155.324V160.844H120.71V149.764H123.51V151.484ZM130.216 148.444C129.723 148.444 129.309 148.29 128.976 147.984C128.656 147.664 128.496 147.27 128.496 146.804C128.496 146.337 128.656 145.95 128.976 145.644C129.309 145.324 129.723 145.164 130.216 145.164C130.709 145.164 131.116 145.324 131.436 145.644C131.769 145.95 131.936 146.337 131.936 146.804C131.936 147.27 131.769 147.664 131.436 147.984C131.116 148.29 130.709 148.444 130.216 148.444ZM131.596 149.764V160.844H128.796V149.764H131.596ZM139.442 152.064H137.502V160.844H134.662V152.064H133.402V149.764H134.662V149.204C134.662 147.844 135.049 146.844 135.822 146.204C136.596 145.564 137.762 145.264 139.322 145.304V147.664C138.642 147.65 138.169 147.764 137.902 148.004C137.636 148.244 137.502 148.677 137.502 149.304V149.764H139.442V152.064ZM142.677 148.444C142.184 148.444 141.77 148.29 141.437 147.984C141.117 147.664 140.957 147.27 140.957 146.804C140.957 146.337 141.117 145.95 141.437 145.644C141.77 145.324 142.184 145.164 142.677 145.164C143.17 145.164 143.577 145.324 143.897 145.644C144.23 145.95 144.397 146.337 144.397 146.804C144.397 147.27 144.23 147.664 143.897 147.984C143.577 148.29 143.17 148.444 142.677 148.444ZM144.057 149.764V160.844H141.257V149.764H144.057ZM146.103 155.304C146.103 154.157 146.337 153.157 146.803 152.304C147.27 151.437 147.917 150.77 148.743 150.304C149.57 149.824 150.517 149.584 151.583 149.584C152.957 149.584 154.09 149.93 154.983 150.624C155.89 151.304 156.497 152.264 156.803 153.504H153.783C153.623 153.024 153.35 152.65 152.963 152.384C152.59 152.104 152.123 151.964 151.563 151.964C150.763 151.964 150.13 152.257 149.663 152.844C149.197 153.417 148.963 154.237 148.963 155.304C148.963 156.357 149.197 157.177 149.663 157.764C150.13 158.337 150.763 158.624 151.563 158.624C152.697 158.624 153.437 158.117 153.783 157.104H156.803C156.497 158.304 155.89 159.257 154.983 159.964C154.077 160.67 152.943 161.024 151.583 161.024C150.517 161.024 149.57 160.79 148.743 160.324C147.917 159.844 147.27 159.177 146.803 158.324C146.337 157.457 146.103 156.45 146.103 155.304ZM158.135 155.264C158.135 154.144 158.355 153.15 158.795 152.284C159.248 151.417 159.855 150.75 160.615 150.284C161.388 149.817 162.248 149.584 163.195 149.584C164.021 149.584 164.741 149.75 165.355 150.084C165.981 150.417 166.481 150.837 166.855 151.344V149.764H169.675V160.844H166.855V159.224C166.495 159.744 165.995 160.177 165.355 160.524C164.728 160.857 164.001 161.024 163.175 161.024C162.241 161.024 161.388 160.784 160.615 160.304C159.855 159.824 159.248 159.15 158.795 158.284C158.355 157.404 158.135 156.397 158.135 155.264ZM166.855 155.304C166.855 154.624 166.721 154.044 166.455 153.564C166.188 153.07 165.828 152.697 165.375 152.444C164.921 152.177 164.435 152.044 163.915 152.044C163.395 152.044 162.915 152.17 162.475 152.424C162.035 152.677 161.675 153.05 161.395 153.544C161.128 154.024 160.995 154.597 160.995 155.264C160.995 155.93 161.128 156.517 161.395 157.024C161.675 157.517 162.035 157.897 162.475 158.164C162.928 158.43 163.408 158.564 163.915 158.564C164.435 158.564 164.921 158.437 165.375 158.184C165.828 157.917 166.188 157.544 166.455 157.064C166.721 156.57 166.855 155.984 166.855 155.304ZM175.669 152.064V157.424C175.669 157.797 175.756 158.07 175.929 158.244C176.116 158.404 176.423 158.484 176.849 158.484H178.149V160.844H176.389C174.029 160.844 172.849 159.697 172.849 157.404V152.064H171.529V149.764H172.849V147.024H175.669V149.764H178.149V152.064H175.669ZM181.583 148.444C181.09 148.444 180.677 148.29 180.343 147.984C180.023 147.664 179.863 147.27 179.863 146.804C179.863 146.337 180.023 145.95 180.343 145.644C180.677 145.324 181.09 145.164 181.583 145.164C182.077 145.164 182.483 145.324 182.803 145.644C183.137 145.95 183.303 146.337 183.303 146.804C183.303 147.27 183.137 147.664 182.803 147.984C182.483 148.29 182.077 148.444 181.583 148.444ZM182.963 149.764V160.844H180.163V149.764H182.963ZM190.65 161.024C189.583 161.024 188.623 160.79 187.77 160.324C186.916 159.844 186.243 159.17 185.75 158.304C185.27 157.437 185.03 156.437 185.03 155.304C185.03 154.17 185.276 153.17 185.77 152.304C186.276 151.437 186.963 150.77 187.83 150.304C188.696 149.824 189.663 149.584 190.73 149.584C191.796 149.584 192.763 149.824 193.63 150.304C194.496 150.77 195.176 151.437 195.67 152.304C196.176 153.17 196.43 154.17 196.43 155.304C196.43 156.437 196.17 157.437 195.65 158.304C195.143 159.17 194.45 159.844 193.57 160.324C192.703 160.79 191.73 161.024 190.65 161.024ZM190.65 158.584C191.156 158.584 191.63 158.464 192.07 158.224C192.523 157.97 192.883 157.597 193.15 157.104C193.416 156.61 193.55 156.01 193.55 155.304C193.55 154.25 193.27 153.444 192.71 152.884C192.163 152.31 191.49 152.024 190.69 152.024C189.89 152.024 189.216 152.31 188.67 152.884C188.136 153.444 187.87 154.25 187.87 155.304C187.87 156.357 188.13 157.17 188.65 157.744C189.183 158.304 189.85 158.584 190.65 158.584ZM204.624 149.604C205.944 149.604 207.01 150.024 207.824 150.864C208.637 151.69 209.044 152.85 209.044 154.344V160.844H206.244V154.724C206.244 153.844 206.024 153.17 205.584 152.704C205.144 152.224 204.544 151.984 203.784 151.984C203.01 151.984 202.397 152.224 201.944 152.704C201.504 153.17 201.284 153.844 201.284 154.724V160.844H198.484V149.764H201.284V151.144C201.657 150.664 202.13 150.29 202.704 150.024C203.29 149.744 203.93 149.604 204.624 149.604ZM91.3378 190.844L88.2578 185.404H86.9378V190.844H84.1378V176.884H89.3778C90.4578 176.884 91.3778 177.077 92.1378 177.464C92.8978 177.837 93.4645 178.35 93.8378 179.004C94.2245 179.644 94.4178 180.364 94.4178 181.164C94.4178 182.084 94.1511 182.917 93.6178 183.664C93.0845 184.397 92.2911 184.904 91.2378 185.184L94.5778 190.844H91.3378ZM86.9378 183.304H89.2778C90.0378 183.304 90.6045 183.124 90.9778 182.764C91.3511 182.39 91.5378 181.877 91.5378 181.224C91.5378 180.584 91.3511 180.09 90.9778 179.744C90.6045 179.384 90.0378 179.204 89.2778 179.204H86.9378V183.304ZM107.25 185.064C107.25 185.464 107.224 185.824 107.17 186.144H99.0703C99.137 186.944 99.417 187.57 99.9103 188.024C100.404 188.477 101.01 188.704 101.73 188.704C102.77 188.704 103.51 188.257 103.95 187.364H106.97C106.65 188.43 106.037 189.31 105.13 190.004C104.224 190.684 103.11 191.024 101.79 191.024C100.724 191.024 99.7636 190.79 98.9103 190.324C98.0703 189.844 97.4103 189.17 96.9303 188.304C96.4636 187.437 96.2303 186.437 96.2303 185.304C96.2303 184.157 96.4636 183.15 96.9303 182.284C97.397 181.417 98.0503 180.75 98.8903 180.284C99.7303 179.817 100.697 179.584 101.79 179.584C102.844 179.584 103.784 179.81 104.61 180.264C105.45 180.717 106.097 181.364 106.55 182.204C107.017 183.03 107.25 183.984 107.25 185.064ZM104.35 184.264C104.337 183.544 104.077 182.97 103.57 182.544C103.064 182.104 102.444 181.884 101.71 181.884C101.017 181.884 100.43 182.097 99.9503 182.524C99.4836 182.937 99.197 183.517 99.0903 184.264H104.35ZM108.574 185.284C108.574 184.177 108.801 183.197 109.254 182.344C109.721 181.477 110.347 180.804 111.134 180.324C111.921 179.844 112.787 179.604 113.734 179.604C114.521 179.604 115.214 179.757 115.814 180.064C116.427 180.357 116.921 180.737 117.294 181.204V179.764H120.114V196.124H117.294V189.324C116.921 189.804 116.421 190.204 115.794 190.524C115.167 190.844 114.461 191.004 113.674 191.004C112.741 191.004 111.881 190.764 111.094 190.284C110.321 189.79 109.707 189.11 109.254 188.244C108.801 187.377 108.574 186.39 108.574 185.284ZM117.294 185.304C117.294 184.624 117.154 184.037 116.874 183.544C116.594 183.05 116.227 182.677 115.774 182.424C115.334 182.17 114.861 182.044 114.354 182.044C113.861 182.044 113.387 182.17 112.934 182.424C112.494 182.677 112.134 183.05 111.854 183.544C111.574 184.024 111.434 184.604 111.434 185.284C111.434 185.964 111.574 186.557 111.854 187.064C112.134 187.557 112.494 187.93 112.934 188.184C113.387 188.437 113.861 188.564 114.354 188.564C114.861 188.564 115.334 188.437 115.774 188.184C116.227 187.93 116.594 187.557 116.874 187.064C117.154 186.57 117.294 185.984 117.294 185.304ZM133.309 179.764V190.844H130.489V189.444C130.129 189.924 129.655 190.304 129.069 190.584C128.495 190.85 127.869 190.984 127.189 190.984C126.322 190.984 125.555 190.804 124.889 190.444C124.222 190.07 123.695 189.53 123.309 188.824C122.935 188.104 122.749 187.25 122.749 186.264V179.764H125.549V185.864C125.549 186.744 125.769 187.424 126.209 187.904C126.649 188.37 127.249 188.604 128.009 188.604C128.782 188.604 129.389 188.37 129.829 187.904C130.269 187.424 130.489 186.744 130.489 185.864V179.764H133.309ZM137.491 178.444C136.998 178.444 136.585 178.29 136.251 177.984C135.931 177.664 135.771 177.27 135.771 176.804C135.771 176.337 135.931 175.95 136.251 175.644C136.585 175.324 136.998 175.164 137.491 175.164C137.985 175.164 138.391 175.324 138.711 175.644C139.045 175.95 139.211 176.337 139.211 176.804C139.211 177.27 139.045 177.664 138.711 177.984C138.391 178.29 137.985 178.444 137.491 178.444ZM138.871 179.764V190.844H136.071V179.764H138.871ZM144.438 181.484C144.798 180.897 145.264 180.437 145.838 180.104C146.424 179.77 147.091 179.604 147.838 179.604V182.544H147.098C146.218 182.544 145.551 182.75 145.098 183.164C144.658 183.577 144.438 184.297 144.438 185.324V190.844H141.638V179.764H144.438V181.484ZM160.024 185.064C160.024 185.464 159.997 185.824 159.944 186.144H151.844C151.91 186.944 152.19 187.57 152.684 188.024C153.177 188.477 153.784 188.704 154.504 188.704C155.544 188.704 156.284 188.257 156.724 187.364H159.744C159.424 188.43 158.81 189.31 157.904 190.004C156.997 190.684 155.884 191.024 154.564 191.024C153.497 191.024 152.537 190.79 151.684 190.324C150.844 189.844 150.184 189.17 149.704 188.304C149.237 187.437 149.004 186.437 149.004 185.304C149.004 184.157 149.237 183.15 149.704 182.284C150.17 181.417 150.824 180.75 151.664 180.284C152.504 179.817 153.47 179.584 154.564 179.584C155.617 179.584 156.557 179.81 157.384 180.264C158.224 180.717 158.87 181.364 159.324 182.204C159.79 183.03 160.024 183.984 160.024 185.064ZM157.124 184.264C157.11 183.544 156.85 182.97 156.344 182.544C155.837 182.104 155.217 181.884 154.484 181.884C153.79 181.884 153.204 182.097 152.724 182.524C152.257 182.937 151.97 183.517 151.864 184.264H157.124ZM161.347 185.264C161.347 184.144 161.567 183.15 162.007 182.284C162.461 181.417 163.074 180.75 163.848 180.284C164.621 179.817 165.481 179.584 166.428 179.584C167.148 179.584 167.834 179.744 168.488 180.064C169.141 180.37 169.661 180.784 170.048 181.304V176.044H172.888V190.844H170.048V189.204C169.701 189.75 169.214 190.19 168.588 190.524C167.961 190.857 167.234 191.024 166.408 191.024C165.474 191.024 164.621 190.784 163.848 190.304C163.074 189.824 162.461 189.15 162.007 188.284C161.567 187.404 161.347 186.397 161.347 185.264ZM170.068 185.304C170.068 184.624 169.934 184.044 169.668 183.564C169.401 183.07 169.041 182.697 168.588 182.444C168.134 182.177 167.648 182.044 167.128 182.044C166.608 182.044 166.128 182.17 165.688 182.424C165.248 182.677 164.888 183.05 164.608 183.544C164.341 184.024 164.208 184.597 164.208 185.264C164.208 185.93 164.341 186.517 164.608 187.024C164.888 187.517 165.248 187.897 165.688 188.164C166.141 188.43 166.621 188.564 167.128 188.564C167.648 188.564 168.134 188.437 168.588 188.184C169.041 187.917 169.401 187.544 169.668 187.064C169.934 186.57 170.068 185.984 170.068 185.304Z" fill="white"/>
<path d="M11.9387 220.783L8.98775 226.425V229.844H7.80475V226.425L4.84075 220.783H6.15375L8.38975 225.372L10.6258 220.783H11.9387ZM16.2935 229.961C15.6262 229.961 15.0195 229.809 14.4735 229.506C13.9362 229.202 13.5115 228.773 13.1995 228.219C12.8962 227.655 12.7445 227.005 12.7445 226.269C12.7445 225.541 12.9005 224.899 13.2125 224.345C13.5332 223.781 13.9665 223.352 14.5125 223.058C15.0585 222.754 15.6695 222.603 16.3455 222.603C17.0215 222.603 17.6325 222.754 18.1785 223.058C18.7245 223.352 19.1535 223.777 19.4655 224.332C19.7862 224.886 19.9465 225.532 19.9465 226.269C19.9465 227.005 19.7819 227.655 19.4525 228.219C19.1319 228.773 18.6942 229.202 18.1395 229.506C17.5849 229.809 16.9695 229.961 16.2935 229.961ZM16.2935 228.921C16.7182 228.921 17.1169 228.821 17.4895 228.622C17.8622 228.422 18.1612 228.123 18.3865 227.725C18.6205 227.326 18.7375 226.841 18.7375 226.269C18.7375 225.697 18.6249 225.211 18.3995 224.813C18.1742 224.414 17.8795 224.119 17.5155 223.929C17.1515 223.729 16.7572 223.63 16.3325 223.63C15.8992 223.63 15.5005 223.729 15.1365 223.929C14.7812 224.119 14.4952 224.414 14.2785 224.813C14.0619 225.211 13.9535 225.697 13.9535 226.269C13.9535 226.849 14.0575 227.339 14.2655 227.738C14.4822 228.136 14.7682 228.435 15.1235 228.635C15.4789 228.825 15.8689 228.921 16.2935 228.921ZM27.82 222.72V229.844H26.637V228.791C26.4116 229.155 26.0953 229.441 25.688 229.649C25.2893 229.848 24.8473 229.948 24.362 229.948C23.8073 229.948 23.309 229.835 22.867 229.61C22.425 229.376 22.074 229.029 21.814 228.57C21.5626 228.11 21.437 227.551 21.437 226.893V222.72H22.607V226.737C22.607 227.439 22.7846 227.98 23.14 228.362C23.4953 228.734 23.9806 228.921 24.596 228.921C25.2286 228.921 25.727 228.726 26.091 228.336C26.455 227.946 26.637 227.378 26.637 226.633V222.72H27.82ZM36.7542 222.59C37.6209 222.59 38.3229 222.854 38.8602 223.383C39.3976 223.903 39.6662 224.657 39.6662 225.645V229.844H38.4962V225.814C38.4962 225.103 38.3186 224.561 37.9632 224.189C37.6079 223.807 37.1226 223.617 36.5072 223.617C35.8832 223.617 35.3849 223.812 35.0122 224.202C34.6482 224.592 34.4662 225.159 34.4662 225.905V229.844H33.2832V222.72H34.4662V223.734C34.7002 223.37 35.0166 223.088 35.4152 222.889C35.8226 222.689 36.2689 222.59 36.7542 222.59ZM48.0987 226.009C48.0987 226.234 48.0857 226.472 48.0597 226.724H42.3657C42.409 227.426 42.6473 227.976 43.0807 228.375C43.5227 228.765 44.0557 228.96 44.6797 228.96C45.191 228.96 45.6157 228.843 45.9537 228.609C46.3003 228.366 46.543 228.045 46.6817 227.647H47.9557C47.765 228.331 47.3837 228.89 46.8117 229.324C46.2397 229.748 45.529 229.961 44.6797 229.961C44.0037 229.961 43.397 229.809 42.8597 229.506C42.331 229.202 41.915 228.773 41.6117 228.219C41.3083 227.655 41.1567 227.005 41.1567 226.269C41.1567 225.532 41.304 224.886 41.5987 224.332C41.8933 223.777 42.305 223.352 42.8337 223.058C43.371 222.754 43.9863 222.603 44.6797 222.603C45.3557 222.603 45.9537 222.75 46.4737 223.045C46.9937 223.339 47.3923 223.747 47.6697 224.267C47.9557 224.778 48.0987 225.359 48.0987 226.009ZM46.8767 225.762C46.8767 225.311 46.777 224.925 46.5777 224.605C46.3783 224.275 46.1053 224.028 45.7587 223.864C45.4207 223.69 45.0437 223.604 44.6277 223.604C44.0297 223.604 43.5183 223.794 43.0937 224.176C42.6777 224.557 42.4393 225.086 42.3787 225.762H46.8767ZM56.1602 226.009C56.1602 226.234 56.1472 226.472 56.1212 226.724H50.4272C50.4705 227.426 50.7088 227.976 51.1422 228.375C51.5842 228.765 52.1172 228.96 52.7412 228.96C53.2525 228.96 53.6772 228.843 54.0152 228.609C54.3618 228.366 54.6045 228.045 54.7432 227.647H56.0172C55.8265 228.331 55.4452 228.89 54.8732 229.324C54.3012 229.748 53.5905 229.961 52.7412 229.961C52.0652 229.961 51.4585 229.809 50.9212 229.506C50.3925 229.202 49.9765 228.773 49.6732 228.219C49.3698 227.655 49.2182 227.005 49.2182 226.269C49.2182 225.532 49.3655 224.886 49.6602 224.332C49.9548 223.777 50.3665 223.352 50.8952 223.058C51.4325 222.754 52.0478 222.603 52.7412 222.603C53.4172 222.603 54.0152 222.75 54.5352 223.045C55.0552 223.339 55.4538 223.747 55.7312 224.267C56.0172 224.778 56.1602 225.359 56.1602 226.009ZM54.9382 225.762C54.9382 225.311 54.8385 224.925 54.6392 224.605C54.4398 224.275 54.1668 224.028 53.8202 223.864C53.4822 223.69 53.1052 223.604 52.6892 223.604C52.0912 223.604 51.5798 223.794 51.1552 224.176C50.7392 224.557 50.5008 225.086 50.4402 225.762H54.9382ZM57.2797 226.256C57.2797 225.528 57.427 224.891 57.7217 224.345C58.0164 223.79 58.4194 223.361 58.9307 223.058C59.4507 222.754 60.0314 222.603 60.6727 222.603C61.2274 222.603 61.743 222.733 62.2197 222.993C62.6964 223.244 63.0604 223.578 63.3117 223.994V220.224H64.5077V229.844H63.3117V228.505C63.0777 228.929 62.731 229.28 62.2717 229.558C61.8124 229.826 61.275 229.961 60.6597 229.961C60.027 229.961 59.4507 229.805 58.9307 229.493C58.4194 229.181 58.0164 228.743 57.7217 228.18C57.427 227.616 57.2797 226.975 57.2797 226.256ZM63.3117 226.269C63.3117 225.731 63.2034 225.263 62.9867 224.865C62.77 224.466 62.4754 224.163 62.1027 223.955C61.7387 223.738 61.3357 223.63 60.8937 223.63C60.4517 223.63 60.0487 223.734 59.6847 223.942C59.3207 224.15 59.0304 224.453 58.8137 224.852C58.597 225.25 58.4887 225.718 58.4887 226.256C58.4887 226.802 58.597 227.278 58.8137 227.686C59.0304 228.084 59.3207 228.392 59.6847 228.609C60.0487 228.817 60.4517 228.921 60.8937 228.921C61.3357 228.921 61.7387 228.817 62.1027 228.609C62.4754 228.392 62.77 228.084 62.9867 227.686C63.2034 227.278 63.3117 226.806 63.3117 226.269ZM71.4157 223.695V227.894C71.4157 228.24 71.4893 228.487 71.6367 228.635C71.784 228.773 72.0397 228.843 72.4037 228.843H73.2747V229.844H72.2087C71.55 229.844 71.056 229.692 70.7267 229.389C70.3973 229.085 70.2327 228.587 70.2327 227.894V223.695H69.3097V222.72H70.2327V220.926H71.4157V222.72H73.2747V223.695H71.4157ZM77.815 229.961C77.1477 229.961 76.541 229.809 75.995 229.506C75.4577 229.202 75.033 228.773 74.721 228.219C74.4177 227.655 74.266 227.005 74.266 226.269C74.266 225.541 74.422 224.899 74.734 224.345C75.0547 223.781 75.488 223.352 76.034 223.058C76.58 222.754 77.191 222.603 77.867 222.603C78.543 222.603 79.154 222.754 79.7 223.058C80.246 223.352 80.675 223.777 80.987 224.332C81.3077 224.886 81.468 225.532 81.468 226.269C81.468 227.005 81.3034 227.655 80.974 228.219C80.6534 228.773 80.2157 229.202 79.661 229.506C79.1064 229.809 78.491 229.961 77.815 229.961ZM77.815 228.921C78.2397 228.921 78.6384 228.821 79.011 228.622C79.3837 228.422 79.6827 228.123 79.908 227.725C80.142 227.326 80.259 226.841 80.259 226.269C80.259 225.697 80.1464 225.211 79.921 224.813C79.6957 224.414 79.401 224.119 79.037 223.929C78.673 223.729 78.2787 223.63 77.854 223.63C77.4207 223.63 77.022 223.729 76.658 223.929C76.3027 224.119 76.0167 224.414 75.8 224.813C75.5834 225.211 75.475 225.697 75.475 226.269C75.475 226.849 75.579 227.339 75.787 227.738C76.0037 228.136 76.2897 228.435 76.645 228.635C77.0004 228.825 77.3904 228.921 77.815 228.921ZM86.0473 226.269C86.0473 225.532 86.1946 224.891 86.4893 224.345C86.7839 223.79 87.1913 223.361 87.7113 223.058C88.2399 222.754 88.8423 222.603 89.5183 222.603C90.3936 222.603 91.1129 222.815 91.6763 223.24C92.2483 223.664 92.6253 224.254 92.8073 225.008H91.5333C91.4119 224.574 91.1736 224.232 90.8183 223.981C90.4716 223.729 90.0383 223.604 89.5183 223.604C88.8423 223.604 88.2963 223.838 87.8803 224.306C87.4643 224.765 87.2563 225.419 87.2563 226.269C87.2563 227.127 87.4643 227.79 87.8803 228.258C88.2963 228.726 88.8423 228.96 89.5183 228.96C90.0383 228.96 90.4716 228.838 90.8183 228.596C91.1649 228.353 91.4033 228.006 91.5333 227.556H92.8073C92.6166 228.284 92.2353 228.869 91.6633 229.311C91.0913 229.744 90.3763 229.961 89.5183 229.961C88.8423 229.961 88.2399 229.809 87.7113 229.506C87.1913 229.202 86.7839 228.773 86.4893 228.219C86.1946 227.664 86.0473 227.014 86.0473 226.269ZM97.4928 229.961C96.8254 229.961 96.2188 229.809 95.6728 229.506C95.1354 229.202 94.7108 228.773 94.3988 228.219C94.0954 227.655 93.9438 227.005 93.9438 226.269C93.9438 225.541 94.0998 224.899 94.4118 224.345C94.7324 223.781 95.1658 223.352 95.7118 223.058C96.2578 222.754 96.8688 222.603 97.5448 222.603C98.2208 222.603 98.8318 222.754 99.3778 223.058C99.9238 223.352 100.353 223.777 100.665 224.332C100.985 224.886 101.146 225.532 101.146 226.269C101.146 227.005 100.981 227.655 100.652 228.219C100.331 228.773 99.8934 229.202 99.3388 229.506C98.7841 229.809 98.1688 229.961 97.4928 229.961ZM97.4928 228.921C97.9174 228.921 98.3161 228.821 98.6888 228.622C99.0614 228.422 99.3604 228.123 99.5858 227.725C99.8198 227.326 99.9368 226.841 99.9368 226.269C99.9368 225.697 99.8241 225.211 99.5988 224.813C99.3734 224.414 99.0788 224.119 98.7148 223.929C98.3508 223.729 97.9564 223.63 97.5318 223.63C97.0984 223.63 96.6998 223.729 96.3358 223.929C95.9804 224.119 95.6944 224.414 95.4778 224.813C95.2611 225.211 95.1528 225.697 95.1528 226.269C95.1528 226.849 95.2568 227.339 95.4648 227.738C95.6814 228.136 95.9674 228.435 96.3228 228.635C96.6781 228.825 97.0681 228.921 97.4928 228.921ZM111.268 222.59C111.823 222.59 112.317 222.707 112.75 222.941C113.184 223.166 113.526 223.508 113.777 223.968C114.029 224.427 114.154 224.986 114.154 225.645V229.844H112.984V225.814C112.984 225.103 112.807 224.561 112.451 224.189C112.105 223.807 111.632 223.617 111.034 223.617C110.419 223.617 109.929 223.816 109.565 224.215C109.201 224.605 109.019 225.172 109.019 225.918V229.844H107.849V225.814C107.849 225.103 107.672 224.561 107.316 224.189C106.97 223.807 106.497 223.617 105.899 223.617C105.284 223.617 104.794 223.816 104.43 224.215C104.066 224.605 103.884 225.172 103.884 225.918V229.844H102.701V222.72H103.884V223.747C104.118 223.374 104.43 223.088 104.82 222.889C105.219 222.689 105.657 222.59 106.133 222.59C106.731 222.59 107.26 222.724 107.719 222.993C108.179 223.261 108.521 223.656 108.746 224.176C108.946 223.673 109.275 223.283 109.734 223.006C110.194 222.728 110.705 222.59 111.268 222.59ZM117.278 224.033C117.512 223.625 117.858 223.287 118.318 223.019C118.786 222.741 119.327 222.603 119.943 222.603C120.575 222.603 121.147 222.754 121.659 223.058C122.179 223.361 122.586 223.79 122.881 224.345C123.175 224.891 123.323 225.528 123.323 226.256C123.323 226.975 123.175 227.616 122.881 228.18C122.586 228.743 122.179 229.181 121.659 229.493C121.147 229.805 120.575 229.961 119.943 229.961C119.336 229.961 118.799 229.826 118.331 229.558C117.871 229.28 117.52 228.938 117.278 228.531V233.224H116.095V222.72H117.278V224.033ZM122.114 226.256C122.114 225.718 122.005 225.25 121.789 224.852C121.572 224.453 121.277 224.15 120.905 223.942C120.541 223.734 120.138 223.63 119.696 223.63C119.262 223.63 118.859 223.738 118.487 223.955C118.123 224.163 117.828 224.47 117.603 224.878C117.386 225.276 117.278 225.74 117.278 226.269C117.278 226.806 117.386 227.278 117.603 227.686C117.828 228.084 118.123 228.392 118.487 228.609C118.859 228.817 119.262 228.921 119.696 228.921C120.138 228.921 120.541 228.817 120.905 228.609C121.277 228.392 121.572 228.084 121.789 227.686C122.005 227.278 122.114 226.802 122.114 226.256ZM126.063 220.224V229.844H124.88V220.224H126.063ZM134.579 226.009C134.579 226.234 134.566 226.472 134.54 226.724H128.846C128.889 227.426 129.128 227.976 129.561 228.375C130.003 228.765 130.536 228.96 131.16 228.96C131.671 228.96 132.096 228.843 132.434 228.609C132.781 228.366 133.023 228.045 133.162 227.647H134.436C134.245 228.331 133.864 228.89 133.292 229.324C132.72 229.748 132.009 229.961 131.16 229.961C130.484 229.961 129.877 229.809 129.34 229.506C128.811 229.202 128.395 228.773 128.092 228.219C127.789 227.655 127.637 227.005 127.637 226.269C127.637 225.532 127.784 224.886 128.079 224.332C128.374 223.777 128.785 223.352 129.314 223.058C129.851 222.754 130.467 222.603 131.16 222.603C131.836 222.603 132.434 222.75 132.954 223.045C133.474 223.339 133.873 223.747 134.15 224.267C134.436 224.778 134.579 225.359 134.579 226.009ZM133.357 225.762C133.357 225.311 133.257 224.925 133.058 224.605C132.859 224.275 132.586 224.028 132.239 223.864C131.901 223.69 131.524 223.604 131.108 223.604C130.51 223.604 129.999 223.794 129.574 224.176C129.158 224.557 128.92 225.086 128.859 225.762H133.357ZM137.584 223.695V227.894C137.584 228.24 137.657 228.487 137.805 228.635C137.952 228.773 138.208 228.843 138.572 228.843H139.443V229.844H138.377C137.718 229.844 137.224 229.692 136.895 229.389C136.565 229.085 136.401 228.587 136.401 227.894V223.695H135.478V222.72H136.401V220.926H137.584V222.72H139.443V223.695H137.584ZM147.376 226.009C147.376 226.234 147.363 226.472 147.337 226.724H141.643C141.686 227.426 141.925 227.976 142.358 228.375C142.8 228.765 143.333 228.96 143.957 228.96C144.468 228.96 144.893 228.843 145.231 228.609C145.578 228.366 145.82 228.045 145.959 227.647H147.233C147.042 228.331 146.661 228.89 146.089 229.324C145.517 229.748 144.806 229.961 143.957 229.961C143.281 229.961 142.674 229.809 142.137 229.506C141.608 229.202 141.192 228.773 140.889 228.219C140.586 227.655 140.434 227.005 140.434 226.269C140.434 225.532 140.581 224.886 140.876 224.332C141.171 223.777 141.582 223.352 142.111 223.058C142.648 222.754 143.264 222.603 143.957 222.603C144.633 222.603 145.231 222.75 145.751 223.045C146.271 223.339 146.67 223.747 146.947 224.267C147.233 224.778 147.376 225.359 147.376 226.009ZM146.154 225.762C146.154 225.311 146.054 224.925 145.855 224.605C145.656 224.275 145.383 224.028 145.036 223.864C144.698 223.69 144.321 223.604 143.905 223.604C143.307 223.604 142.796 223.794 142.371 224.176C141.955 224.557 141.717 225.086 141.656 225.762H146.154ZM157.317 229.844L153.586 225.71V229.844H152.403V220.783H153.586V224.982L157.33 220.783H158.825L154.717 225.32L158.864 229.844H157.317ZM166.53 220.783L163.579 226.425V229.844H162.396V226.425L159.432 220.783H160.745L162.981 225.372L165.217 220.783H166.53ZM167.335 225.307C167.335 224.423 167.535 223.63 167.933 222.928C168.332 222.217 168.874 221.662 169.558 221.264C170.252 220.865 171.019 220.666 171.859 220.666C172.847 220.666 173.71 220.904 174.446 221.381C175.183 221.857 175.72 222.533 176.058 223.409H174.641C174.39 222.863 174.026 222.442 173.549 222.148C173.081 221.853 172.518 221.706 171.859 221.706C171.227 221.706 170.659 221.853 170.156 222.148C169.654 222.442 169.259 222.863 168.973 223.409C168.687 223.946 168.544 224.579 168.544 225.307C168.544 226.026 168.687 226.659 168.973 227.205C169.259 227.742 169.654 228.158 170.156 228.453C170.659 228.747 171.227 228.895 171.859 228.895C172.518 228.895 173.081 228.752 173.549 228.466C174.026 228.171 174.39 227.751 174.641 227.205H176.058C175.72 228.071 175.183 228.743 174.446 229.22C173.71 229.688 172.847 229.922 171.859 229.922C171.019 229.922 170.252 229.727 169.558 229.337C168.874 228.938 168.332 228.388 167.933 227.686C167.535 226.984 167.335 226.191 167.335 225.307ZM183.937 228.752L186.147 222.72H187.408L184.613 229.844H183.235L180.44 222.72H181.714L183.937 228.752ZM195.072 226.009C195.072 226.234 195.059 226.472 195.033 226.724H189.339C189.383 227.426 189.621 227.976 190.054 228.375C190.496 228.765 191.029 228.96 191.653 228.96C192.165 228.96 192.589 228.843 192.927 228.609C193.274 228.366 193.517 228.045 193.655 227.647H194.929C194.739 228.331 194.357 228.89 193.785 229.324C193.213 229.748 192.503 229.961 191.653 229.961C190.977 229.961 190.371 229.809 189.833 229.506C189.305 229.202 188.889 228.773 188.585 228.219C188.282 227.655 188.13 227.005 188.13 226.269C188.13 225.532 188.278 224.886 188.572 224.332C188.867 223.777 189.279 223.352 189.807 223.058C190.345 222.754 190.96 222.603 191.653 222.603C192.329 222.603 192.927 222.75 193.447 223.045C193.967 223.339 194.366 223.747 194.643 224.267C194.929 224.778 195.072 225.359 195.072 226.009ZM193.85 225.762C193.85 225.311 193.751 224.925 193.551 224.605C193.352 224.275 193.079 224.028 192.732 223.864C192.394 223.69 192.017 223.604 191.601 223.604C191.003 223.604 190.492 223.794 190.067 224.176C189.651 224.557 189.413 225.086 189.352 225.762H193.85ZM197.817 223.877C198.025 223.469 198.319 223.153 198.701 222.928C199.091 222.702 199.563 222.59 200.118 222.59V223.812H199.806C198.48 223.812 197.817 224.531 197.817 225.97V229.844H196.634V222.72H197.817V223.877ZM202.094 221.563C201.869 221.563 201.678 221.485 201.522 221.329C201.366 221.173 201.288 220.982 201.288 220.757C201.288 220.531 201.366 220.341 201.522 220.185C201.678 220.029 201.869 219.951 202.094 219.951C202.311 219.951 202.493 220.029 202.64 220.185C202.796 220.341 202.874 220.531 202.874 220.757C202.874 220.982 202.796 221.173 202.64 221.329C202.493 221.485 202.311 221.563 202.094 221.563ZM202.666 222.72V229.844H201.483V222.72H202.666ZM207.582 223.695H206.087V229.844H204.904V223.695H203.981V222.72H204.904V222.213C204.904 221.415 205.107 220.835 205.515 220.471C205.931 220.098 206.594 219.912 207.504 219.912V220.9C206.984 220.9 206.615 221.004 206.399 221.212C206.191 221.411 206.087 221.745 206.087 222.213V222.72H207.582V223.695ZM209.572 221.563C209.347 221.563 209.156 221.485 209 221.329C208.844 221.173 208.766 220.982 208.766 220.757C208.766 220.531 208.844 220.341 209 220.185C209.156 220.029 209.347 219.951 209.572 219.951C209.789 219.951 209.971 220.029 210.118 220.185C210.274 220.341 210.352 220.531 210.352 220.757C210.352 220.982 210.274 221.173 210.118 221.329C209.971 221.485 209.789 221.563 209.572 221.563ZM210.144 222.72V229.844H208.961V222.72H210.144ZM211.718 226.269C211.718 225.532 211.866 224.891 212.16 224.345C212.455 223.79 212.862 223.361 213.382 223.058C213.911 222.754 214.513 222.603 215.189 222.603C216.065 222.603 216.784 222.815 217.347 223.24C217.919 223.664 218.296 224.254 218.478 225.008H217.204C217.083 224.574 216.845 224.232 216.489 223.981C216.143 223.729 215.709 223.604 215.189 223.604C214.513 223.604 213.967 223.838 213.551 224.306C213.135 224.765 212.927 225.419 212.927 226.269C212.927 227.127 213.135 227.79 213.551 228.258C213.967 228.726 214.513 228.96 215.189 228.96C215.709 228.96 216.143 228.838 216.489 228.596C216.836 228.353 217.074 228.006 217.204 227.556H218.478C218.288 228.284 217.906 228.869 217.334 229.311C216.762 229.744 216.047 229.961 215.189 229.961C214.513 229.961 213.911 229.809 213.382 229.506C212.862 229.202 212.455 228.773 212.16 228.219C211.866 227.664 211.718 227.014 211.718 226.269ZM219.615 226.256C219.615 225.528 219.762 224.891 220.057 224.345C220.351 223.79 220.754 223.361 221.266 223.058C221.786 222.754 222.362 222.603 222.995 222.603C223.619 222.603 224.16 222.737 224.62 223.006C225.079 223.274 225.421 223.612 225.647 224.02V222.72H226.843V229.844H225.647V228.518C225.413 228.934 225.062 229.28 224.594 229.558C224.134 229.826 223.597 229.961 222.982 229.961C222.349 229.961 221.777 229.805 221.266 229.493C220.754 229.181 220.351 228.743 220.057 228.18C219.762 227.616 219.615 226.975 219.615 226.256ZM225.647 226.269C225.647 225.731 225.538 225.263 225.322 224.865C225.105 224.466 224.81 224.163 224.438 223.955C224.074 223.738 223.671 223.63 223.229 223.63C222.787 223.63 222.384 223.734 222.02 223.942C221.656 224.15 221.365 224.453 221.149 224.852C220.932 225.25 220.824 225.718 220.824 226.256C220.824 226.802 220.932 227.278 221.149 227.686C221.365 228.084 221.656 228.392 222.02 228.609C222.384 228.817 222.787 228.921 223.229 228.921C223.671 228.921 224.074 228.817 224.438 228.609C224.81 228.392 225.105 228.084 225.322 227.686C225.538 227.278 225.647 226.806 225.647 226.269ZM230.285 223.695V227.894C230.285 228.24 230.358 228.487 230.506 228.635C230.653 228.773 230.909 228.843 231.273 228.843H232.144V229.844H231.078C230.419 229.844 229.925 229.692 229.596 229.389C229.266 229.085 229.102 228.587 229.102 227.894V223.695H228.179V222.72H229.102V220.926H230.285V222.72H232.144V223.695H230.285ZM234.188 221.563C233.963 221.563 233.772 221.485 233.616 221.329C233.46 221.173 233.382 220.982 233.382 220.757C233.382 220.531 233.46 220.341 233.616 220.185C233.772 220.029 233.963 219.951 234.188 219.951C234.405 219.951 234.587 220.029 234.734 220.185C234.89 220.341 234.968 220.531 234.968 220.757C234.968 220.982 234.89 221.173 234.734 221.329C234.587 221.485 234.405 221.563 234.188 221.563ZM234.76 222.72V229.844H233.577V222.72H234.76ZM239.883 229.961C239.216 229.961 238.609 229.809 238.063 229.506C237.526 229.202 237.101 228.773 236.789 228.219C236.486 227.655 236.334 227.005 236.334 226.269C236.334 225.541 236.49 224.899 236.802 224.345C237.123 223.781 237.556 223.352 238.102 223.058C238.648 222.754 239.259 222.603 239.935 222.603C240.611 222.603 241.222 222.754 241.768 223.058C242.314 223.352 242.743 223.777 243.055 224.332C243.376 224.886 243.536 225.532 243.536 226.269C243.536 227.005 243.372 227.655 243.042 228.219C242.722 228.773 242.284 229.202 241.729 229.506C241.175 229.809 240.559 229.961 239.883 229.961ZM239.883 228.921C240.308 228.921 240.707 228.821 241.079 228.622C241.452 228.422 241.751 228.123 241.976 227.725C242.21 227.326 242.327 226.841 242.327 226.269C242.327 225.697 242.215 225.211 241.989 224.813C241.764 224.414 241.469 224.119 241.105 223.929C240.741 223.729 240.347 223.63 239.922 223.63C239.489 223.63 239.09 223.729 238.726 223.929C238.371 224.119 238.085 224.414 237.868 224.813C237.652 225.211 237.543 225.697 237.543 226.269C237.543 226.849 237.647 227.339 237.855 227.738C238.072 228.136 238.358 228.435 238.713 228.635C239.069 228.825 239.459 228.921 239.883 228.921ZM248.563 222.59C249.429 222.59 250.131 222.854 250.669 223.383C251.206 223.903 251.475 224.657 251.475 225.645V229.844H250.305V225.814C250.305 225.103 250.127 224.561 249.772 224.189C249.416 223.807 248.931 223.617 248.316 223.617C247.692 223.617 247.193 223.812 246.821 224.202C246.457 224.592 246.275 225.159 246.275 225.905V229.844H245.092V222.72H246.275V223.734C246.509 223.37 246.825 223.088 247.224 222.889C247.631 222.689 248.077 222.59 248.563 222.59ZM28.4931 244.046C28.7357 243.621 29.0911 243.274 29.5591 243.006C30.0271 242.737 30.5601 242.603 31.1581 242.603C31.7994 242.603 32.3757 242.754 32.8871 243.058C33.3984 243.361 33.8014 243.79 34.0961 244.345C34.3907 244.891 34.5381 245.528 34.5381 246.256C34.5381 246.975 34.3907 247.616 34.0961 248.18C33.8014 248.743 33.3941 249.181 32.8741 249.493C32.3627 249.805 31.7907 249.961 31.1581 249.961C30.5427 249.961 30.0011 249.826 29.5331 249.558C29.0737 249.289 28.7271 248.947 28.4931 248.531V249.844H27.3101V240.224H28.4931V244.046ZM33.3291 246.256C33.3291 245.718 33.2207 245.25 33.0041 244.852C32.7874 244.453 32.4927 244.15 32.1201 243.942C31.7561 243.734 31.3531 243.63 30.9111 243.63C30.4777 243.63 30.0747 243.738 29.7021 243.955C29.3381 244.163 29.0434 244.47 28.8181 244.878C28.6014 245.276 28.4931 245.74 28.4931 246.269C28.4931 246.806 28.6014 247.278 28.8181 247.686C29.0434 248.084 29.3381 248.392 29.7021 248.609C30.0747 248.817 30.4777 248.921 30.9111 248.921C31.3531 248.921 31.7561 248.817 32.1201 248.609C32.4927 248.392 32.7874 248.084 33.0041 247.686C33.2207 247.278 33.3291 246.802 33.3291 246.256ZM42.5952 246.009C42.5952 246.234 42.5822 246.472 42.5562 246.724H36.8622C36.9056 247.426 37.1439 247.976 37.5772 248.375C38.0192 248.765 38.5522 248.96 39.1762 248.96C39.6876 248.96 40.1122 248.843 40.4502 248.609C40.7969 248.366 41.0396 248.045 41.1782 247.647H42.4522C42.2616 248.331 41.8802 248.89 41.3082 249.324C40.7362 249.748 40.0256 249.961 39.1762 249.961C38.5002 249.961 37.8936 249.809 37.3562 249.506C36.8276 249.202 36.4116 248.773 36.1082 248.219C35.8049 247.655 35.6532 247.005 35.6532 246.269C35.6532 245.532 35.8006 244.886 36.0952 244.332C36.3899 243.777 36.8016 243.352 37.3302 243.058C37.8676 242.754 38.4829 242.603 39.1762 242.603C39.8522 242.603 40.4502 242.75 40.9702 243.045C41.4902 243.339 41.8889 243.747 42.1662 244.267C42.4522 244.778 42.5952 245.359 42.5952 246.009ZM41.3732 245.762C41.3732 245.311 41.2736 244.925 41.0742 244.605C40.8749 244.275 40.6019 244.028 40.2552 243.864C39.9172 243.69 39.5402 243.604 39.1242 243.604C38.5262 243.604 38.0149 243.794 37.5902 244.176C37.1742 244.557 36.9359 245.086 36.8752 245.762H41.3732ZM47.0558 243.695H45.5608V249.844H44.3778V243.695H43.4548V242.72H44.3778V242.213C44.3778 241.415 44.5814 240.835 44.9888 240.471C45.4048 240.098 46.0678 239.912 46.9778 239.912V240.9C46.4578 240.9 46.0894 241.004 45.8728 241.212C45.6648 241.411 45.5608 241.745 45.5608 242.213V242.72H47.0558V243.695ZM51.5421 249.961C50.8747 249.961 50.2681 249.809 49.7221 249.506C49.1847 249.202 48.7601 248.773 48.4481 248.219C48.1447 247.655 47.9931 247.005 47.9931 246.269C47.9931 245.541 48.1491 244.899 48.4611 244.345C48.7817 243.781 49.2151 243.352 49.7611 243.058C50.3071 242.754 50.9181 242.603 51.5941 242.603C52.2701 242.603 52.8811 242.754 53.4271 243.058C53.9731 243.352 54.4021 243.777 54.7141 244.332C55.0347 244.886 55.1951 245.532 55.1951 246.269C55.1951 247.005 55.0304 247.655 54.7011 248.219C54.3804 248.773 53.9427 249.202 53.3881 249.506C52.8334 249.809 52.2181 249.961 51.5421 249.961ZM51.5421 248.921C51.9667 248.921 52.3654 248.821 52.7381 248.622C53.1107 248.422 53.4097 248.123 53.6351 247.725C53.8691 247.326 53.9861 246.841 53.9861 246.269C53.9861 245.697 53.8734 245.211 53.6481 244.813C53.4227 244.414 53.1281 244.119 52.7641 243.929C52.4001 243.729 52.0057 243.63 51.5811 243.63C51.1477 243.63 50.7491 243.729 50.3851 243.929C50.0297 244.119 49.7437 244.414 49.5271 244.813C49.3104 245.211 49.2021 245.697 49.2021 246.269C49.2021 246.849 49.3061 247.339 49.5141 247.738C49.7307 248.136 50.0167 248.435 50.3721 248.635C50.7274 248.825 51.1174 248.921 51.5421 248.921ZM57.9335 243.877C58.1415 243.469 58.4362 243.153 58.8175 242.928C59.2075 242.702 59.6798 242.59 60.2345 242.59V243.812H59.9225C58.5965 243.812 57.9335 244.531 57.9335 245.97V249.844H56.7505V242.72H57.9335V243.877ZM68.1001 246.009C68.1001 246.234 68.0871 246.472 68.0611 246.724H62.3671C62.4105 247.426 62.6488 247.976 63.0821 248.375C63.5241 248.765 64.0571 248.96 64.6811 248.96C65.1925 248.96 65.6171 248.843 65.9551 248.609C66.3018 248.366 66.5445 248.045 66.6831 247.647H67.9571C67.7665 248.331 67.3851 248.89 66.8131 249.324C66.2411 249.748 65.5305 249.961 64.6811 249.961C64.0051 249.961 63.3985 249.809 62.8611 249.506C62.3325 249.202 61.9165 248.773 61.6131 248.219C61.3098 247.655 61.1581 247.005 61.1581 246.269C61.1581 245.532 61.3055 244.886 61.6001 244.332C61.8948 243.777 62.3065 243.352 62.8351 243.058C63.3725 242.754 63.9878 242.603 64.6811 242.603C65.3571 242.603 65.9551 242.75 66.4751 243.045C66.9951 243.339 67.3938 243.747 67.6711 244.267C67.9571 244.778 68.1001 245.359 68.1001 246.009ZM66.8781 245.762C66.8781 245.311 66.7785 244.925 66.5791 244.605C66.3798 244.275 66.1068 244.028 65.7601 243.864C65.4221 243.69 65.0451 243.604 64.6291 243.604C64.0311 243.604 63.5198 243.794 63.0951 244.176C62.6791 244.557 62.4408 245.086 62.3801 245.762H66.8781ZM79.2635 242.72L74.9735 253.198H73.7515L75.1555 249.766L72.2825 242.72H73.5955L75.8315 248.492L78.0415 242.72H79.2635ZM83.5597 249.961C82.8923 249.961 82.2857 249.809 81.7397 249.506C81.2023 249.202 80.7777 248.773 80.4657 248.219C80.1623 247.655 80.0107 247.005 80.0107 246.269C80.0107 245.541 80.1667 244.899 80.4787 244.345C80.7993 243.781 81.2327 243.352 81.7787 243.058C82.3247 242.754 82.9357 242.603 83.6117 242.603C84.2877 242.603 84.8987 242.754 85.4447 243.058C85.9907 243.352 86.4197 243.777 86.7317 244.332C87.0523 244.886 87.2127 245.532 87.2127 246.269C87.2127 247.005 87.048 247.655 86.7187 248.219C86.398 248.773 85.9603 249.202 85.4057 249.506C84.851 249.809 84.2357 249.961 83.5597 249.961ZM83.5597 248.921C83.9843 248.921 84.383 248.821 84.7557 248.622C85.1283 248.422 85.4273 248.123 85.6527 247.725C85.8867 247.326 86.0037 246.841 86.0037 246.269C86.0037 245.697 85.891 245.211 85.6657 244.813C85.4403 244.414 85.1457 244.119 84.7817 243.929C84.4177 243.729 84.0233 243.63 83.5987 243.63C83.1653 243.63 82.7667 243.729 82.4027 243.929C82.0473 244.119 81.7613 244.414 81.5447 244.813C81.328 245.211 81.2197 245.697 81.2197 246.269C81.2197 246.849 81.3237 247.339 81.5317 247.738C81.7483 248.136 82.0343 248.435 82.3897 248.635C82.745 248.825 83.135 248.921 83.5597 248.921ZM95.0861 242.72V249.844H93.9031V248.791C93.6778 249.155 93.3614 249.441 92.9541 249.649C92.5554 249.848 92.1134 249.948 91.6281 249.948C91.0734 249.948 90.5751 249.835 90.1331 249.61C89.6911 249.376 89.3401 249.029 89.0801 248.57C88.8288 248.11 88.7031 247.551 88.7031 246.893V242.72H89.8731V246.737C89.8731 247.439 90.0508 247.98 90.4061 248.362C90.7614 248.734 91.2468 248.921 91.8621 248.921C92.4948 248.921 92.9931 248.726 93.3571 248.336C93.7211 247.946 93.9031 247.378 93.9031 246.633V242.72H95.0861ZM100.107 246.269C100.107 245.532 100.255 244.891 100.549 244.345C100.844 243.79 101.251 243.361 101.771 243.058C102.3 242.754 102.902 242.603 103.578 242.603C104.454 242.603 105.173 242.815 105.736 243.24C106.308 243.664 106.685 244.254 106.867 245.008H105.593C105.472 244.574 105.234 244.232 104.878 243.981C104.532 243.729 104.098 243.604 103.578 243.604C102.902 243.604 102.356 243.838 101.94 244.306C101.524 244.765 101.316 245.419 101.316 246.269C101.316 247.127 101.524 247.79 101.94 248.258C102.356 248.726 102.902 248.96 103.578 248.96C104.098 248.96 104.532 248.838 104.878 248.596C105.225 248.353 105.463 248.006 105.593 247.556H106.867C106.677 248.284 106.295 248.869 105.723 249.311C105.151 249.744 104.436 249.961 103.578 249.961C102.902 249.961 102.3 249.809 101.771 249.506C101.251 249.202 100.844 248.773 100.549 248.219C100.255 247.664 100.107 247.014 100.107 246.269ZM108.004 246.256C108.004 245.528 108.151 244.891 108.446 244.345C108.74 243.79 109.143 243.361 109.655 243.058C110.175 242.754 110.751 242.603 111.384 242.603C112.008 242.603 112.549 242.737 113.009 243.006C113.468 243.274 113.81 243.612 114.036 244.02V242.72H115.232V249.844H114.036V248.518C113.802 248.934 113.451 249.28 112.983 249.558C112.523 249.826 111.986 249.961 111.371 249.961C110.738 249.961 110.166 249.805 109.655 249.493C109.143 249.181 108.74 248.743 108.446 248.18C108.151 247.616 108.004 246.975 108.004 246.256ZM114.036 246.269C114.036 245.731 113.927 245.263 113.711 244.865C113.494 244.466 113.199 244.163 112.827 243.955C112.463 243.738 112.06 243.63 111.618 243.63C111.176 243.63 110.773 243.734 110.409 243.942C110.045 244.15 109.754 244.453 109.538 244.852C109.321 245.25 109.213 245.718 109.213 246.256C109.213 246.802 109.321 247.278 109.538 247.686C109.754 248.084 110.045 248.392 110.409 248.609C110.773 248.817 111.176 248.921 111.618 248.921C112.06 248.921 112.463 248.817 112.827 248.609C113.199 248.392 113.494 248.084 113.711 247.686C113.927 247.278 114.036 246.806 114.036 246.269ZM120.702 242.59C121.569 242.59 122.271 242.854 122.808 243.383C123.345 243.903 123.614 244.657 123.614 245.645V249.844H122.444V245.814C122.444 245.103 122.266 244.561 121.911 244.189C121.556 243.807 121.07 243.617 120.455 243.617C119.831 243.617 119.333 243.812 118.96 244.202C118.596 244.592 118.414 245.159 118.414 245.905V249.844H117.231V242.72H118.414V243.734C118.648 243.37 118.964 243.088 119.363 242.889C119.77 242.689 120.217 242.59 120.702 242.59ZM138.502 242.72L136.279 249.844H135.057L133.341 244.189L131.625 249.844H130.403L128.167 242.72H129.376L131.014 248.7L132.782 242.72H133.991L135.72 248.713L137.332 242.72H138.502ZM140.287 241.563C140.062 241.563 139.871 241.485 139.715 241.329C139.559 241.173 139.481 240.982 139.481 240.757C139.481 240.531 139.559 240.341 139.715 240.185C139.871 240.029 140.062 239.951 140.287 239.951C140.504 239.951 140.686 240.029 140.833 240.185C140.989 240.341 141.067 240.531 141.067 240.757C141.067 240.982 140.989 241.173 140.833 241.329C140.686 241.485 140.504 241.563 140.287 241.563ZM140.859 242.72V249.844H139.676V242.72H140.859ZM144.319 243.695V247.894C144.319 248.24 144.392 248.487 144.54 248.635C144.687 248.773 144.943 248.843 145.307 248.843H146.178V249.844H145.112C144.453 249.844 143.959 249.692 143.63 249.389C143.3 249.085 143.136 248.587 143.136 247.894V243.695H142.213V242.72H143.136V240.926H144.319V242.72H146.178V243.695H144.319ZM151.147 242.59C151.684 242.59 152.17 242.707 152.603 242.941C153.036 243.166 153.374 243.508 153.617 243.968C153.868 244.427 153.994 244.986 153.994 245.645V249.844H152.824V245.814C152.824 245.103 152.646 244.561 152.291 244.189C151.936 243.807 151.45 243.617 150.835 243.617C150.211 243.617 149.713 243.812 149.34 244.202C148.976 244.592 148.794 245.159 148.794 245.905V249.844H147.611V240.224H148.794V243.734C149.028 243.37 149.349 243.088 149.756 242.889C150.172 242.689 150.636 242.59 151.147 242.59ZM155.484 246.256C155.484 245.528 155.632 244.891 155.926 244.345C156.221 243.79 156.624 243.361 157.135 243.058C157.655 242.754 158.236 242.603 158.877 242.603C159.432 242.603 159.948 242.733 160.424 242.993C160.901 243.244 161.265 243.578 161.516 243.994V240.224H162.712V249.844H161.516V248.505C161.282 248.929 160.936 249.28 160.476 249.558C160.017 249.826 159.48 249.961 158.864 249.961C158.232 249.961 157.655 249.805 157.135 249.493C156.624 249.181 156.221 248.743 155.926 248.18C155.632 247.616 155.484 246.975 155.484 246.256ZM161.516 246.269C161.516 245.731 161.408 245.263 161.191 244.865C160.975 244.466 160.68 244.163 160.307 243.955C159.943 243.738 159.54 243.63 159.098 243.63C158.656 243.63 158.253 243.734 157.889 243.942C157.525 244.15 157.235 244.453 157.018 244.852C156.802 245.25 156.693 245.718 156.693 246.256C156.693 246.802 156.802 247.278 157.018 247.686C157.235 248.084 157.525 248.392 157.889 248.609C158.253 248.817 158.656 248.921 159.098 248.921C159.54 248.921 159.943 248.817 160.307 248.609C160.68 248.392 160.975 248.084 161.191 247.686C161.408 247.278 161.516 246.806 161.516 246.269ZM165.894 243.877C166.102 243.469 166.397 243.153 166.778 242.928C167.168 242.702 167.641 242.59 168.195 242.59V243.812H167.883C166.557 243.812 165.894 244.531 165.894 245.97V249.844H164.711V242.72H165.894V243.877ZM169.119 246.256C169.119 245.528 169.266 244.891 169.561 244.345C169.856 243.79 170.259 243.361 170.77 243.058C171.29 242.754 171.866 242.603 172.499 242.603C173.123 242.603 173.665 242.737 174.124 243.006C174.583 243.274 174.926 243.612 175.151 244.02V242.72H176.347V249.844H175.151V248.518C174.917 248.934 174.566 249.28 174.098 249.558C173.639 249.826 173.101 249.961 172.486 249.961C171.853 249.961 171.281 249.805 170.77 249.493C170.259 249.181 169.856 248.743 169.561 248.18C169.266 247.616 169.119 246.975 169.119 246.256ZM175.151 246.269C175.151 245.731 175.043 245.263 174.826 244.865C174.609 244.466 174.315 244.163 173.942 243.955C173.578 243.738 173.175 243.63 172.733 243.63C172.291 243.63 171.888 243.734 171.524 243.942C171.16 244.15 170.87 244.453 170.653 244.852C170.436 245.25 170.328 245.718 170.328 246.256C170.328 246.802 170.436 247.278 170.653 247.686C170.87 248.084 171.16 248.392 171.524 248.609C171.888 248.817 172.291 248.921 172.733 248.921C173.175 248.921 173.578 248.817 173.942 248.609C174.315 248.392 174.609 248.084 174.826 247.686C175.043 247.278 175.151 246.806 175.151 246.269ZM187.836 242.72L185.613 249.844H184.391L182.675 244.189L180.959 249.844H179.737L177.501 242.72H178.71L180.348 248.7L182.116 242.72H183.325L185.054 248.713L186.666 242.72H187.836ZM195.375 243.695H193.88V249.844H192.697V243.695H191.774V242.72H192.697V242.213C192.697 241.415 192.901 240.835 193.308 240.471C193.724 240.098 194.387 239.912 195.297 239.912V240.9C194.777 240.9 194.409 241.004 194.192 241.212C193.984 241.411 193.88 241.745 193.88 242.213V242.72H195.375V243.695ZM203.072 242.72V249.844H201.889V248.791C201.664 249.155 201.348 249.441 200.94 249.649C200.542 249.848 200.1 249.948 199.614 249.948C199.06 249.948 198.561 249.835 198.119 249.61C197.677 249.376 197.326 249.029 197.066 248.57C196.815 248.11 196.689 247.551 196.689 246.893V242.72H197.859V246.737C197.859 247.439 198.037 247.98 198.392 248.362C198.748 248.734 199.233 248.921 199.848 248.921C200.481 248.921 200.979 248.726 201.343 248.336C201.707 247.946 201.889 247.378 201.889 246.633V242.72H203.072ZM208.541 242.59C209.408 242.59 210.11 242.854 210.647 243.383C211.184 243.903 211.453 244.657 211.453 245.645V249.844H210.283V245.814C210.283 245.103 210.105 244.561 209.75 244.189C209.395 243.807 208.909 243.617 208.294 243.617C207.67 243.617 207.172 243.812 206.799 244.202C206.435 244.592 206.253 245.159 206.253 245.905V249.844H205.07V242.72H206.253V243.734C206.487 243.37 206.803 243.088 207.202 242.889C207.609 242.689 208.056 242.59 208.541 242.59ZM212.943 246.256C212.943 245.528 213.091 244.891 213.385 244.345C213.68 243.79 214.083 243.361 214.594 243.058C215.114 242.754 215.695 242.603 216.336 242.603C216.891 242.603 217.407 242.733 217.883 242.993C218.36 243.244 218.724 243.578 218.975 243.994V240.224H220.171V249.844H218.975V248.505C218.741 248.929 218.395 249.28 217.935 249.558C217.476 249.826 216.939 249.961 216.323 249.961C215.691 249.961 215.114 249.805 214.594 249.493C214.083 249.181 213.68 248.743 213.385 248.18C213.091 247.616 212.943 246.975 212.943 246.256ZM218.975 246.269C218.975 245.731 218.867 245.263 218.65 244.865C218.434 244.466 218.139 244.163 217.766 243.955C217.402 243.738 216.999 243.63 216.557 243.63C216.115 243.63 215.712 243.734 215.348 243.942C214.984 244.15 214.694 244.453 214.477 244.852C214.261 245.25 214.152 245.718 214.152 246.256C214.152 246.802 214.261 247.278 214.477 247.686C214.694 248.084 214.984 248.392 215.348 248.609C215.712 248.817 216.115 248.921 216.557 248.921C216.999 248.921 217.402 248.817 217.766 248.609C218.139 248.392 218.434 248.084 218.65 247.686C218.867 247.278 218.975 246.806 218.975 246.269ZM224.692 249.961C224.146 249.961 223.657 249.87 223.223 249.688C222.79 249.497 222.448 249.237 222.196 248.908C221.945 248.57 221.806 248.184 221.78 247.751H223.002C223.037 248.106 223.202 248.396 223.496 248.622C223.8 248.847 224.194 248.96 224.679 248.96C225.13 248.96 225.485 248.86 225.745 248.661C226.005 248.461 226.135 248.21 226.135 247.907C226.135 247.595 225.997 247.365 225.719 247.218C225.442 247.062 225.013 246.91 224.432 246.763C223.904 246.624 223.47 246.485 223.132 246.347C222.803 246.199 222.517 245.987 222.274 245.71C222.04 245.424 221.923 245.051 221.923 244.592C221.923 244.228 222.032 243.894 222.248 243.591C222.465 243.287 222.773 243.049 223.171 242.876C223.57 242.694 224.025 242.603 224.536 242.603C225.325 242.603 225.962 242.802 226.447 243.201C226.933 243.599 227.193 244.145 227.227 244.839H226.044C226.018 244.466 225.867 244.167 225.589 243.942C225.321 243.716 224.957 243.604 224.497 243.604C224.073 243.604 223.735 243.695 223.483 243.877C223.232 244.059 223.106 244.297 223.106 244.592C223.106 244.826 223.18 245.021 223.327 245.177C223.483 245.324 223.674 245.445 223.899 245.541C224.133 245.627 224.454 245.727 224.861 245.84C225.373 245.978 225.789 246.117 226.109 246.256C226.43 246.386 226.703 246.585 226.928 246.854C227.162 247.122 227.284 247.473 227.292 247.907C227.292 248.297 227.184 248.648 226.967 248.96C226.751 249.272 226.443 249.519 226.044 249.701C225.654 249.874 225.204 249.961 224.692 249.961ZM229.339 249.922C229.114 249.922 228.923 249.844 228.767 249.688C228.611 249.532 228.533 249.341 228.533 249.116C228.533 248.89 228.611 248.7 228.767 248.544C228.923 248.388 229.114 248.31 229.339 248.31C229.556 248.31 229.738 248.388 229.885 248.544C230.041 248.7 230.119 248.89 230.119 249.116C230.119 249.341 230.041 249.532 229.885 249.688C229.738 249.844 229.556 249.922 229.339 249.922Z" fill="white"/>
<defs>
<linearGradient id="paint0_linear_7255_69909" x1="178.138" y1="35.3729" x2="70.8147" y2="112.282" gradientUnits="userSpaceOnUse">
<stop stop-color="white"/>
<stop offset="1" stop-color="#BBE0FF"/>
</linearGradient>
</defs>
</svg>
