<svg width="373" height="683" viewBox="0 0 373 683" fill="none" xmlns="http://www.w3.org/2000/svg">
<g filter="url(#filter0_i_8481_75658)">
<g clip-path="url(#clip0_8481_75658)">
<rect width="373" height="683" rx="16" fill="#121212"/>
<g clip-path="url(#clip1_8481_75658)">
<rect width="374" height="220" transform="translate(-1)" fill="url(#paint0_linear_8481_75658)"/>
<path d="M135.515 33.45L130.94 51H125.765L122.965 39.45L120.065 51H114.89L110.44 33.45H115.015L117.54 46.225L120.665 33.45H125.365L128.365 46.225L130.915 33.45H135.515ZM150.809 43.8C150.809 44.2 150.784 44.6167 150.734 45.05H141.059C141.126 45.9167 141.401 46.5833 141.884 47.05C142.384 47.5 142.993 47.725 143.709 47.725C144.776 47.725 145.518 47.275 145.934 46.375H150.484C150.251 47.2917 149.826 48.1167 149.209 48.85C148.609 49.5833 147.851 50.1583 146.934 50.575C146.018 50.9917 144.993 51.2 143.859 51.2C142.493 51.2 141.276 50.9083 140.209 50.325C139.143 49.7417 138.309 48.9083 137.709 47.825C137.109 46.7417 136.809 45.475 136.809 44.025C136.809 42.575 137.101 41.3083 137.684 40.225C138.284 39.1417 139.118 38.3083 140.184 37.725C141.251 37.1417 142.476 36.85 143.859 36.85C145.209 36.85 146.409 37.1333 147.459 37.7C148.509 38.2667 149.326 39.075 149.909 40.125C150.509 41.175 150.809 42.4 150.809 43.8ZM146.434 42.675C146.434 41.9417 146.184 41.3583 145.684 40.925C145.184 40.4917 144.559 40.275 143.809 40.275C143.093 40.275 142.484 40.4833 141.984 40.9C141.501 41.3167 141.201 41.9083 141.084 42.675H146.434ZM157.34 32.5V51H153.065V32.5H157.34ZM159.588 44.025C159.588 42.575 159.879 41.3083 160.463 40.225C161.063 39.1417 161.888 38.3083 162.938 37.725C164.004 37.1417 165.221 36.85 166.588 36.85C168.338 36.85 169.796 37.3083 170.963 38.225C172.146 39.1417 172.921 40.4333 173.288 42.1H168.738C168.354 41.0333 167.613 40.5 166.513 40.5C165.729 40.5 165.104 40.8083 164.638 41.425C164.171 42.025 163.938 42.8917 163.938 44.025C163.938 45.1583 164.171 46.0333 164.638 46.65C165.104 47.25 165.729 47.55 166.513 47.55C167.613 47.55 168.354 47.0167 168.738 45.95H173.288C172.921 47.5833 172.146 48.8667 170.963 49.8C169.779 50.7333 168.321 51.2 166.588 51.2C165.221 51.2 164.004 50.9083 162.938 50.325C161.888 49.7417 161.063 48.9083 160.463 47.825C159.879 46.7417 159.588 45.475 159.588 44.025ZM181.924 51.2C180.558 51.2 179.324 50.9083 178.224 50.325C177.141 49.7417 176.283 48.9083 175.649 47.825C175.033 46.7417 174.724 45.475 174.724 44.025C174.724 42.5917 175.041 41.3333 175.674 40.25C176.308 39.15 177.174 38.3083 178.274 37.725C179.374 37.1417 180.608 36.85 181.974 36.85C183.341 36.85 184.574 37.1417 185.674 37.725C186.774 38.3083 187.641 39.15 188.274 40.25C188.908 41.3333 189.224 42.5917 189.224 44.025C189.224 45.4583 188.899 46.725 188.249 47.825C187.616 48.9083 186.741 49.7417 185.624 50.325C184.524 50.9083 183.291 51.2 181.924 51.2ZM181.924 47.5C182.741 47.5 183.433 47.2 183.999 46.6C184.583 46 184.874 45.1417 184.874 44.025C184.874 42.9083 184.591 42.05 184.024 41.45C183.474 40.85 182.791 40.55 181.974 40.55C181.141 40.55 180.449 40.85 179.899 41.45C179.349 42.0333 179.074 42.8917 179.074 44.025C179.074 45.1417 179.341 46 179.874 46.6C180.424 47.2 181.108 47.5 181.924 47.5ZM209.292 36.9C211.026 36.9 212.401 37.425 213.417 38.475C214.451 39.525 214.967 40.9833 214.967 42.85V51H210.717V43.425C210.717 42.525 210.476 41.8333 209.992 41.35C209.526 40.85 208.876 40.6 208.042 40.6C207.209 40.6 206.551 40.85 206.067 41.35C205.601 41.8333 205.367 42.525 205.367 43.425V51H201.117V43.425C201.117 42.525 200.876 41.8333 200.392 41.35C199.926 40.85 199.276 40.6 198.442 40.6C197.609 40.6 196.951 40.85 196.467 41.35C196.001 41.8333 195.767 42.525 195.767 43.425V51H191.492V37.05H195.767V38.8C196.201 38.2167 196.767 37.7583 197.467 37.425C198.167 37.075 198.959 36.9 199.842 36.9C200.892 36.9 201.826 37.125 202.642 37.575C203.476 38.025 204.126 38.6667 204.592 39.5C205.076 38.7333 205.734 38.1083 206.567 37.625C207.401 37.1417 208.309 36.9 209.292 36.9ZM231.107 43.8C231.107 44.2 231.082 44.6167 231.032 45.05H221.357C221.424 45.9167 221.699 46.5833 222.182 47.05C222.682 47.5 223.291 47.725 224.007 47.725C225.074 47.725 225.816 47.275 226.232 46.375H230.782C230.549 47.2917 230.124 48.1167 229.507 48.85C228.907 49.5833 228.149 50.1583 227.232 50.575C226.316 50.9917 225.291 51.2 224.157 51.2C222.791 51.2 221.574 50.9083 220.507 50.325C219.441 49.7417 218.607 48.9083 218.007 47.825C217.407 46.7417 217.107 45.475 217.107 44.025C217.107 42.575 217.399 41.3083 217.982 40.225C218.582 39.1417 219.416 38.3083 220.482 37.725C221.549 37.1417 222.774 36.85 224.157 36.85C225.507 36.85 226.707 37.1333 227.757 37.7C228.807 38.2667 229.624 39.075 230.207 40.125C230.807 41.175 231.107 42.4 231.107 43.8ZM226.732 42.675C226.732 41.9417 226.482 41.3583 225.982 40.925C225.482 40.4917 224.857 40.275 224.107 40.275C223.391 40.275 222.782 40.4833 222.282 40.9C221.799 41.3167 221.499 41.9083 221.382 42.675H226.732ZM246.435 47.375V51H244.26C242.71 51 241.502 50.625 240.635 49.875C239.769 49.1083 239.335 47.8667 239.335 46.15V40.6H237.635V37.05H239.335V33.65H243.61V37.05H246.41V40.6H243.61V46.2C243.61 46.6167 243.71 46.9167 243.91 47.1C244.11 47.2833 244.444 47.375 244.91 47.375H246.435ZM255.167 51.2C253.8 51.2 252.567 50.9083 251.467 50.325C250.383 49.7417 249.525 48.9083 248.892 47.825C248.275 46.7417 247.967 45.475 247.967 44.025C247.967 42.5917 248.283 41.3333 248.917 40.25C249.55 39.15 250.417 38.3083 251.517 37.725C252.617 37.1417 253.85 36.85 255.217 36.85C256.583 36.85 257.817 37.1417 258.917 37.725C260.017 38.3083 260.883 39.15 261.517 40.25C262.15 41.3333 262.467 42.5917 262.467 44.025C262.467 45.4583 262.142 46.725 261.492 47.825C260.858 48.9083 259.983 49.7417 258.867 50.325C257.767 50.9083 256.533 51.2 255.167 51.2ZM255.167 47.5C255.983 47.5 256.675 47.2 257.242 46.6C257.825 46 258.117 45.1417 258.117 44.025C258.117 42.9083 257.833 42.05 257.267 41.45C256.717 40.85 256.033 40.55 255.217 40.55C254.383 40.55 253.692 40.85 253.142 41.45C252.592 42.0333 252.317 42.8917 252.317 44.025C252.317 45.1417 252.583 46 253.117 46.6C253.667 47.2 254.35 47.5 255.167 47.5ZM44.2464 80.2C44.2464 78.4667 44.6214 76.925 45.3714 75.575C46.1214 74.2083 47.1631 73.15 48.4964 72.4C49.8464 71.6333 51.3714 71.25 53.0714 71.25C55.1547 71.25 56.9381 71.8 58.4214 72.9C59.9047 74 60.8964 75.5 61.3964 77.4H56.6964C56.3464 76.6667 55.8464 76.1083 55.1964 75.725C54.5631 75.3417 53.8381 75.15 53.0214 75.15C51.7047 75.15 50.6381 75.6083 49.8214 76.525C49.0047 77.4417 48.5964 78.6667 48.5964 80.2C48.5964 81.7333 49.0047 82.9583 49.8214 83.875C50.6381 84.7917 51.7047 85.25 53.0214 85.25C53.8381 85.25 54.5631 85.0583 55.1964 84.675C55.8464 84.2917 56.3464 83.7333 56.6964 83H61.3964C60.8964 84.9 59.9047 86.4 58.4214 87.5C56.9381 88.5833 55.1547 89.125 53.0714 89.125C51.3714 89.125 49.8464 88.75 48.4964 88C47.1631 87.2333 46.1214 86.175 45.3714 84.825C44.6214 83.475 44.2464 81.9333 44.2464 80.2ZM68.2894 70.5V89H64.0144V70.5H68.2894ZM70.5374 82C70.5374 80.5667 70.8041 79.3083 71.3374 78.225C71.8874 77.1417 72.6291 76.3083 73.5624 75.725C74.4957 75.1417 75.5374 74.85 76.6874 74.85C77.6707 74.85 78.5291 75.05 79.2624 75.45C80.0124 75.85 80.5874 76.375 80.9874 77.025V75.05H85.2624V89H80.9874V87.025C80.5707 87.675 79.9874 88.2 79.2374 88.6C78.5041 89 77.6457 89.2 76.6624 89.2C75.5291 89.2 74.4957 88.9083 73.5624 88.325C72.6291 87.725 71.8874 86.8833 71.3374 85.8C70.8041 84.7 70.5374 83.4333 70.5374 82ZM80.9874 82.025C80.9874 80.9583 80.6874 80.1167 80.0874 79.5C79.5041 78.8833 78.7874 78.575 77.9374 78.575C77.0874 78.575 76.3624 78.8833 75.7624 79.5C75.1791 80.1 74.8874 80.9333 74.8874 82C74.8874 83.0667 75.1791 83.9167 75.7624 84.55C76.3624 85.1667 77.0874 85.475 77.9374 85.475C78.7874 85.475 79.5041 85.1667 80.0874 84.55C80.6874 83.9333 80.9874 83.0917 80.9874 82.025ZM92.6302 77.025C93.0468 76.375 93.6218 75.85 94.3552 75.45C95.0885 75.05 95.9468 74.85 96.9302 74.85C98.0802 74.85 99.1218 75.1417 100.055 75.725C100.989 76.3083 101.722 77.1417 102.255 78.225C102.805 79.3083 103.08 80.5667 103.08 82C103.08 83.4333 102.805 84.7 102.255 85.8C101.722 86.8833 100.989 87.725 100.055 88.325C99.1218 88.9083 98.0802 89.2 96.9302 89.2C95.9635 89.2 95.1052 89 94.3552 88.6C93.6218 88.2 93.0468 87.6833 92.6302 87.05V95.65H88.3552V75.05H92.6302V77.025ZM98.7302 82C98.7302 80.9333 98.4302 80.1 97.8302 79.5C97.2468 78.8833 96.5218 78.575 95.6552 78.575C94.8052 78.575 94.0802 78.8833 93.4802 79.5C92.8968 80.1167 92.6052 80.9583 92.6052 82.025C92.6052 83.0917 92.8968 83.9333 93.4802 84.55C94.0802 85.1667 94.8052 85.475 95.6552 85.475C96.5052 85.475 97.2302 85.1667 97.8302 84.55C98.4302 83.9167 98.7302 83.0667 98.7302 82ZM123.123 74.9C124.856 74.9 126.231 75.425 127.248 76.475C128.281 77.525 128.798 78.9833 128.798 80.85V89H124.548V81.425C124.548 80.525 124.306 79.8333 123.823 79.35C123.356 78.85 122.706 78.6 121.873 78.6C121.04 78.6 120.381 78.85 119.898 79.35C119.431 79.8333 119.198 80.525 119.198 81.425V89H114.948V81.425C114.948 80.525 114.706 79.8333 114.223 79.35C113.756 78.85 113.106 78.6 112.273 78.6C111.44 78.6 110.781 78.85 110.298 79.35C109.831 79.8333 109.598 80.525 109.598 81.425V89H105.323V75.05H109.598V76.8C110.031 76.2167 110.598 75.7583 111.298 75.425C111.998 75.075 112.79 74.9 113.673 74.9C114.723 74.9 115.656 75.125 116.473 75.575C117.306 76.025 117.956 76.6667 118.423 77.5C118.906 76.7333 119.565 76.1083 120.398 75.625C121.231 75.1417 122.14 74.9 123.123 74.9ZM133.938 73.6C133.188 73.6 132.571 73.3833 132.088 72.95C131.621 72.5 131.388 71.95 131.388 71.3C131.388 70.6333 131.621 70.0833 132.088 69.65C132.571 69.2 133.188 68.975 133.938 68.975C134.671 68.975 135.271 69.2 135.738 69.65C136.221 70.0833 136.463 70.6333 136.463 71.3C136.463 71.95 136.221 72.5 135.738 72.95C135.271 73.3833 134.671 73.6 133.938 73.6ZM136.063 75.05V89H131.788V75.05H136.063ZM140.136 71.45H144.511L141.711 78.15H138.836L140.136 71.45ZM152.697 89.2C151.481 89.2 150.397 88.9917 149.447 88.575C148.497 88.1583 147.747 87.5917 147.197 86.875C146.647 86.1417 146.339 85.325 146.272 84.425H150.497C150.547 84.9083 150.772 85.3 151.172 85.6C151.572 85.9 152.064 86.05 152.647 86.05C153.181 86.05 153.589 85.95 153.872 85.75C154.172 85.5333 154.322 85.2583 154.322 84.925C154.322 84.525 154.114 84.2333 153.697 84.05C153.281 83.85 152.606 83.6333 151.672 83.4C150.672 83.1667 149.839 82.925 149.172 82.675C148.506 82.4083 147.931 82 147.447 81.45C146.964 80.8833 146.722 80.125 146.722 79.175C146.722 78.375 146.939 77.65 147.372 77C147.822 76.3333 148.472 75.8083 149.322 75.425C150.189 75.0417 151.214 74.85 152.397 74.85C154.147 74.85 155.522 75.2833 156.522 76.15C157.539 77.0167 158.122 78.1667 158.272 79.6H154.322C154.256 79.1167 154.039 78.7333 153.672 78.45C153.322 78.1667 152.856 78.025 152.272 78.025C151.772 78.025 151.389 78.125 151.122 78.325C150.856 78.5083 150.722 78.7667 150.722 79.1C150.722 79.5 150.931 79.8 151.347 80C151.781 80.2 152.447 80.4 153.347 80.6C154.381 80.8667 155.222 81.1333 155.872 81.4C156.522 81.65 157.089 82.0667 157.572 82.65C158.072 83.2167 158.331 83.9833 158.347 84.95C158.347 85.7667 158.114 86.5 157.647 87.15C157.197 87.7833 156.539 88.2833 155.672 88.65C154.822 89.0167 153.831 89.2 152.697 89.2ZM170.535 85.7H176.135V89H166.26V71.45H170.535V85.7ZM191.325 81.8C191.325 82.2 191.3 82.6167 191.25 83.05H181.575C181.641 83.9167 181.916 84.5833 182.4 85.05C182.9 85.5 183.508 85.725 184.225 85.725C185.291 85.725 186.033 85.275 186.45 84.375H191C190.766 85.2917 190.341 86.1167 189.725 86.85C189.125 87.5833 188.366 88.1583 187.45 88.575C186.533 88.9917 185.508 89.2 184.375 89.2C183.008 89.2 181.791 88.9083 180.725 88.325C179.658 87.7417 178.825 86.9083 178.225 85.825C177.625 84.7417 177.325 83.475 177.325 82.025C177.325 80.575 177.616 79.3083 178.2 78.225C178.8 77.1417 179.633 76.3083 180.7 75.725C181.766 75.1417 182.991 74.85 184.375 74.85C185.725 74.85 186.925 75.1333 187.975 75.7C189.025 76.2667 189.841 77.075 190.425 78.125C191.025 79.175 191.325 80.4 191.325 81.8ZM186.95 80.675C186.95 79.9417 186.7 79.3583 186.2 78.925C185.7 78.4917 185.075 78.275 184.325 78.275C183.608 78.275 183 78.4833 182.5 78.9C182.016 79.3167 181.716 79.9083 181.6 80.675H186.95ZM192.73 82C192.73 80.5667 192.996 79.3083 193.53 78.225C194.08 77.1417 194.821 76.3083 195.755 75.725C196.688 75.1417 197.73 74.85 198.88 74.85C199.863 74.85 200.721 75.05 201.455 75.45C202.205 75.85 202.78 76.375 203.18 77.025V75.05H207.455V89H203.18V87.025C202.763 87.675 202.18 88.2 201.43 88.6C200.696 89 199.838 89.2 198.855 89.2C197.721 89.2 196.688 88.9083 195.755 88.325C194.821 87.725 194.08 86.8833 193.53 85.8C192.996 84.7 192.73 83.4333 192.73 82ZM203.18 82.025C203.18 80.9583 202.88 80.1167 202.28 79.5C201.696 78.8833 200.98 78.575 200.13 78.575C199.28 78.575 198.555 78.8833 197.955 79.5C197.371 80.1 197.08 80.9333 197.08 82C197.08 83.0667 197.371 83.9167 197.955 84.55C198.555 85.1667 199.28 85.475 200.13 85.475C200.98 85.475 201.696 85.1667 202.28 84.55C202.88 83.9333 203.18 83.0917 203.18 82.025ZM209.698 82C209.698 80.5667 209.964 79.3083 210.498 78.225C211.048 77.1417 211.789 76.3083 212.723 75.725C213.656 75.1417 214.698 74.85 215.848 74.85C216.764 74.85 217.598 75.0417 218.348 75.425C219.114 75.8083 219.714 76.325 220.148 76.975V70.5H224.423V89H220.148V87C219.748 87.6667 219.173 88.2 218.423 88.6C217.689 89 216.831 89.2 215.848 89.2C214.698 89.2 213.656 88.9083 212.723 88.325C211.789 87.725 211.048 86.8833 210.498 85.8C209.964 84.7 209.698 83.4333 209.698 82ZM220.148 82.025C220.148 80.9583 219.848 80.1167 219.248 79.5C218.664 78.8833 217.948 78.575 217.098 78.575C216.248 78.575 215.523 78.8833 214.923 79.5C214.339 80.1 214.048 80.9333 214.048 82C214.048 83.0667 214.339 83.9167 214.923 84.55C215.523 85.1667 216.248 85.475 217.098 85.475C217.948 85.475 218.664 85.1667 219.248 84.55C219.848 83.9333 220.148 83.0917 220.148 82.025ZM240.665 81.8C240.665 82.2 240.64 82.6167 240.59 83.05H230.915C230.982 83.9167 231.257 84.5833 231.74 85.05C232.24 85.5 232.849 85.725 233.565 85.725C234.632 85.725 235.374 85.275 235.79 84.375H240.34C240.107 85.2917 239.682 86.1167 239.065 86.85C238.465 87.5833 237.707 88.1583 236.79 88.575C235.874 88.9917 234.849 89.2 233.715 89.2C232.349 89.2 231.132 88.9083 230.065 88.325C228.999 87.7417 228.165 86.9083 227.565 85.825C226.965 84.7417 226.665 83.475 226.665 82.025C226.665 80.575 226.957 79.3083 227.54 78.225C228.14 77.1417 228.974 76.3083 230.04 75.725C231.107 75.1417 232.332 74.85 233.715 74.85C235.065 74.85 236.265 75.1333 237.315 75.7C238.365 76.2667 239.182 77.075 239.765 78.125C240.365 79.175 240.665 80.4 240.665 81.8ZM236.29 80.675C236.29 79.9417 236.04 79.3583 235.54 78.925C235.04 78.4917 234.415 78.275 233.665 78.275C232.949 78.275 232.34 78.4833 231.84 78.9C231.357 79.3167 231.057 79.9083 230.94 80.675H236.29ZM247.196 77.375C247.696 76.6083 248.321 76.0083 249.071 75.575C249.821 75.125 250.654 74.9 251.571 74.9V79.425H250.396C249.329 79.425 248.529 79.6583 247.996 80.125C247.462 80.575 247.196 81.375 247.196 82.525V89H242.921V75.05H247.196V77.375ZM257.889 77.025C258.289 76.375 258.864 75.85 259.614 75.45C260.364 75.05 261.222 74.85 262.189 74.85C263.339 74.85 264.381 75.1417 265.314 75.725C266.247 76.3083 266.981 77.1417 267.514 78.225C268.064 79.3083 268.339 80.5667 268.339 82C268.339 83.4333 268.064 84.7 267.514 85.8C266.981 86.8833 266.247 87.725 265.314 88.325C264.381 88.9083 263.339 89.2 262.189 89.2C261.206 89.2 260.347 89.0083 259.614 88.625C258.881 88.225 258.306 87.7 257.889 87.05V89H253.614V70.5H257.889V77.025ZM263.989 82C263.989 80.9333 263.689 80.1 263.089 79.5C262.506 78.8833 261.781 78.575 260.914 78.575C260.064 78.575 259.339 78.8833 258.739 79.5C258.156 80.1167 257.864 80.9583 257.864 82.025C257.864 83.0917 258.156 83.9333 258.739 84.55C259.339 85.1667 260.064 85.475 260.914 85.475C261.764 85.475 262.489 85.1667 263.089 84.55C263.689 83.9167 263.989 83.0667 263.989 82ZM276.932 89.2C275.565 89.2 274.332 88.9083 273.232 88.325C272.148 87.7417 271.29 86.9083 270.657 85.825C270.04 84.7417 269.732 83.475 269.732 82.025C269.732 80.5917 270.048 79.3333 270.682 78.25C271.315 77.15 272.182 76.3083 273.282 75.725C274.382 75.1417 275.615 74.85 276.982 74.85C278.348 74.85 279.582 75.1417 280.682 75.725C281.782 76.3083 282.648 77.15 283.282 78.25C283.915 79.3333 284.232 80.5917 284.232 82.025C284.232 83.4583 283.907 84.725 283.257 85.825C282.623 86.9083 281.748 87.7417 280.632 88.325C279.532 88.9083 278.298 89.2 276.932 89.2ZM276.932 85.5C277.748 85.5 278.44 85.2 279.007 84.6C279.59 84 279.882 83.1417 279.882 82.025C279.882 80.9083 279.598 80.05 279.032 79.45C278.482 78.85 277.798 78.55 276.982 78.55C276.148 78.55 275.457 78.85 274.907 79.45C274.357 80.0333 274.082 80.8917 274.082 82.025C274.082 83.1417 274.348 84 274.882 84.6C275.432 85.2 276.115 85.5 276.932 85.5ZM285.65 82C285.65 80.5667 285.916 79.3083 286.45 78.225C287 77.1417 287.741 76.3083 288.675 75.725C289.608 75.1417 290.65 74.85 291.8 74.85C292.783 74.85 293.641 75.05 294.375 75.45C295.125 75.85 295.7 76.375 296.1 77.025V75.05H300.375V89H296.1V87.025C295.683 87.675 295.1 88.2 294.35 88.6C293.616 89 292.758 89.2 291.775 89.2C290.641 89.2 289.608 88.9083 288.675 88.325C287.741 87.725 287 86.8833 286.45 85.8C285.916 84.7 285.65 83.4333 285.65 82ZM296.1 82.025C296.1 80.9583 295.8 80.1167 295.2 79.5C294.616 78.8833 293.9 78.575 293.05 78.575C292.2 78.575 291.475 78.8833 290.875 79.5C290.291 80.1 290 80.9333 290 82C290 83.0667 290.291 83.9167 290.875 84.55C291.475 85.1667 292.2 85.475 293.05 85.475C293.9 85.475 294.616 85.1667 295.2 84.55C295.8 83.9333 296.1 83.0917 296.1 82.025ZM307.742 77.375C308.242 76.6083 308.867 76.0083 309.617 75.575C310.367 75.125 311.201 74.9 312.117 74.9V79.425H310.942C309.876 79.425 309.076 79.6583 308.542 80.125C308.009 80.575 307.742 81.375 307.742 82.525V89H303.467V75.05H307.742V77.375ZM313.311 82C313.311 80.5667 313.578 79.3083 314.111 78.225C314.661 77.1417 315.403 76.3083 316.336 75.725C317.269 75.1417 318.311 74.85 319.461 74.85C320.378 74.85 321.211 75.0417 321.961 75.425C322.728 75.8083 323.328 76.325 323.761 76.975V70.5H328.036V89H323.761V87C323.361 87.6667 322.786 88.2 322.036 88.6C321.303 89 320.444 89.2 319.461 89.2C318.311 89.2 317.269 88.9083 316.336 88.325C315.403 87.725 314.661 86.8833 314.111 85.8C313.578 84.7 313.311 83.4333 313.311 82ZM323.761 82.025C323.761 80.9583 323.461 80.1167 322.861 79.5C322.278 78.8833 321.561 78.575 320.711 78.575C319.861 78.575 319.136 78.8833 318.536 79.5C317.953 80.1 317.661 80.9333 317.661 82C317.661 83.0667 317.953 83.9167 318.536 84.55C319.136 85.1667 319.861 85.475 320.711 85.475C321.561 85.475 322.278 85.1667 322.861 84.55C323.461 83.9333 323.761 83.0917 323.761 82.025Z" fill="white"/>
<g filter="url(#filter1_n_8481_75658)">
<path d="M140.747 146.422L184.979 162.167V327.353L140.748 337.769L140.747 146.422Z" fill="url(#paint1_linear_8481_75658)" style="mix-blend-mode:overlay"/>
</g>
<g filter="url(#filter2_n_8481_75658)">
<path d="M229.209 146.422L184.978 162.167V328.955L229.208 338.57L229.209 146.422Z" fill="url(#paint2_linear_8481_75658)"/>
</g>
<g filter="url(#filter3_n_8481_75658)">
<path d="M184.978 130.032L229.205 146.445L185.016 162.236L140.751 146.445L184.978 130.032Z" fill="url(#paint3_linear_8481_75658)"/>
</g>
<g filter="url(#filter4_d_8481_75658)">
<g filter="url(#filter5_n_8481_75658)">
<path d="M89.3926 187.914L133.624 203.66V341.233L89.3932 359.293L89.3926 187.914Z" fill="url(#paint4_linear_8481_75658)" style="mix-blend-mode:overlay"/>
</g>
<g filter="url(#filter6_n_8481_75658)">
<path d="M177.854 187.914L133.623 203.66V341.233L177.854 359.293L177.854 187.914Z" fill="url(#paint5_linear_8481_75658)"/>
</g>
<g filter="url(#filter7_n_8481_75658)">
<path d="M133.624 171.524L177.851 187.937L133.661 203.728L89.3961 187.937L133.624 171.524Z" fill="url(#paint6_linear_8481_75658)"/>
</g>
</g>
<g filter="url(#filter8_d_8481_75658)">
<g filter="url(#filter9_n_8481_75658)">
<path d="M193.229 211.617L237.46 227.363V364.936L193.229 382.996L193.229 211.617Z" fill="url(#paint7_linear_8481_75658)" style="mix-blend-mode:overlay"/>
</g>
<g filter="url(#filter10_n_8481_75658)">
<path d="M281.691 211.617L237.459 227.363V364.936L281.69 382.996L281.691 211.617Z" fill="url(#paint8_linear_8481_75658)"/>
</g>
<g filter="url(#filter11_n_8481_75658)">
<path d="M237.466 195.227L281.693 211.64L237.504 227.431L193.238 211.64L237.466 195.227Z" fill="url(#paint9_linear_8481_75658)"/>
</g>
</g>
<g clip-path="url(#clip2_8481_75658)">
<g filter="url(#filter12_i_8481_75658)">
<path d="M234.59 170.32C236.365 169.295 238.551 169.295 240.326 170.32L252.863 177.558C254.638 178.583 255.731 180.476 255.731 182.526V197.002C255.731 199.051 254.638 200.945 252.863 201.97L240.326 209.208C238.551 210.232 236.365 210.232 234.59 209.208L222.053 201.97C220.279 200.945 219.185 199.051 219.185 197.002V182.526C219.185 180.476 220.279 178.583 222.053 177.558L234.59 170.32Z" fill="url(#paint10_linear_8481_75658)"/>
</g>
<path d="M235.308 171.562C236.639 170.793 238.278 170.793 239.609 171.562L252.146 178.8C253.477 179.568 254.297 180.989 254.297 182.525V197.002C254.297 198.539 253.477 199.959 252.146 200.728L239.609 207.966C238.278 208.734 236.639 208.734 235.308 207.966L222.771 200.728C221.439 199.959 220.619 198.539 220.619 197.002V182.525C220.619 180.989 221.44 179.568 222.771 178.8L235.308 171.562Z" stroke="url(#paint11_linear_8481_75658)" stroke-width="2.86801"/>
<g filter="url(#filter13_d_8481_75658)">
<path d="M231.451 187.958C231.562 187.203 231.773 186.545 232.085 185.983C232.404 185.422 232.796 184.954 233.26 184.58C233.731 184.205 234.268 183.928 234.871 183.748C235.474 183.561 236.122 183.467 236.816 183.467C237.564 183.467 238.23 183.575 238.812 183.789C239.394 183.997 239.886 184.282 240.288 184.642C240.69 185.002 240.995 185.422 241.203 185.9C241.411 186.371 241.515 186.87 241.515 187.397C241.515 187.875 241.466 188.298 241.369 188.665C241.272 189.026 241.127 189.341 240.933 189.612C240.745 189.875 240.51 190.1 240.226 190.287C239.948 190.467 239.63 190.62 239.269 190.745C240.946 191.334 241.785 192.477 241.785 194.176C241.785 194.98 241.64 195.68 241.348 196.276C241.057 196.872 240.666 197.367 240.174 197.762C239.689 198.157 239.124 198.455 238.479 198.656C237.834 198.851 237.162 198.948 236.462 198.948C235.741 198.948 235.1 198.871 234.539 198.719C233.977 198.559 233.478 198.317 233.042 197.991C232.605 197.658 232.22 197.236 231.888 196.723C231.562 196.21 231.278 195.6 231.035 194.893L232.47 194.311C232.844 194.165 233.191 194.127 233.51 194.196C233.828 194.266 234.057 194.425 234.196 194.675C234.508 195.25 234.837 195.669 235.183 195.933C235.537 196.189 235.949 196.317 236.421 196.317C236.781 196.317 237.093 196.258 237.356 196.141C237.627 196.016 237.848 195.86 238.022 195.673C238.202 195.479 238.337 195.26 238.427 195.018C238.517 194.775 238.562 194.529 238.562 194.28C238.562 193.954 238.538 193.663 238.489 193.406C238.448 193.143 238.323 192.918 238.115 192.73C237.907 192.543 237.592 192.401 237.169 192.304C236.753 192.2 236.171 192.148 235.422 192.148V189.923C236.053 189.923 236.563 189.875 236.951 189.778C237.339 189.681 237.637 189.549 237.845 189.383C238.06 189.21 238.202 189.002 238.271 188.759C238.34 188.516 238.375 188.25 238.375 187.958C238.375 187.362 238.23 186.905 237.938 186.586C237.654 186.26 237.218 186.097 236.628 186.097C236.15 186.097 235.745 186.226 235.412 186.482C235.086 186.732 234.861 187.044 234.736 187.418C234.591 187.799 234.4 188.052 234.164 188.177C233.929 188.302 233.593 188.329 233.156 188.26L231.451 187.958Z" fill="#F5AF90"/>
</g>
</g>
<g clip-path="url(#clip3_8481_75658)">
<g filter="url(#filter14_i_8481_75658)">
<path d="M130.76 146.453C132.534 145.428 134.721 145.428 136.496 146.453L149.033 153.691C150.807 154.716 151.901 156.609 151.901 158.658V173.135C151.901 175.184 150.807 177.078 149.033 178.102L136.496 185.341C134.721 186.365 132.534 186.365 130.76 185.341L118.223 178.102C116.448 177.078 115.355 175.184 115.355 173.135V158.658C115.355 156.609 116.448 154.716 118.223 153.691L130.76 146.453Z" fill="url(#paint12_linear_8481_75658)"/>
</g>
<path d="M131.477 147.694C132.808 146.926 134.448 146.926 135.779 147.694L148.316 154.933C149.647 155.701 150.466 157.121 150.466 158.658V173.135C150.466 174.672 149.647 176.092 148.316 176.86L135.779 184.099C134.448 184.867 132.808 184.867 131.477 184.099L118.94 176.86C117.609 176.092 116.789 174.672 116.789 173.135V158.658C116.789 157.121 117.609 155.701 118.94 154.933L131.477 147.694Z" stroke="url(#paint13_linear_8481_75658)" stroke-width="2.86801"/>
<g filter="url(#filter15_d_8481_75658)">
<path d="M136.847 172.011C137.194 172.011 137.468 172.108 137.669 172.302C137.87 172.489 137.97 172.739 137.97 173.05V174.922H127.324V173.882C127.324 173.681 127.366 173.466 127.449 173.238C127.532 173.009 127.677 172.801 127.885 172.614L132.252 168.216C132.626 167.842 132.952 167.485 133.229 167.145C133.506 166.806 133.735 166.473 133.915 166.147C134.096 165.815 134.231 165.485 134.321 165.16C134.411 164.827 134.456 164.477 134.456 164.109C134.456 163.506 134.31 163.046 134.019 162.727C133.735 162.401 133.298 162.238 132.709 162.238C132.231 162.238 131.826 162.366 131.493 162.623C131.167 162.872 130.942 163.184 130.817 163.558C130.672 163.94 130.481 164.193 130.245 164.317C130.01 164.442 129.674 164.47 129.237 164.401L127.532 164.099C127.643 163.344 127.854 162.685 128.166 162.124C128.485 161.562 128.876 161.094 129.341 160.72C129.812 160.346 130.349 160.069 130.952 159.888C131.555 159.701 132.203 159.608 132.896 159.608C133.645 159.608 134.317 159.719 134.913 159.94C135.516 160.155 136.029 160.457 136.452 160.845C136.875 161.233 137.197 161.697 137.419 162.238C137.648 162.772 137.762 163.361 137.762 164.006C137.762 164.56 137.682 165.073 137.523 165.544C137.37 166.016 137.159 166.466 136.889 166.896C136.618 167.319 136.303 167.731 135.943 168.133C135.589 168.528 135.211 168.93 134.809 169.339L131.846 172.375C132.228 172.257 132.605 172.167 132.98 172.104C133.354 172.042 133.7 172.011 134.019 172.011H136.847Z" fill="#F4F4F4"/>
</g>
</g>
<ellipse cx="184.975" cy="147.914" rx="11.896" ry="1.52293" fill="black" fill-opacity="0.15"/>
<ellipse cx="133.626" cy="189.96" rx="11.896" ry="1.52293" fill="black" fill-opacity="0.15"/>
<ellipse cx="237.468" cy="213.828" rx="11.896" ry="1.52293" fill="black" fill-opacity="0.15"/>
<g clip-path="url(#clip4_8481_75658)">
<g filter="url(#filter16_i_8481_75658)">
<path d="M182.108 105.046C183.883 104.022 186.07 104.022 187.844 105.046L200.381 112.285C202.156 113.309 203.249 115.203 203.249 117.252V131.729C203.249 133.778 202.156 135.671 200.381 136.696L187.844 143.934C186.07 144.959 183.883 144.959 182.108 143.934L169.571 136.696C167.797 135.671 166.703 133.778 166.703 131.729V117.252C166.703 115.203 167.797 113.309 169.571 112.285L182.108 105.046Z" fill="url(#paint14_linear_8481_75658)"/>
</g>
<path d="M182.826 106.288C184.157 105.52 185.797 105.52 187.127 106.288L199.665 113.526C200.995 114.295 201.815 115.715 201.815 117.252V131.729C201.815 133.265 200.995 134.686 199.665 135.454L187.127 142.692C185.797 143.461 184.157 143.461 182.826 142.692L170.289 135.454C168.958 134.686 168.137 133.265 168.137 131.729V117.252C168.137 115.715 168.958 114.295 170.289 113.526L182.826 106.288Z" stroke="url(#paint15_linear_8481_75658)" stroke-width="2.86801"/>
<g filter="url(#filter17_d_8481_75658)">
<path d="M188.975 131.195V133.523H180.346V131.195H183.257V123.553C183.257 123.359 183.26 123.165 183.267 122.971C183.274 122.77 183.285 122.569 183.299 122.368L181.573 123.803C181.42 123.921 181.268 123.993 181.115 124.021C180.97 124.042 180.831 124.042 180.699 124.021C180.568 123.993 180.45 123.948 180.346 123.886C180.242 123.817 180.166 123.747 180.117 123.678L179.098 122.326L183.818 118.365H186.48V131.195H188.975Z" fill="#FFD08A"/>
</g>
</g>
</g>
</g>
<rect x="0.25" y="0.25" width="372.5" height="682.5" rx="15.75" stroke="url(#paint16_linear_8481_75658)" stroke-width="0.5"/>
</g>
<defs>
<filter id="filter0_i_8481_75658" x="0" y="0" width="373" height="687" filterUnits="userSpaceOnUse" color-interpolation-filters="sRGB">
<feFlood flood-opacity="0" result="BackgroundImageFix"/>
<feBlend mode="normal" in="SourceGraphic" in2="BackgroundImageFix" result="shape"/>
<feColorMatrix in="SourceAlpha" type="matrix" values="0 0 0 0 0 0 0 0 0 0 0 0 0 0 0 0 0 0 127 0" result="hardAlpha"/>
<feOffset dy="4"/>
<feGaussianBlur stdDeviation="8.35"/>
<feComposite in2="hardAlpha" operator="arithmetic" k2="-1" k3="1"/>
<feColorMatrix type="matrix" values="0 0 0 0 1 0 0 0 0 1 0 0 0 0 1 0 0 0 0.1 0"/>
<feBlend mode="normal" in2="shape" result="effect1_innerShadow_8481_75658"/>
</filter>
<filter id="filter1_n_8481_75658" x="140.747" y="146.422" width="44.2314" height="191.344" filterUnits="userSpaceOnUse" color-interpolation-filters="sRGB">
<feFlood flood-opacity="0" result="BackgroundImageFix"/>
<feBlend mode="normal" in="SourceGraphic" in2="BackgroundImageFix" result="shape"/>
<feTurbulence type="fractalNoise" baseFrequency="2.5008323192596436 2.5008323192596436" stitchTiles="stitch" numOctaves="3" result="noise" seed="7146" />
<feColorMatrix in="noise" type="luminanceToAlpha" result="alphaNoise" />
<feComponentTransfer in="alphaNoise" result="coloredNoise1">
<feFuncA type="discrete" tableValues="1 1 1 1 1 1 1 1 1 1 1 1 1 1 1 1 1 1 1 1 1 1 1 1 1 1 1 1 1 1 1 1 1 1 1 1 1 1 1 1 1 1 1 1 1 1 1 1 1 1 1 0 0 0 0 0 0 0 0 0 0 0 0 0 0 0 0 0 0 0 0 0 0 0 0 0 0 0 0 0 0 0 0 0 0 0 0 0 0 0 0 0 0 0 0 0 0 0 0 0 "/>
</feComponentTransfer>
<feComposite operator="in" in2="shape" in="coloredNoise1" result="noise1Clipped" />
<feFlood flood-color="rgba(255, 255, 255, 0.1)" result="color1Flood" />
<feComposite operator="in" in2="noise1Clipped" in="color1Flood" result="color1" />
<feMerge result="effect1_noise_8481_75658">
<feMergeNode in="shape" />
<feMergeNode in="color1" />
</feMerge>
</filter>
<filter id="filter2_n_8481_75658" x="184.978" y="146.422" width="44.2314" height="192.148" filterUnits="userSpaceOnUse" color-interpolation-filters="sRGB">
<feFlood flood-opacity="0" result="BackgroundImageFix"/>
<feBlend mode="normal" in="SourceGraphic" in2="BackgroundImageFix" result="shape"/>
<feTurbulence type="fractalNoise" baseFrequency="2.5008323192596436 2.5008323192596436" stitchTiles="stitch" numOctaves="3" result="noise" seed="7146" />
<feColorMatrix in="noise" type="luminanceToAlpha" result="alphaNoise" />
<feComponentTransfer in="alphaNoise" result="coloredNoise1">
<feFuncA type="discrete" tableValues="1 1 1 1 1 1 1 1 1 1 1 1 1 1 1 1 1 1 1 1 1 1 1 1 1 1 1 1 1 1 1 1 1 1 1 1 1 1 1 1 1 1 1 1 1 1 1 1 1 1 1 0 0 0 0 0 0 0 0 0 0 0 0 0 0 0 0 0 0 0 0 0 0 0 0 0 0 0 0 0 0 0 0 0 0 0 0 0 0 0 0 0 0 0 0 0 0 0 0 0 "/>
</feComponentTransfer>
<feComposite operator="in" in2="shape" in="coloredNoise1" result="noise1Clipped" />
<feFlood flood-color="rgba(255, 255, 255, 0.1)" result="color1Flood" />
<feComposite operator="in" in2="noise1Clipped" in="color1Flood" result="color1" />
<feMerge result="effect1_noise_8481_75658">
<feMergeNode in="shape" />
<feMergeNode in="color1" />
</feMerge>
</filter>
<filter id="filter3_n_8481_75658" x="140.75" y="130.031" width="88.4551" height="32.2031" filterUnits="userSpaceOnUse" color-interpolation-filters="sRGB">
<feFlood flood-opacity="0" result="BackgroundImageFix"/>
<feBlend mode="normal" in="SourceGraphic" in2="BackgroundImageFix" result="shape"/>
<feTurbulence type="fractalNoise" baseFrequency="2.5008323192596436 2.5008323192596436" stitchTiles="stitch" numOctaves="3" result="noise" seed="7146" />
<feColorMatrix in="noise" type="luminanceToAlpha" result="alphaNoise" />
<feComponentTransfer in="alphaNoise" result="coloredNoise1">
<feFuncA type="discrete" tableValues="1 1 1 1 1 1 1 1 1 1 1 1 1 1 1 1 1 1 1 1 1 1 1 1 1 1 1 1 1 1 1 1 1 1 1 1 1 1 1 1 1 1 1 1 1 1 1 1 1 1 1 0 0 0 0 0 0 0 0 0 0 0 0 0 0 0 0 0 0 0 0 0 0 0 0 0 0 0 0 0 0 0 0 0 0 0 0 0 0 0 0 0 0 0 0 0 0 0 0 0 "/>
</feComponentTransfer>
<feComposite operator="in" in2="shape" in="coloredNoise1" result="noise1Clipped" />
<feFlood flood-color="rgba(255, 255, 255, 0.1)" result="color1Flood" />
<feComposite operator="in" in2="noise1Clipped" in="color1Flood" result="color1" />
<feMerge result="effect1_noise_8481_75658">
<feMergeNode in="shape" />
<feMergeNode in="color1" />
</feMerge>
</filter>
<filter id="filter4_d_8481_75658" x="89.3926" y="171.523" width="95.6595" height="198.97" filterUnits="userSpaceOnUse" color-interpolation-filters="sRGB">
<feFlood flood-opacity="0" result="BackgroundImageFix"/>
<feColorMatrix in="SourceAlpha" type="matrix" values="0 0 0 0 0 0 0 0 0 0 0 0 0 0 0 0 0 0 127 0" result="hardAlpha"/>
<feOffset dx="3.99867" dy="7.99734"/>
<feGaussianBlur stdDeviation="1.59947"/>
<feComposite in2="hardAlpha" operator="out"/>
<feColorMatrix type="matrix" values="0 0 0 0 0 0 0 0 0 0 0 0 0 0 0 0 0 0 0.15 0"/>
<feBlend mode="normal" in2="BackgroundImageFix" result="effect1_dropShadow_8481_75658"/>
<feBlend mode="normal" in="SourceGraphic" in2="effect1_dropShadow_8481_75658" result="shape"/>
</filter>
<filter id="filter5_n_8481_75658" x="89.3926" y="187.914" width="44.2314" height="171.383" filterUnits="userSpaceOnUse" color-interpolation-filters="sRGB">
<feFlood flood-opacity="0" result="BackgroundImageFix"/>
<feBlend mode="normal" in="SourceGraphic" in2="BackgroundImageFix" result="shape"/>
<feTurbulence type="fractalNoise" baseFrequency="2.5008323192596436 2.5008323192596436" stitchTiles="stitch" numOctaves="3" result="noise" seed="7146" />
<feColorMatrix in="noise" type="luminanceToAlpha" result="alphaNoise" />
<feComponentTransfer in="alphaNoise" result="coloredNoise1">
<feFuncA type="discrete" tableValues="1 1 1 1 1 1 1 1 1 1 1 1 1 1 1 1 1 1 1 1 1 1 1 1 1 1 1 1 1 1 1 1 1 1 1 1 1 1 1 1 1 1 1 1 1 1 1 1 1 1 1 0 0 0 0 0 0 0 0 0 0 0 0 0 0 0 0 0 0 0 0 0 0 0 0 0 0 0 0 0 0 0 0 0 0 0 0 0 0 0 0 0 0 0 0 0 0 0 0 0 "/>
</feComponentTransfer>
<feComposite operator="in" in2="shape" in="coloredNoise1" result="noise1Clipped" />
<feFlood flood-color="rgba(255, 255, 255, 0.1)" result="color1Flood" />
<feComposite operator="in" in2="noise1Clipped" in="color1Flood" result="color1" />
<feMerge result="effect1_noise_8481_75658">
<feMergeNode in="shape" />
<feMergeNode in="color1" />
</feMerge>
</filter>
<filter id="filter6_n_8481_75658" x="133.623" y="187.914" width="44.2314" height="171.383" filterUnits="userSpaceOnUse" color-interpolation-filters="sRGB">
<feFlood flood-opacity="0" result="BackgroundImageFix"/>
<feBlend mode="normal" in="SourceGraphic" in2="BackgroundImageFix" result="shape"/>
<feTurbulence type="fractalNoise" baseFrequency="2.5008323192596436 2.5008323192596436" stitchTiles="stitch" numOctaves="3" result="noise" seed="7146" />
<feColorMatrix in="noise" type="luminanceToAlpha" result="alphaNoise" />
<feComponentTransfer in="alphaNoise" result="coloredNoise1">
<feFuncA type="discrete" tableValues="1 1 1 1 1 1 1 1 1 1 1 1 1 1 1 1 1 1 1 1 1 1 1 1 1 1 1 1 1 1 1 1 1 1 1 1 1 1 1 1 1 1 1 1 1 1 1 1 1 1 1 0 0 0 0 0 0 0 0 0 0 0 0 0 0 0 0 0 0 0 0 0 0 0 0 0 0 0 0 0 0 0 0 0 0 0 0 0 0 0 0 0 0 0 0 0 0 0 0 0 "/>
</feComponentTransfer>
<feComposite operator="in" in2="shape" in="coloredNoise1" result="noise1Clipped" />
<feFlood flood-color="rgba(255, 255, 255, 0.1)" result="color1Flood" />
<feComposite operator="in" in2="noise1Clipped" in="color1Flood" result="color1" />
<feMerge result="effect1_noise_8481_75658">
<feMergeNode in="shape" />
<feMergeNode in="color1" />
</feMerge>
</filter>
<filter id="filter7_n_8481_75658" x="89.396" y="171.523" width="88.4551" height="32.2031" filterUnits="userSpaceOnUse" color-interpolation-filters="sRGB">
<feFlood flood-opacity="0" result="BackgroundImageFix"/>
<feBlend mode="normal" in="SourceGraphic" in2="BackgroundImageFix" result="shape"/>
<feTurbulence type="fractalNoise" baseFrequency="2.5008323192596436 2.5008323192596436" stitchTiles="stitch" numOctaves="3" result="noise" seed="7146" />
<feColorMatrix in="noise" type="luminanceToAlpha" result="alphaNoise" />
<feComponentTransfer in="alphaNoise" result="coloredNoise1">
<feFuncA type="discrete" tableValues="1 1 1 1 1 1 1 1 1 1 1 1 1 1 1 1 1 1 1 1 1 1 1 1 1 1 1 1 1 1 1 1 1 1 1 1 1 1 1 1 1 1 1 1 1 1 1 1 1 1 1 0 0 0 0 0 0 0 0 0 0 0 0 0 0 0 0 0 0 0 0 0 0 0 0 0 0 0 0 0 0 0 0 0 0 0 0 0 0 0 0 0 0 0 0 0 0 0 0 0 "/>
</feComponentTransfer>
<feComposite operator="in" in2="shape" in="coloredNoise1" result="noise1Clipped" />
<feFlood flood-color="rgba(255, 255, 255, 0.1)" result="color1Flood" />
<feComposite operator="in" in2="noise1Clipped" in="color1Flood" result="color1" />
<feMerge result="effect1_noise_8481_75658">
<feMergeNode in="shape" />
<feMergeNode in="color1" />
</feMerge>
</filter>
<filter id="filter8_d_8481_75658" x="183.632" y="195.227" width="98.0616" height="198.17" filterUnits="userSpaceOnUse" color-interpolation-filters="sRGB">
<feFlood flood-opacity="0" result="BackgroundImageFix"/>
<feColorMatrix in="SourceAlpha" type="matrix" values="0 0 0 0 0 0 0 0 0 0 0 0 0 0 0 0 0 0 127 0" result="hardAlpha"/>
<feOffset dx="-6.39787" dy="7.1976"/>
<feGaussianBlur stdDeviation="1.59947"/>
<feComposite in2="hardAlpha" operator="out"/>
<feColorMatrix type="matrix" values="0 0 0 0 0 0 0 0 0 0 0 0 0 0 0 0 0 0 0.15 0"/>
<feBlend mode="normal" in2="BackgroundImageFix" result="effect1_dropShadow_8481_75658"/>
<feBlend mode="normal" in="SourceGraphic" in2="effect1_dropShadow_8481_75658" result="shape"/>
</filter>
<filter id="filter9_n_8481_75658" x="193.229" y="211.617" width="44.2314" height="171.383" filterUnits="userSpaceOnUse" color-interpolation-filters="sRGB">
<feFlood flood-opacity="0" result="BackgroundImageFix"/>
<feBlend mode="normal" in="SourceGraphic" in2="BackgroundImageFix" result="shape"/>
<feTurbulence type="fractalNoise" baseFrequency="2.5008323192596436 2.5008323192596436" stitchTiles="stitch" numOctaves="3" result="noise" seed="7146" />
<feColorMatrix in="noise" type="luminanceToAlpha" result="alphaNoise" />
<feComponentTransfer in="alphaNoise" result="coloredNoise1">
<feFuncA type="discrete" tableValues="1 1 1 1 1 1 1 1 1 1 1 1 1 1 1 1 1 1 1 1 1 1 1 1 1 1 1 1 1 1 1 1 1 1 1 1 1 1 1 1 1 1 1 1 1 1 1 1 1 1 1 0 0 0 0 0 0 0 0 0 0 0 0 0 0 0 0 0 0 0 0 0 0 0 0 0 0 0 0 0 0 0 0 0 0 0 0 0 0 0 0 0 0 0 0 0 0 0 0 0 "/>
</feComponentTransfer>
<feComposite operator="in" in2="shape" in="coloredNoise1" result="noise1Clipped" />
<feFlood flood-color="rgba(255, 255, 255, 0.1)" result="color1Flood" />
<feComposite operator="in" in2="noise1Clipped" in="color1Flood" result="color1" />
<feMerge result="effect1_noise_8481_75658">
<feMergeNode in="shape" />
<feMergeNode in="color1" />
</feMerge>
</filter>
<filter id="filter10_n_8481_75658" x="237.459" y="211.617" width="44.2314" height="171.383" filterUnits="userSpaceOnUse" color-interpolation-filters="sRGB">
<feFlood flood-opacity="0" result="BackgroundImageFix"/>
<feBlend mode="normal" in="SourceGraphic" in2="BackgroundImageFix" result="shape"/>
<feTurbulence type="fractalNoise" baseFrequency="2.5008323192596436 2.5008323192596436" stitchTiles="stitch" numOctaves="3" result="noise" seed="7146" />
<feColorMatrix in="noise" type="luminanceToAlpha" result="alphaNoise" />
<feComponentTransfer in="alphaNoise" result="coloredNoise1">
<feFuncA type="discrete" tableValues="1 1 1 1 1 1 1 1 1 1 1 1 1 1 1 1 1 1 1 1 1 1 1 1 1 1 1 1 1 1 1 1 1 1 1 1 1 1 1 1 1 1 1 1 1 1 1 1 1 1 1 0 0 0 0 0 0 0 0 0 0 0 0 0 0 0 0 0 0 0 0 0 0 0 0 0 0 0 0 0 0 0 0 0 0 0 0 0 0 0 0 0 0 0 0 0 0 0 0 0 "/>
</feComponentTransfer>
<feComposite operator="in" in2="shape" in="coloredNoise1" result="noise1Clipped" />
<feFlood flood-color="rgba(255, 255, 255, 0.1)" result="color1Flood" />
<feComposite operator="in" in2="noise1Clipped" in="color1Flood" result="color1" />
<feMerge result="effect1_noise_8481_75658">
<feMergeNode in="shape" />
<feMergeNode in="color1" />
</feMerge>
</filter>
<filter id="filter11_n_8481_75658" x="193.238" y="195.227" width="88.4551" height="32.2031" filterUnits="userSpaceOnUse" color-interpolation-filters="sRGB">
<feFlood flood-opacity="0" result="BackgroundImageFix"/>
<feBlend mode="normal" in="SourceGraphic" in2="BackgroundImageFix" result="shape"/>
<feTurbulence type="fractalNoise" baseFrequency="2.5008323192596436 2.5008323192596436" stitchTiles="stitch" numOctaves="3" result="noise" seed="7146" />
<feColorMatrix in="noise" type="luminanceToAlpha" result="alphaNoise" />
<feComponentTransfer in="alphaNoise" result="coloredNoise1">
<feFuncA type="discrete" tableValues="1 1 1 1 1 1 1 1 1 1 1 1 1 1 1 1 1 1 1 1 1 1 1 1 1 1 1 1 1 1 1 1 1 1 1 1 1 1 1 1 1 1 1 1 1 1 1 1 1 1 1 0 0 0 0 0 0 0 0 0 0 0 0 0 0 0 0 0 0 0 0 0 0 0 0 0 0 0 0 0 0 0 0 0 0 0 0 0 0 0 0 0 0 0 0 0 0 0 0 0 "/>
</feComponentTransfer>
<feComposite operator="in" in2="shape" in="coloredNoise1" result="noise1Clipped" />
<feFlood flood-color="rgba(255, 255, 255, 0.1)" result="color1Flood" />
<feComposite operator="in" in2="noise1Clipped" in="color1Flood" result="color1" />
<feMerge result="effect1_noise_8481_75658">
<feMergeNode in="shape" />
<feMergeNode in="color1" />
</feMerge>
</filter>
<filter id="filter12_i_8481_75658" x="219.185" y="169.555" width="36.5459" height="40.4219" filterUnits="userSpaceOnUse" color-interpolation-filters="sRGB">
<feFlood flood-opacity="0" result="BackgroundImageFix"/>
<feBlend mode="normal" in="SourceGraphic" in2="BackgroundImageFix" result="shape"/>
<feColorMatrix in="SourceAlpha" type="matrix" values="0 0 0 0 0 0 0 0 0 0 0 0 0 0 0 0 0 0 127 0" result="hardAlpha"/>
<feOffset dx="5.01902" dy="2.86801"/>
<feComposite in2="hardAlpha" operator="arithmetic" k2="-1" k3="1"/>
<feColorMatrix type="matrix" values="0 0 0 0 0 0 0 0 0 0 0 0 0 0 0 0 0 0 0.33 0"/>
<feBlend mode="normal" in2="shape" result="effect1_innerShadow_8481_75658"/>
</filter>
<filter id="filter13_d_8481_75658" x="231.035" y="183.469" width="11.467" height="16.1936" filterUnits="userSpaceOnUse" color-interpolation-filters="sRGB">
<feFlood flood-opacity="0" result="BackgroundImageFix"/>
<feColorMatrix in="SourceAlpha" type="matrix" values="0 0 0 0 0 0 0 0 0 0 0 0 0 0 0 0 0 0 127 0" result="hardAlpha"/>
<feOffset dx="0.717003" dy="0.717003"/>
<feComposite in2="hardAlpha" operator="out"/>
<feColorMatrix type="matrix" values="0 0 0 0 0 0 0 0 0 0 0 0 0 0 0 0 0 0 0.25 0"/>
<feBlend mode="normal" in2="BackgroundImageFix" result="effect1_dropShadow_8481_75658"/>
<feBlend mode="normal" in="SourceGraphic" in2="effect1_dropShadow_8481_75658" result="shape"/>
</filter>
<filter id="filter14_i_8481_75658" x="115.354" y="145.688" width="36.5459" height="40.4219" filterUnits="userSpaceOnUse" color-interpolation-filters="sRGB">
<feFlood flood-opacity="0" result="BackgroundImageFix"/>
<feBlend mode="normal" in="SourceGraphic" in2="BackgroundImageFix" result="shape"/>
<feColorMatrix in="SourceAlpha" type="matrix" values="0 0 0 0 0 0 0 0 0 0 0 0 0 0 0 0 0 0 127 0" result="hardAlpha"/>
<feOffset dx="5.01902" dy="2.86801"/>
<feComposite in2="hardAlpha" operator="arithmetic" k2="-1" k3="1"/>
<feColorMatrix type="matrix" values="0 0 0 0 0 0 0 0 0 0 0 0 0 0 0 0 0 0 0.33 0"/>
<feBlend mode="normal" in2="shape" result="effect1_innerShadow_8481_75658"/>
</filter>
<filter id="filter15_d_8481_75658" x="127.324" y="159.609" width="11.3635" height="16.0295" filterUnits="userSpaceOnUse" color-interpolation-filters="sRGB">
<feFlood flood-opacity="0" result="BackgroundImageFix"/>
<feColorMatrix in="SourceAlpha" type="matrix" values="0 0 0 0 0 0 0 0 0 0 0 0 0 0 0 0 0 0 127 0" result="hardAlpha"/>
<feOffset dx="0.717003" dy="0.717003"/>
<feComposite in2="hardAlpha" operator="out"/>
<feColorMatrix type="matrix" values="0 0 0 0 0 0 0 0 0 0 0 0 0 0 0 0 0 0 0.25 0"/>
<feBlend mode="normal" in2="BackgroundImageFix" result="effect1_dropShadow_8481_75658"/>
<feBlend mode="normal" in="SourceGraphic" in2="effect1_dropShadow_8481_75658" result="shape"/>
</filter>
<filter id="filter16_i_8481_75658" x="166.703" y="104.281" width="36.5459" height="40.4219" filterUnits="userSpaceOnUse" color-interpolation-filters="sRGB">
<feFlood flood-opacity="0" result="BackgroundImageFix"/>
<feBlend mode="normal" in="SourceGraphic" in2="BackgroundImageFix" result="shape"/>
<feColorMatrix in="SourceAlpha" type="matrix" values="0 0 0 0 0 0 0 0 0 0 0 0 0 0 0 0 0 0 127 0" result="hardAlpha"/>
<feOffset dx="5.01902" dy="2.86801"/>
<feComposite in2="hardAlpha" operator="arithmetic" k2="-1" k3="1"/>
<feColorMatrix type="matrix" values="0 0 0 0 0 0 0 0 0 0 0 0 0 0 0 0 0 0 0.33 0"/>
<feBlend mode="normal" in2="shape" result="effect1_innerShadow_8481_75658"/>
</filter>
<filter id="filter17_d_8481_75658" x="179.098" y="118.367" width="10.594" height="15.8733" filterUnits="userSpaceOnUse" color-interpolation-filters="sRGB">
<feFlood flood-opacity="0" result="BackgroundImageFix"/>
<feColorMatrix in="SourceAlpha" type="matrix" values="0 0 0 0 0 0 0 0 0 0 0 0 0 0 0 0 0 0 127 0" result="hardAlpha"/>
<feOffset dx="0.717003" dy="0.717003"/>
<feComposite in2="hardAlpha" operator="out"/>
<feColorMatrix type="matrix" values="0 0 0 0 0 0 0 0 0 0 0 0 0 0 0 0 0 0 0.25 0"/>
<feBlend mode="normal" in2="BackgroundImageFix" result="effect1_dropShadow_8481_75658"/>
<feBlend mode="normal" in="SourceGraphic" in2="effect1_dropShadow_8481_75658" result="shape"/>
</filter>
<linearGradient id="paint0_linear_8481_75658" x1="187" y1="0" x2="187" y2="220" gradientUnits="userSpaceOnUse">
<stop stop-color="#006FCD"/>
<stop offset="1" stop-color="#03101A"/>
</linearGradient>
<linearGradient id="paint1_linear_8481_75658" x1="179.603" y1="290.724" x2="146.714" y2="162.514" gradientUnits="userSpaceOnUse">
<stop stop-color="#003E73"/>
<stop offset="1" stop-color="#FBDDFF"/>
</linearGradient>
<linearGradient id="paint2_linear_8481_75658" x1="254.403" y1="278.534" x2="182.154" y2="234.623" gradientUnits="userSpaceOnUse">
<stop stop-color="#801E9E"/>
<stop offset="1" stop-color="#438FD0"/>
</linearGradient>
<linearGradient id="paint3_linear_8481_75658" x1="206.967" y1="193.889" x2="165.733" y2="125.085" gradientUnits="userSpaceOnUse">
<stop offset="0.234245" stop-color="#006FCD"/>
<stop offset="1" stop-color="#9FD3FF"/>
</linearGradient>
<linearGradient id="paint4_linear_8481_75658" x1="128.249" y1="332.216" x2="95.3599" y2="204.007" gradientUnits="userSpaceOnUse">
<stop stop-color="#00315B"/>
<stop offset="1" stop-color="#FBDDFF"/>
</linearGradient>
<linearGradient id="paint5_linear_8481_75658" x1="144.057" y1="330.46" x2="187.968" y2="258.211" gradientUnits="userSpaceOnUse">
<stop stop-color="#801E9E"/>
<stop offset="1" stop-color="#438FD0"/>
</linearGradient>
<linearGradient id="paint6_linear_8481_75658" x1="155.613" y1="235.382" x2="114.378" y2="166.577" gradientUnits="userSpaceOnUse">
<stop offset="0.234245" stop-color="#006FCD"/>
<stop offset="1" stop-color="#9FD3FF"/>
</linearGradient>
<linearGradient id="paint7_linear_8481_75658" x1="232.085" y1="355.919" x2="199.196" y2="227.71" gradientUnits="userSpaceOnUse">
<stop offset="0.26016" stop-color="#003E73"/>
<stop offset="1" stop-color="#FBDDFF"/>
</linearGradient>
<linearGradient id="paint8_linear_8481_75658" x1="306.885" y1="343.729" x2="234.636" y2="299.818" gradientUnits="userSpaceOnUse">
<stop stop-color="#801E9E"/>
<stop offset="1" stop-color="#438FD0"/>
</linearGradient>
<linearGradient id="paint9_linear_8481_75658" x1="259.455" y1="259.085" x2="218.221" y2="190.28" gradientUnits="userSpaceOnUse">
<stop offset="0.234245" stop-color="#006FCD"/>
<stop offset="1" stop-color="#9FD3FF"/>
</linearGradient>
<linearGradient id="paint10_linear_8481_75658" x1="227.228" y1="168.664" x2="247.688" y2="210.864" gradientUnits="userSpaceOnUse">
<stop stop-color="#4C2310"/>
<stop offset="1" stop-color="#C05425"/>
</linearGradient>
<linearGradient id="paint11_linear_8481_75658" x1="228.909" y1="168.664" x2="246.007" y2="210.864" gradientUnits="userSpaceOnUse">
<stop stop-color="#FF6B2A"/>
<stop offset="0.50286" stop-color="#F5B396"/>
<stop offset="1" stop-color="#702F13"/>
</linearGradient>
<linearGradient id="paint12_linear_8481_75658" x1="123.398" y1="144.797" x2="143.857" y2="186.996" gradientUnits="userSpaceOnUse">
<stop stop-color="#707070"/>
<stop offset="1" stop-color="#DFDFDF"/>
</linearGradient>
<linearGradient id="paint13_linear_8481_75658" x1="125.079" y1="144.797" x2="142.176" y2="186.996" gradientUnits="userSpaceOnUse">
<stop stop-color="#646464"/>
<stop offset="0.50286" stop-color="#F8F8F8"/>
<stop offset="1" stop-color="#313131"/>
</linearGradient>
<linearGradient id="paint14_linear_8481_75658" x1="174.746" y1="103.391" x2="195.206" y2="145.59" gradientUnits="userSpaceOnUse">
<stop stop-color="#E57B28"/>
<stop offset="1" stop-color="#F2A437"/>
</linearGradient>
<linearGradient id="paint15_linear_8481_75658" x1="176.427" y1="103.391" x2="193.525" y2="145.59" gradientUnits="userSpaceOnUse">
<stop stop-color="#E8882C"/>
<stop offset="0.50286" stop-color="#FFD08B"/>
<stop offset="1" stop-color="#FFC437"/>
</linearGradient>
<linearGradient id="paint16_linear_8481_75658" x1="373" y1="341.5" x2="0" y2="341.5" gradientUnits="userSpaceOnUse">
<stop stop-color="#161717" stop-opacity="0"/>
<stop offset="0.474313" stop-color="#FFF7E8"/>
<stop offset="1" stop-color="#161717" stop-opacity="0"/>
</linearGradient>
<clipPath id="clip0_8481_75658">
<rect width="373" height="683" rx="16" fill="white"/>
</clipPath>
<clipPath id="clip1_8481_75658">
<rect width="374" height="220" fill="white" transform="translate(-1)"/>
</clipPath>
<clipPath id="clip2_8481_75658">
<rect width="41.5862" height="41.5862" fill="white" transform="translate(216.671 168.969)"/>
</clipPath>
<clipPath id="clip3_8481_75658">
<rect width="41.5862" height="41.5862" fill="white" transform="translate(112.829 145.094)"/>
</clipPath>
<clipPath id="clip4_8481_75658">
<rect width="41.8371" height="44.4519" fill="white" transform="translate(163.915 102.922)"/>
</clipPath>
</defs>
</svg>
