<svg width="40" height="40" viewBox="0 0 40 40" fill="none" xmlns="http://www.w3.org/2000/svg">
<rect x="1.42857" y="1.42857" width="37.1429" height="37.1429" rx="18.5714" stroke="url(#paint0_linear_4618_65970)" stroke-width="2.85714"/>
<path fill-rule="evenodd" clip-rule="evenodd" d="M12.9672 15.3454L13.8928 16.1741L9.74406 20.3669L9.56491 20.2065C9.43296 20.0884 9.41108 19.9482 9.40352 19.7405C9.3974 19.572 9.20547 17.5515 10.9597 15.7455C11.9657 14.7098 12.5055 14.9321 12.9672 15.3454Z" fill="url(#paint1_linear_4618_65970)"/>
<path fill-rule="evenodd" clip-rule="evenodd" d="M14.9012 15.3604L17.4393 17.6326C17.9669 18.105 18.0554 18.9523 17.7128 19.5924C16.4448 21.9611 13.0402 22.9659 13.0402 22.9659C12.8475 23.0302 12.6906 23.0817 12.489 22.9012L9.56286 20.2816C9.43091 20.1634 9.42372 19.965 9.54673 19.8384L13.0547 15.4223C13.5468 14.9157 14.3735 14.888 14.9012 15.3604Z" fill="#FF1616"/>
<path fill-rule="evenodd" clip-rule="evenodd" d="M9.76489 20.3968L12.512 22.856C12.6439 22.9741 12.6511 23.1725 12.528 23.2992L10.9688 24.9045C10.8458 25.0311 10.6391 25.038 10.5072 24.9199L7.76011 22.4607C7.6282 22.3426 7.62097 22.1442 7.74398 22.0175L9.30326 20.4122C9.42627 20.2856 9.63298 20.2786 9.76489 20.3968Z" fill="#FC0231"/>
<path fill-rule="evenodd" clip-rule="evenodd" d="M8.9479 20.2344L11.9338 22.9075C12.0657 23.0256 12.0729 23.224 11.9499 23.3507L10.9475 24.3827C10.8245 24.5093 10.6179 24.5162 10.4859 24.3981L7.5 21.725L8.9479 20.2344Z" fill="#FF5134"/>
<path fill-rule="evenodd" clip-rule="evenodd" d="M8.72602 20.4688L11.5626 23.0082C11.6451 23.082 11.6496 23.206 11.5727 23.2852L10.8488 24.0305C10.7719 24.1097 10.6427 24.114 10.5602 24.0402L7.72363 21.5007L8.72602 20.4688Z" fill="#1C8CEA"/>
<path fill-rule="evenodd" clip-rule="evenodd" d="M27.0326 15.3455L26.1068 16.1742L30.2559 20.3673L30.4351 20.2069C30.567 20.0888 30.5889 19.9486 30.5965 19.7409C30.6026 19.5723 30.7945 17.5517 29.0402 15.7456C28.0341 14.7098 27.4943 14.9321 27.0326 15.3455Z" fill="url(#paint2_linear_4618_65970)"/>
<path fill-rule="evenodd" clip-rule="evenodd" d="M25.0984 15.3604L22.5601 17.6327C22.0324 18.1052 21.944 18.9526 22.2866 19.5927C23.5546 21.9617 26.9595 22.9665 26.9595 22.9665C27.1522 23.0308 27.3091 23.0823 27.5107 22.9018L30.4371 20.282C30.5691 20.1638 30.5763 19.9654 30.4533 19.8388L26.945 15.4223C26.4529 14.9157 25.6261 14.888 25.0984 15.3604Z" fill="#1666C5"/>
<path fill-rule="evenodd" clip-rule="evenodd" d="M30.2349 20.3968L27.4877 22.8562C27.3558 22.9743 27.3485 23.1728 27.4716 23.2994L29.0309 24.9048C29.154 25.0315 29.3607 25.0384 29.4926 24.9203L32.2399 22.4608C32.3718 22.3427 32.379 22.1443 32.256 22.0176L30.6966 20.4122C30.5736 20.2856 30.3669 20.2786 30.2349 20.3968Z" fill="#006FCD"/>
<path fill-rule="evenodd" clip-rule="evenodd" d="M31.052 20.2344L28.0659 22.9077C27.9339 23.0258 27.9267 23.2243 28.0497 23.3509L29.0522 24.383C29.1752 24.5096 29.3819 24.5166 29.5139 24.3984L32.5 21.7251L31.052 20.2344Z" fill="#007AFF"/>
<path fill-rule="evenodd" clip-rule="evenodd" d="M31.2739 20.4688L28.4371 23.0084C28.3546 23.0822 28.3501 23.2062 28.427 23.2854L29.151 24.0308C29.2279 24.11 29.3571 24.1143 29.4396 24.0405L32.2764 21.5008L31.2739 20.4688Z" fill="#FF5134"/>
<defs>
<linearGradient id="paint0_linear_4618_65970" x1="40.4773" y1="19.8539" x2="0.477295" y2="19.8539" gradientUnits="userSpaceOnUse">
<stop stop-color="#1666C5"/>
<stop offset="1" stop-color="#FF5134"/>
</linearGradient>
<linearGradient id="paint1_linear_4618_65970" x1="11.6296" y1="20.3543" x2="11.6296" y2="14.9882" gradientUnits="userSpaceOnUse">
<stop stop-color="#FF3434"/>
<stop offset="1" stop-color="#FF5858"/>
</linearGradient>
<linearGradient id="paint2_linear_4618_65970" x1="28.3702" y1="20.3547" x2="28.3702" y2="14.9882" gradientUnits="userSpaceOnUse">
<stop stop-color="#007AFF"/>
<stop offset="1" stop-color="#80BDFF"/>
</linearGradient>
</defs>
</svg>
