<svg width="40" height="40" viewBox="0 0 40 40" fill="none" xmlns="http://www.w3.org/2000/svg">
<rect width="40" height="40" rx="20" fill="white"/>
<path d="M29.15 14.17C28.74 13.95 27.88 13.72 26.71 14.54L25.24 15.58C25.13 12.47 23.78 11.25 20.5 11.25H14.5C11.08 11.25 9.75 12.58 9.75 16V24C9.75 26.3 11 28.75 14.5 28.75H20.5C23.78 28.75 25.13 27.53 25.24 24.42L26.71 25.46C27.33 25.9 27.87 26.04 28.3 26.04C28.67 26.04 28.96 25.93 29.15 25.83C29.56 25.62 30.25 25.05 30.25 23.62V16.38C30.25 14.95 29.56 14.38 29.15 14.17ZM19 19.38C17.97 19.38 17.12 18.54 17.12 17.5C17.12 16.46 17.97 15.62 19 15.62C20.03 15.62 20.88 16.46 20.88 17.5C20.88 18.54 20.03 19.38 19 19.38Z" fill="url(#paint0_linear_7687_12394)"/>
<defs>
<linearGradient id="paint0_linear_7687_12394" x1="30.4946" y1="19.9361" x2="9.99461" y2="19.9361" gradientUnits="userSpaceOnUse">
<stop stop-color="#0075FF"/>
<stop offset="1" stop-color="#FF2400"/>
</linearGradient>
</defs>
</svg>
