<svg width="53" height="53" viewBox="0 0 53 53" fill="none" xmlns="http://www.w3.org/2000/svg">
<path d="M36.9275 0H15.8261C5.27536 0 0 5.27536 0 15.8261V50.1159C0 51.5667 1.18696 52.7536 2.63768 52.7536H36.9275C47.4783 52.7536 52.7536 47.4783 52.7536 36.9275V15.8261C52.7536 5.27536 47.4783 0 36.9275 0Z" fill="#006FCD"/>
<path d="M32.0278 16.2036C32.3157 15.8634 32.6718 15.5864 33.0735 15.3904C33.4751 15.1945 33.9135 15.0837 34.3606 15.0653C34.8078 15.0468 35.2539 15.1211 35.6705 15.2833C36.0871 15.4455 36.4652 15.6922 36.7805 16.0075C37.0958 16.3228 37.3416 16.6999 37.502 17.1148C37.6624 17.5296 37.7341 17.9731 37.7123 18.417C37.6906 18.8608 37.576 19.2953 37.3758 19.6928C37.1756 20.0902 36.8942 20.4419 36.5496 20.7253L21.2887 35.9862L15.0713 37.6819L16.7669 31.4645L32.0278 16.2036Z" fill="white"/>
</svg>
