<svg width="32" height="32" viewBox="0 0 32 32" fill="none" xmlns="http://www.w3.org/2000/svg">
<path d="M13.8759 11.2409C13.7417 11.2456 13.6079 11.2233 13.4826 11.1752C13.3572 11.1271 13.2427 11.0543 13.1461 10.961C13.0495 10.8677 12.9727 10.756 12.9202 10.6323C12.8677 10.5087 12.8407 10.3758 12.8407 10.2415C12.8407 10.1072 12.8677 9.97432 12.9202 9.85071C12.9727 9.7271 13.0495 9.61533 13.1461 9.52206C13.2428 9.42879 13.3572 9.35594 13.4826 9.30785C13.6079 9.25976 13.7417 9.23741 13.8759 9.24215L21.4184 9.24215C21.6834 9.24232 21.9375 9.34766 22.1249 9.53504C22.3123 9.72243 22.4176 9.97653 22.4178 10.2415L22.4178 17.784C22.4225 17.9182 22.4002 18.052 22.3521 18.1774C22.304 18.3028 22.2311 18.4172 22.1379 18.5138C22.0446 18.6104 21.9328 18.6873 21.8092 18.7397C21.6856 18.7922 21.5527 18.8193 21.4184 18.8193C21.2841 18.8193 21.1512 18.7922 21.0276 18.7397C20.904 18.6873 20.7922 18.6104 20.6989 18.5138C20.6057 18.4172 20.5328 18.3028 20.4847 18.1774C20.4366 18.052 20.4143 17.9182 20.419 17.784L20.419 12.6551L11.2832 21.7909C11.0957 21.9785 10.8413 22.0838 10.5761 22.0838C10.3109 22.0838 10.0565 21.9785 9.86899 21.7909C9.68146 21.6034 9.5761 21.349 9.5761 21.0838C9.5761 20.8186 9.68146 20.5643 9.86899 20.3767L19.0048 11.2409L13.8759 11.2409Z" fill="#FFCBCC"/>
</svg>
