<svg width="8" height="13" viewBox="0 0 8 13" fill="none" xmlns="http://www.w3.org/2000/svg">
<path d="M3.78776 0.000233643C4.94801 0.000233643 5.87507 0.318734 6.56895 0.955734C7.2742 1.59273 7.62682 2.46292 7.62682 3.5663C7.62682 4.71517 7.26282 5.57967 6.53482 6.1598C5.80682 6.73992 4.83995 7.02998 3.6342 7.02998L3.56595 8.37792H1.87676L1.79145 5.69911H2.35451C3.45788 5.69911 4.29963 5.55123 4.87976 5.25548C5.47126 4.95973 5.76701 4.39667 5.76701 3.5663C5.76701 2.96342 5.5907 2.49136 5.23807 2.15011C4.89682 1.80886 4.41907 1.63823 3.80482 1.63823C3.19057 1.63823 2.70713 1.80317 2.35451 2.13305C2.00188 2.46292 1.82557 2.92361 1.82557 3.51511H-0.000117139C-0.000117139 2.83261 0.153445 2.22405 0.46057 1.68942C0.767695 1.1548 1.20563 0.739609 1.77438 0.443859C2.35451 0.148109 3.02563 0.000233643 3.78776 0.000233643ZM2.69576 12.1487C2.34313 12.1487 2.04738 12.0293 1.80851 11.7904C1.56963 11.5515 1.4502 11.2558 1.4502 10.9032C1.4502 10.5505 1.56963 10.2548 1.80851 10.0159C2.04738 9.77705 2.34313 9.65761 2.69576 9.65761C3.03701 9.65761 3.32707 9.77705 3.56595 10.0159C3.80482 10.2548 3.92426 10.5505 3.92426 10.9032C3.92426 11.2558 3.80482 11.5515 3.56595 11.7904C3.32707 12.0293 3.03701 12.1487 2.69576 12.1487Z" fill="#646565"/>
</svg>
