<svg width="22" height="24" viewBox="0 0 22 24" fill="none" xmlns="http://www.w3.org/2000/svg">
<g filter="url(#filter0_i_7181_73425)">
<path d="M8.88999 0.439988C9.91421 -0.151348 11.1761 -0.151347 12.2003 0.439989L19.4356 4.61726C20.4598 5.20859 21.0907 6.30143 21.0907 7.4841V15.8386C21.0907 17.0213 20.4598 18.1141 19.4356 18.7055L12.2003 22.8827C11.1761 23.4741 9.91421 23.4741 8.88998 22.8827L1.65474 18.7055C0.630519 18.1141 -0.0004282 17.0213 -0.0004282 15.8386V7.4841C-0.0004282 6.30143 0.63052 5.20859 1.65474 4.61726L8.88999 0.439988Z" fill="url(#paint0_linear_7181_73425)"/>
</g>
<path d="M9.30371 1.15625C10.0717 0.712927 11.0181 0.713062 11.7861 1.15625L19.0215 5.33398C19.7897 5.77749 20.2627 6.59737 20.2627 7.48438V15.8389C20.2626 16.7258 19.7896 17.5448 19.0215 17.9883L11.7861 22.166C11.018 22.6093 10.0718 22.6095 9.30371 22.166L2.06836 17.9883C1.30046 17.5448 0.827231 16.7257 0.827148 15.8389V7.48438C0.827148 6.59743 1.30027 5.77751 2.06836 5.33398L9.30371 1.15625Z" stroke="url(#paint1_linear_7181_73425)" stroke-width="1.65517"/>
<defs>
<filter id="filter0_i_7181_73425" x="0" y="0" width="21.0908" height="23.3281" filterUnits="userSpaceOnUse" color-interpolation-filters="sRGB">
<feFlood flood-opacity="0" result="BackgroundImageFix"/>
<feBlend mode="normal" in="SourceGraphic" in2="BackgroundImageFix" result="shape"/>
<feColorMatrix in="SourceAlpha" type="matrix" values="0 0 0 0 0 0 0 0 0 0 0 0 0 0 0 0 0 0 127 0" result="hardAlpha"/>
<feOffset dx="2.89655" dy="1.65517"/>
<feComposite in2="hardAlpha" operator="arithmetic" k2="-1" k3="1"/>
<feColorMatrix type="matrix" values="0 0 0 0 0 0 0 0 0 0 0 0 0 0 0 0 0 0 0.33 0"/>
<feBlend mode="normal" in2="shape" result="effect1_innerShadow_7181_73425"/>
</filter>
<linearGradient id="paint0_linear_7181_73425" x1="4.64141" y1="-0.515625" x2="16.4489" y2="23.8384" gradientUnits="userSpaceOnUse">
<stop stop-color="#4C2310"/>
<stop offset="1" stop-color="#C05425"/>
</linearGradient>
<linearGradient id="paint1_linear_7181_73425" x1="5.61148" y1="-0.515625" x2="15.4788" y2="23.8384" gradientUnits="userSpaceOnUse">
<stop stop-color="#FF6B2A"/>
<stop offset="0.50286" stop-color="#F5B396"/>
<stop offset="1" stop-color="#702F13"/>
</linearGradient>
</defs>
</svg>
