<svg width="24" height="24" viewBox="0 0 24 24" fill="none" xmlns="http://www.w3.org/2000/svg">
<g clip-path="url(#clip0_7181_73386)">
<g filter="url(#filter0_i_7181_73386)">
<path d="M10.346 0.775926C11.3703 0.18459 12.6322 0.184591 13.6564 0.775927L20.8916 4.9532C21.9158 5.54453 22.5468 6.63736 22.5468 7.82004V16.1746C22.5468 17.3572 21.9158 18.4501 20.8916 19.0414L13.6564 23.2187C12.6322 23.81 11.3703 23.81 10.346 23.2187L3.1108 19.0414C2.08657 18.4501 1.45563 17.3572 1.45563 16.1746V7.82004C1.45563 6.63736 2.08657 5.54453 3.1108 4.95319L10.346 0.775926Z" fill="url(#paint0_linear_7181_73386)"/>
</g>
<path d="M10.7598 1.49219C11.5277 1.04886 12.4742 1.049 13.2422 1.49219L20.4775 5.66992C21.2457 6.11342 21.7188 6.93331 21.7188 7.82031V16.1748C21.7187 17.0617 21.2456 17.8808 20.4775 18.3242L13.2422 22.502C12.4741 22.9453 11.5278 22.9454 10.7598 22.502L3.52441 18.3242C2.75651 17.8807 2.28329 17.0616 2.2832 16.1748V7.82031C2.2832 6.93336 2.75633 6.11344 3.52441 5.66992L10.7598 1.49219Z" stroke="url(#paint1_linear_7181_73386)" stroke-width="1.65517"/>
<g filter="url(#filter1_d_7181_73386)">
<path d="M14.0599 15.5857V16.9297H9.07991V15.5857H10.7599V11.1757C10.7599 11.0637 10.7619 10.9517 10.7659 10.8397C10.7699 10.7237 10.7759 10.6077 10.7839 10.4917L9.78791 11.3197C9.69991 11.3877 9.61191 11.4297 9.52391 11.4457C9.43991 11.4577 9.35991 11.4577 9.28391 11.4457C9.20791 11.4297 9.13991 11.4037 9.07991 11.3677C9.01991 11.3277 8.97591 11.2877 8.94791 11.2477L8.35991 10.4677L11.0839 8.18169H12.6199V15.5857H14.0599Z" fill="#FFDBB2"/>
</g>
</g>
<defs>
<filter id="filter0_i_7181_73386" x="1.45605" y="0.335938" width="21.0908" height="23.3281" filterUnits="userSpaceOnUse" color-interpolation-filters="sRGB">
<feFlood flood-opacity="0" result="BackgroundImageFix"/>
<feBlend mode="normal" in="SourceGraphic" in2="BackgroundImageFix" result="shape"/>
<feColorMatrix in="SourceAlpha" type="matrix" values="0 0 0 0 0 0 0 0 0 0 0 0 0 0 0 0 0 0 127 0" result="hardAlpha"/>
<feOffset dx="2.89655" dy="1.65517"/>
<feComposite in2="hardAlpha" operator="arithmetic" k2="-1" k3="1"/>
<feColorMatrix type="matrix" values="0 0 0 0 0 0 0 0 0 0 0 0 0 0 0 0 0 0 0.33 0"/>
<feBlend mode="normal" in2="shape" result="effect1_innerShadow_7181_73386"/>
</filter>
<filter id="filter1_d_7181_73386" x="8.36035" y="8.17969" width="6.11301" height="9.16379" filterUnits="userSpaceOnUse" color-interpolation-filters="sRGB">
<feFlood flood-opacity="0" result="BackgroundImageFix"/>
<feColorMatrix in="SourceAlpha" type="matrix" values="0 0 0 0 0 0 0 0 0 0 0 0 0 0 0 0 0 0 127 0" result="hardAlpha"/>
<feOffset dx="0.413793" dy="0.413793"/>
<feComposite in2="hardAlpha" operator="out"/>
<feColorMatrix type="matrix" values="0 0 0 0 0 0 0 0 0 0 0 0 0 0 0 0 0 0 0.25 0"/>
<feBlend mode="normal" in2="BackgroundImageFix" result="effect1_dropShadow_7181_73386"/>
<feBlend mode="normal" in="SourceGraphic" in2="effect1_dropShadow_7181_73386" result="shape"/>
</filter>
<linearGradient id="paint0_linear_7181_73386" x1="6.09746" y1="-0.179687" x2="17.905" y2="24.1743" gradientUnits="userSpaceOnUse">
<stop stop-color="#E57B28"/>
<stop offset="1" stop-color="#F2A437"/>
</linearGradient>
<linearGradient id="paint1_linear_7181_73386" x1="7.06754" y1="-0.179688" x2="16.9349" y2="24.1743" gradientUnits="userSpaceOnUse">
<stop stop-color="#E8882C"/>
<stop offset="0.50286" stop-color="#FFD08B"/>
<stop offset="1" stop-color="#FFC437"/>
</linearGradient>
<clipPath id="clip0_7181_73386">
<rect width="24" height="24" fill="white"/>
</clipPath>
</defs>
</svg>
