<svg width="135" height="36" viewBox="0 0 135 36" fill="none" xmlns="http://www.w3.org/2000/svg">
<rect width="135" height="36" rx="8" transform="matrix(1 0 0 -1 0 36)" fill="#181919"/>
<path d="M14.0015 23L11.9215 19.386H10.7905V23H9.3085V13.965H12.4285C13.1218 13.965 13.7068 14.0863 14.1835 14.329C14.6688 14.5717 15.0285 14.8967 15.2625 15.304C15.5052 15.7113 15.6265 16.1663 15.6265 16.669C15.6265 17.2583 15.4532 17.7957 15.1065 18.281C14.7685 18.7577 14.2442 19.0827 13.5335 19.256L15.7695 23H14.0015ZM10.7905 18.203H12.4285C12.9832 18.203 13.3992 18.0643 13.6765 17.787C13.9625 17.5097 14.1055 17.137 14.1055 16.669C14.1055 16.201 13.9668 15.837 13.6895 15.577C13.4122 15.3083 12.9918 15.174 12.4285 15.174H10.7905V18.203ZM24.0874 19.243C24.0874 19.5117 24.07 19.7543 24.0354 19.971H18.5624C18.6057 20.543 18.818 21.0023 19.1994 21.349C19.5807 21.6957 20.0487 21.869 20.6034 21.869C21.4007 21.869 21.964 21.5353 22.2934 20.868H23.8924C23.6757 21.5267 23.2814 22.0683 22.7094 22.493C22.146 22.909 21.444 23.117 20.6034 23.117C19.9187 23.117 19.3034 22.9653 18.7574 22.662C18.22 22.35 17.7954 21.9167 17.4834 21.362C17.18 20.7987 17.0284 20.1487 17.0284 19.412C17.0284 18.6753 17.1757 18.0297 17.4704 17.475C17.7737 16.9117 18.194 16.4783 18.7314 16.175C19.2774 15.8717 19.9014 15.72 20.6034 15.72C21.2794 15.72 21.8817 15.8673 22.4104 16.162C22.939 16.4567 23.3507 16.8727 23.6454 17.41C23.94 17.9387 24.0874 18.5497 24.0874 19.243ZM22.5404 18.775C22.5317 18.229 22.3367 17.7913 21.9554 17.462C21.574 17.1327 21.1017 16.968 20.5384 16.968C20.027 16.968 19.5894 17.1327 19.2254 17.462C18.8614 17.7827 18.6447 18.2203 18.5754 18.775H22.5404ZM25.0518 19.412C25.0518 18.6753 25.1991 18.0297 25.4938 17.475C25.7971 16.9117 26.2131 16.4783 26.7418 16.175C27.2705 15.8717 27.8771 15.72 28.5618 15.72C29.4285 15.72 30.1435 15.928 30.7068 16.344C31.2788 16.7513 31.6645 17.3363 31.8638 18.099H30.2648C30.1348 17.7437 29.9268 17.4663 29.6408 17.267C29.3548 17.0677 28.9951 16.968 28.5618 16.968C27.9551 16.968 27.4698 17.1847 27.1058 17.618C26.7505 18.0427 26.5728 18.6407 26.5728 19.412C26.5728 20.1833 26.7505 20.7857 27.1058 21.219C27.4698 21.6523 27.9551 21.869 28.5618 21.869C29.4198 21.869 29.9875 21.492 30.2648 20.738H31.8638C31.6558 21.466 31.2658 22.0467 30.6938 22.48C30.1218 22.9047 29.4111 23.117 28.5618 23.117C27.8771 23.117 27.2705 22.9653 26.7418 22.662C26.2131 22.35 25.7971 21.9167 25.4938 21.362C25.1991 20.7987 25.0518 20.1487 25.0518 19.412ZM36.4477 23.117C35.7717 23.117 35.1607 22.9653 34.6147 22.662C34.0687 22.35 33.6397 21.9167 33.3277 21.362C33.0157 20.7987 32.8597 20.1487 32.8597 19.412C32.8597 18.684 33.0201 18.0383 33.3407 17.475C33.6614 16.9117 34.0991 16.4783 34.6537 16.175C35.2084 15.8717 35.8281 15.72 36.5127 15.72C37.1974 15.72 37.8171 15.8717 38.3717 16.175C38.9264 16.4783 39.3641 16.9117 39.6847 17.475C40.0054 18.0383 40.1657 18.684 40.1657 19.412C40.1657 20.14 40.0011 20.7857 39.6717 21.349C39.3424 21.9123 38.8917 22.35 38.3197 22.662C37.7564 22.9653 37.1324 23.117 36.4477 23.117ZM36.4477 21.83C36.8291 21.83 37.1844 21.739 37.5137 21.557C37.8517 21.375 38.1247 21.102 38.3327 20.738C38.5407 20.374 38.6447 19.932 38.6447 19.412C38.6447 18.892 38.5451 18.4543 38.3457 18.099C38.1464 17.735 37.8821 17.462 37.5527 17.28C37.2234 17.098 36.8681 17.007 36.4867 17.007C36.1054 17.007 35.7501 17.098 35.4207 17.28C35.1001 17.462 34.8444 17.735 34.6537 18.099C34.4631 18.4543 34.3677 18.892 34.3677 19.412C34.3677 20.1833 34.5627 20.7813 34.9527 21.206C35.3514 21.622 35.8497 21.83 36.4477 21.83ZM43.1128 16.877C43.3294 16.513 43.6154 16.2313 43.9708 16.032C44.3348 15.824 44.7638 15.72 45.2578 15.72V17.254H44.8808C44.3001 17.254 43.8581 17.4013 43.5548 17.696C43.2601 17.9907 43.1128 18.502 43.1128 19.23V23H41.6308V15.837H43.1128V16.877ZM46.126 19.386C46.126 18.6667 46.2734 18.0297 46.568 17.475C46.8714 16.9203 47.2787 16.4913 47.79 16.188C48.31 15.876 48.8864 15.72 49.519 15.72C49.987 15.72 50.4464 15.824 50.897 16.032C51.3564 16.2313 51.7204 16.5 51.989 16.838V13.38H53.484V23H51.989V21.921C51.7464 22.2677 51.4084 22.5537 50.975 22.779C50.5504 23.0043 50.0607 23.117 49.506 23.117C48.882 23.117 48.31 22.961 47.79 22.649C47.2787 22.3283 46.8714 21.8863 46.568 21.323C46.2734 20.751 46.126 20.1053 46.126 19.386ZM51.989 19.412C51.989 18.918 51.885 18.489 51.677 18.125C51.4777 17.761 51.2134 17.4837 50.884 17.293C50.5547 17.1023 50.1994 17.007 49.818 17.007C49.4367 17.007 49.0814 17.1023 48.752 17.293C48.4227 17.475 48.154 17.748 47.946 18.112C47.7467 18.4673 47.647 18.892 47.647 19.386C47.647 19.88 47.7467 20.3133 47.946 20.686C48.154 21.0587 48.4227 21.3447 48.752 21.544C49.09 21.7347 49.4454 21.83 49.818 21.83C50.1994 21.83 50.5547 21.7347 50.884 21.544C51.2134 21.3533 51.4777 21.076 51.677 20.712C51.885 20.3393 51.989 19.906 51.989 19.412ZM56.1846 14.888C55.9159 14.888 55.6906 14.797 55.5086 14.615C55.3266 14.433 55.2356 14.2077 55.2356 13.939C55.2356 13.6703 55.3266 13.445 55.5086 13.263C55.6906 13.081 55.9159 12.99 56.1846 12.99C56.4446 12.99 56.6656 13.081 56.8476 13.263C57.0296 13.445 57.1206 13.6703 57.1206 13.939C57.1206 14.2077 57.0296 14.433 56.8476 14.615C56.6656 14.797 56.4446 14.888 56.1846 14.888ZM56.9126 15.837V23H55.4306V15.837H56.9126ZM62.4723 15.72C63.0356 15.72 63.5383 15.837 63.9803 16.071C64.431 16.305 64.782 16.6517 65.0333 17.111C65.2846 17.5703 65.4103 18.125 65.4103 18.775V23H63.9413V18.996C63.9413 18.3547 63.781 17.865 63.4603 17.527C63.1396 17.1803 62.702 17.007 62.1473 17.007C61.5926 17.007 61.1506 17.1803 60.8213 17.527C60.5006 17.865 60.3403 18.3547 60.3403 18.996V23H58.8583V15.837H60.3403V16.656C60.583 16.3613 60.8906 16.1317 61.2633 15.967C61.6446 15.8023 62.0476 15.72 62.4723 15.72ZM70.1867 15.72C70.7414 15.72 71.231 15.8327 71.6557 16.058C72.089 16.2747 72.427 16.5477 72.6697 16.877V15.837H74.1647V23.117C74.1647 23.7757 74.026 24.3607 73.7487 24.872C73.4714 25.392 73.0684 25.7993 72.5397 26.094C72.0197 26.3887 71.3957 26.536 70.6677 26.536C69.697 26.536 68.891 26.3063 68.2497 25.847C67.6084 25.3963 67.2444 24.781 67.1577 24.001H68.6267C68.7394 24.3737 68.9777 24.6727 69.3417 24.898C69.7144 25.132 70.1564 25.249 70.6677 25.249C71.2657 25.249 71.7467 25.067 72.1107 24.703C72.4834 24.339 72.6697 23.8103 72.6697 23.117V21.921C72.4184 22.259 72.076 22.545 71.6427 22.779C71.218 23.0043 70.7327 23.117 70.1867 23.117C69.5627 23.117 68.9907 22.961 68.4707 22.649C67.9594 22.3283 67.552 21.8863 67.2487 21.323C66.954 20.751 66.8067 20.1053 66.8067 19.386C66.8067 18.6667 66.954 18.0297 67.2487 17.475C67.552 16.9203 67.9594 16.4913 68.4707 16.188C68.9907 15.876 69.5627 15.72 70.1867 15.72ZM72.6697 19.412C72.6697 18.918 72.5657 18.489 72.3577 18.125C72.1584 17.761 71.894 17.4837 71.5647 17.293C71.2354 17.1023 70.88 17.007 70.4987 17.007C70.1174 17.007 69.762 17.1023 69.4327 17.293C69.1034 17.475 68.8347 17.748 68.6267 18.112C68.4274 18.4673 68.3277 18.892 68.3277 19.386C68.3277 19.88 68.4274 20.3133 68.6267 20.686C68.8347 21.0587 69.1034 21.3447 69.4327 21.544C69.7707 21.7347 70.126 21.83 70.4987 21.83C70.88 21.83 71.2354 21.7347 71.5647 21.544C71.894 21.3533 72.1584 21.076 72.3577 20.712C72.5657 20.3393 72.6697 19.906 72.6697 19.412ZM82.4652 23.091C81.8585 23.091 81.3125 22.987 80.8272 22.779C80.3419 22.5623 79.9605 22.259 79.6832 21.869C79.4059 21.479 79.2672 21.024 79.2672 20.504H80.8532C80.8879 20.894 81.0395 21.2147 81.3082 21.466C81.5855 21.7173 81.9712 21.843 82.4652 21.843C82.9765 21.843 83.3752 21.7217 83.6612 21.479C83.9472 21.2277 84.0902 20.907 84.0902 20.517C84.0902 20.2137 83.9992 19.9667 83.8172 19.776C83.6439 19.5853 83.4229 19.438 83.1542 19.334C82.8942 19.23 82.5302 19.1173 82.0622 18.996C81.4729 18.84 80.9919 18.684 80.6192 18.528C80.2552 18.3633 79.9432 18.112 79.6832 17.774C79.4232 17.436 79.2932 16.9853 79.2932 16.422C79.2932 15.902 79.4232 15.447 79.6832 15.057C79.9432 14.667 80.3072 14.368 80.7752 14.16C81.2432 13.952 81.7849 13.848 82.4002 13.848C83.2755 13.848 83.9905 14.069 84.5452 14.511C85.1085 14.9443 85.4205 15.5423 85.4812 16.305H83.8432C83.8172 15.9757 83.6612 15.694 83.3752 15.46C83.0892 15.226 82.7122 15.109 82.2442 15.109C81.8195 15.109 81.4729 15.2173 81.2042 15.434C80.9355 15.6507 80.8012 15.9627 80.8012 16.37C80.8012 16.6473 80.8835 16.877 81.0482 17.059C81.2215 17.2323 81.4382 17.371 81.6982 17.475C81.9582 17.579 82.3135 17.6917 82.7642 17.813C83.3622 17.9777 83.8475 18.1423 84.2202 18.307C84.6015 18.4717 84.9222 18.7273 85.1822 19.074C85.4509 19.412 85.5852 19.867 85.5852 20.439C85.5852 20.8983 85.4595 21.3317 85.2082 21.739C84.9655 22.1463 84.6059 22.4757 84.1292 22.727C83.6612 22.9697 83.1065 23.091 82.4652 23.091ZM89.0629 17.046V21.011C89.0629 21.2797 89.1236 21.4747 89.2449 21.596C89.3749 21.7087 89.5916 21.765 89.8949 21.765H90.8049V23H89.6349C88.9676 23 88.4562 22.844 88.1009 22.532C87.7456 22.22 87.5679 21.713 87.5679 21.011V17.046H86.7229V15.837H87.5679V14.056H89.0629V15.837H90.8049V17.046H89.0629ZM91.6768 19.386C91.6768 18.6667 91.8241 18.0297 92.1188 17.475C92.4221 16.9203 92.8295 16.4913 93.3408 16.188C93.8608 15.876 94.4328 15.72 95.0568 15.72C95.6201 15.72 96.1098 15.8327 96.5258 16.058C96.9505 16.2747 97.2885 16.5477 97.5398 16.877V15.837H99.0348V23H97.5398V21.934C97.2885 22.272 96.9461 22.5537 96.5128 22.779C96.0795 23.0043 95.5855 23.117 95.0308 23.117C94.4155 23.117 93.8521 22.961 93.3408 22.649C92.8295 22.3283 92.4221 21.8863 92.1188 21.323C91.8241 20.751 91.6768 20.1053 91.6768 19.386ZM97.5398 19.412C97.5398 18.918 97.4358 18.489 97.2278 18.125C97.0285 17.761 96.7641 17.4837 96.4348 17.293C96.1055 17.1023 95.7501 17.007 95.3688 17.007C94.9875 17.007 94.6321 17.1023 94.3028 17.293C93.9735 17.475 93.7048 17.748 93.4968 18.112C93.2975 18.4673 93.1978 18.892 93.1978 19.386C93.1978 19.88 93.2975 20.3133 93.4968 20.686C93.7048 21.0587 93.9735 21.3447 94.3028 21.544C94.6408 21.7347 94.9961 21.83 95.3688 21.83C95.7501 21.83 96.1055 21.7347 96.4348 21.544C96.7641 21.3533 97.0285 21.076 97.2278 20.712C97.4358 20.3393 97.5398 19.906 97.5398 19.412ZM102.463 16.877C102.68 16.513 102.966 16.2313 103.321 16.032C103.685 15.824 104.114 15.72 104.608 15.72V17.254H104.231C103.651 17.254 103.209 17.4013 102.905 17.696C102.611 17.9907 102.463 18.502 102.463 19.23V23H100.981V15.837H102.463V16.877ZM107.7 17.046V21.011C107.7 21.2797 107.76 21.4747 107.882 21.596C108.012 21.7087 108.228 21.765 108.532 21.765H109.442V23H108.272C107.604 23 107.093 22.844 106.738 22.532C106.382 22.22 106.205 21.713 106.205 21.011V17.046H105.36V15.837H106.205V14.056H107.7V15.837H109.442V17.046H107.7ZM117.373 19.243C117.373 19.5117 117.355 19.7543 117.321 19.971H111.848C111.891 20.543 112.103 21.0023 112.485 21.349C112.866 21.6957 113.334 21.869 113.889 21.869C114.686 21.869 115.249 21.5353 115.579 20.868H117.178C116.961 21.5267 116.567 22.0683 115.995 22.493C115.431 22.909 114.729 23.117 113.889 23.117C113.204 23.117 112.589 22.9653 112.043 22.662C111.505 22.35 111.081 21.9167 110.769 21.362C110.465 20.7987 110.314 20.1487 110.314 19.412C110.314 18.6753 110.461 18.0297 110.756 17.475C111.059 16.9117 111.479 16.4783 112.017 16.175C112.563 15.8717 113.187 15.72 113.889 15.72C114.565 15.72 115.167 15.8673 115.696 16.162C116.224 16.4567 116.636 16.8727 116.931 17.41C117.225 17.9387 117.373 18.5497 117.373 19.243ZM115.826 18.775C115.817 18.229 115.622 17.7913 115.241 17.462C114.859 17.1327 114.387 16.968 113.824 16.968C113.312 16.968 112.875 17.1327 112.511 17.462C112.147 17.7827 111.93 18.2203 111.861 18.775H115.826ZM118.337 19.386C118.337 18.6667 118.484 18.0297 118.779 17.475C119.082 16.9203 119.49 16.4913 120.001 16.188C120.521 15.876 121.097 15.72 121.73 15.72C122.198 15.72 122.657 15.824 123.108 16.032C123.567 16.2313 123.931 16.5 124.2 16.838V13.38H125.695V23H124.2V21.921C123.957 22.2677 123.619 22.5537 123.186 22.779C122.761 23.0043 122.272 23.117 121.717 23.117C121.093 23.117 120.521 22.961 120.001 22.649C119.49 22.3283 119.082 21.8863 118.779 21.323C118.484 20.751 118.337 20.1053 118.337 19.386ZM124.2 19.412C124.2 18.918 124.096 18.489 123.888 18.125C123.689 17.761 123.424 17.4837 123.095 17.293C122.766 17.1023 122.41 17.007 122.029 17.007C121.648 17.007 121.292 17.1023 120.963 17.293C120.634 17.475 120.365 17.748 120.157 18.112C119.958 18.4673 119.858 18.892 119.858 19.386C119.858 19.88 119.958 20.3133 120.157 20.686C120.365 21.0587 120.634 21.3447 120.963 21.544C121.301 21.7347 121.656 21.83 122.029 21.83C122.41 21.83 122.766 21.7347 123.095 21.544C123.424 21.3533 123.689 21.076 123.888 20.712C124.096 20.3393 124.2 19.906 124.2 19.412Z" fill="white"/>
</svg>
