<svg width="44" height="44" viewBox="0 0 44 44" fill="none" xmlns="http://www.w3.org/2000/svg">
<rect x="0.703434" y="0.703434" width="42.206" height="42.206" rx="21.103" fill="#006FCD"/>
<rect x="0.703434" y="0.703434" width="42.206" height="42.206" rx="21.103" stroke="#006FCD" stroke-width="1.40687"/>
<path d="M25.0099 29.7768L28.0585 35.8744L31.1536 32.6999L35.8747 32.7472L31.4822 24.0228V24.0078M18.6021 29.7768L15.5535 35.8744L12.4584 32.6999L7.7373 32.7472L12.1297 24.0228V24.0078" fill="#B0D2F0"/>
<path d="M25.0099 29.7768L28.0585 35.8744L31.1536 32.6999L35.8747 32.7472L31.4822 24.0228V24.0078M18.6021 29.7768L15.5535 35.8744L12.4584 32.6999L7.7373 32.7472L12.1297 24.0228V24.0078" stroke="#006FCD" stroke-width="1.56319" stroke-linecap="round" stroke-linejoin="round"/>
<path d="M33.1843 18.6734C33.1843 19.8622 32.1369 20.8626 31.7925 21.926C31.4488 22.9887 31.6837 24.4431 31.0114 25.3655C30.3391 26.2878 28.9007 26.4912 28.0566 27.1794C27.2125 27.8676 26.4936 29.1494 25.3997 29.5089C24.3049 29.8684 23.0699 29.1802 21.8821 29.1802C20.6943 29.1802 19.4285 29.8526 18.3653 29.5089C17.3021 29.1644 16.6298 27.8353 15.7076 27.1794C14.7847 26.5227 13.3471 26.2878 12.6748 25.3655C12.0025 24.4424 12.2531 23.0202 11.8937 21.926C11.5336 20.8311 10.4238 19.8622 10.4238 18.6734C10.4238 17.4847 11.4713 16.485 11.8149 15.4216C12.1586 14.3582 11.9245 12.9045 12.5968 11.9821C13.2691 11.0598 14.7075 10.8564 15.6296 10.1682C16.5518 9.48002 17.1145 8.19819 18.2865 7.83871C19.4593 7.47848 20.6163 8.16667 21.8041 8.16667C22.9918 8.16667 24.2577 7.49424 25.3216 7.83871C26.3841 8.18243 27.0564 9.51154 28.0566 10.1682C29.0568 10.8249 30.4171 11.059 31.0894 11.9821C31.7617 12.9052 31.5118 14.3274 31.8712 15.4216C32.2307 16.5158 33.1843 17.4854 33.1843 18.6734ZM21.8041 13.9829C20.5602 13.9829 19.3673 14.4771 18.4878 15.3568C17.6083 16.2366 17.1141 17.4297 17.1141 18.6738C17.1141 19.9179 17.6083 21.1111 18.4878 21.9908C19.3673 22.8705 20.5602 23.3647 21.8041 23.3647C23.0478 23.3647 24.2406 22.8705 25.1201 21.9909C25.9996 21.1112 26.4936 19.9182 26.4936 18.6742C26.4936 17.4302 25.9996 16.2371 25.1201 15.3575C24.2406 14.4778 23.0478 13.9829 21.8041 13.9829Z" fill="#B0D2F0" stroke="#006FCD" stroke-width="1.56319" stroke-linecap="round" stroke-linejoin="round"/>
</svg>
