<svg width="20" height="20" viewBox="0 0 20 20" fill="none" xmlns="http://www.w3.org/2000/svg">
<path d="M7.30843 11.7638H8.14176V10.0971C8.14176 9.75375 8.26399 9.45931 8.50843 9.21375C8.75399 8.96931 9.04843 8.84709 9.39176 8.84709H11.0584V9.93625L12.5643 8.43042L11.0576 6.92375V8.01375H9.39093C8.81426 8.01375 8.32288 8.21653 7.91676 8.62209C7.51065 9.02764 7.30788 9.51931 7.30843 10.0971V11.7638ZM3.84676 14.5521C3.46288 14.5521 3.1426 14.4235 2.88593 14.1663C2.62926 13.909 2.50065 13.5888 2.5001 13.2054V5.06459C2.5001 4.68125 2.62871 4.36097 2.88593 4.10375C3.14315 3.84653 3.46315 3.7182 3.84593 3.71875H16.1543C16.5376 3.71875 16.8576 3.84709 17.1143 4.10375C17.3709 4.36042 17.4995 4.6807 17.5001 5.06459V13.2063C17.5001 13.5896 17.3715 13.9096 17.1143 14.1663C16.857 14.4229 16.5368 14.5515 16.1534 14.5521H3.84676ZM3.84676 13.7188H16.1543C16.282 13.7188 16.3995 13.6651 16.5068 13.5579C16.614 13.4507 16.6673 13.3332 16.6668 13.2054V5.06459C16.6668 4.93681 16.6134 4.81931 16.5068 4.71209C16.3995 4.60486 16.2818 4.55125 16.1534 4.55125H3.84676C3.71843 4.55125 3.60065 4.60486 3.49343 4.71209C3.38676 4.81875 3.33343 4.93625 3.33343 5.06459V13.2063C3.33343 13.334 3.38676 13.4513 3.49343 13.5579C3.6001 13.6646 3.7176 13.7182 3.84593 13.7188M1.4751 16.2188V15.3854H18.5251V16.2188H1.4751Z" fill="white"/>
</svg>
