<svg width="40" height="40" viewBox="0 0 40 40" fill="none" xmlns="http://www.w3.org/2000/svg">
<rect width="40" height="40" rx="20" fill="#3D3D3D"/>
<path d="M25.4526 27.735L23.1587 25.441H11.2908V24.7119H22.4266L21.6974 23.9827H13.366C13.0301 23.9827 12.7498 23.8702 12.5252 23.6451C12.3007 23.42 12.1881 23.1398 12.1876 22.8044V15.6556C12.1876 15.4967 12.2297 15.3542 12.3138 15.2283C12.3979 15.1019 12.5053 15.0013 12.6361 14.9265L11.0151 13.2975L11.5314 12.7812L25.9689 27.2187L25.4526 27.735ZM17.3479 19.6245L16.7741 19.0463C16.6764 19.1556 16.5886 19.299 16.5109 19.4765C16.4331 19.6544 16.3942 19.8571 16.3942 20.0846V21.5429H17.1234V20.2275C17.1234 20.0962 17.1421 19.984 17.1795 19.8906C17.2169 19.7973 17.2731 19.7086 17.3479 19.6245ZM24.6732 23.8449L20.2376 19.4094L20.9938 18.6263L19.6754 17.3079V18.2617H19.0892L15.3318 14.5035H24.135C24.4704 14.5035 24.7504 14.6158 24.975 14.8404C25.1996 15.065 25.3121 15.3452 25.3126 15.6811V22.8051C25.3126 23.0088 25.2618 23.2057 25.1602 23.3957C25.0591 23.5858 24.8968 23.7355 24.6732 23.8449Z" fill="white"/>
</svg>
