<svg width="24" height="24" viewBox="0 0 24 24" fill="none" xmlns="http://www.w3.org/2000/svg">
<path d="M13.9985 9.33164L10.4985 12.8316M21.3345 1.20114C21.4452 1.16293 21.5645 1.15665 21.6786 1.18299C21.7927 1.20934 21.8971 1.26726 21.9798 1.35013C22.0626 1.433 22.1203 1.53748 22.1465 1.65163C22.1727 1.76578 22.1662 1.88499 22.1279 1.99564L15.2165 21.7473C15.1752 21.8654 15.0993 21.9683 14.9987 22.0427C14.8982 22.1171 14.7776 22.1596 14.6526 22.1646C14.5276 22.1697 14.4039 22.137 14.2977 22.0709C14.1915 22.0048 14.1076 21.9083 14.0569 21.794L10.3014 13.345C10.2382 13.2045 10.1257 13.092 9.9852 13.0288L1.5362 9.27214C1.42222 9.22124 1.32611 9.13734 1.26029 9.03126C1.19448 8.92518 1.16199 8.80181 1.16701 8.67707C1.17203 8.55234 1.21435 8.43198 1.28848 8.33154C1.36261 8.2311 1.46516 8.1552 1.58287 8.11364L21.3345 1.20114Z" stroke="#B5B5B5" stroke-width="2.33333" stroke-linecap="round" stroke-linejoin="round"/>
</svg>
