<svg width="24" height="24" viewBox="0 0 24 24" fill="none" xmlns="http://www.w3.org/2000/svg">
<path d="M12.53 20.4181L6.21 20.4181C3.05 20.4181 2 18.3181 2 16.2081L2 7.78813C2 4.62812 3.05 3.57813 6.21 3.57813L12.53 3.57813C15.69 3.57813 16.74 4.62812 16.74 7.78813L16.74 16.2081C16.74 19.3681 15.68 20.4181 12.53 20.4181Z" fill="#8F9090"/>
<path opacity="0.4" d="M19.5202 17.1001L16.7402 15.1501L16.7402 8.84013L19.5202 6.89013C20.8802 5.94013 22.0002 6.52013 22.0002 8.19013L22.0002 15.8101C22.0002 17.4801 20.8802 18.0601 19.5202 17.1001Z" fill="#8F9090"/>
<path opacity="0.4" d="M11.5 11C12.3284 11 13 10.3284 13 9.5C13 8.67157 12.3284 8 11.5 8C10.6716 8 10 8.67157 10 9.5C10 10.3284 10.6716 11 11.5 11Z" fill="#8F9090" stroke="#171717" stroke-width="1.5" stroke-linecap="round" stroke-linejoin="round"/>
</svg>
