<svg width="339" height="189" viewBox="0 0 339 189" fill="none" xmlns="http://www.w3.org/2000/svg">
<path d="M120.31 185.214H70.7087L0.000131045 2.81385H45.3803C49.2499 2.81385 52.4746 3.75195 55.0543 5.62813C57.7513 7.38705 59.5689 9.61501 60.507 12.312L85.8354 94.1018C87.8289 100.786 89.7051 107.294 91.464 113.626C93.3402 119.958 94.9232 126.29 96.2131 132.622C97.5029 126.29 99.086 119.958 100.962 113.626C102.838 107.294 104.832 100.786 106.942 94.1018L133.326 12.312C134.264 9.61501 136.023 7.38705 138.603 5.62813C141.183 3.75195 144.232 2.81385 147.749 2.81385H191.019L120.31 185.214ZM325.307 42.7413C323.9 44.9693 322.375 46.5523 320.734 47.4904C319.209 48.4285 317.216 48.8976 314.753 48.8976C312.174 48.8976 309.594 48.3699 307.014 47.3145C304.434 46.1419 301.62 44.9107 298.571 43.6208C295.64 42.3309 292.298 41.1583 288.545 40.103C284.793 38.9303 280.513 38.344 275.705 38.344C268.787 38.344 263.452 39.6925 259.699 42.3896C256.064 44.9693 254.247 48.6044 254.247 53.2949C254.247 56.6954 255.419 59.5097 257.764 61.7377C260.227 63.9656 263.452 65.9591 267.438 67.718C271.425 69.3597 275.94 70.9427 280.982 72.4671C286.024 73.9915 291.184 75.6918 296.461 77.568C301.737 79.4441 306.897 81.6721 311.939 84.2519C316.981 86.7143 321.496 89.8218 325.483 93.5741C329.47 97.2092 332.636 101.665 334.981 106.942C337.443 112.219 338.675 118.551 338.675 125.938C338.675 134.967 337.033 143.293 333.75 150.915C330.466 158.537 325.541 165.104 318.975 170.615C312.525 176.126 304.493 180.406 294.878 183.455C285.379 186.504 274.415 188.028 261.986 188.028C255.771 188.028 249.556 187.442 243.341 186.269C237.126 185.097 231.087 183.514 225.224 181.52C219.479 179.527 214.143 177.181 209.218 174.484C204.293 171.67 200.072 168.68 196.554 165.514L209.218 145.462C210.743 143.117 212.56 141.299 214.671 140.01C216.782 138.602 219.537 137.899 222.938 137.899C226.104 137.899 228.918 138.602 231.381 140.01C233.96 141.417 236.716 142.941 239.647 144.583C242.579 146.224 245.98 147.749 249.849 149.156C253.836 150.563 258.82 151.267 264.8 151.267C269.021 151.267 272.598 150.856 275.529 150.035C278.461 149.097 280.806 147.866 282.565 146.342C284.324 144.817 285.614 143.117 286.435 141.241C287.256 139.365 287.666 137.43 287.666 135.436C287.666 131.801 286.435 128.811 283.972 126.466C281.51 124.121 278.285 122.127 274.298 120.486C270.311 118.727 265.738 117.144 260.579 115.737C255.536 114.212 250.377 112.512 245.1 110.636C239.823 108.759 234.605 106.532 229.446 103.952C224.404 101.255 219.889 97.9128 215.902 93.9259C211.915 89.8218 208.69 84.8382 206.228 78.9751C203.766 73.112 202.534 66.0177 202.534 57.6922C202.534 49.9529 204 42.6241 206.932 35.7057C209.98 28.67 214.495 22.5138 220.475 17.237C226.456 11.9602 233.96 7.79747 242.989 4.74867C252.019 1.58261 262.572 -0.000423284 274.65 -0.000423284C281.217 -0.000423284 287.549 0.585883 293.646 1.7585C299.861 2.93112 305.666 4.57278 311.06 6.68347C316.454 8.79418 321.379 11.3153 325.835 14.2468C330.29 17.0611 334.219 20.1685 337.619 23.5691L325.307 42.7413Z" fill="url(#paint0_linear_179_10766)"/>
<defs>
<linearGradient id="paint0_linear_179_10766" x1="356.361" y1="160.662" x2="-1.8802" y2="49.6055" gradientUnits="userSpaceOnUse">
<stop stop-color="#969595"/>
<stop offset="0.207105" stop-color="#F9F9F9"/>
<stop offset="0.565" stop-color="#B5B5B5"/>
<stop offset="0.785" stop-color="white"/>
<stop offset="1" stop-color="#999999"/>
</linearGradient>
</defs>
</svg>
