<svg width="44" height="44" viewBox="0 0 44 44" fill="none" xmlns="http://www.w3.org/2000/svg">
<rect width="43.6129" height="43.6129" rx="21.8065" fill="#006FCD"/>
<path d="M13.3652 16.2031H18.9927H13.3652Z" fill="#B0D2F0"/>
<path d="M13.3652 16.2031H18.9927" stroke="#8ABDE8" stroke-width="1.40687" stroke-linecap="round" stroke-linejoin="round"/>
<path d="M34.4186 17.6031C34.3088 14.9788 33.9571 13.3694 32.8189 12.2367C31.1715 10.5937 28.5181 10.5938 23.2128 10.5938H18.9922C13.6869 10.5938 11.0336 10.5937 9.38615 12.2367C7.7373 13.8783 7.7373 16.5222 7.7373 21.8086C7.7373 27.0951 7.7373 29.739 9.38615 31.3805C11.0336 33.0235 13.6869 33.0235 18.9922 33.0235H23.2128C28.5181 33.0235 31.1715 33.0235 32.8189 31.3805C33.9571 30.2478 34.3102 28.6385 34.4186 26.0142" fill="#B0D2F0"/>
<path d="M34.4186 17.6031C34.3088 14.9788 33.9571 13.3694 32.8189 12.2367C31.1715 10.5937 28.5181 10.5938 23.2128 10.5938H18.9922C13.6869 10.5938 11.0336 10.5937 9.38615 12.2367C7.7373 13.8783 7.7373 16.5222 7.7373 21.8086C7.7373 27.0951 7.7373 29.739 9.38615 31.3805C11.0336 33.0235 13.6869 33.0235 18.9922 33.0235H23.2128C28.5181 33.0235 31.1715 33.0235 32.8189 31.3805C33.9571 30.2478 34.3102 28.6385 34.4186 26.0142" stroke="#006FCD" stroke-width="1.40687"/>
<path d="M34.2336 17.6016H30.5729C28.0617 17.6016 26.0273 19.4843 26.0273 21.8071C26.0273 24.13 28.0631 26.0127 30.5715 26.0127H34.2336C34.3518 26.0127 34.4095 26.0127 34.4587 26.0099C35.2184 25.9637 35.8234 25.4043 35.8726 24.702C35.8754 24.6571 35.8754 24.6025 35.8754 24.4945V19.1198C35.8754 19.0118 35.8754 18.9572 35.8726 18.9123C35.822 18.21 35.2184 17.6506 34.4587 17.6044C34.4109 17.6016 34.3518 17.6016 34.2336 17.6016Z" fill="#B0D2F0" stroke="#006FCD" stroke-width="1.40687"/>
<path d="M30.2373 21.8125H30.2514H30.2373Z" fill="#B0D2F0"/>
<path d="M30.2373 21.8125H30.2514" stroke="#8ABDE8" stroke-width="1.40687" stroke-linecap="round" stroke-linejoin="round"/>
</svg>
