<svg width="176" height="195" viewBox="0 0 176 195" fill="none" xmlns="http://www.w3.org/2000/svg">
<g clip-path="url(#clip0_196_33658)">
<path opacity="0.1" d="M5.05749 166.199C3.48679 155.081 6.53227 143.013 15.3358 133.077C39.4266 105.886 38.4007 111.346 42.6351 78.6205C46.8695 45.8954 82.5077 33.13 108.904 46.7706C140.861 63.2834 124.279 69.4899 162.385 97.0617C195.324 120.896 164.798 165.833 110.441 184.679C66.5092 199.911 9.60679 198.4 5.05749 166.199Z" fill="#367CFF"/>
<path d="M32.3825 70.543H134.237C136.551 70.5431 138.771 71.4626 140.407 73.0992C142.044 74.7357 142.963 76.9554 142.963 79.2698V156.61C142.963 158.924 142.043 161.144 140.407 162.78C138.77 164.417 136.551 165.336 134.236 165.336H28.4942C26.1797 165.336 23.9601 164.417 22.3235 162.78C20.687 161.144 19.7676 158.924 19.7676 156.61V83.1581C19.7676 79.8124 21.0966 76.6037 23.4624 74.2379C25.8281 71.8721 29.0368 70.543 32.3825 70.543Z" fill="#262626"/>
<path d="M141.85 77.9453H28.4942C23.6746 77.9453 19.7676 81.8523 19.7676 86.6719V164.012C19.7676 168.831 23.6746 172.738 28.4942 172.738H141.85C146.67 172.738 150.577 168.831 150.577 164.012V86.6719C150.577 81.8523 146.67 77.9453 141.85 77.9453Z" fill="#367CFF"/>
<path opacity="0.55" d="M141.85 77.9453H28.4942C23.6746 77.9453 19.7676 81.8523 19.7676 86.6719V164.012C19.7676 168.831 23.6746 172.738 28.4942 172.738H141.85C146.67 172.738 150.577 168.831 150.577 164.012V86.6719C150.577 81.8523 146.67 77.9453 141.85 77.9453Z" fill="white"/>
<path d="M141.851 173.053H28.4952C26.0984 173.05 23.8006 172.097 22.1058 170.402C20.411 168.707 19.4577 166.409 19.4551 164.013V86.6731C19.4578 84.2763 20.4111 81.9785 22.1058 80.2837C23.8006 78.5889 26.0984 77.6356 28.4952 77.6328H141.851C144.248 77.6356 146.546 78.589 148.241 80.2838C149.935 81.9786 150.889 84.2764 150.891 86.6731V164.013C150.889 166.409 149.935 168.707 148.241 170.402C146.546 172.097 144.248 173.05 141.851 173.053ZM28.4952 78.2591C26.2645 78.2615 24.1259 79.1486 22.5487 80.7259C20.9714 82.3032 20.0843 84.4418 20.082 86.6725V164.012C20.0843 166.243 20.9715 168.381 22.5487 169.958C24.126 171.536 26.2646 172.423 28.4952 172.425H141.851C144.082 172.423 146.22 171.536 147.798 169.958C149.375 168.381 150.262 166.243 150.264 164.012V86.6731C150.262 84.4425 149.375 82.3039 147.798 80.7266C146.221 79.1493 144.082 78.2621 141.851 78.2598L28.4952 78.2591Z" fill="#262626"/>
<path d="M140.62 166.085H138.082V165.458H140.603L140.62 166.085ZM135.56 166.085H133.038V165.458H135.559L135.56 166.085ZM130.516 166.085H127.995V165.458H130.516V166.085ZM125.473 166.085H122.952V165.458H125.472L125.473 166.085ZM120.43 166.085H117.907V165.458H120.429L120.43 166.085ZM115.387 166.085H112.865V165.458H115.387V166.085ZM110.343 166.085H107.822V165.458H110.343V166.085ZM105.3 166.085H102.778V165.458H105.3V166.085ZM100.257 166.085H97.7351V165.458H100.257V166.085ZM95.2136 166.085H92.6918V165.458H95.2136V166.085ZM90.1703 166.085H87.6487V165.458H90.1703V166.085ZM85.1269 166.085H82.6054V165.458H85.1269V166.085ZM80.0836 166.085H77.562V165.458H80.0836V166.085ZM75.0403 166.085H72.5187V165.458H75.0403V166.085ZM69.9972 166.085H67.4754V165.458H69.9972V166.085ZM64.9538 166.085H62.4321V165.458H64.9538V166.085ZM59.9105 166.085H57.389V165.458H59.9105V166.085ZM54.8672 166.085H52.3456V165.458H54.8672V166.085ZM49.8239 166.085H47.3023V165.458H49.8239V166.085ZM44.7807 166.085H42.259V165.458H44.7807V166.085ZM39.7374 166.085H37.2157V165.458H39.7374V166.085ZM34.6941 166.085H32.1725V165.458H34.6941V166.085ZM29.6397 166.082C28.7339 166.051 27.8564 165.758 27.1127 165.24L27.4709 164.725C28.1156 165.175 28.8765 165.429 29.6621 165.457L29.6397 166.082ZM143.174 165.326L142.833 164.8C143.493 164.372 144.017 163.765 144.341 163.048L144.912 163.307C144.538 164.133 143.935 164.833 143.174 165.326ZM25.4411 163.166C25.2029 162.593 25.0809 161.977 25.082 161.356V160.57H25.709V161.356C25.7079 161.895 25.8137 162.429 26.0204 162.927L25.4411 163.166ZM145.333 160.713H144.706V158.191H145.333V160.713ZM25.709 158.048H25.082V155.526H25.709V158.048ZM145.333 155.669H144.706V153.148H145.333V155.669ZM25.709 153.005H25.082V150.483H25.709V153.005ZM145.333 150.626H144.706V148.104H145.333V150.626ZM25.709 147.961H25.082V145.44H25.709V147.961ZM145.333 145.583H144.706V143.061H145.333V145.583ZM25.709 142.918H25.082V140.396H25.709V142.918ZM145.333 140.539H144.706V138.018H145.333V140.539ZM25.709 137.875H25.082V135.353H25.709V137.875ZM145.333 135.496H144.706V132.974H145.333V135.496ZM25.709 132.831H25.082V130.31H25.709V132.831ZM145.333 130.453H144.706V127.931H145.333V130.453ZM25.709 127.788H25.082V125.267H25.709V127.788ZM145.333 125.409H144.706V122.888H145.333V125.409ZM25.709 122.745H25.082V120.223H25.709V122.745ZM145.333 120.366H144.706V117.844H145.333V120.366ZM25.709 117.702H25.082V115.18H25.709V117.702ZM145.333 115.323H144.706V112.802H145.333V115.323ZM25.709 112.658H25.082V110.137H25.709V112.658ZM145.333 110.279H144.706V107.758H145.333V110.279ZM25.709 107.615H25.082V105.093H25.709V107.615ZM145.333 105.236H144.706V102.715H145.333V105.236ZM25.709 102.572H25.082V100.05H25.709V102.572ZM145.333 100.193H144.706V97.6715H145.333V100.193ZM25.709 97.5286H25.082V95.0068H25.709V97.5286ZM145.333 95.15H144.706V92.6282H145.333V95.15ZM25.709 92.4853H25.082V89.9635H25.709V92.4853ZM145.333 90.1067H144.706V89.3288C144.707 88.7874 144.6 88.251 144.392 87.7512L144.971 87.5099C145.211 88.0858 145.335 88.7039 145.334 89.328L145.333 90.1067ZM26.0766 87.6288L25.5061 87.3688C25.8818 86.5443 26.4864 85.845 27.2479 85.354L27.5881 85.8805C26.9274 86.3066 26.4028 86.9134 26.0766 87.6288ZM142.937 85.9548C142.291 85.507 141.53 85.255 140.744 85.2291L140.765 84.6021C141.671 84.6318 142.549 84.9225 143.294 85.4393L142.937 85.9548ZM138.233 85.2266H135.713V84.5996H138.234L138.233 85.2266ZM133.19 85.2266H130.669V84.5996H133.19V85.2266ZM128.147 85.2266H125.625V84.5996H128.147L128.147 85.2266ZM123.104 85.2266H120.582V84.5996H123.104L123.104 85.2266ZM118.06 85.2266H115.539V84.5996H118.06V85.2266ZM113.017 85.2266H110.495V84.5996H113.017L113.017 85.2266ZM107.974 85.2266H105.452V84.5996H107.974V85.2266ZM102.931 85.2266H100.409V84.5996H102.931V85.2266ZM97.8873 85.2266H95.3655V84.5996H97.8871L97.8873 85.2266ZM92.844 85.2266H90.322V84.5996H92.8437L92.844 85.2266ZM87.8006 85.2266H85.2791V84.5996H87.8006V85.2266ZM82.7573 85.2266H80.2357V84.5996H82.7569L82.7573 85.2266ZM77.714 85.2266H75.1918V84.5996H77.7134L77.714 85.2266ZM72.6709 85.2266H70.1491V84.5996H72.6709V85.2266ZM67.6275 85.2266H65.1058V84.5996H67.6267L67.6275 85.2266ZM62.5842 85.2266H60.0616V84.5996H62.5832L62.5842 85.2266ZM57.5409 85.2266H55.0193V84.5996H57.5409V85.2266ZM52.4976 85.2266H49.976V84.5996H52.4976V85.2266ZM47.4544 85.2266H44.9327V84.5996H47.4544V85.2266ZM42.4111 85.2266H39.8894V84.5996H42.4111V85.2266ZM37.3678 85.2266H34.8462V84.5996H37.3678V85.2266ZM32.3245 85.2266H29.8115L29.8029 84.5996H32.3245V85.2266Z" fill="white"/>
<path d="M111.172 110.621H151.076C152.329 110.621 153.531 111.119 154.417 112.005C155.303 112.891 155.8 114.093 155.8 115.346V135.339C155.8 136.592 155.303 137.794 154.417 138.68C153.531 139.566 152.329 140.064 151.076 140.064H111.172C109.77 140.064 108.425 139.506 107.433 138.515C106.442 137.523 105.885 136.179 105.885 134.776V115.909C105.885 115.214 106.021 114.527 106.287 113.885C106.553 113.244 106.942 112.661 107.433 112.17C107.924 111.679 108.507 111.289 109.149 111.024C109.79 110.758 110.478 110.621 111.172 110.621Z" fill="white"/>
<path d="M151.077 140.378H111.173C109.688 140.376 108.265 139.785 107.215 138.735C106.165 137.685 105.574 136.262 105.572 134.777V115.909C105.574 114.424 106.165 113.001 107.215 111.951C108.265 110.901 109.688 110.31 111.173 110.309H151.077C152.412 110.31 153.693 110.841 154.637 111.786C155.582 112.73 156.113 114.011 156.115 115.347V135.34C156.113 136.675 155.582 137.956 154.637 138.9C153.693 139.845 152.412 140.376 151.077 140.378ZM111.173 110.935C109.854 110.937 108.59 111.461 107.658 112.394C106.725 113.326 106.201 114.59 106.199 115.909V134.776C106.201 136.094 106.725 137.358 107.658 138.291C108.59 139.223 109.854 139.748 111.173 139.749H151.077C152.246 139.748 153.368 139.283 154.195 138.456C155.022 137.629 155.487 136.508 155.488 135.338V115.345C155.487 114.175 155.021 113.054 154.194 112.227C153.368 111.4 152.246 110.935 151.077 110.934L111.173 110.935Z" fill="#262626"/>
<path d="M120.257 132.542C124.233 132.542 127.456 129.319 127.456 125.343C127.456 121.367 124.233 118.145 120.257 118.145C116.281 118.145 113.059 121.367 113.059 125.343C113.059 129.319 116.281 132.542 120.257 132.542Z" fill="white"/>
<path d="M120.258 132.855C118.772 132.854 117.32 132.414 116.084 131.588C114.849 130.763 113.886 129.589 113.318 128.217C112.749 126.844 112.601 125.334 112.891 123.876C113.18 122.419 113.896 121.081 114.947 120.03C115.997 118.98 117.336 118.264 118.793 117.974C120.25 117.685 121.761 117.833 123.133 118.402C124.506 118.971 125.679 119.933 126.505 121.169C127.33 122.404 127.771 123.857 127.771 125.342C127.768 127.334 126.976 129.244 125.568 130.652C124.159 132.06 122.25 132.853 120.258 132.855ZM120.258 118.457C118.896 118.457 117.565 118.861 116.433 119.618C115.3 120.375 114.418 121.45 113.897 122.708C113.376 123.966 113.24 125.351 113.505 126.686C113.771 128.022 114.427 129.249 115.39 130.211C116.353 131.174 117.58 131.83 118.915 132.096C120.251 132.361 121.635 132.225 122.893 131.704C124.152 131.182 125.227 130.3 125.983 129.168C126.74 128.035 127.144 126.704 127.144 125.342C127.142 123.517 126.415 121.767 125.125 120.476C123.834 119.185 122.083 118.459 120.258 118.457Z" fill="#262626"/>
<path d="M4.66191 110.77C4.60192 110.77 4.54251 110.758 4.48709 110.735C4.43166 110.712 4.3813 110.678 4.33888 110.636C4.29646 110.594 4.26281 110.543 4.23985 110.488C4.21689 110.432 4.20508 110.373 4.20508 110.313V97.4236C4.20508 97.3025 4.25321 97.1863 4.33888 97.1006C4.42455 97.0149 4.54075 96.9668 4.66191 96.9668C4.78307 96.9668 4.89927 97.0149 4.98494 97.1006C5.07061 97.1863 5.11874 97.3025 5.11874 97.4236V110.313C5.11874 110.434 5.07061 110.55 4.98494 110.636C4.89927 110.722 4.78307 110.77 4.66191 110.77Z" fill="#262626"/>
<path d="M8.86788 104.326H0.456836C0.396036 104.327 0.335588 104.316 0.279036 104.294C0.222485 104.271 0.17097 104.238 0.12751 104.195C0.0840506 104.153 0.0495221 104.102 0.0259494 104.046C0.00237673 103.99 -0.00976562 103.93 -0.00976562 103.869C-0.00976563 103.808 0.00237673 103.748 0.0259494 103.692C0.0495221 103.636 0.0840506 103.585 0.12751 103.542C0.17097 103.5 0.222485 103.467 0.279036 103.444C0.335588 103.422 0.396036 103.411 0.456836 103.412H8.86788C8.98732 103.415 9.10101 103.464 9.18458 103.549C9.26814 103.635 9.31494 103.749 9.31494 103.869C9.31494 103.988 9.26814 104.103 9.18458 104.188C9.10101 104.274 8.98732 104.323 8.86788 104.326Z" fill="#262626"/>
<path d="M166.445 129.12C166.36 129.12 166.278 129.087 166.217 129.026C166.157 128.966 166.123 128.884 166.123 128.798V121.885C166.122 121.842 166.13 121.799 166.145 121.759C166.161 121.719 166.185 121.683 166.215 121.652C166.245 121.621 166.28 121.597 166.32 121.58C166.36 121.563 166.402 121.555 166.445 121.555C166.488 121.555 166.531 121.563 166.571 121.58C166.61 121.597 166.646 121.621 166.676 121.652C166.706 121.683 166.73 121.719 166.745 121.759C166.761 121.799 166.769 121.842 166.767 121.885V128.798C166.767 128.841 166.759 128.883 166.743 128.922C166.727 128.961 166.703 128.996 166.673 129.026C166.643 129.056 166.608 129.08 166.568 129.096C166.529 129.112 166.488 129.12 166.445 129.12Z" fill="#262626"/>
<path d="M168.701 125.664H164.19C164.147 125.665 164.104 125.657 164.064 125.642C164.024 125.626 163.987 125.603 163.957 125.573C163.926 125.543 163.901 125.507 163.885 125.467C163.868 125.427 163.859 125.385 163.859 125.342C163.859 125.299 163.868 125.256 163.885 125.217C163.901 125.177 163.926 125.141 163.957 125.111C163.987 125.081 164.024 125.057 164.064 125.042C164.104 125.026 164.147 125.019 164.19 125.02H168.701C168.785 125.022 168.865 125.057 168.924 125.117C168.983 125.177 169.015 125.258 169.015 125.342C169.015 125.426 168.983 125.507 168.924 125.567C168.865 125.627 168.785 125.662 168.701 125.664Z" fill="#262626"/>
<path d="M161.289 70.5423C161.247 70.5424 161.205 70.5341 161.166 70.5179C161.127 70.5017 161.091 70.478 161.061 70.4481C161.031 70.4182 161.008 70.3827 160.991 70.3436C160.975 70.3045 160.967 70.2626 160.967 70.2203V63.307C160.966 63.264 160.973 63.2212 160.989 63.1812C161.005 63.1412 161.028 63.1047 161.058 63.0739C161.088 63.0431 161.124 63.0186 161.164 63.0019C161.203 62.9852 161.246 62.9766 161.289 62.9766C161.332 62.9766 161.375 62.9852 161.414 63.0019C161.454 63.0186 161.49 63.0431 161.52 63.0739C161.55 63.1047 161.573 63.1412 161.589 63.1812C161.605 63.2212 161.612 63.264 161.611 63.307V70.2203C161.611 70.3057 161.577 70.3876 161.517 70.448C161.456 70.5084 161.375 70.5423 161.289 70.5423Z" fill="#262626"/>
<path d="M163.545 67.0858H159.034C158.991 67.0869 158.948 67.0794 158.908 67.0637C158.868 67.048 158.831 67.0244 158.8 66.9944C158.77 66.9644 158.745 66.9285 158.728 66.8889C158.712 66.8492 158.703 66.8067 158.703 66.7637C158.703 66.7206 158.712 66.6781 158.728 66.6384C158.745 66.5988 158.77 66.5629 158.8 66.5329C158.831 66.5029 158.868 66.4793 158.908 66.4636C158.948 66.4479 158.991 66.4404 159.034 66.4415H163.545C163.629 66.4437 163.709 66.4785 163.768 66.5387C163.826 66.5989 163.859 66.6796 163.859 66.7637C163.859 66.8477 163.826 66.9284 163.768 66.9886C163.709 67.0488 163.629 67.0837 163.545 67.0858H163.545Z" fill="#262626"/>
<path d="M37.9812 26.4739C37.3808 26.4874 36.7988 26.2659 36.3592 25.8566C35.9197 25.4474 35.6572 24.8827 35.6278 24.2829C35.5983 23.683 35.8042 23.0954 36.2016 22.645C36.599 22.1947 37.1564 21.9173 37.7553 21.8718C38.3541 21.8264 38.9471 22.0165 39.4078 22.4018C39.8686 22.787 40.1608 23.3368 40.2222 23.9343C40.2836 24.5317 40.1094 25.1295 39.7366 25.6004C39.3638 26.0713 38.8219 26.378 38.2263 26.4553C38.145 26.4658 38.0632 26.472 37.9812 26.4739ZM37.8965 22.548C37.8392 22.5492 37.782 22.5536 37.7252 22.561C37.3053 22.6152 36.9232 22.8312 36.6602 23.163C36.3972 23.4948 36.2741 23.9161 36.3172 24.3373C36.3603 24.7585 36.5661 25.1462 36.8908 25.4179C37.2155 25.6896 37.6335 25.8237 38.0556 25.7918C38.4778 25.7599 38.8708 25.5644 39.151 25.247C39.4312 24.9296 39.5764 24.5153 39.5556 24.0924C39.5349 23.6696 39.3499 23.2715 39.04 22.983C38.7301 22.6946 38.3198 22.5385 37.8965 22.548Z" fill="#292A2E"/>
<path d="M39.3875 21.3569C38.8196 21.3689 38.2674 21.1705 37.837 20.7999C37.4066 20.4292 37.1284 19.9126 37.0559 19.3492C36.9978 18.8977 37.075 18.4391 37.2775 18.0314C37.4801 17.6238 37.799 17.2853 38.1939 17.0589C38.5888 16.8324 39.042 16.7282 39.4962 16.7593C39.9504 16.7904 40.3851 16.9555 40.7455 17.2337C41.1058 17.5119 41.3755 17.8908 41.5206 18.3223C41.6656 18.7538 41.6794 19.2186 41.5603 19.658C41.4412 20.0974 41.1944 20.4915 40.8513 20.7907C40.5081 21.0898 40.084 21.2805 39.6324 21.3385C39.5512 21.3489 39.4694 21.355 39.3875 21.3569ZM39.3039 17.4308C39.076 17.4356 38.8516 17.4883 38.6453 17.5855C38.4391 17.6827 38.2557 17.8223 38.1069 17.9951C37.9582 18.1679 37.8474 18.3701 37.782 18.5885C37.7165 18.8069 37.6978 19.0366 37.727 19.2627C37.7672 19.5739 37.8967 19.8668 38.0999 20.1059C38.303 20.3451 38.5711 20.5203 38.8717 20.6103C39.1723 20.7004 39.4925 20.7014 39.7937 20.6133C40.0948 20.5252 40.364 20.3518 40.5687 20.114C40.7734 19.8762 40.9049 19.5841 40.9471 19.2732C40.9894 18.9623 40.9407 18.6458 40.8069 18.3619C40.6731 18.0781 40.46 17.8391 40.1933 17.6738C39.9265 17.5085 39.6176 17.4243 39.3039 17.4308Z" fill="#292A2E"/>
<path d="M41.5552 22.3506C41.8496 21.2798 40.7887 20.0544 39.1856 19.6137C37.5825 19.1729 36.0443 19.6837 35.7499 20.7545C35.4555 21.8253 36.5164 23.0507 38.1195 23.4914C39.7225 23.9322 41.2608 23.4214 41.5552 22.3506Z" fill="white"/>
<path d="M39.3629 23.9874C38.9128 23.9957 38.464 23.9385 38.0304 23.8177C36.2194 23.3197 35.0746 21.9346 35.424 20.6646C35.7734 19.3946 37.4653 18.7896 39.2757 19.287C40.0691 19.4897 40.7861 19.9197 41.3386 20.5241C41.8625 21.1302 42.0556 21.8096 41.8819 22.4401C41.7083 23.0706 41.195 23.5567 40.4354 23.8089C40.0887 23.9212 39.7272 23.9813 39.3629 23.9874ZM37.969 19.7973C37.0246 19.8182 36.2511 20.2107 36.0771 20.8439C35.8365 21.718 36.8133 22.7807 38.2087 23.1646C38.8651 23.3607 39.5644 23.3613 40.2211 23.1663C40.7591 22.9876 41.1168 22.666 41.2282 22.2606C41.3396 21.8551 41.1967 21.396 40.8255 20.9674C40.3609 20.4641 39.7597 20.1071 39.0954 19.94C38.7288 19.8381 38.3494 19.79 37.969 19.7973Z" fill="#292A2E"/>
<path d="M38.8455 23.6279L39.8166 19.8395L38.89 19.543L37.7617 23.3765L38.8455 23.6279Z" fill="#292A2E"/>
<path d="M34.6584 21.3207C34.83 21.3207 34.9692 21.1816 34.9692 21.01C34.9692 20.8383 34.83 20.6992 34.6584 20.6992C34.4868 20.6992 34.3477 20.8383 34.3477 21.01C34.3477 21.1816 34.4868 21.3207 34.6584 21.3207Z" fill="#292A2E"/>
<path d="M35.3342 19.7836C35.5058 19.7836 35.6449 19.6445 35.6449 19.4729C35.6449 19.3012 35.5058 19.1621 35.3342 19.1621C35.1626 19.1621 35.0234 19.3012 35.0234 19.4729C35.0234 19.6445 35.1626 19.7836 35.3342 19.7836Z" fill="#292A2E"/>
<path d="M72.6418 62.7457C72.5974 62.7457 72.5542 62.7316 72.5184 62.7055C72.4825 62.6793 72.456 62.6425 72.4425 62.6002C72.429 62.5579 72.4293 62.5125 72.4434 62.4704C72.4575 62.4283 72.4846 62.3918 72.5208 62.3662C72.659 62.2632 72.7919 62.1533 72.9189 62.0368C72.9393 62.0185 72.9632 62.0043 72.989 61.9952C73.0149 61.9861 73.0424 61.9821 73.0698 61.9836C73.0972 61.985 73.124 61.9919 73.1488 62.0037C73.1736 62.0156 73.1957 62.0322 73.2141 62.0526C73.2324 62.073 73.2466 62.0968 73.2557 62.1227C73.2649 62.1486 73.2688 62.1761 73.2673 62.2035C73.2659 62.2309 73.259 62.2577 73.2472 62.2825C73.2353 62.3072 73.2187 62.3294 73.1983 62.3478C73.0592 62.4752 72.9136 62.5954 72.762 62.7076C72.7268 62.7324 72.6848 62.7457 72.6418 62.7457ZM74.7161 60.505C74.6778 60.505 74.6403 60.4944 74.6076 60.4744C74.5749 60.4545 74.5483 60.4259 74.5307 60.3919C74.5131 60.3579 74.5052 60.3197 74.5079 60.2814C74.5106 60.2432 74.5237 60.2065 74.5458 60.1752C75.023 59.4972 75.4409 58.7793 75.7949 58.0296C75.8061 58.004 75.8223 57.9808 75.8427 57.9616C75.863 57.9423 75.887 57.9273 75.9132 57.9175C75.9394 57.9077 75.9673 57.9033 75.9953 57.9045C76.0233 57.9057 76.0507 57.9125 76.076 57.9245C76.1013 57.9365 76.1239 57.9534 76.1425 57.9743C76.1611 57.9952 76.1753 58.0197 76.1843 58.0462C76.1933 58.0727 76.1969 58.1008 76.1948 58.1287C76.1928 58.1566 76.1851 58.1838 76.1723 58.2087C75.8081 58.9803 75.3781 59.719 74.8869 60.4166C74.8676 60.4439 74.842 60.4662 74.8123 60.4816C74.7826 60.497 74.7496 60.505 74.7161 60.505ZM76.8837 55.976C76.8633 55.9759 76.843 55.973 76.8235 55.9672C76.7704 55.9512 76.7259 55.9149 76.6996 55.8661C76.6734 55.8173 76.6676 55.7601 76.6835 55.707C76.9205 54.9103 77.1043 54.0987 77.2337 53.2776C77.2377 53.2502 77.2471 53.2239 77.2613 53.2001C77.2755 53.1764 77.2943 53.1557 77.3166 53.1393C77.3389 53.1228 77.3643 53.111 77.3912 53.1045C77.4181 53.0979 77.446 53.0968 77.4734 53.1012C77.5007 53.1055 77.5269 53.1152 77.5505 53.1298C77.574 53.1444 77.5944 53.1635 77.6105 53.186C77.6266 53.2085 77.6381 53.234 77.6443 53.261C77.6505 53.288 77.6512 53.316 77.6465 53.3432C77.5141 54.1827 77.3262 55.0124 77.0839 55.827C77.071 55.87 77.0445 55.9078 77.0085 55.9346C76.9724 55.9615 76.9286 55.976 76.8837 55.976ZM77.6868 51.0127H77.678C77.6227 51.0104 77.5705 50.9862 77.5329 50.9455C77.4954 50.9047 77.4755 50.8507 77.4778 50.7953C77.4912 50.4716 77.4987 50.1391 77.4987 49.8073C77.4991 49.3086 77.4671 48.8105 77.4028 48.316C77.3989 48.2886 77.4004 48.2607 77.4073 48.2339C77.4143 48.2072 77.4265 48.182 77.4432 48.16C77.4599 48.138 77.4809 48.1195 77.5048 48.1056C77.5287 48.0917 77.5552 48.0827 77.5826 48.0791C77.61 48.0755 77.6379 48.0774 77.6646 48.0847C77.6913 48.092 77.7163 48.1045 77.7381 48.1215C77.7599 48.1385 77.7781 48.1596 77.7917 48.1837C77.8053 48.2078 77.814 48.2344 77.8172 48.2619C77.8838 48.7743 77.9171 49.2905 77.9167 49.8073C77.9167 50.145 77.9098 50.4831 77.8958 50.8125C77.8935 50.8663 77.8704 50.9172 77.8315 50.9545C77.7925 50.9917 77.7407 51.0127 77.6868 51.0127ZM76.9972 46.0598C76.9548 46.0599 76.9134 46.047 76.8785 46.023C76.8436 45.9989 76.8168 45.9649 76.8018 45.9253C76.5075 45.1549 76.1248 44.4214 75.6614 43.7393C75.6459 43.7166 75.6352 43.6911 75.6296 43.6642C75.6241 43.6373 75.6239 43.6096 75.6291 43.5826C75.6342 43.5556 75.6447 43.53 75.6598 43.507C75.6749 43.4841 75.6943 43.4644 75.717 43.4489C75.7398 43.4335 75.7653 43.4228 75.7922 43.4172C75.8191 43.4117 75.8468 43.4115 75.8738 43.4167C75.9007 43.4218 75.9264 43.4323 75.9494 43.4474C75.9723 43.4625 75.992 43.4819 76.0074 43.5046C76.489 44.2136 76.8867 44.9761 77.1926 45.7767C77.2023 45.8023 77.2069 45.8297 77.2061 45.8571C77.2053 45.8845 77.199 45.9115 77.1878 45.9366C77.1765 45.9616 77.1605 45.9842 77.1405 46.003C77.1205 46.0218 77.097 46.0365 77.0713 46.0463C77.0477 46.0552 77.0226 46.0598 76.9974 46.0596L76.9972 46.0598ZM61.5535 45.0609C61.2152 45.078 60.8769 45.0256 60.5596 44.907C60.2423 44.7884 59.9526 44.6061 59.7084 44.3713C59.67 44.3313 59.649 44.2777 59.6501 44.2223C59.6512 44.1669 59.6743 44.1142 59.7143 44.0758C59.7542 44.0374 59.8078 44.0164 59.8632 44.0175C59.9186 44.0186 59.9714 44.0417 60.0098 44.0816C60.4574 44.547 61.165 44.7272 62.0745 44.6074L62.1842 44.5922C62.2391 44.5843 62.2948 44.5986 62.3392 44.6319C62.3835 44.6651 62.4128 44.7146 62.4207 44.7695C62.4285 44.8244 62.4142 44.8801 62.381 44.9245C62.3477 44.9688 62.2982 44.9981 62.2433 45.006L62.1299 45.0218C61.9392 45.0474 61.747 45.0606 61.5545 45.0611L61.5535 45.0609ZM64.6222 44.3021C64.5747 44.3026 64.5285 44.2869 64.4911 44.2576C64.4537 44.2283 64.4274 44.1871 64.4166 44.1409C64.4057 44.0947 64.411 44.0461 64.4314 44.0032C64.4518 43.9604 64.4862 43.9257 64.529 43.905C65.2581 43.557 65.8811 43.0205 66.3335 42.3511C66.3648 42.3068 66.4121 42.2765 66.4654 42.2664C66.5187 42.2564 66.5738 42.2675 66.6191 42.2973C66.6644 42.3272 66.6963 42.3734 66.708 42.4264C66.7198 42.4793 66.7106 42.5347 66.6823 42.5809C66.1894 43.3119 65.5102 43.8979 64.715 44.2785C64.6866 44.2934 64.6552 44.3016 64.6232 44.3023L64.6222 44.3021ZM59.3853 42.0633C59.3694 42.0634 59.3534 42.0617 59.3379 42.0581C59.3111 42.0519 59.2859 42.0405 59.2635 42.0246C59.2412 42.0086 59.2222 41.9884 59.2077 41.9651C59.1931 41.9418 59.1833 41.9159 59.1788 41.8888C59.1743 41.8617 59.1752 41.834 59.1814 41.8073C59.3942 40.952 59.8224 40.1655 60.4252 39.5225C60.4632 39.4836 60.5149 39.4611 60.5693 39.4597C60.6237 39.4583 60.6764 39.4782 60.7164 39.5151C60.7563 39.552 60.7804 39.603 60.7833 39.6573C60.7863 39.7116 60.7679 39.7649 60.7322 39.8059C60.1785 40.3953 59.7849 41.1166 59.5887 41.9011C59.5782 41.947 59.5525 41.988 59.5158 42.0175C59.4791 42.047 59.4335 42.0632 59.3864 42.0635L59.3853 42.0633ZM74.2052 41.9124C74.1513 41.9125 74.0996 41.8917 74.0608 41.8543C73.461 41.2832 72.8096 40.7691 72.1147 40.3185C72.0909 40.3039 72.0703 40.2847 72.054 40.262C72.0378 40.2393 72.0262 40.2136 72.0201 40.1864C72.0139 40.1592 72.0133 40.131 72.0182 40.1035C72.0231 40.076 72.0335 40.0498 72.0487 40.0264C72.0639 40.003 72.0837 39.9829 72.1068 39.9672C72.1299 39.9516 72.156 39.9407 72.1834 39.9353C72.2107 39.9299 72.2389 39.93 72.2663 39.9357C72.2936 39.9413 72.3196 39.9524 72.3425 39.9683C73.059 40.4329 73.7306 40.9632 74.3488 41.5523C74.3789 41.5812 74.3998 41.6184 74.4086 41.6592C74.4175 41.7 74.4139 41.7425 74.3983 41.7812C74.3828 41.82 74.356 41.8532 74.3214 41.8766C74.2869 41.8999 74.2461 41.9124 74.2043 41.9124H74.2052ZM67.3061 40.3127C67.299 40.3127 67.2921 40.3127 67.2852 40.3127C67.2578 40.3099 67.2313 40.3018 67.207 40.2887C67.1828 40.2756 67.1614 40.2579 67.144 40.2366C67.1267 40.2152 67.1137 40.1906 67.1059 40.1642C67.098 40.1378 67.0955 40.1102 67.0984 40.0828C67.1221 39.8439 67.1339 39.604 67.1335 39.3639C67.1296 38.7829 67.0731 38.2033 66.9646 37.6325C66.9546 37.578 66.9666 37.5217 66.998 37.4761C67.0294 37.4304 67.0777 37.3991 67.1322 37.389C67.1867 37.379 67.243 37.391 67.2887 37.4224C67.3343 37.4538 67.3656 37.5021 67.3757 37.5566C67.4052 37.7176 67.4311 37.8765 67.4534 38.0335C67.4782 38.0034 67.5109 37.9807 67.5478 37.9682C67.5847 37.9556 67.6244 37.9536 67.6624 37.9625C68.4933 38.159 69.3054 38.4277 70.0895 38.7654C70.1405 38.7872 70.1806 38.8285 70.2012 38.8799C70.2217 38.9314 70.221 38.9889 70.1991 39.0399C70.1773 39.0908 70.1361 39.131 70.0846 39.1515C70.0331 39.1721 69.9756 39.1714 69.9246 39.1495C69.1629 38.8214 68.374 38.5604 67.5669 38.3696C67.5396 38.363 67.5138 38.3512 67.4911 38.3347C67.5302 38.6764 67.5502 39.02 67.551 39.3639C67.5513 39.6179 67.5389 39.8718 67.5138 40.1246C67.5087 40.1761 67.4845 40.2239 67.4462 40.2586C67.4078 40.2934 67.3579 40.3126 67.3061 40.3127ZM62.6458 38.4657C62.5972 38.4657 62.5501 38.4488 62.5126 38.4178C62.4751 38.3868 62.4496 38.3437 62.4405 38.2959C62.4314 38.2481 62.4392 38.1986 62.4627 38.156C62.4861 38.1134 62.5237 38.0803 62.5689 38.0624C62.6981 38.0114 62.8293 37.9646 62.9591 37.9234C63.6301 37.7229 64.3278 37.6264 65.028 37.6373H65.1189C65.1743 37.6373 65.2275 37.6593 65.2667 37.6985C65.3059 37.7377 65.3279 37.7909 65.3279 37.8463C65.3279 37.9017 65.3059 37.9549 65.2667 37.9941C65.2275 38.0332 65.1743 38.0553 65.1189 38.0553H65.1175H65.0288C64.3719 38.0444 63.7171 38.1342 63.0874 38.3217C62.963 38.3613 62.8419 38.4043 62.724 38.4509C62.699 38.4607 62.6723 38.4655 62.6454 38.4651L62.6458 38.4657ZM66.4896 35.3778C66.4469 35.3778 66.4052 35.3646 66.3701 35.3402C66.335 35.3157 66.3083 35.2811 66.2936 35.2409C66.0036 34.4603 65.6679 33.6974 65.2882 32.9561C65.2757 32.9317 65.2681 32.905 65.2659 32.8776C65.2637 32.8502 65.267 32.8227 65.2754 32.7965C65.2839 32.7704 65.2974 32.7462 65.3153 32.7253C65.3331 32.7044 65.3549 32.6872 65.3794 32.6747C65.4038 32.6623 65.4305 32.6547 65.4579 32.6526C65.4853 32.6505 65.5129 32.6537 65.539 32.6622C65.5651 32.6708 65.5893 32.6843 65.6102 32.7022C65.631 32.7201 65.6482 32.7419 65.6606 32.7664C66.0479 33.5224 66.3902 34.3006 66.6859 35.0969C66.6974 35.1285 66.7012 35.1624 66.6969 35.1958C66.6925 35.2291 66.6802 35.2609 66.6609 35.2885C66.6417 35.3161 66.616 35.3386 66.5862 35.3541C66.5564 35.3697 66.5233 35.3778 66.4896 35.3778ZM64.2224 30.8816C64.1871 30.8817 64.1524 30.8728 64.1215 30.8558C64.0906 30.8389 64.0645 30.8144 64.0456 30.7846C63.6028 30.0868 63.1204 29.3957 62.6124 28.7308C62.5787 28.6867 62.5639 28.6311 62.5713 28.5762C62.5786 28.5212 62.6075 28.4714 62.6515 28.4378C62.6955 28.4041 62.7511 28.3893 62.8061 28.3966C62.861 28.404 62.9108 28.4328 62.9445 28.4769C63.4598 29.1517 63.949 29.8528 64.3986 30.5604C64.4283 30.6072 64.4382 30.6638 64.4261 30.7179C64.414 30.772 64.381 30.8191 64.3342 30.8488C64.3007 30.8701 64.2617 30.8813 64.222 30.881L64.2224 30.8816ZM61.1619 26.8773C61.1328 26.8774 61.1041 26.8713 61.0775 26.8596C61.0509 26.8479 61.027 26.8308 61.0074 26.8094C60.7521 26.5304 60.4913 26.2579 60.2325 25.999C59.9099 25.6764 59.5701 25.3715 59.2146 25.0855C59.1924 25.0686 59.1738 25.0474 59.16 25.0232C59.1461 24.999 59.1373 24.9723 59.1339 24.9446C59.1305 24.9169 59.1327 24.8888 59.1404 24.862C59.1481 24.8352 59.161 24.8101 59.1785 24.7884C59.196 24.7667 59.2176 24.7486 59.2422 24.7354C59.2667 24.7222 59.2937 24.714 59.3215 24.7113C59.3492 24.7087 59.3773 24.7116 59.4039 24.72C59.4305 24.7283 59.4552 24.7419 59.4764 24.7599C59.8438 25.0552 60.1948 25.3702 60.528 25.7035C60.7911 25.9666 61.0561 26.2437 61.3159 26.5275C61.3432 26.5574 61.3612 26.5946 61.3677 26.6345C61.3743 26.6745 61.3691 26.7155 61.3528 26.7525C61.3365 26.7896 61.3097 26.8211 61.2758 26.8433C61.242 26.8654 61.2024 26.8773 61.1619 26.8773ZM57.2355 23.7593C57.2022 23.7592 57.1693 23.7512 57.1396 23.7359C56.4037 23.357 55.6341 23.0472 54.8408 22.8108C54.7884 22.7944 54.7445 22.7579 54.7187 22.7094C54.6929 22.6609 54.6872 22.6041 54.703 22.5514C54.7187 22.4988 54.7546 22.4544 54.8028 22.428C54.851 22.4016 54.9077 22.3953 54.9606 22.4104C55.7792 22.6541 56.5733 22.9736 57.3327 23.3646C57.3744 23.386 57.4077 23.4209 57.4271 23.4636C57.4466 23.5063 57.4512 23.5542 57.4401 23.5998C57.429 23.6454 57.4029 23.6859 57.366 23.7148C57.3291 23.7437 57.2835 23.7594 57.2366 23.7593H57.2355ZM44.9356 22.8628C44.8856 22.8628 44.8374 22.8449 44.7995 22.8124C44.7616 22.7799 44.7366 22.7349 44.729 22.6855C44.7214 22.6362 44.7318 22.5857 44.7582 22.5434C44.7845 22.501 44.8253 22.4694 44.8729 22.4545C45.6928 22.2177 46.5298 22.0443 47.3763 21.9358C47.4039 21.9309 47.4323 21.9317 47.4596 21.9381C47.4869 21.9445 47.5127 21.9563 47.5354 21.9729C47.5581 21.9894 47.5772 22.0104 47.5916 22.0344C47.606 22.0585 47.6154 22.0853 47.6192 22.1131C47.623 22.1409 47.6212 22.1692 47.6139 22.1963C47.6065 22.2234 47.5938 22.2487 47.5765 22.2708C47.5591 22.2929 47.5375 22.3112 47.5129 22.3247C47.4883 22.3383 47.4612 22.3467 47.4333 22.3495C46.6102 22.4561 45.7963 22.6245 44.9985 22.8534C44.9781 22.8597 44.9569 22.8629 44.9356 22.8628ZM52.4348 22.3021C52.4258 22.3021 52.4168 22.3015 52.4079 22.3004C51.5832 22.1957 50.7522 22.1493 49.921 22.1617H49.9183C49.8629 22.162 49.8096 22.1404 49.7701 22.1014C49.7307 22.0625 49.7083 22.0095 49.708 21.9541C49.7076 21.8986 49.7293 21.8453 49.7682 21.8059C49.8072 21.7664 49.8602 21.7441 49.9156 21.7437C50.7663 21.7328 51.6168 21.7803 52.461 21.8858C52.5137 21.8925 52.5618 21.919 52.5957 21.96C52.6295 22.0009 52.6465 22.0532 52.6432 22.1062C52.6398 22.1592 52.6164 22.209 52.5778 22.2454C52.5391 22.2818 52.488 22.302 52.4348 22.3021Z" fill="#1E1E1E"/>
<path d="M139.923 4.79778C139.474 4.87833 139.012 4.83034 138.589 4.65932C138.167 4.4883 137.801 4.20124 137.534 3.83126C137.268 3.46129 137.111 3.02348 137.083 2.56838C137.054 2.11327 137.155 1.65941 137.374 1.25919C137.592 0.858973 137.92 0.528702 138.318 0.3065C138.716 0.0842982 139.169 -0.0207769 139.624 0.00340234C140.08 0.0275816 140.519 0.18003 140.891 0.443151C141.264 0.706273 141.554 1.06934 141.729 1.49045C141.867 1.8244 141.928 2.18498 141.909 2.54577C141.889 2.90657 141.789 3.25842 141.616 3.57555C141.443 3.89267 141.201 4.16703 140.908 4.37852C140.615 4.59001 140.279 4.73326 139.923 4.79778ZM139.185 0.704687C138.831 0.769034 138.505 0.941709 138.253 1.19891C138.001 1.45611 137.835 1.78518 137.778 2.14074C137.72 2.49631 137.775 2.86087 137.934 3.18417C138.092 3.50747 138.347 3.77359 138.664 3.94585C138.98 4.11811 139.342 4.18803 139.699 4.14596C140.057 4.1039 140.393 3.95192 140.661 3.71098C140.928 3.47005 141.115 3.15201 141.194 2.80072C141.273 2.44943 141.242 2.08218 141.104 1.74959C140.951 1.38256 140.678 1.07874 140.329 0.888652C139.98 0.69856 139.576 0.633641 139.185 0.704687Z" fill="#292A2E"/>
<path d="M139.908 10.4173C139.297 10.5282 138.667 10.4008 138.147 10.0612C137.628 9.72166 137.258 9.19583 137.115 8.59197C136.971 7.98812 137.064 7.35219 137.376 6.81511C137.687 6.27803 138.192 5.88067 138.787 5.70484C139.382 5.529 140.022 5.58806 140.575 5.86987C141.128 6.15168 141.552 6.63478 141.76 7.21973C141.968 7.80468 141.943 8.44696 141.691 9.01434C141.44 9.58171 140.98 10.031 140.407 10.2697C140.246 10.3367 140.079 10.3862 139.908 10.4173ZM139.173 6.32336C139.05 6.34576 138.929 6.38135 138.813 6.42952C138.404 6.60023 138.076 6.92127 137.896 7.32659C137.716 7.73191 137.699 8.19069 137.847 8.60854C137.995 9.02638 138.298 9.37151 138.693 9.57292C139.088 9.77433 139.545 9.81671 139.97 9.69132C140.396 9.56594 140.757 9.28233 140.979 8.89886C141.202 8.51538 141.269 8.0612 141.167 7.62975C141.065 7.19831 140.801 6.82242 140.43 6.57941C140.059 6.33641 139.609 6.24477 139.173 6.32336Z" fill="#292A2E"/>
<path d="M142.675 5.30291C142.678 4.12694 141.253 3.16956 139.493 3.16455C137.732 3.15954 136.302 4.1088 136.299 5.28478C136.296 6.46075 137.72 7.41812 139.481 7.42313C141.241 7.42814 142.671 6.47889 142.675 5.30291Z" fill="white"/>
<path d="M140.395 7.68207C140.093 7.73637 139.787 7.76309 139.48 7.7619C138.617 7.77509 137.769 7.53607 137.04 7.07414C136.342 6.6054 135.959 5.96968 135.961 5.28401C135.963 4.59835 136.35 3.96514 137.05 3.49995C137.788 3.05671 138.634 2.82372 139.494 2.82619C140.355 2.82866 141.199 3.06649 141.935 3.51395C142.633 3.98269 143.016 4.61862 143.014 5.30408C143.012 5.98953 142.625 6.62337 141.924 7.08814C141.46 7.38729 140.94 7.58932 140.395 7.68207ZM138.698 3.57267C138.245 3.64897 137.811 3.81624 137.424 4.0644C136.918 4.40044 136.638 4.83429 136.637 5.28631C136.636 5.73834 136.913 6.17406 137.417 6.51261C138.041 6.88534 138.754 7.08314 139.481 7.08523C140.208 7.08733 140.923 6.89365 141.549 6.52452C142.055 6.18848 142.334 5.75464 142.336 5.30261C142.337 4.85059 142.06 4.41507 141.556 4.07632C140.938 3.68906 140.221 3.49023 139.491 3.50413C139.226 3.50288 138.96 3.52582 138.698 3.57267Z" fill="#292A2E"/>
<path d="M138.713 3.22769L138.773 7.36864L139.802 7.41419L139.89 3.18359L138.713 3.22769Z" fill="#292A2E"/>
<path d="M143.456 6.82821C143.638 6.82821 143.785 6.68085 143.785 6.49907C143.785 6.31728 143.638 6.16992 143.456 6.16992C143.274 6.16992 143.127 6.31728 143.127 6.49907C143.127 6.68085 143.274 6.82821 143.456 6.82821Z" fill="#292A2E"/>
<path d="M143.72 5.06844C143.902 5.06844 144.049 4.92108 144.049 4.7393C144.049 4.55752 143.902 4.41016 143.72 4.41016C143.538 4.41016 143.391 4.55752 143.391 4.7393C143.391 4.92108 143.538 5.06844 143.72 5.06844Z" fill="#292A2E"/>
<path d="M94.3903 53.1506C94.3529 53.1506 94.3162 53.1407 94.284 53.1217C94.2518 53.1027 94.2253 53.0755 94.2072 53.0428C93.8139 52.2857 93.476 51.5011 93.1962 50.6951C93.1773 50.643 93.18 50.5855 93.2035 50.5353C93.227 50.4851 93.2695 50.4463 93.3217 50.4275C93.3738 50.4086 93.4313 50.4113 93.4815 50.4348C93.5317 50.4583 93.5704 50.5009 93.5893 50.553C93.8628 51.3377 94.1915 52.1022 94.5729 52.8405C94.5905 52.8723 94.5995 52.9081 94.599 52.9445C94.5985 52.9808 94.5886 53.0164 94.5701 53.0477C94.5517 53.079 94.5254 53.105 94.4939 53.123C94.4623 53.1411 94.4266 53.1506 94.3903 53.1506ZM92.6503 48.4226C92.604 48.4226 92.559 48.4072 92.5224 48.3788C92.4858 48.3505 92.4596 48.3107 92.448 48.2659C92.239 47.4532 92.0608 46.6173 91.9214 45.7809C91.9123 45.7262 91.9253 45.6702 91.9575 45.6251C91.9898 45.58 92.0386 45.5496 92.0933 45.5405C92.148 45.5314 92.204 45.5444 92.2491 45.5766C92.2942 45.6089 92.3246 45.6577 92.3337 45.7124C92.4712 46.5366 92.6457 47.3604 92.8528 48.1614C92.8667 48.2151 92.8586 48.272 92.8305 48.3197C92.8024 48.3675 92.7564 48.4021 92.7028 48.4159C92.6857 48.4204 92.668 48.4227 92.6503 48.4226ZM91.8203 43.4535C91.7676 43.4537 91.7168 43.4339 91.678 43.3982C91.6393 43.3625 91.6154 43.3135 91.6113 43.261C91.5505 42.4903 91.5195 41.7079 91.5195 40.9355V40.7236C91.5199 40.6682 91.5423 40.6152 91.5818 40.5762C91.6212 40.5373 91.6746 40.5157 91.73 40.5161C91.7854 40.5165 91.8384 40.5388 91.8773 40.5783C91.9162 40.6178 91.9379 40.6711 91.9375 40.7265V40.9355C91.9375 41.697 91.968 42.4684 92.028 43.228C92.0324 43.2832 92.0146 43.3379 91.9787 43.3801C91.9428 43.4223 91.8916 43.4484 91.8364 43.4529C91.8313 43.4533 91.826 43.4535 91.8203 43.4535ZM91.857 38.4171C91.8504 38.4171 91.8439 38.4171 91.8361 38.4171C91.781 38.4118 91.7303 38.3848 91.695 38.3422C91.6598 38.2995 91.6429 38.2446 91.6481 38.1895C91.7264 37.3515 91.8424 36.5051 91.9927 35.6742C91.9968 35.6465 92.0064 35.6199 92.021 35.596C92.0356 35.572 92.0548 35.5513 92.0776 35.535C92.1003 35.5186 92.1261 35.507 92.1534 35.5009C92.1808 35.4947 92.2091 35.4941 92.2366 35.4991C92.2642 35.5041 92.2905 35.5146 92.3139 35.5299C92.3373 35.5453 92.3574 35.5652 92.373 35.5885C92.3886 35.6117 92.3994 35.6379 92.4046 35.6654C92.4099 35.6929 92.4096 35.7212 92.4037 35.7486C92.2558 36.5678 92.1415 37.4021 92.0641 38.2284C92.0589 38.2797 92.0349 38.3273 91.9966 38.362C91.9584 38.3967 91.9087 38.416 91.857 38.4162V38.4171ZM92.7508 33.4601C92.7325 33.4601 92.7142 33.4578 92.6965 33.4529C92.67 33.4458 92.6451 33.4336 92.6234 33.4169C92.6016 33.4002 92.5833 33.3793 92.5696 33.3556C92.5559 33.3318 92.547 33.3055 92.5434 33.2783C92.5398 33.2511 92.5417 33.2235 92.5488 33.1969C92.7659 32.389 93.0208 31.5742 93.3069 30.7749C93.3161 30.7489 93.3303 30.7251 93.3488 30.7047C93.3672 30.6843 93.3895 30.6677 93.4143 30.6559C93.4391 30.6441 93.4661 30.6373 93.4935 30.636C93.521 30.6346 93.5484 30.6387 93.5743 30.6479C93.6002 30.6572 93.624 30.6715 93.6444 30.69C93.6647 30.7085 93.6812 30.7308 93.693 30.7557C93.7047 30.7805 93.7114 30.8075 93.7127 30.8349C93.7139 30.8624 93.7098 30.8899 93.7005 30.9157C93.4181 31.7044 93.1665 32.5086 92.9525 33.3054C92.9404 33.3496 92.9141 33.3886 92.8777 33.4164C92.8412 33.4442 92.7967 33.4592 92.7508 33.4592V33.4601ZM94.445 28.7162C94.4156 28.7162 94.3866 28.7099 94.3598 28.6978C94.3094 28.675 94.2701 28.6331 94.2505 28.5814C94.2309 28.5296 94.2326 28.4722 94.2553 28.4217C94.426 28.0406 94.6076 27.6546 94.7951 27.2753C94.9825 26.896 95.1823 26.516 95.3886 26.1493C95.4158 26.101 95.4611 26.0654 95.5145 26.0505C95.5679 26.0355 95.625 26.0424 95.6733 26.0696C95.7217 26.0967 95.7572 26.142 95.7722 26.1954C95.7871 26.2488 95.7802 26.306 95.7531 26.3543C95.5503 26.7144 95.3543 27.0857 95.1698 27.4602C94.9853 27.8347 94.8055 28.2161 94.6365 28.5927C94.6198 28.6294 94.5928 28.6605 94.5589 28.6822C94.5249 28.7039 94.4854 28.7154 94.445 28.7151V28.7162ZM116.613 27.2868C116.56 27.2866 116.509 27.2664 116.471 27.2301C116.432 27.1939 116.409 27.1443 116.405 27.0915C116.402 27.0387 116.418 26.9865 116.452 26.9455C116.485 26.9045 116.533 26.8778 116.586 26.8707C117.371 26.7662 117.931 26.2949 118.25 25.4688C118.259 25.4427 118.274 25.4187 118.293 25.3982C118.311 25.3777 118.334 25.3613 118.359 25.3497C118.385 25.3382 118.412 25.3318 118.44 25.331C118.468 25.3302 118.496 25.3349 118.521 25.345C118.547 25.355 118.571 25.3701 118.591 25.3894C118.611 25.4088 118.627 25.4319 118.638 25.4575C118.649 25.483 118.655 25.5105 118.655 25.5384C118.655 25.5662 118.65 25.5938 118.639 25.6195C118.267 26.5852 117.576 27.1612 116.641 27.2851C116.632 27.2859 116.622 27.2861 116.613 27.2857V27.2868ZM114.183 26.7593C114.152 26.7595 114.12 26.7523 114.092 26.7384C113.323 26.3518 112.608 25.8671 111.964 25.2964C111.943 25.2784 111.926 25.2565 111.914 25.2319C111.902 25.2074 111.895 25.1806 111.893 25.1532C111.891 25.1258 111.894 25.0983 111.903 25.0723C111.912 25.0462 111.925 25.0222 111.944 25.0015C111.962 24.9807 111.983 24.9638 112.008 24.9515C112.033 24.9393 112.059 24.932 112.087 24.9301C112.114 24.9282 112.142 24.9317 112.168 24.9404C112.194 24.9491 112.218 24.9629 112.238 24.9809C112.855 25.528 113.54 25.9927 114.276 26.3633C114.318 26.3839 114.353 26.4185 114.373 26.4612C114.394 26.504 114.399 26.5525 114.388 26.5986C114.377 26.6448 114.351 26.6859 114.314 26.7153C114.277 26.7447 114.231 26.7606 114.183 26.7603V26.7593ZM96.9275 24.3383C96.889 24.3382 96.8513 24.3276 96.8184 24.3074C96.7856 24.2873 96.759 24.2585 96.7415 24.2242C96.724 24.1899 96.7163 24.1514 96.7193 24.113C96.7223 24.0746 96.7359 24.0378 96.7585 24.0066C97.2566 23.3189 97.7965 22.6624 98.3751 22.0409C98.4132 22.0018 98.4652 21.9791 98.5198 21.9777C98.5744 21.9764 98.6274 21.9965 98.6674 22.0338C98.7074 22.071 98.7312 22.1224 98.7337 22.177C98.7362 22.2316 98.7173 22.285 98.6809 22.3258C98.1139 22.9348 97.5849 23.5781 97.0968 24.252C97.0773 24.2785 97.0518 24.3001 97.0224 24.3149C96.993 24.3297 96.9605 24.3374 96.9275 24.3372V24.3383ZM110.373 23.5145C110.341 23.5145 110.309 23.5072 110.281 23.4932C110.252 23.4793 110.227 23.4589 110.208 23.4338C109.682 22.7598 109.221 22.0369 108.834 21.2748C108.82 21.2502 108.812 21.2232 108.809 21.1954C108.807 21.1675 108.81 21.1394 108.818 21.1127C108.826 21.086 108.84 21.0612 108.858 21.0399C108.876 21.0185 108.898 21.001 108.923 20.9884C108.948 20.9758 108.976 20.9684 109.003 20.9665C109.031 20.9647 109.059 20.9684 109.086 20.9776C109.112 20.9868 109.137 21.0011 109.157 21.0199C109.178 21.0386 109.195 21.0614 109.207 21.0867C109.582 21.8248 110.028 22.525 110.537 23.1778C110.561 23.2087 110.576 23.2457 110.58 23.2846C110.585 23.3235 110.578 23.3628 110.56 23.398C110.543 23.4331 110.517 23.4628 110.483 23.4835C110.45 23.5043 110.412 23.5153 110.373 23.5153V23.5145ZM118.747 23.2691C118.694 23.2692 118.642 23.2489 118.604 23.2123C118.565 23.1758 118.541 23.1257 118.538 23.0725C118.496 22.2578 118.296 21.459 117.949 20.7206C117.935 20.6957 117.926 20.6681 117.923 20.6396C117.92 20.6111 117.923 20.5823 117.932 20.555C117.94 20.5277 117.955 20.5024 117.973 20.4808C117.992 20.4591 118.015 20.4416 118.041 20.4292C118.067 20.4169 118.095 20.41 118.124 20.4089C118.152 20.4079 118.181 20.4127 118.207 20.4232C118.234 20.4336 118.258 20.4494 118.279 20.4697C118.299 20.4899 118.315 20.514 118.325 20.5407C118.696 21.3272 118.91 22.1783 118.956 23.0466C118.959 23.1019 118.94 23.1562 118.903 23.1977C118.867 23.2392 118.815 23.2643 118.76 23.2677L118.747 23.2691ZM100.363 20.6661C100.32 20.6661 100.278 20.6529 100.243 20.6281C100.207 20.6033 100.181 20.5682 100.166 20.5276C100.152 20.4871 100.15 20.443 100.161 20.4014C100.173 20.3599 100.197 20.3229 100.23 20.2955C100.887 19.755 101.58 19.2604 102.305 18.8155C102.328 18.7989 102.354 18.7873 102.382 18.7814C102.41 18.7755 102.439 18.7753 102.467 18.781C102.495 18.7868 102.522 18.7982 102.545 18.8146C102.569 18.831 102.589 18.852 102.604 18.8764C102.619 18.9008 102.629 18.928 102.633 18.9563C102.637 18.9847 102.635 19.0135 102.627 19.0411C102.62 19.0687 102.607 19.0945 102.589 19.1168C102.571 19.1391 102.548 19.1575 102.523 19.1708C101.815 19.6056 101.137 20.0889 100.496 20.6174C100.459 20.6483 100.412 20.6651 100.363 20.665V20.6661ZM108.135 19.0333C108.088 19.0333 108.043 19.0176 108.006 18.9888C107.969 18.96 107.943 18.9198 107.932 18.8745C107.751 18.1504 107.657 17.407 107.655 16.6605C107.655 16.5463 107.657 16.4319 107.662 16.3174C107.662 16.2899 107.669 16.2628 107.68 16.2377C107.691 16.2126 107.708 16.1901 107.728 16.1714C107.748 16.1527 107.772 16.1383 107.798 16.1289C107.824 16.1196 107.851 16.1155 107.879 16.117C107.934 16.1192 107.986 16.1433 108.024 16.184C108.061 16.2248 108.081 16.2787 108.079 16.3341C108.075 16.4431 108.073 16.5519 108.073 16.6605C108.075 17.3733 108.164 18.083 108.338 18.7744C108.351 18.8282 108.342 18.8851 108.314 18.9325C108.285 18.9799 108.239 19.014 108.185 19.0272C108.168 19.031 108.152 19.0327 108.135 19.0322V19.0333ZM116.619 18.8506C116.569 18.8506 116.52 18.8322 116.482 18.7988C115.862 18.2636 115.157 17.8354 114.396 17.532C114.371 17.5216 114.348 17.5063 114.328 17.487C114.309 17.4677 114.293 17.4447 114.283 17.4194C114.272 17.3941 114.267 17.367 114.266 17.3395C114.266 17.3121 114.272 17.2849 114.282 17.2595C114.292 17.2341 114.308 17.2109 114.327 17.1914C114.346 17.1719 114.369 17.1564 114.394 17.1458C114.42 17.1351 114.447 17.1296 114.474 17.1294C114.502 17.1293 114.529 17.1346 114.554 17.1449C115.358 17.4658 116.103 17.9186 116.757 18.4845C116.789 18.5125 116.812 18.5496 116.822 18.5909C116.833 18.6321 116.83 18.6755 116.815 18.7153C116.8 18.7551 116.773 18.7894 116.738 18.8136C116.703 18.8377 116.662 18.8507 116.619 18.8506ZM104.652 18.0467C104.603 18.0467 104.557 18.0301 104.519 17.9996C104.482 17.9691 104.457 17.9267 104.447 17.8795C104.437 17.8323 104.444 17.7832 104.467 17.7406C104.489 17.6979 104.525 17.6643 104.57 17.6455C105.353 17.3107 106.162 17.0382 106.988 16.8304C107.041 16.8181 107.098 16.8271 107.144 16.8557C107.191 16.8843 107.225 16.9302 107.238 16.9833C107.251 17.0365 107.243 17.0928 107.215 17.14C107.188 17.1872 107.142 17.2217 107.089 17.2359C106.284 17.4383 105.497 17.7039 104.733 18.03C104.708 18.0406 104.68 18.0459 104.652 18.0457L104.652 18.0467ZM112.042 16.9138C112.032 16.9138 112.023 16.9132 112.014 16.9119C111.496 16.8434 110.973 16.8093 110.451 16.81C110.147 16.81 109.847 16.8204 109.54 16.8421C109.512 16.845 109.484 16.8423 109.457 16.834C109.43 16.8258 109.406 16.8123 109.384 16.7943C109.363 16.7762 109.345 16.7541 109.332 16.7291C109.32 16.7041 109.312 16.6769 109.31 16.6489C109.308 16.6209 109.312 16.5929 109.321 16.5664C109.33 16.5399 109.344 16.5155 109.363 16.4946C109.382 16.4738 109.405 16.4569 109.43 16.445C109.455 16.4331 109.483 16.4265 109.511 16.4254C109.827 16.4026 110.138 16.3889 110.451 16.392C110.993 16.3913 111.533 16.4267 112.07 16.4977C112.122 16.5048 112.17 16.5316 112.204 16.5726C112.237 16.6136 112.254 16.6658 112.25 16.7187C112.247 16.7715 112.223 16.8211 112.185 16.8573C112.146 16.8935 112.095 16.9137 112.042 16.9138H112.042ZM108.374 14.0746C108.34 14.0746 108.307 14.0663 108.277 14.0505C108.247 14.0347 108.221 14.0119 108.202 13.9839C108.183 13.9559 108.171 13.9237 108.167 13.8901C108.163 13.8564 108.167 13.8222 108.179 13.7906C108.273 13.5459 108.381 13.301 108.501 13.0627C108.765 12.5357 109.058 12.023 109.376 11.5269C109.407 11.4807 109.454 11.4482 109.508 11.4367C109.562 11.4252 109.618 11.4354 109.665 11.4653C109.711 11.4952 109.744 11.5422 109.756 11.5961C109.768 11.65 109.758 11.7064 109.728 11.753C109.417 12.2366 109.132 12.7363 108.874 13.25C108.761 13.4761 108.658 13.7085 108.569 13.9396C108.554 13.9792 108.528 14.0134 108.493 14.0375C108.458 14.0616 108.417 14.0746 108.374 14.0746ZM111.066 9.83544C111.026 9.83544 110.987 9.8239 110.953 9.80219C110.919 9.78048 110.893 9.74952 110.876 9.71301C110.859 9.6765 110.854 9.63597 110.859 9.59628C110.865 9.55659 110.882 9.5194 110.909 9.48916C111.468 8.84909 112.07 8.24733 112.711 7.68795C112.753 7.65146 112.807 7.63309 112.863 7.63689C112.918 7.64069 112.97 7.66635 113.006 7.70822C113.043 7.7501 113.061 7.80475 113.057 7.86017C113.054 7.91559 113.028 7.96722 112.986 8.00372C112.36 8.55043 111.771 9.13887 111.224 9.76501C111.204 9.78729 111.18 9.8051 111.153 9.81725C111.126 9.82939 111.096 9.8356 111.066 9.83544ZM114.847 6.51787C114.802 6.51788 114.758 6.50354 114.723 6.47696C114.687 6.45038 114.66 6.41296 114.647 6.3702C114.634 6.32744 114.635 6.2816 114.65 6.23942C114.664 6.19723 114.692 6.16093 114.73 6.13585C115.433 5.66099 116.164 5.22678 116.917 4.83537C116.942 4.82184 116.968 4.81333 116.996 4.81034C117.024 4.80736 117.052 4.80996 117.079 4.81799C117.105 4.82602 117.13 4.83932 117.152 4.85711C117.173 4.87489 117.191 4.8968 117.204 4.92154C117.217 4.94628 117.225 4.97336 117.227 5.00117C117.229 5.02897 117.226 5.05695 117.217 5.08346C117.208 5.10996 117.194 5.13444 117.176 5.15547C117.158 5.1765 117.135 5.19364 117.11 5.20589C116.371 5.59016 115.654 6.01627 114.964 6.48213C114.929 6.50542 114.888 6.51786 114.847 6.51787ZM119.311 4.18837C119.262 4.18839 119.215 4.17137 119.177 4.14026C119.14 4.10914 119.114 4.06589 119.105 4.01797C119.096 3.97006 119.104 3.92051 119.128 3.8779C119.151 3.83528 119.189 3.80229 119.235 3.78462C120.025 3.47647 120.83 3.20972 121.648 2.98547C121.702 2.97087 121.759 2.97811 121.807 3.0056C121.855 3.0331 121.89 3.07859 121.905 3.13207C121.92 3.18556 121.912 3.24266 121.885 3.2908C121.857 3.33895 121.812 3.3742 121.758 3.38881C120.954 3.60897 120.163 3.87112 119.386 4.17415C119.362 4.18356 119.336 4.18838 119.311 4.18837ZM131.552 3.0488C131.534 3.04879 131.516 3.04662 131.499 3.04232C130.737 2.8488 129.96 2.7174 129.176 2.64943C129.148 2.64696 129.122 2.63913 129.098 2.62639C129.073 2.61365 129.052 2.59624 129.034 2.57517C129.016 2.5541 129.003 2.52976 128.995 2.50357C128.987 2.47737 128.984 2.44981 128.986 2.42248C128.989 2.39515 128.997 2.36857 129.009 2.34426C129.022 2.31995 129.04 2.29839 129.061 2.28081C129.082 2.26323 129.106 2.24997 129.132 2.24179C129.158 2.23361 129.186 2.23067 129.213 2.23314C130.02 2.30332 130.819 2.43848 131.604 2.63731C131.653 2.6499 131.696 2.68009 131.725 2.72222C131.753 2.76434 131.766 2.81548 131.759 2.86603C131.753 2.91659 131.728 2.96306 131.69 2.99672C131.652 3.03037 131.603 3.04889 131.552 3.0488ZM124.167 2.86071C124.115 2.86101 124.064 2.84137 124.025 2.80572C123.986 2.77007 123.962 2.72106 123.958 2.6685C123.954 2.61594 123.969 2.56373 124.002 2.52233C124.035 2.48093 124.082 2.4534 124.134 2.44526C124.972 2.3089 125.817 2.22098 126.665 2.18194C126.693 2.18045 126.72 2.18446 126.746 2.19371C126.772 2.20297 126.796 2.2173 126.816 2.23586C126.837 2.25442 126.853 2.27684 126.865 2.30181C126.876 2.32679 126.883 2.35381 126.884 2.38131C126.885 2.40873 126.881 2.43612 126.871 2.46192C126.862 2.48772 126.848 2.51143 126.829 2.53169C126.811 2.55195 126.788 2.56836 126.763 2.58C126.739 2.59163 126.712 2.59825 126.684 2.59949C125.852 2.63775 125.023 2.72407 124.201 2.858C124.19 2.85946 124.179 2.86002 124.167 2.85967V2.86071Z" fill="#1E1E1E"/>
</g>
<defs>
<clipPath id="clip0_196_33658">
<rect width="176" height="194.033" fill="white"/>
</clipPath>
</defs>
</svg>
